%TF.GenerationSoftware,KiCad,Pcbnew,7.0.1*%
%TF.CreationDate,2023-04-26T12:17:49+02:00*%
%TF.ProjectId,L5988D_RPI_POWER_SUPPLY,4c353938-3844-45f5-9250-495f504f5745,rev?*%
%TF.SameCoordinates,Original*%
%TF.FileFunction,Legend,Bot*%
%TF.FilePolarity,Positive*%
%FSLAX46Y46*%
G04 Gerber Fmt 4.6, Leading zero omitted, Abs format (unit mm)*
G04 Created by KiCad (PCBNEW 7.0.1) date 2023-04-26 12:17:49*
%MOMM*%
%LPD*%
G01*
G04 APERTURE LIST*
%ADD10C,0.150000*%
%ADD11C,0.200000*%
%ADD12C,0.120000*%
G04 APERTURE END LIST*
D10*
X185537504Y-76347619D02*
X185537504Y-77157142D01*
X185537504Y-77157142D02*
X185489885Y-77252380D01*
X185489885Y-77252380D02*
X185442266Y-77300000D01*
X185442266Y-77300000D02*
X185347028Y-77347619D01*
X185347028Y-77347619D02*
X185156552Y-77347619D01*
X185156552Y-77347619D02*
X185061314Y-77300000D01*
X185061314Y-77300000D02*
X185013695Y-77252380D01*
X185013695Y-77252380D02*
X184966076Y-77157142D01*
X184966076Y-77157142D02*
X184966076Y-76347619D01*
X184537504Y-77300000D02*
X184394647Y-77347619D01*
X184394647Y-77347619D02*
X184156552Y-77347619D01*
X184156552Y-77347619D02*
X184061314Y-77300000D01*
X184061314Y-77300000D02*
X184013695Y-77252380D01*
X184013695Y-77252380D02*
X183966076Y-77157142D01*
X183966076Y-77157142D02*
X183966076Y-77061904D01*
X183966076Y-77061904D02*
X184013695Y-76966666D01*
X184013695Y-76966666D02*
X184061314Y-76919047D01*
X184061314Y-76919047D02*
X184156552Y-76871428D01*
X184156552Y-76871428D02*
X184347028Y-76823809D01*
X184347028Y-76823809D02*
X184442266Y-76776190D01*
X184442266Y-76776190D02*
X184489885Y-76728571D01*
X184489885Y-76728571D02*
X184537504Y-76633333D01*
X184537504Y-76633333D02*
X184537504Y-76538095D01*
X184537504Y-76538095D02*
X184489885Y-76442857D01*
X184489885Y-76442857D02*
X184442266Y-76395238D01*
X184442266Y-76395238D02*
X184347028Y-76347619D01*
X184347028Y-76347619D02*
X184108933Y-76347619D01*
X184108933Y-76347619D02*
X183966076Y-76395238D01*
X183204171Y-76823809D02*
X183061314Y-76871428D01*
X183061314Y-76871428D02*
X183013695Y-76919047D01*
X183013695Y-76919047D02*
X182966076Y-77014285D01*
X182966076Y-77014285D02*
X182966076Y-77157142D01*
X182966076Y-77157142D02*
X183013695Y-77252380D01*
X183013695Y-77252380D02*
X183061314Y-77300000D01*
X183061314Y-77300000D02*
X183156552Y-77347619D01*
X183156552Y-77347619D02*
X183537504Y-77347619D01*
X183537504Y-77347619D02*
X183537504Y-76347619D01*
X183537504Y-76347619D02*
X183204171Y-76347619D01*
X183204171Y-76347619D02*
X183108933Y-76395238D01*
X183108933Y-76395238D02*
X183061314Y-76442857D01*
X183061314Y-76442857D02*
X183013695Y-76538095D01*
X183013695Y-76538095D02*
X183013695Y-76633333D01*
X183013695Y-76633333D02*
X183061314Y-76728571D01*
X183061314Y-76728571D02*
X183108933Y-76776190D01*
X183108933Y-76776190D02*
X183204171Y-76823809D01*
X183204171Y-76823809D02*
X183537504Y-76823809D01*
X182537504Y-76966666D02*
X181775600Y-76966666D01*
X181347028Y-77061904D02*
X180870838Y-77061904D01*
X181442266Y-77347619D02*
X181108933Y-76347619D01*
X181108933Y-76347619D02*
X180775600Y-77347619D01*
X179918457Y-77347619D02*
X180489885Y-77347619D01*
X180204171Y-77347619D02*
X180204171Y-76347619D01*
X180204171Y-76347619D02*
X180299409Y-76490476D01*
X180299409Y-76490476D02*
X180394647Y-76585714D01*
X180394647Y-76585714D02*
X180489885Y-76633333D01*
X179489885Y-77347619D02*
X179489885Y-76347619D01*
X179489885Y-76823809D02*
X178918457Y-76823809D01*
X178918457Y-77347619D02*
X178918457Y-76347619D01*
X178489885Y-77300000D02*
X178347028Y-77347619D01*
X178347028Y-77347619D02*
X178108933Y-77347619D01*
X178108933Y-77347619D02*
X178013695Y-77300000D01*
X178013695Y-77300000D02*
X177966076Y-77252380D01*
X177966076Y-77252380D02*
X177918457Y-77157142D01*
X177918457Y-77157142D02*
X177918457Y-77061904D01*
X177918457Y-77061904D02*
X177966076Y-76966666D01*
X177966076Y-76966666D02*
X178013695Y-76919047D01*
X178013695Y-76919047D02*
X178108933Y-76871428D01*
X178108933Y-76871428D02*
X178299409Y-76823809D01*
X178299409Y-76823809D02*
X178394647Y-76776190D01*
X178394647Y-76776190D02*
X178442266Y-76728571D01*
X178442266Y-76728571D02*
X178489885Y-76633333D01*
X178489885Y-76633333D02*
X178489885Y-76538095D01*
X178489885Y-76538095D02*
X178442266Y-76442857D01*
X178442266Y-76442857D02*
X178394647Y-76395238D01*
X178394647Y-76395238D02*
X178299409Y-76347619D01*
X178299409Y-76347619D02*
X178061314Y-76347619D01*
X178061314Y-76347619D02*
X177918457Y-76395238D01*
X177585123Y-76347619D02*
X177347028Y-77347619D01*
X177347028Y-77347619D02*
X177156552Y-76633333D01*
X177156552Y-76633333D02*
X176966076Y-77347619D01*
X176966076Y-77347619D02*
X176727981Y-76347619D01*
X175918457Y-76347619D02*
X176108933Y-76347619D01*
X176108933Y-76347619D02*
X176204171Y-76395238D01*
X176204171Y-76395238D02*
X176251790Y-76442857D01*
X176251790Y-76442857D02*
X176347028Y-76585714D01*
X176347028Y-76585714D02*
X176394647Y-76776190D01*
X176394647Y-76776190D02*
X176394647Y-77157142D01*
X176394647Y-77157142D02*
X176347028Y-77252380D01*
X176347028Y-77252380D02*
X176299409Y-77300000D01*
X176299409Y-77300000D02*
X176204171Y-77347619D01*
X176204171Y-77347619D02*
X176013695Y-77347619D01*
X176013695Y-77347619D02*
X175918457Y-77300000D01*
X175918457Y-77300000D02*
X175870838Y-77252380D01*
X175870838Y-77252380D02*
X175823219Y-77157142D01*
X175823219Y-77157142D02*
X175823219Y-76919047D01*
X175823219Y-76919047D02*
X175870838Y-76823809D01*
X175870838Y-76823809D02*
X175918457Y-76776190D01*
X175918457Y-76776190D02*
X176013695Y-76728571D01*
X176013695Y-76728571D02*
X176204171Y-76728571D01*
X176204171Y-76728571D02*
X176299409Y-76776190D01*
X176299409Y-76776190D02*
X176347028Y-76823809D01*
X176347028Y-76823809D02*
X176394647Y-76919047D01*
X170380114Y-77296819D02*
X170856304Y-77296819D01*
X170856304Y-77296819D02*
X170856304Y-76296819D01*
X169570590Y-76296819D02*
X170046780Y-76296819D01*
X170046780Y-76296819D02*
X170094399Y-76773009D01*
X170094399Y-76773009D02*
X170046780Y-76725390D01*
X170046780Y-76725390D02*
X169951542Y-76677771D01*
X169951542Y-76677771D02*
X169713447Y-76677771D01*
X169713447Y-76677771D02*
X169618209Y-76725390D01*
X169618209Y-76725390D02*
X169570590Y-76773009D01*
X169570590Y-76773009D02*
X169522971Y-76868247D01*
X169522971Y-76868247D02*
X169522971Y-77106342D01*
X169522971Y-77106342D02*
X169570590Y-77201580D01*
X169570590Y-77201580D02*
X169618209Y-77249200D01*
X169618209Y-77249200D02*
X169713447Y-77296819D01*
X169713447Y-77296819D02*
X169951542Y-77296819D01*
X169951542Y-77296819D02*
X170046780Y-77249200D01*
X170046780Y-77249200D02*
X170094399Y-77201580D01*
X169046780Y-77296819D02*
X168856304Y-77296819D01*
X168856304Y-77296819D02*
X168761066Y-77249200D01*
X168761066Y-77249200D02*
X168713447Y-77201580D01*
X168713447Y-77201580D02*
X168618209Y-77058723D01*
X168618209Y-77058723D02*
X168570590Y-76868247D01*
X168570590Y-76868247D02*
X168570590Y-76487295D01*
X168570590Y-76487295D02*
X168618209Y-76392057D01*
X168618209Y-76392057D02*
X168665828Y-76344438D01*
X168665828Y-76344438D02*
X168761066Y-76296819D01*
X168761066Y-76296819D02*
X168951542Y-76296819D01*
X168951542Y-76296819D02*
X169046780Y-76344438D01*
X169046780Y-76344438D02*
X169094399Y-76392057D01*
X169094399Y-76392057D02*
X169142018Y-76487295D01*
X169142018Y-76487295D02*
X169142018Y-76725390D01*
X169142018Y-76725390D02*
X169094399Y-76820628D01*
X169094399Y-76820628D02*
X169046780Y-76868247D01*
X169046780Y-76868247D02*
X168951542Y-76915866D01*
X168951542Y-76915866D02*
X168761066Y-76915866D01*
X168761066Y-76915866D02*
X168665828Y-76868247D01*
X168665828Y-76868247D02*
X168618209Y-76820628D01*
X168618209Y-76820628D02*
X168570590Y-76725390D01*
X167999161Y-76725390D02*
X168094399Y-76677771D01*
X168094399Y-76677771D02*
X168142018Y-76630152D01*
X168142018Y-76630152D02*
X168189637Y-76534914D01*
X168189637Y-76534914D02*
X168189637Y-76487295D01*
X168189637Y-76487295D02*
X168142018Y-76392057D01*
X168142018Y-76392057D02*
X168094399Y-76344438D01*
X168094399Y-76344438D02*
X167999161Y-76296819D01*
X167999161Y-76296819D02*
X167808685Y-76296819D01*
X167808685Y-76296819D02*
X167713447Y-76344438D01*
X167713447Y-76344438D02*
X167665828Y-76392057D01*
X167665828Y-76392057D02*
X167618209Y-76487295D01*
X167618209Y-76487295D02*
X167618209Y-76534914D01*
X167618209Y-76534914D02*
X167665828Y-76630152D01*
X167665828Y-76630152D02*
X167713447Y-76677771D01*
X167713447Y-76677771D02*
X167808685Y-76725390D01*
X167808685Y-76725390D02*
X167999161Y-76725390D01*
X167999161Y-76725390D02*
X168094399Y-76773009D01*
X168094399Y-76773009D02*
X168142018Y-76820628D01*
X168142018Y-76820628D02*
X168189637Y-76915866D01*
X168189637Y-76915866D02*
X168189637Y-77106342D01*
X168189637Y-77106342D02*
X168142018Y-77201580D01*
X168142018Y-77201580D02*
X168094399Y-77249200D01*
X168094399Y-77249200D02*
X167999161Y-77296819D01*
X167999161Y-77296819D02*
X167808685Y-77296819D01*
X167808685Y-77296819D02*
X167713447Y-77249200D01*
X167713447Y-77249200D02*
X167665828Y-77201580D01*
X167665828Y-77201580D02*
X167618209Y-77106342D01*
X167618209Y-77106342D02*
X167618209Y-76915866D01*
X167618209Y-76915866D02*
X167665828Y-76820628D01*
X167665828Y-76820628D02*
X167713447Y-76773009D01*
X167713447Y-76773009D02*
X167808685Y-76725390D01*
X167046780Y-76725390D02*
X167142018Y-76677771D01*
X167142018Y-76677771D02*
X167189637Y-76630152D01*
X167189637Y-76630152D02*
X167237256Y-76534914D01*
X167237256Y-76534914D02*
X167237256Y-76487295D01*
X167237256Y-76487295D02*
X167189637Y-76392057D01*
X167189637Y-76392057D02*
X167142018Y-76344438D01*
X167142018Y-76344438D02*
X167046780Y-76296819D01*
X167046780Y-76296819D02*
X166856304Y-76296819D01*
X166856304Y-76296819D02*
X166761066Y-76344438D01*
X166761066Y-76344438D02*
X166713447Y-76392057D01*
X166713447Y-76392057D02*
X166665828Y-76487295D01*
X166665828Y-76487295D02*
X166665828Y-76534914D01*
X166665828Y-76534914D02*
X166713447Y-76630152D01*
X166713447Y-76630152D02*
X166761066Y-76677771D01*
X166761066Y-76677771D02*
X166856304Y-76725390D01*
X166856304Y-76725390D02*
X167046780Y-76725390D01*
X167046780Y-76725390D02*
X167142018Y-76773009D01*
X167142018Y-76773009D02*
X167189637Y-76820628D01*
X167189637Y-76820628D02*
X167237256Y-76915866D01*
X167237256Y-76915866D02*
X167237256Y-77106342D01*
X167237256Y-77106342D02*
X167189637Y-77201580D01*
X167189637Y-77201580D02*
X167142018Y-77249200D01*
X167142018Y-77249200D02*
X167046780Y-77296819D01*
X167046780Y-77296819D02*
X166856304Y-77296819D01*
X166856304Y-77296819D02*
X166761066Y-77249200D01*
X166761066Y-77249200D02*
X166713447Y-77201580D01*
X166713447Y-77201580D02*
X166665828Y-77106342D01*
X166665828Y-77106342D02*
X166665828Y-76915866D01*
X166665828Y-76915866D02*
X166713447Y-76820628D01*
X166713447Y-76820628D02*
X166761066Y-76773009D01*
X166761066Y-76773009D02*
X166856304Y-76725390D01*
X166237256Y-77296819D02*
X166237256Y-76296819D01*
X166237256Y-76296819D02*
X165999161Y-76296819D01*
X165999161Y-76296819D02*
X165856304Y-76344438D01*
X165856304Y-76344438D02*
X165761066Y-76439676D01*
X165761066Y-76439676D02*
X165713447Y-76534914D01*
X165713447Y-76534914D02*
X165665828Y-76725390D01*
X165665828Y-76725390D02*
X165665828Y-76868247D01*
X165665828Y-76868247D02*
X165713447Y-77058723D01*
X165713447Y-77058723D02*
X165761066Y-77153961D01*
X165761066Y-77153961D02*
X165856304Y-77249200D01*
X165856304Y-77249200D02*
X165999161Y-77296819D01*
X165999161Y-77296819D02*
X166237256Y-77296819D01*
X164618208Y-76296819D02*
X164284875Y-77296819D01*
X164284875Y-77296819D02*
X163951542Y-76296819D01*
X163094399Y-77296819D02*
X163665827Y-77296819D01*
X163380113Y-77296819D02*
X163380113Y-76296819D01*
X163380113Y-76296819D02*
X163475351Y-76439676D01*
X163475351Y-76439676D02*
X163570589Y-76534914D01*
X163570589Y-76534914D02*
X163665827Y-76582533D01*
X170700780Y-78610704D02*
X170738876Y-78648800D01*
X170738876Y-78648800D02*
X170853161Y-78686895D01*
X170853161Y-78686895D02*
X170929352Y-78686895D01*
X170929352Y-78686895D02*
X171043638Y-78648800D01*
X171043638Y-78648800D02*
X171119828Y-78572609D01*
X171119828Y-78572609D02*
X171157923Y-78496419D01*
X171157923Y-78496419D02*
X171196019Y-78344038D01*
X171196019Y-78344038D02*
X171196019Y-78229752D01*
X171196019Y-78229752D02*
X171157923Y-78077371D01*
X171157923Y-78077371D02*
X171119828Y-78001180D01*
X171119828Y-78001180D02*
X171043638Y-77924990D01*
X171043638Y-77924990D02*
X170929352Y-77886895D01*
X170929352Y-77886895D02*
X170853161Y-77886895D01*
X170853161Y-77886895D02*
X170738876Y-77924990D01*
X170738876Y-77924990D02*
X170700780Y-77963085D01*
X170243638Y-78686895D02*
X170319828Y-78648800D01*
X170319828Y-78648800D02*
X170357923Y-78610704D01*
X170357923Y-78610704D02*
X170396019Y-78534514D01*
X170396019Y-78534514D02*
X170396019Y-78305942D01*
X170396019Y-78305942D02*
X170357923Y-78229752D01*
X170357923Y-78229752D02*
X170319828Y-78191657D01*
X170319828Y-78191657D02*
X170243638Y-78153561D01*
X170243638Y-78153561D02*
X170129352Y-78153561D01*
X170129352Y-78153561D02*
X170053161Y-78191657D01*
X170053161Y-78191657D02*
X170015066Y-78229752D01*
X170015066Y-78229752D02*
X169976971Y-78305942D01*
X169976971Y-78305942D02*
X169976971Y-78534514D01*
X169976971Y-78534514D02*
X170015066Y-78610704D01*
X170015066Y-78610704D02*
X170053161Y-78648800D01*
X170053161Y-78648800D02*
X170129352Y-78686895D01*
X170129352Y-78686895D02*
X170243638Y-78686895D01*
X169291256Y-78153561D02*
X169291256Y-78686895D01*
X169634113Y-78153561D02*
X169634113Y-78572609D01*
X169634113Y-78572609D02*
X169596018Y-78648800D01*
X169596018Y-78648800D02*
X169519828Y-78686895D01*
X169519828Y-78686895D02*
X169405542Y-78686895D01*
X169405542Y-78686895D02*
X169329351Y-78648800D01*
X169329351Y-78648800D02*
X169291256Y-78610704D01*
X169024589Y-78153561D02*
X168719827Y-78153561D01*
X168910303Y-77886895D02*
X168910303Y-78572609D01*
X168910303Y-78572609D02*
X168872208Y-78648800D01*
X168872208Y-78648800D02*
X168796018Y-78686895D01*
X168796018Y-78686895D02*
X168719827Y-78686895D01*
X164986496Y-77963085D02*
X164948400Y-77924990D01*
X164948400Y-77924990D02*
X164872210Y-77886895D01*
X164872210Y-77886895D02*
X164681734Y-77886895D01*
X164681734Y-77886895D02*
X164605543Y-77924990D01*
X164605543Y-77924990D02*
X164567448Y-77963085D01*
X164567448Y-77963085D02*
X164529353Y-78039276D01*
X164529353Y-78039276D02*
X164529353Y-78115466D01*
X164529353Y-78115466D02*
X164567448Y-78229752D01*
X164567448Y-78229752D02*
X165024591Y-78686895D01*
X165024591Y-78686895D02*
X164529353Y-78686895D01*
X164224591Y-77963085D02*
X164186495Y-77924990D01*
X164186495Y-77924990D02*
X164110305Y-77886895D01*
X164110305Y-77886895D02*
X163919829Y-77886895D01*
X163919829Y-77886895D02*
X163843638Y-77924990D01*
X163843638Y-77924990D02*
X163805543Y-77963085D01*
X163805543Y-77963085D02*
X163767448Y-78039276D01*
X163767448Y-78039276D02*
X163767448Y-78115466D01*
X163767448Y-78115466D02*
X163805543Y-78229752D01*
X163805543Y-78229752D02*
X164262686Y-78686895D01*
X164262686Y-78686895D02*
X163767448Y-78686895D01*
X163424590Y-78153561D02*
X163424590Y-78953561D01*
X163043638Y-78572609D02*
X163005543Y-78648800D01*
X163005543Y-78648800D02*
X162929352Y-78686895D01*
X163424590Y-78572609D02*
X163386495Y-78648800D01*
X163386495Y-78648800D02*
X163310305Y-78686895D01*
X163310305Y-78686895D02*
X163157924Y-78686895D01*
X163157924Y-78686895D02*
X163081733Y-78648800D01*
X163081733Y-78648800D02*
X163043638Y-78572609D01*
X163043638Y-78572609D02*
X163043638Y-78153561D01*
X162319829Y-78267847D02*
X162586495Y-78267847D01*
X162586495Y-78686895D02*
X162586495Y-77886895D01*
X162586495Y-77886895D02*
X162205543Y-77886895D01*
X158129353Y-78686895D02*
X158586496Y-78686895D01*
X158357924Y-78686895D02*
X158357924Y-77886895D01*
X158357924Y-77886895D02*
X158434115Y-78001180D01*
X158434115Y-78001180D02*
X158510305Y-78077371D01*
X158510305Y-78077371D02*
X158586496Y-78115466D01*
X157824591Y-77963085D02*
X157786495Y-77924990D01*
X157786495Y-77924990D02*
X157710305Y-77886895D01*
X157710305Y-77886895D02*
X157519829Y-77886895D01*
X157519829Y-77886895D02*
X157443638Y-77924990D01*
X157443638Y-77924990D02*
X157405543Y-77963085D01*
X157405543Y-77963085D02*
X157367448Y-78039276D01*
X157367448Y-78039276D02*
X157367448Y-78115466D01*
X157367448Y-78115466D02*
X157405543Y-78229752D01*
X157405543Y-78229752D02*
X157862686Y-78686895D01*
X157862686Y-78686895D02*
X157367448Y-78686895D01*
X156872209Y-77886895D02*
X156796019Y-77886895D01*
X156796019Y-77886895D02*
X156719828Y-77924990D01*
X156719828Y-77924990D02*
X156681733Y-77963085D01*
X156681733Y-77963085D02*
X156643638Y-78039276D01*
X156643638Y-78039276D02*
X156605543Y-78191657D01*
X156605543Y-78191657D02*
X156605543Y-78382133D01*
X156605543Y-78382133D02*
X156643638Y-78534514D01*
X156643638Y-78534514D02*
X156681733Y-78610704D01*
X156681733Y-78610704D02*
X156719828Y-78648800D01*
X156719828Y-78648800D02*
X156796019Y-78686895D01*
X156796019Y-78686895D02*
X156872209Y-78686895D01*
X156872209Y-78686895D02*
X156948400Y-78648800D01*
X156948400Y-78648800D02*
X156986495Y-78610704D01*
X156986495Y-78610704D02*
X157024590Y-78534514D01*
X157024590Y-78534514D02*
X157062686Y-78382133D01*
X157062686Y-78382133D02*
X157062686Y-78191657D01*
X157062686Y-78191657D02*
X157024590Y-78039276D01*
X157024590Y-78039276D02*
X156986495Y-77963085D01*
X156986495Y-77963085D02*
X156948400Y-77924990D01*
X156948400Y-77924990D02*
X156872209Y-77886895D01*
X155919828Y-77886895D02*
X156072209Y-77886895D01*
X156072209Y-77886895D02*
X156148400Y-77924990D01*
X156148400Y-77924990D02*
X156186495Y-77963085D01*
X156186495Y-77963085D02*
X156262685Y-78077371D01*
X156262685Y-78077371D02*
X156300781Y-78229752D01*
X156300781Y-78229752D02*
X156300781Y-78534514D01*
X156300781Y-78534514D02*
X156262685Y-78610704D01*
X156262685Y-78610704D02*
X156224590Y-78648800D01*
X156224590Y-78648800D02*
X156148400Y-78686895D01*
X156148400Y-78686895D02*
X155996019Y-78686895D01*
X155996019Y-78686895D02*
X155919828Y-78648800D01*
X155919828Y-78648800D02*
X155881733Y-78610704D01*
X155881733Y-78610704D02*
X155843638Y-78534514D01*
X155843638Y-78534514D02*
X155843638Y-78344038D01*
X155843638Y-78344038D02*
X155881733Y-78267847D01*
X155881733Y-78267847D02*
X155919828Y-78229752D01*
X155919828Y-78229752D02*
X155996019Y-78191657D01*
X155996019Y-78191657D02*
X156148400Y-78191657D01*
X156148400Y-78191657D02*
X156224590Y-78229752D01*
X156224590Y-78229752D02*
X156262685Y-78267847D01*
X156262685Y-78267847D02*
X156300781Y-78344038D01*
X170700780Y-79906704D02*
X170738876Y-79944800D01*
X170738876Y-79944800D02*
X170853161Y-79982895D01*
X170853161Y-79982895D02*
X170929352Y-79982895D01*
X170929352Y-79982895D02*
X171043638Y-79944800D01*
X171043638Y-79944800D02*
X171119828Y-79868609D01*
X171119828Y-79868609D02*
X171157923Y-79792419D01*
X171157923Y-79792419D02*
X171196019Y-79640038D01*
X171196019Y-79640038D02*
X171196019Y-79525752D01*
X171196019Y-79525752D02*
X171157923Y-79373371D01*
X171157923Y-79373371D02*
X171119828Y-79297180D01*
X171119828Y-79297180D02*
X171043638Y-79220990D01*
X171043638Y-79220990D02*
X170929352Y-79182895D01*
X170929352Y-79182895D02*
X170853161Y-79182895D01*
X170853161Y-79182895D02*
X170738876Y-79220990D01*
X170738876Y-79220990D02*
X170700780Y-79259085D01*
X170357923Y-79449561D02*
X170357923Y-80249561D01*
X170357923Y-79487657D02*
X170281733Y-79449561D01*
X170281733Y-79449561D02*
X170129352Y-79449561D01*
X170129352Y-79449561D02*
X170053161Y-79487657D01*
X170053161Y-79487657D02*
X170015066Y-79525752D01*
X170015066Y-79525752D02*
X169976971Y-79601942D01*
X169976971Y-79601942D02*
X169976971Y-79830514D01*
X169976971Y-79830514D02*
X170015066Y-79906704D01*
X170015066Y-79906704D02*
X170053161Y-79944800D01*
X170053161Y-79944800D02*
X170129352Y-79982895D01*
X170129352Y-79982895D02*
X170281733Y-79982895D01*
X170281733Y-79982895D02*
X170357923Y-79944800D01*
X169215066Y-79982895D02*
X169672209Y-79982895D01*
X169443637Y-79982895D02*
X169443637Y-79182895D01*
X169443637Y-79182895D02*
X169519828Y-79297180D01*
X169519828Y-79297180D02*
X169596018Y-79373371D01*
X169596018Y-79373371D02*
X169672209Y-79411466D01*
X164605543Y-79182895D02*
X164757924Y-79182895D01*
X164757924Y-79182895D02*
X164834115Y-79220990D01*
X164834115Y-79220990D02*
X164872210Y-79259085D01*
X164872210Y-79259085D02*
X164948400Y-79373371D01*
X164948400Y-79373371D02*
X164986496Y-79525752D01*
X164986496Y-79525752D02*
X164986496Y-79830514D01*
X164986496Y-79830514D02*
X164948400Y-79906704D01*
X164948400Y-79906704D02*
X164910305Y-79944800D01*
X164910305Y-79944800D02*
X164834115Y-79982895D01*
X164834115Y-79982895D02*
X164681734Y-79982895D01*
X164681734Y-79982895D02*
X164605543Y-79944800D01*
X164605543Y-79944800D02*
X164567448Y-79906704D01*
X164567448Y-79906704D02*
X164529353Y-79830514D01*
X164529353Y-79830514D02*
X164529353Y-79640038D01*
X164529353Y-79640038D02*
X164567448Y-79563847D01*
X164567448Y-79563847D02*
X164605543Y-79525752D01*
X164605543Y-79525752D02*
X164681734Y-79487657D01*
X164681734Y-79487657D02*
X164834115Y-79487657D01*
X164834115Y-79487657D02*
X164910305Y-79525752D01*
X164910305Y-79525752D02*
X164948400Y-79563847D01*
X164948400Y-79563847D02*
X164986496Y-79640038D01*
X164072210Y-79525752D02*
X164148400Y-79487657D01*
X164148400Y-79487657D02*
X164186495Y-79449561D01*
X164186495Y-79449561D02*
X164224591Y-79373371D01*
X164224591Y-79373371D02*
X164224591Y-79335276D01*
X164224591Y-79335276D02*
X164186495Y-79259085D01*
X164186495Y-79259085D02*
X164148400Y-79220990D01*
X164148400Y-79220990D02*
X164072210Y-79182895D01*
X164072210Y-79182895D02*
X163919829Y-79182895D01*
X163919829Y-79182895D02*
X163843638Y-79220990D01*
X163843638Y-79220990D02*
X163805543Y-79259085D01*
X163805543Y-79259085D02*
X163767448Y-79335276D01*
X163767448Y-79335276D02*
X163767448Y-79373371D01*
X163767448Y-79373371D02*
X163805543Y-79449561D01*
X163805543Y-79449561D02*
X163843638Y-79487657D01*
X163843638Y-79487657D02*
X163919829Y-79525752D01*
X163919829Y-79525752D02*
X164072210Y-79525752D01*
X164072210Y-79525752D02*
X164148400Y-79563847D01*
X164148400Y-79563847D02*
X164186495Y-79601942D01*
X164186495Y-79601942D02*
X164224591Y-79678133D01*
X164224591Y-79678133D02*
X164224591Y-79830514D01*
X164224591Y-79830514D02*
X164186495Y-79906704D01*
X164186495Y-79906704D02*
X164148400Y-79944800D01*
X164148400Y-79944800D02*
X164072210Y-79982895D01*
X164072210Y-79982895D02*
X163919829Y-79982895D01*
X163919829Y-79982895D02*
X163843638Y-79944800D01*
X163843638Y-79944800D02*
X163805543Y-79906704D01*
X163805543Y-79906704D02*
X163767448Y-79830514D01*
X163767448Y-79830514D02*
X163767448Y-79678133D01*
X163767448Y-79678133D02*
X163805543Y-79601942D01*
X163805543Y-79601942D02*
X163843638Y-79563847D01*
X163843638Y-79563847D02*
X163919829Y-79525752D01*
X163424590Y-79449561D02*
X163424590Y-80249561D01*
X163424590Y-79487657D02*
X163348400Y-79449561D01*
X163348400Y-79449561D02*
X163196019Y-79449561D01*
X163196019Y-79449561D02*
X163119828Y-79487657D01*
X163119828Y-79487657D02*
X163081733Y-79525752D01*
X163081733Y-79525752D02*
X163043638Y-79601942D01*
X163043638Y-79601942D02*
X163043638Y-79830514D01*
X163043638Y-79830514D02*
X163081733Y-79906704D01*
X163081733Y-79906704D02*
X163119828Y-79944800D01*
X163119828Y-79944800D02*
X163196019Y-79982895D01*
X163196019Y-79982895D02*
X163348400Y-79982895D01*
X163348400Y-79982895D02*
X163424590Y-79944800D01*
X162434114Y-79563847D02*
X162700780Y-79563847D01*
X162700780Y-79982895D02*
X162700780Y-79182895D01*
X162700780Y-79182895D02*
X162319828Y-79182895D01*
X158434115Y-79525752D02*
X158510305Y-79487657D01*
X158510305Y-79487657D02*
X158548400Y-79449561D01*
X158548400Y-79449561D02*
X158586496Y-79373371D01*
X158586496Y-79373371D02*
X158586496Y-79335276D01*
X158586496Y-79335276D02*
X158548400Y-79259085D01*
X158548400Y-79259085D02*
X158510305Y-79220990D01*
X158510305Y-79220990D02*
X158434115Y-79182895D01*
X158434115Y-79182895D02*
X158281734Y-79182895D01*
X158281734Y-79182895D02*
X158205543Y-79220990D01*
X158205543Y-79220990D02*
X158167448Y-79259085D01*
X158167448Y-79259085D02*
X158129353Y-79335276D01*
X158129353Y-79335276D02*
X158129353Y-79373371D01*
X158129353Y-79373371D02*
X158167448Y-79449561D01*
X158167448Y-79449561D02*
X158205543Y-79487657D01*
X158205543Y-79487657D02*
X158281734Y-79525752D01*
X158281734Y-79525752D02*
X158434115Y-79525752D01*
X158434115Y-79525752D02*
X158510305Y-79563847D01*
X158510305Y-79563847D02*
X158548400Y-79601942D01*
X158548400Y-79601942D02*
X158586496Y-79678133D01*
X158586496Y-79678133D02*
X158586496Y-79830514D01*
X158586496Y-79830514D02*
X158548400Y-79906704D01*
X158548400Y-79906704D02*
X158510305Y-79944800D01*
X158510305Y-79944800D02*
X158434115Y-79982895D01*
X158434115Y-79982895D02*
X158281734Y-79982895D01*
X158281734Y-79982895D02*
X158205543Y-79944800D01*
X158205543Y-79944800D02*
X158167448Y-79906704D01*
X158167448Y-79906704D02*
X158129353Y-79830514D01*
X158129353Y-79830514D02*
X158129353Y-79678133D01*
X158129353Y-79678133D02*
X158167448Y-79601942D01*
X158167448Y-79601942D02*
X158205543Y-79563847D01*
X158205543Y-79563847D02*
X158281734Y-79525752D01*
X157634114Y-79182895D02*
X157557924Y-79182895D01*
X157557924Y-79182895D02*
X157481733Y-79220990D01*
X157481733Y-79220990D02*
X157443638Y-79259085D01*
X157443638Y-79259085D02*
X157405543Y-79335276D01*
X157405543Y-79335276D02*
X157367448Y-79487657D01*
X157367448Y-79487657D02*
X157367448Y-79678133D01*
X157367448Y-79678133D02*
X157405543Y-79830514D01*
X157405543Y-79830514D02*
X157443638Y-79906704D01*
X157443638Y-79906704D02*
X157481733Y-79944800D01*
X157481733Y-79944800D02*
X157557924Y-79982895D01*
X157557924Y-79982895D02*
X157634114Y-79982895D01*
X157634114Y-79982895D02*
X157710305Y-79944800D01*
X157710305Y-79944800D02*
X157748400Y-79906704D01*
X157748400Y-79906704D02*
X157786495Y-79830514D01*
X157786495Y-79830514D02*
X157824591Y-79678133D01*
X157824591Y-79678133D02*
X157824591Y-79487657D01*
X157824591Y-79487657D02*
X157786495Y-79335276D01*
X157786495Y-79335276D02*
X157748400Y-79259085D01*
X157748400Y-79259085D02*
X157710305Y-79220990D01*
X157710305Y-79220990D02*
X157634114Y-79182895D01*
X156643638Y-79182895D02*
X157024590Y-79182895D01*
X157024590Y-79182895D02*
X157062686Y-79563847D01*
X157062686Y-79563847D02*
X157024590Y-79525752D01*
X157024590Y-79525752D02*
X156948400Y-79487657D01*
X156948400Y-79487657D02*
X156757924Y-79487657D01*
X156757924Y-79487657D02*
X156681733Y-79525752D01*
X156681733Y-79525752D02*
X156643638Y-79563847D01*
X156643638Y-79563847D02*
X156605543Y-79640038D01*
X156605543Y-79640038D02*
X156605543Y-79830514D01*
X156605543Y-79830514D02*
X156643638Y-79906704D01*
X156643638Y-79906704D02*
X156681733Y-79944800D01*
X156681733Y-79944800D02*
X156757924Y-79982895D01*
X156757924Y-79982895D02*
X156948400Y-79982895D01*
X156948400Y-79982895D02*
X157024590Y-79944800D01*
X157024590Y-79944800D02*
X157062686Y-79906704D01*
X170700780Y-81202704D02*
X170738876Y-81240800D01*
X170738876Y-81240800D02*
X170853161Y-81278895D01*
X170853161Y-81278895D02*
X170929352Y-81278895D01*
X170929352Y-81278895D02*
X171043638Y-81240800D01*
X171043638Y-81240800D02*
X171119828Y-81164609D01*
X171119828Y-81164609D02*
X171157923Y-81088419D01*
X171157923Y-81088419D02*
X171196019Y-80936038D01*
X171196019Y-80936038D02*
X171196019Y-80821752D01*
X171196019Y-80821752D02*
X171157923Y-80669371D01*
X171157923Y-80669371D02*
X171119828Y-80593180D01*
X171119828Y-80593180D02*
X171043638Y-80516990D01*
X171043638Y-80516990D02*
X170929352Y-80478895D01*
X170929352Y-80478895D02*
X170853161Y-80478895D01*
X170853161Y-80478895D02*
X170738876Y-80516990D01*
X170738876Y-80516990D02*
X170700780Y-80555085D01*
X170015066Y-81240800D02*
X170091257Y-81278895D01*
X170091257Y-81278895D02*
X170243638Y-81278895D01*
X170243638Y-81278895D02*
X170319828Y-81240800D01*
X170319828Y-81240800D02*
X170357923Y-81202704D01*
X170357923Y-81202704D02*
X170396019Y-81126514D01*
X170396019Y-81126514D02*
X170396019Y-80897942D01*
X170396019Y-80897942D02*
X170357923Y-80821752D01*
X170357923Y-80821752D02*
X170319828Y-80783657D01*
X170319828Y-80783657D02*
X170243638Y-80745561D01*
X170243638Y-80745561D02*
X170091257Y-80745561D01*
X170091257Y-80745561D02*
X170015066Y-80783657D01*
X169253162Y-81278895D02*
X169710305Y-81278895D01*
X169481733Y-81278895D02*
X169481733Y-80478895D01*
X169481733Y-80478895D02*
X169557924Y-80593180D01*
X169557924Y-80593180D02*
X169634114Y-80669371D01*
X169634114Y-80669371D02*
X169710305Y-80707466D01*
X165024591Y-80478895D02*
X164529353Y-80478895D01*
X164529353Y-80478895D02*
X164796019Y-80783657D01*
X164796019Y-80783657D02*
X164681734Y-80783657D01*
X164681734Y-80783657D02*
X164605543Y-80821752D01*
X164605543Y-80821752D02*
X164567448Y-80859847D01*
X164567448Y-80859847D02*
X164529353Y-80936038D01*
X164529353Y-80936038D02*
X164529353Y-81126514D01*
X164529353Y-81126514D02*
X164567448Y-81202704D01*
X164567448Y-81202704D02*
X164605543Y-81240800D01*
X164605543Y-81240800D02*
X164681734Y-81278895D01*
X164681734Y-81278895D02*
X164910305Y-81278895D01*
X164910305Y-81278895D02*
X164986496Y-81240800D01*
X164986496Y-81240800D02*
X165024591Y-81202704D01*
X164262686Y-80478895D02*
X163767448Y-80478895D01*
X163767448Y-80478895D02*
X164034114Y-80783657D01*
X164034114Y-80783657D02*
X163919829Y-80783657D01*
X163919829Y-80783657D02*
X163843638Y-80821752D01*
X163843638Y-80821752D02*
X163805543Y-80859847D01*
X163805543Y-80859847D02*
X163767448Y-80936038D01*
X163767448Y-80936038D02*
X163767448Y-81126514D01*
X163767448Y-81126514D02*
X163805543Y-81202704D01*
X163805543Y-81202704D02*
X163843638Y-81240800D01*
X163843638Y-81240800D02*
X163919829Y-81278895D01*
X163919829Y-81278895D02*
X164148400Y-81278895D01*
X164148400Y-81278895D02*
X164224591Y-81240800D01*
X164224591Y-81240800D02*
X164262686Y-81202704D01*
X163424590Y-80745561D02*
X163424590Y-81278895D01*
X163424590Y-80821752D02*
X163386495Y-80783657D01*
X163386495Y-80783657D02*
X163310305Y-80745561D01*
X163310305Y-80745561D02*
X163196019Y-80745561D01*
X163196019Y-80745561D02*
X163119828Y-80783657D01*
X163119828Y-80783657D02*
X163081733Y-80859847D01*
X163081733Y-80859847D02*
X163081733Y-81278895D01*
X162434114Y-80859847D02*
X162700780Y-80859847D01*
X162700780Y-81278895D02*
X162700780Y-80478895D01*
X162700780Y-80478895D02*
X162319828Y-80478895D01*
X158434115Y-80821752D02*
X158510305Y-80783657D01*
X158510305Y-80783657D02*
X158548400Y-80745561D01*
X158548400Y-80745561D02*
X158586496Y-80669371D01*
X158586496Y-80669371D02*
X158586496Y-80631276D01*
X158586496Y-80631276D02*
X158548400Y-80555085D01*
X158548400Y-80555085D02*
X158510305Y-80516990D01*
X158510305Y-80516990D02*
X158434115Y-80478895D01*
X158434115Y-80478895D02*
X158281734Y-80478895D01*
X158281734Y-80478895D02*
X158205543Y-80516990D01*
X158205543Y-80516990D02*
X158167448Y-80555085D01*
X158167448Y-80555085D02*
X158129353Y-80631276D01*
X158129353Y-80631276D02*
X158129353Y-80669371D01*
X158129353Y-80669371D02*
X158167448Y-80745561D01*
X158167448Y-80745561D02*
X158205543Y-80783657D01*
X158205543Y-80783657D02*
X158281734Y-80821752D01*
X158281734Y-80821752D02*
X158434115Y-80821752D01*
X158434115Y-80821752D02*
X158510305Y-80859847D01*
X158510305Y-80859847D02*
X158548400Y-80897942D01*
X158548400Y-80897942D02*
X158586496Y-80974133D01*
X158586496Y-80974133D02*
X158586496Y-81126514D01*
X158586496Y-81126514D02*
X158548400Y-81202704D01*
X158548400Y-81202704D02*
X158510305Y-81240800D01*
X158510305Y-81240800D02*
X158434115Y-81278895D01*
X158434115Y-81278895D02*
X158281734Y-81278895D01*
X158281734Y-81278895D02*
X158205543Y-81240800D01*
X158205543Y-81240800D02*
X158167448Y-81202704D01*
X158167448Y-81202704D02*
X158129353Y-81126514D01*
X158129353Y-81126514D02*
X158129353Y-80974133D01*
X158129353Y-80974133D02*
X158167448Y-80897942D01*
X158167448Y-80897942D02*
X158205543Y-80859847D01*
X158205543Y-80859847D02*
X158281734Y-80821752D01*
X157634114Y-80478895D02*
X157557924Y-80478895D01*
X157557924Y-80478895D02*
X157481733Y-80516990D01*
X157481733Y-80516990D02*
X157443638Y-80555085D01*
X157443638Y-80555085D02*
X157405543Y-80631276D01*
X157405543Y-80631276D02*
X157367448Y-80783657D01*
X157367448Y-80783657D02*
X157367448Y-80974133D01*
X157367448Y-80974133D02*
X157405543Y-81126514D01*
X157405543Y-81126514D02*
X157443638Y-81202704D01*
X157443638Y-81202704D02*
X157481733Y-81240800D01*
X157481733Y-81240800D02*
X157557924Y-81278895D01*
X157557924Y-81278895D02*
X157634114Y-81278895D01*
X157634114Y-81278895D02*
X157710305Y-81240800D01*
X157710305Y-81240800D02*
X157748400Y-81202704D01*
X157748400Y-81202704D02*
X157786495Y-81126514D01*
X157786495Y-81126514D02*
X157824591Y-80974133D01*
X157824591Y-80974133D02*
X157824591Y-80783657D01*
X157824591Y-80783657D02*
X157786495Y-80631276D01*
X157786495Y-80631276D02*
X157748400Y-80555085D01*
X157748400Y-80555085D02*
X157710305Y-80516990D01*
X157710305Y-80516990D02*
X157634114Y-80478895D01*
X156643638Y-80478895D02*
X157024590Y-80478895D01*
X157024590Y-80478895D02*
X157062686Y-80859847D01*
X157062686Y-80859847D02*
X157024590Y-80821752D01*
X157024590Y-80821752D02*
X156948400Y-80783657D01*
X156948400Y-80783657D02*
X156757924Y-80783657D01*
X156757924Y-80783657D02*
X156681733Y-80821752D01*
X156681733Y-80821752D02*
X156643638Y-80859847D01*
X156643638Y-80859847D02*
X156605543Y-80936038D01*
X156605543Y-80936038D02*
X156605543Y-81126514D01*
X156605543Y-81126514D02*
X156643638Y-81202704D01*
X156643638Y-81202704D02*
X156681733Y-81240800D01*
X156681733Y-81240800D02*
X156757924Y-81278895D01*
X156757924Y-81278895D02*
X156948400Y-81278895D01*
X156948400Y-81278895D02*
X157024590Y-81240800D01*
X157024590Y-81240800D02*
X157062686Y-81202704D01*
X170700780Y-82498704D02*
X170738876Y-82536800D01*
X170738876Y-82536800D02*
X170853161Y-82574895D01*
X170853161Y-82574895D02*
X170929352Y-82574895D01*
X170929352Y-82574895D02*
X171043638Y-82536800D01*
X171043638Y-82536800D02*
X171119828Y-82460609D01*
X171119828Y-82460609D02*
X171157923Y-82384419D01*
X171157923Y-82384419D02*
X171196019Y-82232038D01*
X171196019Y-82232038D02*
X171196019Y-82117752D01*
X171196019Y-82117752D02*
X171157923Y-81965371D01*
X171157923Y-81965371D02*
X171119828Y-81889180D01*
X171119828Y-81889180D02*
X171043638Y-81812990D01*
X171043638Y-81812990D02*
X170929352Y-81774895D01*
X170929352Y-81774895D02*
X170853161Y-81774895D01*
X170853161Y-81774895D02*
X170738876Y-81812990D01*
X170738876Y-81812990D02*
X170700780Y-81851085D01*
X170396019Y-82536800D02*
X170319828Y-82574895D01*
X170319828Y-82574895D02*
X170167447Y-82574895D01*
X170167447Y-82574895D02*
X170091257Y-82536800D01*
X170091257Y-82536800D02*
X170053161Y-82460609D01*
X170053161Y-82460609D02*
X170053161Y-82422514D01*
X170053161Y-82422514D02*
X170091257Y-82346323D01*
X170091257Y-82346323D02*
X170167447Y-82308228D01*
X170167447Y-82308228D02*
X170281733Y-82308228D01*
X170281733Y-82308228D02*
X170357923Y-82270133D01*
X170357923Y-82270133D02*
X170396019Y-82193942D01*
X170396019Y-82193942D02*
X170396019Y-82155847D01*
X170396019Y-82155847D02*
X170357923Y-82079657D01*
X170357923Y-82079657D02*
X170281733Y-82041561D01*
X170281733Y-82041561D02*
X170167447Y-82041561D01*
X170167447Y-82041561D02*
X170091257Y-82079657D01*
X169748400Y-82536800D02*
X169672209Y-82574895D01*
X169672209Y-82574895D02*
X169519828Y-82574895D01*
X169519828Y-82574895D02*
X169443638Y-82536800D01*
X169443638Y-82536800D02*
X169405542Y-82460609D01*
X169405542Y-82460609D02*
X169405542Y-82422514D01*
X169405542Y-82422514D02*
X169443638Y-82346323D01*
X169443638Y-82346323D02*
X169519828Y-82308228D01*
X169519828Y-82308228D02*
X169634114Y-82308228D01*
X169634114Y-82308228D02*
X169710304Y-82270133D01*
X169710304Y-82270133D02*
X169748400Y-82193942D01*
X169748400Y-82193942D02*
X169748400Y-82155847D01*
X169748400Y-82155847D02*
X169710304Y-82079657D01*
X169710304Y-82079657D02*
X169634114Y-82041561D01*
X169634114Y-82041561D02*
X169519828Y-82041561D01*
X169519828Y-82041561D02*
X169443638Y-82079657D01*
X168643638Y-82574895D02*
X169100781Y-82574895D01*
X168872209Y-82574895D02*
X168872209Y-81774895D01*
X168872209Y-81774895D02*
X168948400Y-81889180D01*
X168948400Y-81889180D02*
X169024590Y-81965371D01*
X169024590Y-81965371D02*
X169100781Y-82003466D01*
X164529353Y-82574895D02*
X164986496Y-82574895D01*
X164757924Y-82574895D02*
X164757924Y-81774895D01*
X164757924Y-81774895D02*
X164834115Y-81889180D01*
X164834115Y-81889180D02*
X164910305Y-81965371D01*
X164910305Y-81965371D02*
X164986496Y-82003466D01*
X163843638Y-82041561D02*
X163843638Y-82574895D01*
X164186495Y-82041561D02*
X164186495Y-82460609D01*
X164186495Y-82460609D02*
X164148400Y-82536800D01*
X164148400Y-82536800D02*
X164072210Y-82574895D01*
X164072210Y-82574895D02*
X163957924Y-82574895D01*
X163957924Y-82574895D02*
X163881733Y-82536800D01*
X163881733Y-82536800D02*
X163843638Y-82498704D01*
X163196019Y-82155847D02*
X163462685Y-82155847D01*
X163462685Y-82574895D02*
X163462685Y-81774895D01*
X163462685Y-81774895D02*
X163081733Y-81774895D01*
X158434115Y-82117752D02*
X158510305Y-82079657D01*
X158510305Y-82079657D02*
X158548400Y-82041561D01*
X158548400Y-82041561D02*
X158586496Y-81965371D01*
X158586496Y-81965371D02*
X158586496Y-81927276D01*
X158586496Y-81927276D02*
X158548400Y-81851085D01*
X158548400Y-81851085D02*
X158510305Y-81812990D01*
X158510305Y-81812990D02*
X158434115Y-81774895D01*
X158434115Y-81774895D02*
X158281734Y-81774895D01*
X158281734Y-81774895D02*
X158205543Y-81812990D01*
X158205543Y-81812990D02*
X158167448Y-81851085D01*
X158167448Y-81851085D02*
X158129353Y-81927276D01*
X158129353Y-81927276D02*
X158129353Y-81965371D01*
X158129353Y-81965371D02*
X158167448Y-82041561D01*
X158167448Y-82041561D02*
X158205543Y-82079657D01*
X158205543Y-82079657D02*
X158281734Y-82117752D01*
X158281734Y-82117752D02*
X158434115Y-82117752D01*
X158434115Y-82117752D02*
X158510305Y-82155847D01*
X158510305Y-82155847D02*
X158548400Y-82193942D01*
X158548400Y-82193942D02*
X158586496Y-82270133D01*
X158586496Y-82270133D02*
X158586496Y-82422514D01*
X158586496Y-82422514D02*
X158548400Y-82498704D01*
X158548400Y-82498704D02*
X158510305Y-82536800D01*
X158510305Y-82536800D02*
X158434115Y-82574895D01*
X158434115Y-82574895D02*
X158281734Y-82574895D01*
X158281734Y-82574895D02*
X158205543Y-82536800D01*
X158205543Y-82536800D02*
X158167448Y-82498704D01*
X158167448Y-82498704D02*
X158129353Y-82422514D01*
X158129353Y-82422514D02*
X158129353Y-82270133D01*
X158129353Y-82270133D02*
X158167448Y-82193942D01*
X158167448Y-82193942D02*
X158205543Y-82155847D01*
X158205543Y-82155847D02*
X158281734Y-82117752D01*
X157634114Y-81774895D02*
X157557924Y-81774895D01*
X157557924Y-81774895D02*
X157481733Y-81812990D01*
X157481733Y-81812990D02*
X157443638Y-81851085D01*
X157443638Y-81851085D02*
X157405543Y-81927276D01*
X157405543Y-81927276D02*
X157367448Y-82079657D01*
X157367448Y-82079657D02*
X157367448Y-82270133D01*
X157367448Y-82270133D02*
X157405543Y-82422514D01*
X157405543Y-82422514D02*
X157443638Y-82498704D01*
X157443638Y-82498704D02*
X157481733Y-82536800D01*
X157481733Y-82536800D02*
X157557924Y-82574895D01*
X157557924Y-82574895D02*
X157634114Y-82574895D01*
X157634114Y-82574895D02*
X157710305Y-82536800D01*
X157710305Y-82536800D02*
X157748400Y-82498704D01*
X157748400Y-82498704D02*
X157786495Y-82422514D01*
X157786495Y-82422514D02*
X157824591Y-82270133D01*
X157824591Y-82270133D02*
X157824591Y-82079657D01*
X157824591Y-82079657D02*
X157786495Y-81927276D01*
X157786495Y-81927276D02*
X157748400Y-81851085D01*
X157748400Y-81851085D02*
X157710305Y-81812990D01*
X157710305Y-81812990D02*
X157634114Y-81774895D01*
X156643638Y-81774895D02*
X157024590Y-81774895D01*
X157024590Y-81774895D02*
X157062686Y-82155847D01*
X157062686Y-82155847D02*
X157024590Y-82117752D01*
X157024590Y-82117752D02*
X156948400Y-82079657D01*
X156948400Y-82079657D02*
X156757924Y-82079657D01*
X156757924Y-82079657D02*
X156681733Y-82117752D01*
X156681733Y-82117752D02*
X156643638Y-82155847D01*
X156643638Y-82155847D02*
X156605543Y-82232038D01*
X156605543Y-82232038D02*
X156605543Y-82422514D01*
X156605543Y-82422514D02*
X156643638Y-82498704D01*
X156643638Y-82498704D02*
X156681733Y-82536800D01*
X156681733Y-82536800D02*
X156757924Y-82574895D01*
X156757924Y-82574895D02*
X156948400Y-82574895D01*
X156948400Y-82574895D02*
X157024590Y-82536800D01*
X157024590Y-82536800D02*
X157062686Y-82498704D01*
X170700780Y-83794704D02*
X170738876Y-83832800D01*
X170738876Y-83832800D02*
X170853161Y-83870895D01*
X170853161Y-83870895D02*
X170929352Y-83870895D01*
X170929352Y-83870895D02*
X171043638Y-83832800D01*
X171043638Y-83832800D02*
X171119828Y-83756609D01*
X171119828Y-83756609D02*
X171157923Y-83680419D01*
X171157923Y-83680419D02*
X171196019Y-83528038D01*
X171196019Y-83528038D02*
X171196019Y-83413752D01*
X171196019Y-83413752D02*
X171157923Y-83261371D01*
X171157923Y-83261371D02*
X171119828Y-83185180D01*
X171119828Y-83185180D02*
X171043638Y-83108990D01*
X171043638Y-83108990D02*
X170929352Y-83070895D01*
X170929352Y-83070895D02*
X170853161Y-83070895D01*
X170853161Y-83070895D02*
X170738876Y-83108990D01*
X170738876Y-83108990D02*
X170700780Y-83147085D01*
X170357923Y-83870895D02*
X170357923Y-83337561D01*
X170357923Y-83070895D02*
X170396019Y-83108990D01*
X170396019Y-83108990D02*
X170357923Y-83147085D01*
X170357923Y-83147085D02*
X170319828Y-83108990D01*
X170319828Y-83108990D02*
X170357923Y-83070895D01*
X170357923Y-83070895D02*
X170357923Y-83147085D01*
X169976971Y-83337561D02*
X169976971Y-83870895D01*
X169976971Y-83413752D02*
X169938876Y-83375657D01*
X169938876Y-83375657D02*
X169862686Y-83337561D01*
X169862686Y-83337561D02*
X169748400Y-83337561D01*
X169748400Y-83337561D02*
X169672209Y-83375657D01*
X169672209Y-83375657D02*
X169634114Y-83451847D01*
X169634114Y-83451847D02*
X169634114Y-83870895D01*
X168834114Y-83870895D02*
X169291257Y-83870895D01*
X169062685Y-83870895D02*
X169062685Y-83070895D01*
X169062685Y-83070895D02*
X169138876Y-83185180D01*
X169138876Y-83185180D02*
X169215066Y-83261371D01*
X169215066Y-83261371D02*
X169291257Y-83299466D01*
X164529353Y-83870895D02*
X164986496Y-83870895D01*
X164757924Y-83870895D02*
X164757924Y-83070895D01*
X164757924Y-83070895D02*
X164834115Y-83185180D01*
X164834115Y-83185180D02*
X164910305Y-83261371D01*
X164910305Y-83261371D02*
X164986496Y-83299466D01*
X163805543Y-83070895D02*
X164186495Y-83070895D01*
X164186495Y-83070895D02*
X164224591Y-83451847D01*
X164224591Y-83451847D02*
X164186495Y-83413752D01*
X164186495Y-83413752D02*
X164110305Y-83375657D01*
X164110305Y-83375657D02*
X163919829Y-83375657D01*
X163919829Y-83375657D02*
X163843638Y-83413752D01*
X163843638Y-83413752D02*
X163805543Y-83451847D01*
X163805543Y-83451847D02*
X163767448Y-83528038D01*
X163767448Y-83528038D02*
X163767448Y-83718514D01*
X163767448Y-83718514D02*
X163805543Y-83794704D01*
X163805543Y-83794704D02*
X163843638Y-83832800D01*
X163843638Y-83832800D02*
X163919829Y-83870895D01*
X163919829Y-83870895D02*
X164110305Y-83870895D01*
X164110305Y-83870895D02*
X164186495Y-83832800D01*
X164186495Y-83832800D02*
X164224591Y-83794704D01*
X163424590Y-83337561D02*
X163424590Y-84137561D01*
X163043638Y-83756609D02*
X163005543Y-83832800D01*
X163005543Y-83832800D02*
X162929352Y-83870895D01*
X163424590Y-83756609D02*
X163386495Y-83832800D01*
X163386495Y-83832800D02*
X163310305Y-83870895D01*
X163310305Y-83870895D02*
X163157924Y-83870895D01*
X163157924Y-83870895D02*
X163081733Y-83832800D01*
X163081733Y-83832800D02*
X163043638Y-83756609D01*
X163043638Y-83756609D02*
X163043638Y-83337561D01*
X162319829Y-83451847D02*
X162586495Y-83451847D01*
X162586495Y-83870895D02*
X162586495Y-83070895D01*
X162586495Y-83070895D02*
X162205543Y-83070895D01*
X158129353Y-83870895D02*
X158586496Y-83870895D01*
X158357924Y-83870895D02*
X158357924Y-83070895D01*
X158357924Y-83070895D02*
X158434115Y-83185180D01*
X158434115Y-83185180D02*
X158510305Y-83261371D01*
X158510305Y-83261371D02*
X158586496Y-83299466D01*
X157824591Y-83147085D02*
X157786495Y-83108990D01*
X157786495Y-83108990D02*
X157710305Y-83070895D01*
X157710305Y-83070895D02*
X157519829Y-83070895D01*
X157519829Y-83070895D02*
X157443638Y-83108990D01*
X157443638Y-83108990D02*
X157405543Y-83147085D01*
X157405543Y-83147085D02*
X157367448Y-83223276D01*
X157367448Y-83223276D02*
X157367448Y-83299466D01*
X157367448Y-83299466D02*
X157405543Y-83413752D01*
X157405543Y-83413752D02*
X157862686Y-83870895D01*
X157862686Y-83870895D02*
X157367448Y-83870895D01*
X156872209Y-83070895D02*
X156796019Y-83070895D01*
X156796019Y-83070895D02*
X156719828Y-83108990D01*
X156719828Y-83108990D02*
X156681733Y-83147085D01*
X156681733Y-83147085D02*
X156643638Y-83223276D01*
X156643638Y-83223276D02*
X156605543Y-83375657D01*
X156605543Y-83375657D02*
X156605543Y-83566133D01*
X156605543Y-83566133D02*
X156643638Y-83718514D01*
X156643638Y-83718514D02*
X156681733Y-83794704D01*
X156681733Y-83794704D02*
X156719828Y-83832800D01*
X156719828Y-83832800D02*
X156796019Y-83870895D01*
X156796019Y-83870895D02*
X156872209Y-83870895D01*
X156872209Y-83870895D02*
X156948400Y-83832800D01*
X156948400Y-83832800D02*
X156986495Y-83794704D01*
X156986495Y-83794704D02*
X157024590Y-83718514D01*
X157024590Y-83718514D02*
X157062686Y-83566133D01*
X157062686Y-83566133D02*
X157062686Y-83375657D01*
X157062686Y-83375657D02*
X157024590Y-83223276D01*
X157024590Y-83223276D02*
X156986495Y-83147085D01*
X156986495Y-83147085D02*
X156948400Y-83108990D01*
X156948400Y-83108990D02*
X156872209Y-83070895D01*
X155919828Y-83070895D02*
X156072209Y-83070895D01*
X156072209Y-83070895D02*
X156148400Y-83108990D01*
X156148400Y-83108990D02*
X156186495Y-83147085D01*
X156186495Y-83147085D02*
X156262685Y-83261371D01*
X156262685Y-83261371D02*
X156300781Y-83413752D01*
X156300781Y-83413752D02*
X156300781Y-83718514D01*
X156300781Y-83718514D02*
X156262685Y-83794704D01*
X156262685Y-83794704D02*
X156224590Y-83832800D01*
X156224590Y-83832800D02*
X156148400Y-83870895D01*
X156148400Y-83870895D02*
X155996019Y-83870895D01*
X155996019Y-83870895D02*
X155919828Y-83832800D01*
X155919828Y-83832800D02*
X155881733Y-83794704D01*
X155881733Y-83794704D02*
X155843638Y-83718514D01*
X155843638Y-83718514D02*
X155843638Y-83528038D01*
X155843638Y-83528038D02*
X155881733Y-83451847D01*
X155881733Y-83451847D02*
X155919828Y-83413752D01*
X155919828Y-83413752D02*
X155996019Y-83375657D01*
X155996019Y-83375657D02*
X156148400Y-83375657D01*
X156148400Y-83375657D02*
X156224590Y-83413752D01*
X156224590Y-83413752D02*
X156262685Y-83451847D01*
X156262685Y-83451847D02*
X156300781Y-83528038D01*
X170700780Y-85166895D02*
X170967447Y-84785942D01*
X171157923Y-85166895D02*
X171157923Y-84366895D01*
X171157923Y-84366895D02*
X170853161Y-84366895D01*
X170853161Y-84366895D02*
X170776971Y-84404990D01*
X170776971Y-84404990D02*
X170738876Y-84443085D01*
X170738876Y-84443085D02*
X170700780Y-84519276D01*
X170700780Y-84519276D02*
X170700780Y-84633561D01*
X170700780Y-84633561D02*
X170738876Y-84709752D01*
X170738876Y-84709752D02*
X170776971Y-84747847D01*
X170776971Y-84747847D02*
X170853161Y-84785942D01*
X170853161Y-84785942D02*
X171157923Y-84785942D01*
X170396019Y-85128800D02*
X170319828Y-85166895D01*
X170319828Y-85166895D02*
X170167447Y-85166895D01*
X170167447Y-85166895D02*
X170091257Y-85128800D01*
X170091257Y-85128800D02*
X170053161Y-85052609D01*
X170053161Y-85052609D02*
X170053161Y-85014514D01*
X170053161Y-85014514D02*
X170091257Y-84938323D01*
X170091257Y-84938323D02*
X170167447Y-84900228D01*
X170167447Y-84900228D02*
X170281733Y-84900228D01*
X170281733Y-84900228D02*
X170357923Y-84862133D01*
X170357923Y-84862133D02*
X170396019Y-84785942D01*
X170396019Y-84785942D02*
X170396019Y-84747847D01*
X170396019Y-84747847D02*
X170357923Y-84671657D01*
X170357923Y-84671657D02*
X170281733Y-84633561D01*
X170281733Y-84633561D02*
X170167447Y-84633561D01*
X170167447Y-84633561D02*
X170091257Y-84671657D01*
X169596019Y-85166895D02*
X169672209Y-85128800D01*
X169672209Y-85128800D02*
X169710304Y-85090704D01*
X169710304Y-85090704D02*
X169748400Y-85014514D01*
X169748400Y-85014514D02*
X169748400Y-84785942D01*
X169748400Y-84785942D02*
X169710304Y-84709752D01*
X169710304Y-84709752D02*
X169672209Y-84671657D01*
X169672209Y-84671657D02*
X169596019Y-84633561D01*
X169596019Y-84633561D02*
X169481733Y-84633561D01*
X169481733Y-84633561D02*
X169405542Y-84671657D01*
X169405542Y-84671657D02*
X169367447Y-84709752D01*
X169367447Y-84709752D02*
X169329352Y-84785942D01*
X169329352Y-84785942D02*
X169329352Y-85014514D01*
X169329352Y-85014514D02*
X169367447Y-85090704D01*
X169367447Y-85090704D02*
X169405542Y-85128800D01*
X169405542Y-85128800D02*
X169481733Y-85166895D01*
X169481733Y-85166895D02*
X169596019Y-85166895D01*
X168643637Y-84633561D02*
X168643637Y-85166895D01*
X168986494Y-84633561D02*
X168986494Y-85052609D01*
X168986494Y-85052609D02*
X168948399Y-85128800D01*
X168948399Y-85128800D02*
X168872209Y-85166895D01*
X168872209Y-85166895D02*
X168757923Y-85166895D01*
X168757923Y-85166895D02*
X168681732Y-85128800D01*
X168681732Y-85128800D02*
X168643637Y-85090704D01*
X168300780Y-85128800D02*
X168224589Y-85166895D01*
X168224589Y-85166895D02*
X168072208Y-85166895D01*
X168072208Y-85166895D02*
X167996018Y-85128800D01*
X167996018Y-85128800D02*
X167957922Y-85052609D01*
X167957922Y-85052609D02*
X167957922Y-85014514D01*
X167957922Y-85014514D02*
X167996018Y-84938323D01*
X167996018Y-84938323D02*
X168072208Y-84900228D01*
X168072208Y-84900228D02*
X168186494Y-84900228D01*
X168186494Y-84900228D02*
X168262684Y-84862133D01*
X168262684Y-84862133D02*
X168300780Y-84785942D01*
X168300780Y-84785942D02*
X168300780Y-84747847D01*
X168300780Y-84747847D02*
X168262684Y-84671657D01*
X168262684Y-84671657D02*
X168186494Y-84633561D01*
X168186494Y-84633561D02*
X168072208Y-84633561D01*
X168072208Y-84633561D02*
X167996018Y-84671657D01*
X167196018Y-85166895D02*
X167653161Y-85166895D01*
X167424589Y-85166895D02*
X167424589Y-84366895D01*
X167424589Y-84366895D02*
X167500780Y-84481180D01*
X167500780Y-84481180D02*
X167576970Y-84557371D01*
X167576970Y-84557371D02*
X167653161Y-84595466D01*
X164529353Y-85166895D02*
X164986496Y-85166895D01*
X164757924Y-85166895D02*
X164757924Y-84366895D01*
X164757924Y-84366895D02*
X164834115Y-84481180D01*
X164834115Y-84481180D02*
X164910305Y-84557371D01*
X164910305Y-84557371D02*
X164986496Y-84595466D01*
X163767448Y-85166895D02*
X164224591Y-85166895D01*
X163996019Y-85166895D02*
X163996019Y-84366895D01*
X163996019Y-84366895D02*
X164072210Y-84481180D01*
X164072210Y-84481180D02*
X164148400Y-84557371D01*
X164148400Y-84557371D02*
X164224591Y-84595466D01*
X163424590Y-85166895D02*
X163424590Y-84366895D01*
X163348400Y-84862133D02*
X163119828Y-85166895D01*
X163119828Y-84633561D02*
X163424590Y-84938323D01*
X158434115Y-84709752D02*
X158510305Y-84671657D01*
X158510305Y-84671657D02*
X158548400Y-84633561D01*
X158548400Y-84633561D02*
X158586496Y-84557371D01*
X158586496Y-84557371D02*
X158586496Y-84519276D01*
X158586496Y-84519276D02*
X158548400Y-84443085D01*
X158548400Y-84443085D02*
X158510305Y-84404990D01*
X158510305Y-84404990D02*
X158434115Y-84366895D01*
X158434115Y-84366895D02*
X158281734Y-84366895D01*
X158281734Y-84366895D02*
X158205543Y-84404990D01*
X158205543Y-84404990D02*
X158167448Y-84443085D01*
X158167448Y-84443085D02*
X158129353Y-84519276D01*
X158129353Y-84519276D02*
X158129353Y-84557371D01*
X158129353Y-84557371D02*
X158167448Y-84633561D01*
X158167448Y-84633561D02*
X158205543Y-84671657D01*
X158205543Y-84671657D02*
X158281734Y-84709752D01*
X158281734Y-84709752D02*
X158434115Y-84709752D01*
X158434115Y-84709752D02*
X158510305Y-84747847D01*
X158510305Y-84747847D02*
X158548400Y-84785942D01*
X158548400Y-84785942D02*
X158586496Y-84862133D01*
X158586496Y-84862133D02*
X158586496Y-85014514D01*
X158586496Y-85014514D02*
X158548400Y-85090704D01*
X158548400Y-85090704D02*
X158510305Y-85128800D01*
X158510305Y-85128800D02*
X158434115Y-85166895D01*
X158434115Y-85166895D02*
X158281734Y-85166895D01*
X158281734Y-85166895D02*
X158205543Y-85128800D01*
X158205543Y-85128800D02*
X158167448Y-85090704D01*
X158167448Y-85090704D02*
X158129353Y-85014514D01*
X158129353Y-85014514D02*
X158129353Y-84862133D01*
X158129353Y-84862133D02*
X158167448Y-84785942D01*
X158167448Y-84785942D02*
X158205543Y-84747847D01*
X158205543Y-84747847D02*
X158281734Y-84709752D01*
X157634114Y-84366895D02*
X157557924Y-84366895D01*
X157557924Y-84366895D02*
X157481733Y-84404990D01*
X157481733Y-84404990D02*
X157443638Y-84443085D01*
X157443638Y-84443085D02*
X157405543Y-84519276D01*
X157405543Y-84519276D02*
X157367448Y-84671657D01*
X157367448Y-84671657D02*
X157367448Y-84862133D01*
X157367448Y-84862133D02*
X157405543Y-85014514D01*
X157405543Y-85014514D02*
X157443638Y-85090704D01*
X157443638Y-85090704D02*
X157481733Y-85128800D01*
X157481733Y-85128800D02*
X157557924Y-85166895D01*
X157557924Y-85166895D02*
X157634114Y-85166895D01*
X157634114Y-85166895D02*
X157710305Y-85128800D01*
X157710305Y-85128800D02*
X157748400Y-85090704D01*
X157748400Y-85090704D02*
X157786495Y-85014514D01*
X157786495Y-85014514D02*
X157824591Y-84862133D01*
X157824591Y-84862133D02*
X157824591Y-84671657D01*
X157824591Y-84671657D02*
X157786495Y-84519276D01*
X157786495Y-84519276D02*
X157748400Y-84443085D01*
X157748400Y-84443085D02*
X157710305Y-84404990D01*
X157710305Y-84404990D02*
X157634114Y-84366895D01*
X156643638Y-84366895D02*
X157024590Y-84366895D01*
X157024590Y-84366895D02*
X157062686Y-84747847D01*
X157062686Y-84747847D02*
X157024590Y-84709752D01*
X157024590Y-84709752D02*
X156948400Y-84671657D01*
X156948400Y-84671657D02*
X156757924Y-84671657D01*
X156757924Y-84671657D02*
X156681733Y-84709752D01*
X156681733Y-84709752D02*
X156643638Y-84747847D01*
X156643638Y-84747847D02*
X156605543Y-84824038D01*
X156605543Y-84824038D02*
X156605543Y-85014514D01*
X156605543Y-85014514D02*
X156643638Y-85090704D01*
X156643638Y-85090704D02*
X156681733Y-85128800D01*
X156681733Y-85128800D02*
X156757924Y-85166895D01*
X156757924Y-85166895D02*
X156948400Y-85166895D01*
X156948400Y-85166895D02*
X157024590Y-85128800D01*
X157024590Y-85128800D02*
X157062686Y-85090704D01*
X170700780Y-86462895D02*
X170967447Y-86081942D01*
X171157923Y-86462895D02*
X171157923Y-85662895D01*
X171157923Y-85662895D02*
X170853161Y-85662895D01*
X170853161Y-85662895D02*
X170776971Y-85700990D01*
X170776971Y-85700990D02*
X170738876Y-85739085D01*
X170738876Y-85739085D02*
X170700780Y-85815276D01*
X170700780Y-85815276D02*
X170700780Y-85929561D01*
X170700780Y-85929561D02*
X170738876Y-86005752D01*
X170738876Y-86005752D02*
X170776971Y-86043847D01*
X170776971Y-86043847D02*
X170853161Y-86081942D01*
X170853161Y-86081942D02*
X171157923Y-86081942D01*
X170396019Y-86424800D02*
X170319828Y-86462895D01*
X170319828Y-86462895D02*
X170167447Y-86462895D01*
X170167447Y-86462895D02*
X170091257Y-86424800D01*
X170091257Y-86424800D02*
X170053161Y-86348609D01*
X170053161Y-86348609D02*
X170053161Y-86310514D01*
X170053161Y-86310514D02*
X170091257Y-86234323D01*
X170091257Y-86234323D02*
X170167447Y-86196228D01*
X170167447Y-86196228D02*
X170281733Y-86196228D01*
X170281733Y-86196228D02*
X170357923Y-86158133D01*
X170357923Y-86158133D02*
X170396019Y-86081942D01*
X170396019Y-86081942D02*
X170396019Y-86043847D01*
X170396019Y-86043847D02*
X170357923Y-85967657D01*
X170357923Y-85967657D02*
X170281733Y-85929561D01*
X170281733Y-85929561D02*
X170167447Y-85929561D01*
X170167447Y-85929561D02*
X170091257Y-85967657D01*
X169596019Y-86462895D02*
X169672209Y-86424800D01*
X169672209Y-86424800D02*
X169710304Y-86386704D01*
X169710304Y-86386704D02*
X169748400Y-86310514D01*
X169748400Y-86310514D02*
X169748400Y-86081942D01*
X169748400Y-86081942D02*
X169710304Y-86005752D01*
X169710304Y-86005752D02*
X169672209Y-85967657D01*
X169672209Y-85967657D02*
X169596019Y-85929561D01*
X169596019Y-85929561D02*
X169481733Y-85929561D01*
X169481733Y-85929561D02*
X169405542Y-85967657D01*
X169405542Y-85967657D02*
X169367447Y-86005752D01*
X169367447Y-86005752D02*
X169329352Y-86081942D01*
X169329352Y-86081942D02*
X169329352Y-86310514D01*
X169329352Y-86310514D02*
X169367447Y-86386704D01*
X169367447Y-86386704D02*
X169405542Y-86424800D01*
X169405542Y-86424800D02*
X169481733Y-86462895D01*
X169481733Y-86462895D02*
X169596019Y-86462895D01*
X168643637Y-85929561D02*
X168643637Y-86462895D01*
X168986494Y-85929561D02*
X168986494Y-86348609D01*
X168986494Y-86348609D02*
X168948399Y-86424800D01*
X168948399Y-86424800D02*
X168872209Y-86462895D01*
X168872209Y-86462895D02*
X168757923Y-86462895D01*
X168757923Y-86462895D02*
X168681732Y-86424800D01*
X168681732Y-86424800D02*
X168643637Y-86386704D01*
X168300780Y-86424800D02*
X168224589Y-86462895D01*
X168224589Y-86462895D02*
X168072208Y-86462895D01*
X168072208Y-86462895D02*
X167996018Y-86424800D01*
X167996018Y-86424800D02*
X167957922Y-86348609D01*
X167957922Y-86348609D02*
X167957922Y-86310514D01*
X167957922Y-86310514D02*
X167996018Y-86234323D01*
X167996018Y-86234323D02*
X168072208Y-86196228D01*
X168072208Y-86196228D02*
X168186494Y-86196228D01*
X168186494Y-86196228D02*
X168262684Y-86158133D01*
X168262684Y-86158133D02*
X168300780Y-86081942D01*
X168300780Y-86081942D02*
X168300780Y-86043847D01*
X168300780Y-86043847D02*
X168262684Y-85967657D01*
X168262684Y-85967657D02*
X168186494Y-85929561D01*
X168186494Y-85929561D02*
X168072208Y-85929561D01*
X168072208Y-85929561D02*
X167996018Y-85967657D01*
X167653161Y-85739085D02*
X167615065Y-85700990D01*
X167615065Y-85700990D02*
X167538875Y-85662895D01*
X167538875Y-85662895D02*
X167348399Y-85662895D01*
X167348399Y-85662895D02*
X167272208Y-85700990D01*
X167272208Y-85700990D02*
X167234113Y-85739085D01*
X167234113Y-85739085D02*
X167196018Y-85815276D01*
X167196018Y-85815276D02*
X167196018Y-85891466D01*
X167196018Y-85891466D02*
X167234113Y-86005752D01*
X167234113Y-86005752D02*
X167691256Y-86462895D01*
X167691256Y-86462895D02*
X167196018Y-86462895D01*
X164986496Y-85739085D02*
X164948400Y-85700990D01*
X164948400Y-85700990D02*
X164872210Y-85662895D01*
X164872210Y-85662895D02*
X164681734Y-85662895D01*
X164681734Y-85662895D02*
X164605543Y-85700990D01*
X164605543Y-85700990D02*
X164567448Y-85739085D01*
X164567448Y-85739085D02*
X164529353Y-85815276D01*
X164529353Y-85815276D02*
X164529353Y-85891466D01*
X164529353Y-85891466D02*
X164567448Y-86005752D01*
X164567448Y-86005752D02*
X165024591Y-86462895D01*
X165024591Y-86462895D02*
X164529353Y-86462895D01*
X164186495Y-86386704D02*
X164148400Y-86424800D01*
X164148400Y-86424800D02*
X164186495Y-86462895D01*
X164186495Y-86462895D02*
X164224591Y-86424800D01*
X164224591Y-86424800D02*
X164186495Y-86386704D01*
X164186495Y-86386704D02*
X164186495Y-86462895D01*
X163881734Y-85662895D02*
X163348400Y-85662895D01*
X163348400Y-85662895D02*
X163691258Y-86462895D01*
X163043638Y-86462895D02*
X163043638Y-85662895D01*
X162967448Y-86158133D02*
X162738876Y-86462895D01*
X162738876Y-85929561D02*
X163043638Y-86234323D01*
X158434115Y-86005752D02*
X158510305Y-85967657D01*
X158510305Y-85967657D02*
X158548400Y-85929561D01*
X158548400Y-85929561D02*
X158586496Y-85853371D01*
X158586496Y-85853371D02*
X158586496Y-85815276D01*
X158586496Y-85815276D02*
X158548400Y-85739085D01*
X158548400Y-85739085D02*
X158510305Y-85700990D01*
X158510305Y-85700990D02*
X158434115Y-85662895D01*
X158434115Y-85662895D02*
X158281734Y-85662895D01*
X158281734Y-85662895D02*
X158205543Y-85700990D01*
X158205543Y-85700990D02*
X158167448Y-85739085D01*
X158167448Y-85739085D02*
X158129353Y-85815276D01*
X158129353Y-85815276D02*
X158129353Y-85853371D01*
X158129353Y-85853371D02*
X158167448Y-85929561D01*
X158167448Y-85929561D02*
X158205543Y-85967657D01*
X158205543Y-85967657D02*
X158281734Y-86005752D01*
X158281734Y-86005752D02*
X158434115Y-86005752D01*
X158434115Y-86005752D02*
X158510305Y-86043847D01*
X158510305Y-86043847D02*
X158548400Y-86081942D01*
X158548400Y-86081942D02*
X158586496Y-86158133D01*
X158586496Y-86158133D02*
X158586496Y-86310514D01*
X158586496Y-86310514D02*
X158548400Y-86386704D01*
X158548400Y-86386704D02*
X158510305Y-86424800D01*
X158510305Y-86424800D02*
X158434115Y-86462895D01*
X158434115Y-86462895D02*
X158281734Y-86462895D01*
X158281734Y-86462895D02*
X158205543Y-86424800D01*
X158205543Y-86424800D02*
X158167448Y-86386704D01*
X158167448Y-86386704D02*
X158129353Y-86310514D01*
X158129353Y-86310514D02*
X158129353Y-86158133D01*
X158129353Y-86158133D02*
X158167448Y-86081942D01*
X158167448Y-86081942D02*
X158205543Y-86043847D01*
X158205543Y-86043847D02*
X158281734Y-86005752D01*
X157634114Y-85662895D02*
X157557924Y-85662895D01*
X157557924Y-85662895D02*
X157481733Y-85700990D01*
X157481733Y-85700990D02*
X157443638Y-85739085D01*
X157443638Y-85739085D02*
X157405543Y-85815276D01*
X157405543Y-85815276D02*
X157367448Y-85967657D01*
X157367448Y-85967657D02*
X157367448Y-86158133D01*
X157367448Y-86158133D02*
X157405543Y-86310514D01*
X157405543Y-86310514D02*
X157443638Y-86386704D01*
X157443638Y-86386704D02*
X157481733Y-86424800D01*
X157481733Y-86424800D02*
X157557924Y-86462895D01*
X157557924Y-86462895D02*
X157634114Y-86462895D01*
X157634114Y-86462895D02*
X157710305Y-86424800D01*
X157710305Y-86424800D02*
X157748400Y-86386704D01*
X157748400Y-86386704D02*
X157786495Y-86310514D01*
X157786495Y-86310514D02*
X157824591Y-86158133D01*
X157824591Y-86158133D02*
X157824591Y-85967657D01*
X157824591Y-85967657D02*
X157786495Y-85815276D01*
X157786495Y-85815276D02*
X157748400Y-85739085D01*
X157748400Y-85739085D02*
X157710305Y-85700990D01*
X157710305Y-85700990D02*
X157634114Y-85662895D01*
X156643638Y-85662895D02*
X157024590Y-85662895D01*
X157024590Y-85662895D02*
X157062686Y-86043847D01*
X157062686Y-86043847D02*
X157024590Y-86005752D01*
X157024590Y-86005752D02*
X156948400Y-85967657D01*
X156948400Y-85967657D02*
X156757924Y-85967657D01*
X156757924Y-85967657D02*
X156681733Y-86005752D01*
X156681733Y-86005752D02*
X156643638Y-86043847D01*
X156643638Y-86043847D02*
X156605543Y-86120038D01*
X156605543Y-86120038D02*
X156605543Y-86310514D01*
X156605543Y-86310514D02*
X156643638Y-86386704D01*
X156643638Y-86386704D02*
X156681733Y-86424800D01*
X156681733Y-86424800D02*
X156757924Y-86462895D01*
X156757924Y-86462895D02*
X156948400Y-86462895D01*
X156948400Y-86462895D02*
X157024590Y-86424800D01*
X157024590Y-86424800D02*
X157062686Y-86386704D01*
X170700780Y-87758895D02*
X170967447Y-87377942D01*
X171157923Y-87758895D02*
X171157923Y-86958895D01*
X171157923Y-86958895D02*
X170853161Y-86958895D01*
X170853161Y-86958895D02*
X170776971Y-86996990D01*
X170776971Y-86996990D02*
X170738876Y-87035085D01*
X170738876Y-87035085D02*
X170700780Y-87111276D01*
X170700780Y-87111276D02*
X170700780Y-87225561D01*
X170700780Y-87225561D02*
X170738876Y-87301752D01*
X170738876Y-87301752D02*
X170776971Y-87339847D01*
X170776971Y-87339847D02*
X170853161Y-87377942D01*
X170853161Y-87377942D02*
X171157923Y-87377942D01*
X170015066Y-87720800D02*
X170091257Y-87758895D01*
X170091257Y-87758895D02*
X170243638Y-87758895D01*
X170243638Y-87758895D02*
X170319828Y-87720800D01*
X170319828Y-87720800D02*
X170357923Y-87682704D01*
X170357923Y-87682704D02*
X170396019Y-87606514D01*
X170396019Y-87606514D02*
X170396019Y-87377942D01*
X170396019Y-87377942D02*
X170357923Y-87301752D01*
X170357923Y-87301752D02*
X170319828Y-87263657D01*
X170319828Y-87263657D02*
X170243638Y-87225561D01*
X170243638Y-87225561D02*
X170091257Y-87225561D01*
X170091257Y-87225561D02*
X170015066Y-87263657D01*
X169253162Y-87758895D02*
X169710305Y-87758895D01*
X169481733Y-87758895D02*
X169481733Y-86958895D01*
X169481733Y-86958895D02*
X169557924Y-87073180D01*
X169557924Y-87073180D02*
X169634114Y-87149371D01*
X169634114Y-87149371D02*
X169710305Y-87187466D01*
X164529353Y-87758895D02*
X164986496Y-87758895D01*
X164757924Y-87758895D02*
X164757924Y-86958895D01*
X164757924Y-86958895D02*
X164834115Y-87073180D01*
X164834115Y-87073180D02*
X164910305Y-87149371D01*
X164910305Y-87149371D02*
X164986496Y-87187466D01*
X164224591Y-87035085D02*
X164186495Y-86996990D01*
X164186495Y-86996990D02*
X164110305Y-86958895D01*
X164110305Y-86958895D02*
X163919829Y-86958895D01*
X163919829Y-86958895D02*
X163843638Y-86996990D01*
X163843638Y-86996990D02*
X163805543Y-87035085D01*
X163805543Y-87035085D02*
X163767448Y-87111276D01*
X163767448Y-87111276D02*
X163767448Y-87187466D01*
X163767448Y-87187466D02*
X163805543Y-87301752D01*
X163805543Y-87301752D02*
X164262686Y-87758895D01*
X164262686Y-87758895D02*
X163767448Y-87758895D01*
X163424590Y-87758895D02*
X163424590Y-86958895D01*
X163348400Y-87454133D02*
X163119828Y-87758895D01*
X163119828Y-87225561D02*
X163424590Y-87530323D01*
X158434115Y-87301752D02*
X158510305Y-87263657D01*
X158510305Y-87263657D02*
X158548400Y-87225561D01*
X158548400Y-87225561D02*
X158586496Y-87149371D01*
X158586496Y-87149371D02*
X158586496Y-87111276D01*
X158586496Y-87111276D02*
X158548400Y-87035085D01*
X158548400Y-87035085D02*
X158510305Y-86996990D01*
X158510305Y-86996990D02*
X158434115Y-86958895D01*
X158434115Y-86958895D02*
X158281734Y-86958895D01*
X158281734Y-86958895D02*
X158205543Y-86996990D01*
X158205543Y-86996990D02*
X158167448Y-87035085D01*
X158167448Y-87035085D02*
X158129353Y-87111276D01*
X158129353Y-87111276D02*
X158129353Y-87149371D01*
X158129353Y-87149371D02*
X158167448Y-87225561D01*
X158167448Y-87225561D02*
X158205543Y-87263657D01*
X158205543Y-87263657D02*
X158281734Y-87301752D01*
X158281734Y-87301752D02*
X158434115Y-87301752D01*
X158434115Y-87301752D02*
X158510305Y-87339847D01*
X158510305Y-87339847D02*
X158548400Y-87377942D01*
X158548400Y-87377942D02*
X158586496Y-87454133D01*
X158586496Y-87454133D02*
X158586496Y-87606514D01*
X158586496Y-87606514D02*
X158548400Y-87682704D01*
X158548400Y-87682704D02*
X158510305Y-87720800D01*
X158510305Y-87720800D02*
X158434115Y-87758895D01*
X158434115Y-87758895D02*
X158281734Y-87758895D01*
X158281734Y-87758895D02*
X158205543Y-87720800D01*
X158205543Y-87720800D02*
X158167448Y-87682704D01*
X158167448Y-87682704D02*
X158129353Y-87606514D01*
X158129353Y-87606514D02*
X158129353Y-87454133D01*
X158129353Y-87454133D02*
X158167448Y-87377942D01*
X158167448Y-87377942D02*
X158205543Y-87339847D01*
X158205543Y-87339847D02*
X158281734Y-87301752D01*
X157634114Y-86958895D02*
X157557924Y-86958895D01*
X157557924Y-86958895D02*
X157481733Y-86996990D01*
X157481733Y-86996990D02*
X157443638Y-87035085D01*
X157443638Y-87035085D02*
X157405543Y-87111276D01*
X157405543Y-87111276D02*
X157367448Y-87263657D01*
X157367448Y-87263657D02*
X157367448Y-87454133D01*
X157367448Y-87454133D02*
X157405543Y-87606514D01*
X157405543Y-87606514D02*
X157443638Y-87682704D01*
X157443638Y-87682704D02*
X157481733Y-87720800D01*
X157481733Y-87720800D02*
X157557924Y-87758895D01*
X157557924Y-87758895D02*
X157634114Y-87758895D01*
X157634114Y-87758895D02*
X157710305Y-87720800D01*
X157710305Y-87720800D02*
X157748400Y-87682704D01*
X157748400Y-87682704D02*
X157786495Y-87606514D01*
X157786495Y-87606514D02*
X157824591Y-87454133D01*
X157824591Y-87454133D02*
X157824591Y-87263657D01*
X157824591Y-87263657D02*
X157786495Y-87111276D01*
X157786495Y-87111276D02*
X157748400Y-87035085D01*
X157748400Y-87035085D02*
X157710305Y-86996990D01*
X157710305Y-86996990D02*
X157634114Y-86958895D01*
X156643638Y-86958895D02*
X157024590Y-86958895D01*
X157024590Y-86958895D02*
X157062686Y-87339847D01*
X157062686Y-87339847D02*
X157024590Y-87301752D01*
X157024590Y-87301752D02*
X156948400Y-87263657D01*
X156948400Y-87263657D02*
X156757924Y-87263657D01*
X156757924Y-87263657D02*
X156681733Y-87301752D01*
X156681733Y-87301752D02*
X156643638Y-87339847D01*
X156643638Y-87339847D02*
X156605543Y-87416038D01*
X156605543Y-87416038D02*
X156605543Y-87606514D01*
X156605543Y-87606514D02*
X156643638Y-87682704D01*
X156643638Y-87682704D02*
X156681733Y-87720800D01*
X156681733Y-87720800D02*
X156757924Y-87758895D01*
X156757924Y-87758895D02*
X156948400Y-87758895D01*
X156948400Y-87758895D02*
X157024590Y-87720800D01*
X157024590Y-87720800D02*
X157062686Y-87682704D01*
X170700780Y-89054895D02*
X170967447Y-88673942D01*
X171157923Y-89054895D02*
X171157923Y-88254895D01*
X171157923Y-88254895D02*
X170853161Y-88254895D01*
X170853161Y-88254895D02*
X170776971Y-88292990D01*
X170776971Y-88292990D02*
X170738876Y-88331085D01*
X170738876Y-88331085D02*
X170700780Y-88407276D01*
X170700780Y-88407276D02*
X170700780Y-88521561D01*
X170700780Y-88521561D02*
X170738876Y-88597752D01*
X170738876Y-88597752D02*
X170776971Y-88635847D01*
X170776971Y-88635847D02*
X170853161Y-88673942D01*
X170853161Y-88673942D02*
X171157923Y-88673942D01*
X170243638Y-89054895D02*
X170319828Y-89016800D01*
X170319828Y-89016800D02*
X170357923Y-88940609D01*
X170357923Y-88940609D02*
X170357923Y-88254895D01*
X169519828Y-89054895D02*
X169976971Y-89054895D01*
X169748399Y-89054895D02*
X169748399Y-88254895D01*
X169748399Y-88254895D02*
X169824590Y-88369180D01*
X169824590Y-88369180D02*
X169900780Y-88445371D01*
X169900780Y-88445371D02*
X169976971Y-88483466D01*
X164567448Y-88254895D02*
X164948400Y-88254895D01*
X164948400Y-88254895D02*
X164986496Y-88635847D01*
X164986496Y-88635847D02*
X164948400Y-88597752D01*
X164948400Y-88597752D02*
X164872210Y-88559657D01*
X164872210Y-88559657D02*
X164681734Y-88559657D01*
X164681734Y-88559657D02*
X164605543Y-88597752D01*
X164605543Y-88597752D02*
X164567448Y-88635847D01*
X164567448Y-88635847D02*
X164529353Y-88712038D01*
X164529353Y-88712038D02*
X164529353Y-88902514D01*
X164529353Y-88902514D02*
X164567448Y-88978704D01*
X164567448Y-88978704D02*
X164605543Y-89016800D01*
X164605543Y-89016800D02*
X164681734Y-89054895D01*
X164681734Y-89054895D02*
X164872210Y-89054895D01*
X164872210Y-89054895D02*
X164948400Y-89016800D01*
X164948400Y-89016800D02*
X164986496Y-88978704D01*
X164262686Y-88254895D02*
X163729352Y-88254895D01*
X163729352Y-88254895D02*
X164072210Y-89054895D01*
X163081733Y-88254895D02*
X163234114Y-88254895D01*
X163234114Y-88254895D02*
X163310305Y-88292990D01*
X163310305Y-88292990D02*
X163348400Y-88331085D01*
X163348400Y-88331085D02*
X163424590Y-88445371D01*
X163424590Y-88445371D02*
X163462686Y-88597752D01*
X163462686Y-88597752D02*
X163462686Y-88902514D01*
X163462686Y-88902514D02*
X163424590Y-88978704D01*
X163424590Y-88978704D02*
X163386495Y-89016800D01*
X163386495Y-89016800D02*
X163310305Y-89054895D01*
X163310305Y-89054895D02*
X163157924Y-89054895D01*
X163157924Y-89054895D02*
X163081733Y-89016800D01*
X163081733Y-89016800D02*
X163043638Y-88978704D01*
X163043638Y-88978704D02*
X163005543Y-88902514D01*
X163005543Y-88902514D02*
X163005543Y-88712038D01*
X163005543Y-88712038D02*
X163043638Y-88635847D01*
X163043638Y-88635847D02*
X163081733Y-88597752D01*
X163081733Y-88597752D02*
X163157924Y-88559657D01*
X163157924Y-88559657D02*
X163310305Y-88559657D01*
X163310305Y-88559657D02*
X163386495Y-88597752D01*
X163386495Y-88597752D02*
X163424590Y-88635847D01*
X163424590Y-88635847D02*
X163462686Y-88712038D01*
X158434115Y-88597752D02*
X158510305Y-88559657D01*
X158510305Y-88559657D02*
X158548400Y-88521561D01*
X158548400Y-88521561D02*
X158586496Y-88445371D01*
X158586496Y-88445371D02*
X158586496Y-88407276D01*
X158586496Y-88407276D02*
X158548400Y-88331085D01*
X158548400Y-88331085D02*
X158510305Y-88292990D01*
X158510305Y-88292990D02*
X158434115Y-88254895D01*
X158434115Y-88254895D02*
X158281734Y-88254895D01*
X158281734Y-88254895D02*
X158205543Y-88292990D01*
X158205543Y-88292990D02*
X158167448Y-88331085D01*
X158167448Y-88331085D02*
X158129353Y-88407276D01*
X158129353Y-88407276D02*
X158129353Y-88445371D01*
X158129353Y-88445371D02*
X158167448Y-88521561D01*
X158167448Y-88521561D02*
X158205543Y-88559657D01*
X158205543Y-88559657D02*
X158281734Y-88597752D01*
X158281734Y-88597752D02*
X158434115Y-88597752D01*
X158434115Y-88597752D02*
X158510305Y-88635847D01*
X158510305Y-88635847D02*
X158548400Y-88673942D01*
X158548400Y-88673942D02*
X158586496Y-88750133D01*
X158586496Y-88750133D02*
X158586496Y-88902514D01*
X158586496Y-88902514D02*
X158548400Y-88978704D01*
X158548400Y-88978704D02*
X158510305Y-89016800D01*
X158510305Y-89016800D02*
X158434115Y-89054895D01*
X158434115Y-89054895D02*
X158281734Y-89054895D01*
X158281734Y-89054895D02*
X158205543Y-89016800D01*
X158205543Y-89016800D02*
X158167448Y-88978704D01*
X158167448Y-88978704D02*
X158129353Y-88902514D01*
X158129353Y-88902514D02*
X158129353Y-88750133D01*
X158129353Y-88750133D02*
X158167448Y-88673942D01*
X158167448Y-88673942D02*
X158205543Y-88635847D01*
X158205543Y-88635847D02*
X158281734Y-88597752D01*
X157634114Y-88254895D02*
X157557924Y-88254895D01*
X157557924Y-88254895D02*
X157481733Y-88292990D01*
X157481733Y-88292990D02*
X157443638Y-88331085D01*
X157443638Y-88331085D02*
X157405543Y-88407276D01*
X157405543Y-88407276D02*
X157367448Y-88559657D01*
X157367448Y-88559657D02*
X157367448Y-88750133D01*
X157367448Y-88750133D02*
X157405543Y-88902514D01*
X157405543Y-88902514D02*
X157443638Y-88978704D01*
X157443638Y-88978704D02*
X157481733Y-89016800D01*
X157481733Y-89016800D02*
X157557924Y-89054895D01*
X157557924Y-89054895D02*
X157634114Y-89054895D01*
X157634114Y-89054895D02*
X157710305Y-89016800D01*
X157710305Y-89016800D02*
X157748400Y-88978704D01*
X157748400Y-88978704D02*
X157786495Y-88902514D01*
X157786495Y-88902514D02*
X157824591Y-88750133D01*
X157824591Y-88750133D02*
X157824591Y-88559657D01*
X157824591Y-88559657D02*
X157786495Y-88407276D01*
X157786495Y-88407276D02*
X157748400Y-88331085D01*
X157748400Y-88331085D02*
X157710305Y-88292990D01*
X157710305Y-88292990D02*
X157634114Y-88254895D01*
X156643638Y-88254895D02*
X157024590Y-88254895D01*
X157024590Y-88254895D02*
X157062686Y-88635847D01*
X157062686Y-88635847D02*
X157024590Y-88597752D01*
X157024590Y-88597752D02*
X156948400Y-88559657D01*
X156948400Y-88559657D02*
X156757924Y-88559657D01*
X156757924Y-88559657D02*
X156681733Y-88597752D01*
X156681733Y-88597752D02*
X156643638Y-88635847D01*
X156643638Y-88635847D02*
X156605543Y-88712038D01*
X156605543Y-88712038D02*
X156605543Y-88902514D01*
X156605543Y-88902514D02*
X156643638Y-88978704D01*
X156643638Y-88978704D02*
X156681733Y-89016800D01*
X156681733Y-89016800D02*
X156757924Y-89054895D01*
X156757924Y-89054895D02*
X156948400Y-89054895D01*
X156948400Y-89054895D02*
X157024590Y-89016800D01*
X157024590Y-89016800D02*
X157062686Y-88978704D01*
X170700780Y-90350895D02*
X170967447Y-89969942D01*
X171157923Y-90350895D02*
X171157923Y-89550895D01*
X171157923Y-89550895D02*
X170853161Y-89550895D01*
X170853161Y-89550895D02*
X170776971Y-89588990D01*
X170776971Y-89588990D02*
X170738876Y-89627085D01*
X170738876Y-89627085D02*
X170700780Y-89703276D01*
X170700780Y-89703276D02*
X170700780Y-89817561D01*
X170700780Y-89817561D02*
X170738876Y-89893752D01*
X170738876Y-89893752D02*
X170776971Y-89931847D01*
X170776971Y-89931847D02*
X170853161Y-89969942D01*
X170853161Y-89969942D02*
X171157923Y-89969942D01*
X170357923Y-90350895D02*
X170357923Y-89550895D01*
X170015066Y-90350895D02*
X170015066Y-89931847D01*
X170015066Y-89931847D02*
X170053161Y-89855657D01*
X170053161Y-89855657D02*
X170129352Y-89817561D01*
X170129352Y-89817561D02*
X170243638Y-89817561D01*
X170243638Y-89817561D02*
X170319828Y-89855657D01*
X170319828Y-89855657D02*
X170357923Y-89893752D01*
X169215066Y-90350895D02*
X169672209Y-90350895D01*
X169443637Y-90350895D02*
X169443637Y-89550895D01*
X169443637Y-89550895D02*
X169519828Y-89665180D01*
X169519828Y-89665180D02*
X169596018Y-89741371D01*
X169596018Y-89741371D02*
X169672209Y-89779466D01*
X164605543Y-89817561D02*
X164605543Y-90350895D01*
X164796019Y-89512800D02*
X164986496Y-90084228D01*
X164986496Y-90084228D02*
X164491257Y-90084228D01*
X164186495Y-90274704D02*
X164148400Y-90312800D01*
X164148400Y-90312800D02*
X164186495Y-90350895D01*
X164186495Y-90350895D02*
X164224591Y-90312800D01*
X164224591Y-90312800D02*
X164186495Y-90274704D01*
X164186495Y-90274704D02*
X164186495Y-90350895D01*
X163881734Y-89550895D02*
X163348400Y-89550895D01*
X163348400Y-89550895D02*
X163691258Y-90350895D01*
X163043638Y-90350895D02*
X163043638Y-89550895D01*
X162967448Y-90046133D02*
X162738876Y-90350895D01*
X162738876Y-89817561D02*
X163043638Y-90122323D01*
X158434115Y-89893752D02*
X158510305Y-89855657D01*
X158510305Y-89855657D02*
X158548400Y-89817561D01*
X158548400Y-89817561D02*
X158586496Y-89741371D01*
X158586496Y-89741371D02*
X158586496Y-89703276D01*
X158586496Y-89703276D02*
X158548400Y-89627085D01*
X158548400Y-89627085D02*
X158510305Y-89588990D01*
X158510305Y-89588990D02*
X158434115Y-89550895D01*
X158434115Y-89550895D02*
X158281734Y-89550895D01*
X158281734Y-89550895D02*
X158205543Y-89588990D01*
X158205543Y-89588990D02*
X158167448Y-89627085D01*
X158167448Y-89627085D02*
X158129353Y-89703276D01*
X158129353Y-89703276D02*
X158129353Y-89741371D01*
X158129353Y-89741371D02*
X158167448Y-89817561D01*
X158167448Y-89817561D02*
X158205543Y-89855657D01*
X158205543Y-89855657D02*
X158281734Y-89893752D01*
X158281734Y-89893752D02*
X158434115Y-89893752D01*
X158434115Y-89893752D02*
X158510305Y-89931847D01*
X158510305Y-89931847D02*
X158548400Y-89969942D01*
X158548400Y-89969942D02*
X158586496Y-90046133D01*
X158586496Y-90046133D02*
X158586496Y-90198514D01*
X158586496Y-90198514D02*
X158548400Y-90274704D01*
X158548400Y-90274704D02*
X158510305Y-90312800D01*
X158510305Y-90312800D02*
X158434115Y-90350895D01*
X158434115Y-90350895D02*
X158281734Y-90350895D01*
X158281734Y-90350895D02*
X158205543Y-90312800D01*
X158205543Y-90312800D02*
X158167448Y-90274704D01*
X158167448Y-90274704D02*
X158129353Y-90198514D01*
X158129353Y-90198514D02*
X158129353Y-90046133D01*
X158129353Y-90046133D02*
X158167448Y-89969942D01*
X158167448Y-89969942D02*
X158205543Y-89931847D01*
X158205543Y-89931847D02*
X158281734Y-89893752D01*
X157634114Y-89550895D02*
X157557924Y-89550895D01*
X157557924Y-89550895D02*
X157481733Y-89588990D01*
X157481733Y-89588990D02*
X157443638Y-89627085D01*
X157443638Y-89627085D02*
X157405543Y-89703276D01*
X157405543Y-89703276D02*
X157367448Y-89855657D01*
X157367448Y-89855657D02*
X157367448Y-90046133D01*
X157367448Y-90046133D02*
X157405543Y-90198514D01*
X157405543Y-90198514D02*
X157443638Y-90274704D01*
X157443638Y-90274704D02*
X157481733Y-90312800D01*
X157481733Y-90312800D02*
X157557924Y-90350895D01*
X157557924Y-90350895D02*
X157634114Y-90350895D01*
X157634114Y-90350895D02*
X157710305Y-90312800D01*
X157710305Y-90312800D02*
X157748400Y-90274704D01*
X157748400Y-90274704D02*
X157786495Y-90198514D01*
X157786495Y-90198514D02*
X157824591Y-90046133D01*
X157824591Y-90046133D02*
X157824591Y-89855657D01*
X157824591Y-89855657D02*
X157786495Y-89703276D01*
X157786495Y-89703276D02*
X157748400Y-89627085D01*
X157748400Y-89627085D02*
X157710305Y-89588990D01*
X157710305Y-89588990D02*
X157634114Y-89550895D01*
X156643638Y-89550895D02*
X157024590Y-89550895D01*
X157024590Y-89550895D02*
X157062686Y-89931847D01*
X157062686Y-89931847D02*
X157024590Y-89893752D01*
X157024590Y-89893752D02*
X156948400Y-89855657D01*
X156948400Y-89855657D02*
X156757924Y-89855657D01*
X156757924Y-89855657D02*
X156681733Y-89893752D01*
X156681733Y-89893752D02*
X156643638Y-89931847D01*
X156643638Y-89931847D02*
X156605543Y-90008038D01*
X156605543Y-90008038D02*
X156605543Y-90198514D01*
X156605543Y-90198514D02*
X156643638Y-90274704D01*
X156643638Y-90274704D02*
X156681733Y-90312800D01*
X156681733Y-90312800D02*
X156757924Y-90350895D01*
X156757924Y-90350895D02*
X156948400Y-90350895D01*
X156948400Y-90350895D02*
X157024590Y-90312800D01*
X157024590Y-90312800D02*
X157062686Y-90274704D01*
X170700780Y-91646895D02*
X170967447Y-91265942D01*
X171157923Y-91646895D02*
X171157923Y-90846895D01*
X171157923Y-90846895D02*
X170853161Y-90846895D01*
X170853161Y-90846895D02*
X170776971Y-90884990D01*
X170776971Y-90884990D02*
X170738876Y-90923085D01*
X170738876Y-90923085D02*
X170700780Y-90999276D01*
X170700780Y-90999276D02*
X170700780Y-91113561D01*
X170700780Y-91113561D02*
X170738876Y-91189752D01*
X170738876Y-91189752D02*
X170776971Y-91227847D01*
X170776971Y-91227847D02*
X170853161Y-91265942D01*
X170853161Y-91265942D02*
X171157923Y-91265942D01*
X170243638Y-91646895D02*
X170319828Y-91608800D01*
X170319828Y-91608800D02*
X170357923Y-91532609D01*
X170357923Y-91532609D02*
X170357923Y-90846895D01*
X169938875Y-91646895D02*
X169938875Y-91113561D01*
X169938875Y-90846895D02*
X169976971Y-90884990D01*
X169976971Y-90884990D02*
X169938875Y-90923085D01*
X169938875Y-90923085D02*
X169900780Y-90884990D01*
X169900780Y-90884990D02*
X169938875Y-90846895D01*
X169938875Y-90846895D02*
X169938875Y-90923085D01*
X169557923Y-91646895D02*
X169557923Y-91113561D01*
X169557923Y-91189752D02*
X169519828Y-91151657D01*
X169519828Y-91151657D02*
X169443638Y-91113561D01*
X169443638Y-91113561D02*
X169329352Y-91113561D01*
X169329352Y-91113561D02*
X169253161Y-91151657D01*
X169253161Y-91151657D02*
X169215066Y-91227847D01*
X169215066Y-91227847D02*
X169215066Y-91646895D01*
X169215066Y-91227847D02*
X169176971Y-91151657D01*
X169176971Y-91151657D02*
X169100780Y-91113561D01*
X169100780Y-91113561D02*
X168986495Y-91113561D01*
X168986495Y-91113561D02*
X168910304Y-91151657D01*
X168910304Y-91151657D02*
X168872209Y-91227847D01*
X168872209Y-91227847D02*
X168872209Y-91646895D01*
X168072209Y-91646895D02*
X168529352Y-91646895D01*
X168300780Y-91646895D02*
X168300780Y-90846895D01*
X168300780Y-90846895D02*
X168376971Y-90961180D01*
X168376971Y-90961180D02*
X168453161Y-91037371D01*
X168453161Y-91037371D02*
X168529352Y-91075466D01*
X164605543Y-91113561D02*
X164605543Y-91646895D01*
X164796019Y-90808800D02*
X164986496Y-91380228D01*
X164986496Y-91380228D02*
X164491257Y-91380228D01*
X164262686Y-90846895D02*
X163729352Y-90846895D01*
X163729352Y-90846895D02*
X164072210Y-91646895D01*
X163272209Y-90846895D02*
X163196019Y-90846895D01*
X163196019Y-90846895D02*
X163119828Y-90884990D01*
X163119828Y-90884990D02*
X163081733Y-90923085D01*
X163081733Y-90923085D02*
X163043638Y-90999276D01*
X163043638Y-90999276D02*
X163005543Y-91151657D01*
X163005543Y-91151657D02*
X163005543Y-91342133D01*
X163005543Y-91342133D02*
X163043638Y-91494514D01*
X163043638Y-91494514D02*
X163081733Y-91570704D01*
X163081733Y-91570704D02*
X163119828Y-91608800D01*
X163119828Y-91608800D02*
X163196019Y-91646895D01*
X163196019Y-91646895D02*
X163272209Y-91646895D01*
X163272209Y-91646895D02*
X163348400Y-91608800D01*
X163348400Y-91608800D02*
X163386495Y-91570704D01*
X163386495Y-91570704D02*
X163424590Y-91494514D01*
X163424590Y-91494514D02*
X163462686Y-91342133D01*
X163462686Y-91342133D02*
X163462686Y-91151657D01*
X163462686Y-91151657D02*
X163424590Y-90999276D01*
X163424590Y-90999276D02*
X163386495Y-90923085D01*
X163386495Y-90923085D02*
X163348400Y-90884990D01*
X163348400Y-90884990D02*
X163272209Y-90846895D01*
X162662685Y-91646895D02*
X162662685Y-90846895D01*
X162586495Y-91342133D02*
X162357923Y-91646895D01*
X162357923Y-91113561D02*
X162662685Y-91418323D01*
X158434115Y-91189752D02*
X158510305Y-91151657D01*
X158510305Y-91151657D02*
X158548400Y-91113561D01*
X158548400Y-91113561D02*
X158586496Y-91037371D01*
X158586496Y-91037371D02*
X158586496Y-90999276D01*
X158586496Y-90999276D02*
X158548400Y-90923085D01*
X158548400Y-90923085D02*
X158510305Y-90884990D01*
X158510305Y-90884990D02*
X158434115Y-90846895D01*
X158434115Y-90846895D02*
X158281734Y-90846895D01*
X158281734Y-90846895D02*
X158205543Y-90884990D01*
X158205543Y-90884990D02*
X158167448Y-90923085D01*
X158167448Y-90923085D02*
X158129353Y-90999276D01*
X158129353Y-90999276D02*
X158129353Y-91037371D01*
X158129353Y-91037371D02*
X158167448Y-91113561D01*
X158167448Y-91113561D02*
X158205543Y-91151657D01*
X158205543Y-91151657D02*
X158281734Y-91189752D01*
X158281734Y-91189752D02*
X158434115Y-91189752D01*
X158434115Y-91189752D02*
X158510305Y-91227847D01*
X158510305Y-91227847D02*
X158548400Y-91265942D01*
X158548400Y-91265942D02*
X158586496Y-91342133D01*
X158586496Y-91342133D02*
X158586496Y-91494514D01*
X158586496Y-91494514D02*
X158548400Y-91570704D01*
X158548400Y-91570704D02*
X158510305Y-91608800D01*
X158510305Y-91608800D02*
X158434115Y-91646895D01*
X158434115Y-91646895D02*
X158281734Y-91646895D01*
X158281734Y-91646895D02*
X158205543Y-91608800D01*
X158205543Y-91608800D02*
X158167448Y-91570704D01*
X158167448Y-91570704D02*
X158129353Y-91494514D01*
X158129353Y-91494514D02*
X158129353Y-91342133D01*
X158129353Y-91342133D02*
X158167448Y-91265942D01*
X158167448Y-91265942D02*
X158205543Y-91227847D01*
X158205543Y-91227847D02*
X158281734Y-91189752D01*
X157634114Y-90846895D02*
X157557924Y-90846895D01*
X157557924Y-90846895D02*
X157481733Y-90884990D01*
X157481733Y-90884990D02*
X157443638Y-90923085D01*
X157443638Y-90923085D02*
X157405543Y-90999276D01*
X157405543Y-90999276D02*
X157367448Y-91151657D01*
X157367448Y-91151657D02*
X157367448Y-91342133D01*
X157367448Y-91342133D02*
X157405543Y-91494514D01*
X157405543Y-91494514D02*
X157443638Y-91570704D01*
X157443638Y-91570704D02*
X157481733Y-91608800D01*
X157481733Y-91608800D02*
X157557924Y-91646895D01*
X157557924Y-91646895D02*
X157634114Y-91646895D01*
X157634114Y-91646895D02*
X157710305Y-91608800D01*
X157710305Y-91608800D02*
X157748400Y-91570704D01*
X157748400Y-91570704D02*
X157786495Y-91494514D01*
X157786495Y-91494514D02*
X157824591Y-91342133D01*
X157824591Y-91342133D02*
X157824591Y-91151657D01*
X157824591Y-91151657D02*
X157786495Y-90999276D01*
X157786495Y-90999276D02*
X157748400Y-90923085D01*
X157748400Y-90923085D02*
X157710305Y-90884990D01*
X157710305Y-90884990D02*
X157634114Y-90846895D01*
X156643638Y-90846895D02*
X157024590Y-90846895D01*
X157024590Y-90846895D02*
X157062686Y-91227847D01*
X157062686Y-91227847D02*
X157024590Y-91189752D01*
X157024590Y-91189752D02*
X156948400Y-91151657D01*
X156948400Y-91151657D02*
X156757924Y-91151657D01*
X156757924Y-91151657D02*
X156681733Y-91189752D01*
X156681733Y-91189752D02*
X156643638Y-91227847D01*
X156643638Y-91227847D02*
X156605543Y-91304038D01*
X156605543Y-91304038D02*
X156605543Y-91494514D01*
X156605543Y-91494514D02*
X156643638Y-91570704D01*
X156643638Y-91570704D02*
X156681733Y-91608800D01*
X156681733Y-91608800D02*
X156757924Y-91646895D01*
X156757924Y-91646895D02*
X156948400Y-91646895D01*
X156948400Y-91646895D02*
X157024590Y-91608800D01*
X157024590Y-91608800D02*
X157062686Y-91570704D01*
X182733961Y-79802019D02*
X182400628Y-80802019D01*
X182400628Y-80802019D02*
X182067295Y-79802019D01*
X181543485Y-79802019D02*
X181353009Y-79802019D01*
X181353009Y-79802019D02*
X181257771Y-79849638D01*
X181257771Y-79849638D02*
X181162533Y-79944876D01*
X181162533Y-79944876D02*
X181114914Y-80135352D01*
X181114914Y-80135352D02*
X181114914Y-80468685D01*
X181114914Y-80468685D02*
X181162533Y-80659161D01*
X181162533Y-80659161D02*
X181257771Y-80754400D01*
X181257771Y-80754400D02*
X181353009Y-80802019D01*
X181353009Y-80802019D02*
X181543485Y-80802019D01*
X181543485Y-80802019D02*
X181638723Y-80754400D01*
X181638723Y-80754400D02*
X181733961Y-80659161D01*
X181733961Y-80659161D02*
X181781580Y-80468685D01*
X181781580Y-80468685D02*
X181781580Y-80135352D01*
X181781580Y-80135352D02*
X181733961Y-79944876D01*
X181733961Y-79944876D02*
X181638723Y-79849638D01*
X181638723Y-79849638D02*
X181543485Y-79802019D01*
X180686342Y-79802019D02*
X180686342Y-80611542D01*
X180686342Y-80611542D02*
X180638723Y-80706780D01*
X180638723Y-80706780D02*
X180591104Y-80754400D01*
X180591104Y-80754400D02*
X180495866Y-80802019D01*
X180495866Y-80802019D02*
X180305390Y-80802019D01*
X180305390Y-80802019D02*
X180210152Y-80754400D01*
X180210152Y-80754400D02*
X180162533Y-80706780D01*
X180162533Y-80706780D02*
X180114914Y-80611542D01*
X180114914Y-80611542D02*
X180114914Y-79802019D01*
X179781580Y-79802019D02*
X179210152Y-79802019D01*
X179495866Y-80802019D02*
X179495866Y-79802019D01*
X177638723Y-79802019D02*
X178114913Y-79802019D01*
X178114913Y-79802019D02*
X178162532Y-80278209D01*
X178162532Y-80278209D02*
X178114913Y-80230590D01*
X178114913Y-80230590D02*
X178019675Y-80182971D01*
X178019675Y-80182971D02*
X177781580Y-80182971D01*
X177781580Y-80182971D02*
X177686342Y-80230590D01*
X177686342Y-80230590D02*
X177638723Y-80278209D01*
X177638723Y-80278209D02*
X177591104Y-80373447D01*
X177591104Y-80373447D02*
X177591104Y-80611542D01*
X177591104Y-80611542D02*
X177638723Y-80706780D01*
X177638723Y-80706780D02*
X177686342Y-80754400D01*
X177686342Y-80754400D02*
X177781580Y-80802019D01*
X177781580Y-80802019D02*
X178019675Y-80802019D01*
X178019675Y-80802019D02*
X178114913Y-80754400D01*
X178114913Y-80754400D02*
X178162532Y-80706780D01*
X177162532Y-80706780D02*
X177114913Y-80754400D01*
X177114913Y-80754400D02*
X177162532Y-80802019D01*
X177162532Y-80802019D02*
X177210151Y-80754400D01*
X177210151Y-80754400D02*
X177162532Y-80706780D01*
X177162532Y-80706780D02*
X177162532Y-80802019D01*
X176210152Y-79802019D02*
X176686342Y-79802019D01*
X176686342Y-79802019D02*
X176733961Y-80278209D01*
X176733961Y-80278209D02*
X176686342Y-80230590D01*
X176686342Y-80230590D02*
X176591104Y-80182971D01*
X176591104Y-80182971D02*
X176353009Y-80182971D01*
X176353009Y-80182971D02*
X176257771Y-80230590D01*
X176257771Y-80230590D02*
X176210152Y-80278209D01*
X176210152Y-80278209D02*
X176162533Y-80373447D01*
X176162533Y-80373447D02*
X176162533Y-80611542D01*
X176162533Y-80611542D02*
X176210152Y-80706780D01*
X176210152Y-80706780D02*
X176257771Y-80754400D01*
X176257771Y-80754400D02*
X176353009Y-80802019D01*
X176353009Y-80802019D02*
X176591104Y-80802019D01*
X176591104Y-80802019D02*
X176686342Y-80754400D01*
X176686342Y-80754400D02*
X176733961Y-80706780D01*
X175876818Y-79802019D02*
X175543485Y-80802019D01*
X175543485Y-80802019D02*
X175210152Y-79802019D01*
X173686342Y-80135352D02*
X173686342Y-80802019D01*
X173924437Y-79754400D02*
X174162532Y-80468685D01*
X174162532Y-80468685D02*
X173543485Y-80468685D01*
X173210151Y-80516304D02*
X172733961Y-80516304D01*
X173305389Y-80802019D02*
X172972056Y-79802019D01*
X172972056Y-79802019D02*
X172638723Y-80802019D01*
D11*
X182000495Y-88498266D02*
X182762400Y-88498266D01*
X181898895Y-78338266D02*
X182660800Y-78338266D01*
X182279847Y-78719219D02*
X182279847Y-77957314D01*
X151028495Y-90822438D02*
X151123733Y-90774819D01*
X151123733Y-90774819D02*
X151266590Y-90774819D01*
X151266590Y-90774819D02*
X151409447Y-90822438D01*
X151409447Y-90822438D02*
X151504685Y-90917676D01*
X151504685Y-90917676D02*
X151552304Y-91012914D01*
X151552304Y-91012914D02*
X151599923Y-91203390D01*
X151599923Y-91203390D02*
X151599923Y-91346247D01*
X151599923Y-91346247D02*
X151552304Y-91536723D01*
X151552304Y-91536723D02*
X151504685Y-91631961D01*
X151504685Y-91631961D02*
X151409447Y-91727200D01*
X151409447Y-91727200D02*
X151266590Y-91774819D01*
X151266590Y-91774819D02*
X151171352Y-91774819D01*
X151171352Y-91774819D02*
X151028495Y-91727200D01*
X151028495Y-91727200D02*
X150980876Y-91679580D01*
X150980876Y-91679580D02*
X150980876Y-91346247D01*
X150980876Y-91346247D02*
X151171352Y-91346247D01*
X150552304Y-91774819D02*
X150552304Y-90774819D01*
X150552304Y-90774819D02*
X149980876Y-91774819D01*
X149980876Y-91774819D02*
X149980876Y-90774819D01*
X149504685Y-91774819D02*
X149504685Y-90774819D01*
X149504685Y-90774819D02*
X149266590Y-90774819D01*
X149266590Y-90774819D02*
X149123733Y-90822438D01*
X149123733Y-90822438D02*
X149028495Y-90917676D01*
X149028495Y-90917676D02*
X148980876Y-91012914D01*
X148980876Y-91012914D02*
X148933257Y-91203390D01*
X148933257Y-91203390D02*
X148933257Y-91346247D01*
X148933257Y-91346247D02*
X148980876Y-91536723D01*
X148980876Y-91536723D02*
X149028495Y-91631961D01*
X149028495Y-91631961D02*
X149123733Y-91727200D01*
X149123733Y-91727200D02*
X149266590Y-91774819D01*
X149266590Y-91774819D02*
X149504685Y-91774819D01*
X158299161Y-76347619D02*
X157965828Y-77347619D01*
X157965828Y-77347619D02*
X157632495Y-76347619D01*
X157299161Y-77347619D02*
X157299161Y-76347619D01*
X156822971Y-77347619D02*
X156822971Y-76347619D01*
X156822971Y-76347619D02*
X156251543Y-77347619D01*
X156251543Y-77347619D02*
X156251543Y-76347619D01*
X155061066Y-76442857D02*
X155013447Y-76395238D01*
X155013447Y-76395238D02*
X154918209Y-76347619D01*
X154918209Y-76347619D02*
X154680114Y-76347619D01*
X154680114Y-76347619D02*
X154584876Y-76395238D01*
X154584876Y-76395238D02*
X154537257Y-76442857D01*
X154537257Y-76442857D02*
X154489638Y-76538095D01*
X154489638Y-76538095D02*
X154489638Y-76633333D01*
X154489638Y-76633333D02*
X154537257Y-76776190D01*
X154537257Y-76776190D02*
X155108685Y-77347619D01*
X155108685Y-77347619D02*
X154489638Y-77347619D01*
X154061066Y-77252380D02*
X154013447Y-77300000D01*
X154013447Y-77300000D02*
X154061066Y-77347619D01*
X154061066Y-77347619D02*
X154108685Y-77300000D01*
X154108685Y-77300000D02*
X154061066Y-77252380D01*
X154061066Y-77252380D02*
X154061066Y-77347619D01*
X153537257Y-77347619D02*
X153346781Y-77347619D01*
X153346781Y-77347619D02*
X153251543Y-77300000D01*
X153251543Y-77300000D02*
X153203924Y-77252380D01*
X153203924Y-77252380D02*
X153108686Y-77109523D01*
X153108686Y-77109523D02*
X153061067Y-76919047D01*
X153061067Y-76919047D02*
X153061067Y-76538095D01*
X153061067Y-76538095D02*
X153108686Y-76442857D01*
X153108686Y-76442857D02*
X153156305Y-76395238D01*
X153156305Y-76395238D02*
X153251543Y-76347619D01*
X153251543Y-76347619D02*
X153442019Y-76347619D01*
X153442019Y-76347619D02*
X153537257Y-76395238D01*
X153537257Y-76395238D02*
X153584876Y-76442857D01*
X153584876Y-76442857D02*
X153632495Y-76538095D01*
X153632495Y-76538095D02*
X153632495Y-76776190D01*
X153632495Y-76776190D02*
X153584876Y-76871428D01*
X153584876Y-76871428D02*
X153537257Y-76919047D01*
X153537257Y-76919047D02*
X153442019Y-76966666D01*
X153442019Y-76966666D02*
X153251543Y-76966666D01*
X153251543Y-76966666D02*
X153156305Y-76919047D01*
X153156305Y-76919047D02*
X153108686Y-76871428D01*
X153108686Y-76871428D02*
X153061067Y-76776190D01*
X152632495Y-76966666D02*
X151870591Y-76966666D01*
X150870591Y-77347619D02*
X151442019Y-77347619D01*
X151156305Y-77347619D02*
X151156305Y-76347619D01*
X151156305Y-76347619D02*
X151251543Y-76490476D01*
X151251543Y-76490476D02*
X151346781Y-76585714D01*
X151346781Y-76585714D02*
X151442019Y-76633333D01*
X150299162Y-76776190D02*
X150394400Y-76728571D01*
X150394400Y-76728571D02*
X150442019Y-76680952D01*
X150442019Y-76680952D02*
X150489638Y-76585714D01*
X150489638Y-76585714D02*
X150489638Y-76538095D01*
X150489638Y-76538095D02*
X150442019Y-76442857D01*
X150442019Y-76442857D02*
X150394400Y-76395238D01*
X150394400Y-76395238D02*
X150299162Y-76347619D01*
X150299162Y-76347619D02*
X150108686Y-76347619D01*
X150108686Y-76347619D02*
X150013448Y-76395238D01*
X150013448Y-76395238D02*
X149965829Y-76442857D01*
X149965829Y-76442857D02*
X149918210Y-76538095D01*
X149918210Y-76538095D02*
X149918210Y-76585714D01*
X149918210Y-76585714D02*
X149965829Y-76680952D01*
X149965829Y-76680952D02*
X150013448Y-76728571D01*
X150013448Y-76728571D02*
X150108686Y-76776190D01*
X150108686Y-76776190D02*
X150299162Y-76776190D01*
X150299162Y-76776190D02*
X150394400Y-76823809D01*
X150394400Y-76823809D02*
X150442019Y-76871428D01*
X150442019Y-76871428D02*
X150489638Y-76966666D01*
X150489638Y-76966666D02*
X150489638Y-77157142D01*
X150489638Y-77157142D02*
X150442019Y-77252380D01*
X150442019Y-77252380D02*
X150394400Y-77300000D01*
X150394400Y-77300000D02*
X150299162Y-77347619D01*
X150299162Y-77347619D02*
X150108686Y-77347619D01*
X150108686Y-77347619D02*
X150013448Y-77300000D01*
X150013448Y-77300000D02*
X149965829Y-77252380D01*
X149965829Y-77252380D02*
X149918210Y-77157142D01*
X149918210Y-77157142D02*
X149918210Y-76966666D01*
X149918210Y-76966666D02*
X149965829Y-76871428D01*
X149965829Y-76871428D02*
X150013448Y-76823809D01*
X150013448Y-76823809D02*
X150108686Y-76776190D01*
X149632495Y-76347619D02*
X149299162Y-77347619D01*
X149299162Y-77347619D02*
X148965829Y-76347619D01*
D10*
%TO.C,Cout4*%
X181469380Y-87085656D02*
X181517000Y-87038037D01*
X181517000Y-87038037D02*
X181564619Y-86895180D01*
X181564619Y-86895180D02*
X181564619Y-86799942D01*
X181564619Y-86799942D02*
X181517000Y-86657085D01*
X181517000Y-86657085D02*
X181421761Y-86561847D01*
X181421761Y-86561847D02*
X181326523Y-86514228D01*
X181326523Y-86514228D02*
X181136047Y-86466609D01*
X181136047Y-86466609D02*
X180993190Y-86466609D01*
X180993190Y-86466609D02*
X180802714Y-86514228D01*
X180802714Y-86514228D02*
X180707476Y-86561847D01*
X180707476Y-86561847D02*
X180612238Y-86657085D01*
X180612238Y-86657085D02*
X180564619Y-86799942D01*
X180564619Y-86799942D02*
X180564619Y-86895180D01*
X180564619Y-86895180D02*
X180612238Y-87038037D01*
X180612238Y-87038037D02*
X180659857Y-87085656D01*
X181564619Y-87657085D02*
X181517000Y-87561847D01*
X181517000Y-87561847D02*
X181469380Y-87514228D01*
X181469380Y-87514228D02*
X181374142Y-87466609D01*
X181374142Y-87466609D02*
X181088428Y-87466609D01*
X181088428Y-87466609D02*
X180993190Y-87514228D01*
X180993190Y-87514228D02*
X180945571Y-87561847D01*
X180945571Y-87561847D02*
X180897952Y-87657085D01*
X180897952Y-87657085D02*
X180897952Y-87799942D01*
X180897952Y-87799942D02*
X180945571Y-87895180D01*
X180945571Y-87895180D02*
X180993190Y-87942799D01*
X180993190Y-87942799D02*
X181088428Y-87990418D01*
X181088428Y-87990418D02*
X181374142Y-87990418D01*
X181374142Y-87990418D02*
X181469380Y-87942799D01*
X181469380Y-87942799D02*
X181517000Y-87895180D01*
X181517000Y-87895180D02*
X181564619Y-87799942D01*
X181564619Y-87799942D02*
X181564619Y-87657085D01*
X180897952Y-88847561D02*
X181564619Y-88847561D01*
X180897952Y-88418990D02*
X181421761Y-88418990D01*
X181421761Y-88418990D02*
X181517000Y-88466609D01*
X181517000Y-88466609D02*
X181564619Y-88561847D01*
X181564619Y-88561847D02*
X181564619Y-88704704D01*
X181564619Y-88704704D02*
X181517000Y-88799942D01*
X181517000Y-88799942D02*
X181469380Y-88847561D01*
X180897952Y-89180895D02*
X180897952Y-89561847D01*
X180564619Y-89323752D02*
X181421761Y-89323752D01*
X181421761Y-89323752D02*
X181517000Y-89371371D01*
X181517000Y-89371371D02*
X181564619Y-89466609D01*
X181564619Y-89466609D02*
X181564619Y-89561847D01*
X180897952Y-90323752D02*
X181564619Y-90323752D01*
X180517000Y-90085657D02*
X181231285Y-89847562D01*
X181231285Y-89847562D02*
X181231285Y-90466609D01*
%TO.C,Cout2*%
X176389380Y-87085656D02*
X176437000Y-87038037D01*
X176437000Y-87038037D02*
X176484619Y-86895180D01*
X176484619Y-86895180D02*
X176484619Y-86799942D01*
X176484619Y-86799942D02*
X176437000Y-86657085D01*
X176437000Y-86657085D02*
X176341761Y-86561847D01*
X176341761Y-86561847D02*
X176246523Y-86514228D01*
X176246523Y-86514228D02*
X176056047Y-86466609D01*
X176056047Y-86466609D02*
X175913190Y-86466609D01*
X175913190Y-86466609D02*
X175722714Y-86514228D01*
X175722714Y-86514228D02*
X175627476Y-86561847D01*
X175627476Y-86561847D02*
X175532238Y-86657085D01*
X175532238Y-86657085D02*
X175484619Y-86799942D01*
X175484619Y-86799942D02*
X175484619Y-86895180D01*
X175484619Y-86895180D02*
X175532238Y-87038037D01*
X175532238Y-87038037D02*
X175579857Y-87085656D01*
X176484619Y-87657085D02*
X176437000Y-87561847D01*
X176437000Y-87561847D02*
X176389380Y-87514228D01*
X176389380Y-87514228D02*
X176294142Y-87466609D01*
X176294142Y-87466609D02*
X176008428Y-87466609D01*
X176008428Y-87466609D02*
X175913190Y-87514228D01*
X175913190Y-87514228D02*
X175865571Y-87561847D01*
X175865571Y-87561847D02*
X175817952Y-87657085D01*
X175817952Y-87657085D02*
X175817952Y-87799942D01*
X175817952Y-87799942D02*
X175865571Y-87895180D01*
X175865571Y-87895180D02*
X175913190Y-87942799D01*
X175913190Y-87942799D02*
X176008428Y-87990418D01*
X176008428Y-87990418D02*
X176294142Y-87990418D01*
X176294142Y-87990418D02*
X176389380Y-87942799D01*
X176389380Y-87942799D02*
X176437000Y-87895180D01*
X176437000Y-87895180D02*
X176484619Y-87799942D01*
X176484619Y-87799942D02*
X176484619Y-87657085D01*
X175817952Y-88847561D02*
X176484619Y-88847561D01*
X175817952Y-88418990D02*
X176341761Y-88418990D01*
X176341761Y-88418990D02*
X176437000Y-88466609D01*
X176437000Y-88466609D02*
X176484619Y-88561847D01*
X176484619Y-88561847D02*
X176484619Y-88704704D01*
X176484619Y-88704704D02*
X176437000Y-88799942D01*
X176437000Y-88799942D02*
X176389380Y-88847561D01*
X175817952Y-89180895D02*
X175817952Y-89561847D01*
X175484619Y-89323752D02*
X176341761Y-89323752D01*
X176341761Y-89323752D02*
X176437000Y-89371371D01*
X176437000Y-89371371D02*
X176484619Y-89466609D01*
X176484619Y-89466609D02*
X176484619Y-89561847D01*
X175579857Y-89847562D02*
X175532238Y-89895181D01*
X175532238Y-89895181D02*
X175484619Y-89990419D01*
X175484619Y-89990419D02*
X175484619Y-90228514D01*
X175484619Y-90228514D02*
X175532238Y-90323752D01*
X175532238Y-90323752D02*
X175579857Y-90371371D01*
X175579857Y-90371371D02*
X175675095Y-90418990D01*
X175675095Y-90418990D02*
X175770333Y-90418990D01*
X175770333Y-90418990D02*
X175913190Y-90371371D01*
X175913190Y-90371371D02*
X176484619Y-89799943D01*
X176484619Y-89799943D02*
X176484619Y-90418990D01*
%TO.C,Cout1*%
X173849380Y-86971656D02*
X173897000Y-86924037D01*
X173897000Y-86924037D02*
X173944619Y-86781180D01*
X173944619Y-86781180D02*
X173944619Y-86685942D01*
X173944619Y-86685942D02*
X173897000Y-86543085D01*
X173897000Y-86543085D02*
X173801761Y-86447847D01*
X173801761Y-86447847D02*
X173706523Y-86400228D01*
X173706523Y-86400228D02*
X173516047Y-86352609D01*
X173516047Y-86352609D02*
X173373190Y-86352609D01*
X173373190Y-86352609D02*
X173182714Y-86400228D01*
X173182714Y-86400228D02*
X173087476Y-86447847D01*
X173087476Y-86447847D02*
X172992238Y-86543085D01*
X172992238Y-86543085D02*
X172944619Y-86685942D01*
X172944619Y-86685942D02*
X172944619Y-86781180D01*
X172944619Y-86781180D02*
X172992238Y-86924037D01*
X172992238Y-86924037D02*
X173039857Y-86971656D01*
X173944619Y-87543085D02*
X173897000Y-87447847D01*
X173897000Y-87447847D02*
X173849380Y-87400228D01*
X173849380Y-87400228D02*
X173754142Y-87352609D01*
X173754142Y-87352609D02*
X173468428Y-87352609D01*
X173468428Y-87352609D02*
X173373190Y-87400228D01*
X173373190Y-87400228D02*
X173325571Y-87447847D01*
X173325571Y-87447847D02*
X173277952Y-87543085D01*
X173277952Y-87543085D02*
X173277952Y-87685942D01*
X173277952Y-87685942D02*
X173325571Y-87781180D01*
X173325571Y-87781180D02*
X173373190Y-87828799D01*
X173373190Y-87828799D02*
X173468428Y-87876418D01*
X173468428Y-87876418D02*
X173754142Y-87876418D01*
X173754142Y-87876418D02*
X173849380Y-87828799D01*
X173849380Y-87828799D02*
X173897000Y-87781180D01*
X173897000Y-87781180D02*
X173944619Y-87685942D01*
X173944619Y-87685942D02*
X173944619Y-87543085D01*
X173277952Y-88733561D02*
X173944619Y-88733561D01*
X173277952Y-88304990D02*
X173801761Y-88304990D01*
X173801761Y-88304990D02*
X173897000Y-88352609D01*
X173897000Y-88352609D02*
X173944619Y-88447847D01*
X173944619Y-88447847D02*
X173944619Y-88590704D01*
X173944619Y-88590704D02*
X173897000Y-88685942D01*
X173897000Y-88685942D02*
X173849380Y-88733561D01*
X173277952Y-89066895D02*
X173277952Y-89447847D01*
X172944619Y-89209752D02*
X173801761Y-89209752D01*
X173801761Y-89209752D02*
X173897000Y-89257371D01*
X173897000Y-89257371D02*
X173944619Y-89352609D01*
X173944619Y-89352609D02*
X173944619Y-89447847D01*
X173944619Y-90304990D02*
X173944619Y-89733562D01*
X173944619Y-90019276D02*
X172944619Y-90019276D01*
X172944619Y-90019276D02*
X173087476Y-89924038D01*
X173087476Y-89924038D02*
X173182714Y-89828800D01*
X173182714Y-89828800D02*
X173230333Y-89733562D01*
%TO.C,Cout3*%
X178929380Y-87085656D02*
X178977000Y-87038037D01*
X178977000Y-87038037D02*
X179024619Y-86895180D01*
X179024619Y-86895180D02*
X179024619Y-86799942D01*
X179024619Y-86799942D02*
X178977000Y-86657085D01*
X178977000Y-86657085D02*
X178881761Y-86561847D01*
X178881761Y-86561847D02*
X178786523Y-86514228D01*
X178786523Y-86514228D02*
X178596047Y-86466609D01*
X178596047Y-86466609D02*
X178453190Y-86466609D01*
X178453190Y-86466609D02*
X178262714Y-86514228D01*
X178262714Y-86514228D02*
X178167476Y-86561847D01*
X178167476Y-86561847D02*
X178072238Y-86657085D01*
X178072238Y-86657085D02*
X178024619Y-86799942D01*
X178024619Y-86799942D02*
X178024619Y-86895180D01*
X178024619Y-86895180D02*
X178072238Y-87038037D01*
X178072238Y-87038037D02*
X178119857Y-87085656D01*
X179024619Y-87657085D02*
X178977000Y-87561847D01*
X178977000Y-87561847D02*
X178929380Y-87514228D01*
X178929380Y-87514228D02*
X178834142Y-87466609D01*
X178834142Y-87466609D02*
X178548428Y-87466609D01*
X178548428Y-87466609D02*
X178453190Y-87514228D01*
X178453190Y-87514228D02*
X178405571Y-87561847D01*
X178405571Y-87561847D02*
X178357952Y-87657085D01*
X178357952Y-87657085D02*
X178357952Y-87799942D01*
X178357952Y-87799942D02*
X178405571Y-87895180D01*
X178405571Y-87895180D02*
X178453190Y-87942799D01*
X178453190Y-87942799D02*
X178548428Y-87990418D01*
X178548428Y-87990418D02*
X178834142Y-87990418D01*
X178834142Y-87990418D02*
X178929380Y-87942799D01*
X178929380Y-87942799D02*
X178977000Y-87895180D01*
X178977000Y-87895180D02*
X179024619Y-87799942D01*
X179024619Y-87799942D02*
X179024619Y-87657085D01*
X178357952Y-88847561D02*
X179024619Y-88847561D01*
X178357952Y-88418990D02*
X178881761Y-88418990D01*
X178881761Y-88418990D02*
X178977000Y-88466609D01*
X178977000Y-88466609D02*
X179024619Y-88561847D01*
X179024619Y-88561847D02*
X179024619Y-88704704D01*
X179024619Y-88704704D02*
X178977000Y-88799942D01*
X178977000Y-88799942D02*
X178929380Y-88847561D01*
X178357952Y-89180895D02*
X178357952Y-89561847D01*
X178024619Y-89323752D02*
X178881761Y-89323752D01*
X178881761Y-89323752D02*
X178977000Y-89371371D01*
X178977000Y-89371371D02*
X179024619Y-89466609D01*
X179024619Y-89466609D02*
X179024619Y-89561847D01*
X178024619Y-89799943D02*
X178024619Y-90418990D01*
X178024619Y-90418990D02*
X178405571Y-90085657D01*
X178405571Y-90085657D02*
X178405571Y-90228514D01*
X178405571Y-90228514D02*
X178453190Y-90323752D01*
X178453190Y-90323752D02*
X178500809Y-90371371D01*
X178500809Y-90371371D02*
X178596047Y-90418990D01*
X178596047Y-90418990D02*
X178834142Y-90418990D01*
X178834142Y-90418990D02*
X178929380Y-90371371D01*
X178929380Y-90371371D02*
X178977000Y-90323752D01*
X178977000Y-90323752D02*
X179024619Y-90228514D01*
X179024619Y-90228514D02*
X179024619Y-89942800D01*
X179024619Y-89942800D02*
X178977000Y-89847562D01*
X178977000Y-89847562D02*
X178929380Y-89799943D01*
D12*
%TO.C,Cout4*%
X181554800Y-83411748D02*
X181554800Y-84834252D01*
X179734800Y-83411748D02*
X179734800Y-84834252D01*
%TO.C,Cout2*%
X176474800Y-83411748D02*
X176474800Y-84834252D01*
X174654800Y-83411748D02*
X174654800Y-84834252D01*
D11*
%TO.C,P1*%
X197548800Y-77558000D02*
X197548800Y-90658000D01*
X188748800Y-77558000D02*
X197548800Y-77558000D01*
X185748800Y-77558000D02*
X183448800Y-77558000D01*
X183448800Y-77558000D02*
X183448800Y-90658000D01*
X197548800Y-90658000D02*
X188748800Y-90658000D01*
X183448800Y-90658000D02*
X185748800Y-90658000D01*
D12*
%TO.C,Cout1*%
X173934800Y-83411748D02*
X173934800Y-84834252D01*
X172114800Y-83411748D02*
X172114800Y-84834252D01*
%TO.C,Cout3*%
X179014800Y-83411748D02*
X179014800Y-84834252D01*
X177194800Y-83411748D02*
X177194800Y-84834252D01*
%TD*%
M02*
