%TF.GenerationSoftware,KiCad,Pcbnew,7.0.1*%
%TF.CreationDate,2023-04-26T12:17:49+02:00*%
%TF.ProjectId,L5988D_RPI_POWER_SUPPLY,4c353938-3844-45f5-9250-495f504f5745,rev?*%
%TF.SameCoordinates,Original*%
%TF.FileFunction,Copper,L2,Bot*%
%TF.FilePolarity,Positive*%
%FSLAX46Y46*%
G04 Gerber Fmt 4.6, Leading zero omitted, Abs format (unit mm)*
G04 Created by KiCad (PCBNEW 7.0.1) date 2023-04-26 12:17:49*
%MOMM*%
%LPD*%
G01*
G04 APERTURE LIST*
G04 Aperture macros list*
%AMRoundRect*
0 Rectangle with rounded corners*
0 $1 Rounding radius*
0 $2 $3 $4 $5 $6 $7 $8 $9 X,Y pos of 4 corners*
0 Add a 4 corners polygon primitive as box body*
4,1,4,$2,$3,$4,$5,$6,$7,$8,$9,$2,$3,0*
0 Add four circle primitives for the rounded corners*
1,1,$1+$1,$2,$3*
1,1,$1+$1,$4,$5*
1,1,$1+$1,$6,$7*
1,1,$1+$1,$8,$9*
0 Add four rect primitives between the rounded corners*
20,1,$1+$1,$2,$3,$4,$5,0*
20,1,$1+$1,$4,$5,$6,$7,0*
20,1,$1+$1,$6,$7,$8,$9,0*
20,1,$1+$1,$8,$9,$2,$3,0*%
G04 Aperture macros list end*
%TA.AperFunction,SMDPad,CuDef*%
%ADD10RoundRect,0.250000X-0.650000X0.325000X-0.650000X-0.325000X0.650000X-0.325000X0.650000X0.325000X0*%
%TD*%
%TA.AperFunction,ComponentPad*%
%ADD11C,2.300000*%
%TD*%
%TA.AperFunction,ComponentPad*%
%ADD12R,1.428000X1.428000*%
%TD*%
%TA.AperFunction,ComponentPad*%
%ADD13C,1.428000*%
%TD*%
%TA.AperFunction,ViaPad*%
%ADD14C,0.800000*%
%TD*%
%TA.AperFunction,Conductor*%
%ADD15C,0.800000*%
%TD*%
%TA.AperFunction,Conductor*%
%ADD16C,1.000000*%
%TD*%
%TA.AperFunction,Conductor*%
%ADD17C,0.500000*%
%TD*%
%TA.AperFunction,Conductor*%
%ADD18C,0.250000*%
%TD*%
%TA.AperFunction,Conductor*%
%ADD19C,1.600000*%
%TD*%
%TA.AperFunction,Conductor*%
%ADD20C,1.800000*%
%TD*%
G04 APERTURE END LIST*
D10*
%TO.P,Cout4,1*%
%TO.N,/Vout*%
X180644800Y-82648000D03*
%TO.P,Cout4,2*%
%TO.N,GNDPWR*%
X180644800Y-85598000D03*
%TD*%
%TO.P,Cout2,1*%
%TO.N,/Vout*%
X175564800Y-82648000D03*
%TO.P,Cout2,2*%
%TO.N,GNDPWR*%
X175564800Y-85598000D03*
%TD*%
D11*
%TO.P,P1,*%
%TO.N,GNDPWR*%
X187248800Y-77538000D03*
X187248800Y-90678000D03*
D12*
%TO.P,P1,1,VBUS*%
%TO.N,/Vout*%
X184538800Y-80608000D03*
D13*
%TO.P,P1,2,D-*%
%TO.N,unconnected-(P1-D--Pad2)*%
X184538800Y-83108000D03*
%TO.P,P1,3,D+*%
%TO.N,unconnected-(P1-D+-Pad3)*%
X184538800Y-85108000D03*
%TO.P,P1,4,GND*%
%TO.N,GNDPWR*%
X184538800Y-87608000D03*
%TD*%
D10*
%TO.P,Cout1,1*%
%TO.N,/Vout*%
X173024800Y-82648000D03*
%TO.P,Cout1,2*%
%TO.N,GNDPWR*%
X173024800Y-85598000D03*
%TD*%
%TO.P,Cout3,1*%
%TO.N,/Vout*%
X178104800Y-82648000D03*
%TO.P,Cout3,2*%
%TO.N,GNDPWR*%
X178104800Y-85598000D03*
%TD*%
D14*
%TO.N,/COMP*%
X156006800Y-83820000D03*
X156006800Y-86156800D03*
%TO.N,/Vbat*%
X151384000Y-79959200D03*
X155803600Y-78587600D03*
X155803600Y-79959200D03*
X153009600Y-79959200D03*
X154482800Y-78536800D03*
X153009600Y-78536800D03*
X151384000Y-78486000D03*
X154482800Y-79959200D03*
%TO.N,GNDPWR*%
X175437800Y-89916000D03*
X161036000Y-84175600D03*
X160528000Y-85191600D03*
X172770800Y-89789000D03*
X181787800Y-89027000D03*
X180517800Y-89916000D03*
X159054800Y-85725000D03*
X161086800Y-81940400D03*
X159969200Y-81991200D03*
X181787800Y-90424000D03*
X179247800Y-89027000D03*
X177977800Y-91440000D03*
X177977800Y-89916000D03*
X168833800Y-86233000D03*
X163372800Y-82042000D03*
X153525300Y-84836000D03*
X175437800Y-91440000D03*
X183057800Y-89916000D03*
X151180800Y-85750400D03*
X151180800Y-87071200D03*
X183057800Y-91440000D03*
X168833800Y-83439000D03*
X184327800Y-89027000D03*
X174040800Y-88900000D03*
X184327800Y-90424000D03*
X151180800Y-84455000D03*
X172364400Y-87426800D03*
X172770800Y-91313000D03*
X158800800Y-86868000D03*
X175437800Y-87884000D03*
X159867600Y-84124800D03*
X168833800Y-84734400D03*
X180517800Y-91440000D03*
X176707800Y-89027000D03*
X160782000Y-83007200D03*
X159715200Y-83007200D03*
X176707800Y-90424000D03*
X151180800Y-88392000D03*
X174040800Y-90297000D03*
X179247800Y-90424000D03*
X165404800Y-86995000D03*
X151180800Y-89662000D03*
%TO.N,/Vout*%
X182803800Y-79121000D03*
X172516800Y-77470000D03*
X178993800Y-78105000D03*
X177723800Y-79121000D03*
X176453800Y-76708000D03*
X175183800Y-79121000D03*
X181533800Y-78105000D03*
X173786800Y-77978000D03*
X176453800Y-78105000D03*
X182803800Y-77597000D03*
X173786800Y-76581000D03*
X180263800Y-77597000D03*
X178993800Y-76708000D03*
X184073800Y-78105000D03*
X172516800Y-78994000D03*
X177723800Y-77597000D03*
X175183800Y-77597000D03*
X180263800Y-79121000D03*
X181533800Y-76708000D03*
X160578800Y-88392000D03*
%TO.N,/FB*%
X156260800Y-88646000D03*
X152704800Y-87884000D03*
%TO.N,Net-(J2-Pin_1)*%
X165460800Y-83058000D03*
X162154801Y-83410102D03*
%TO.N,/OUT*%
X159689800Y-80518000D03*
X171119800Y-85725000D03*
X161213800Y-80518000D03*
X158165800Y-80518000D03*
X161975800Y-79756000D03*
X170230800Y-84963000D03*
X170230800Y-83439000D03*
X160451800Y-79756000D03*
X170230800Y-81915000D03*
X162737800Y-80518000D03*
X171119800Y-84201000D03*
X157403800Y-79756000D03*
X158927800Y-79756000D03*
X171119800Y-82677000D03*
X163499800Y-79756000D03*
%TO.N,Net-(U1-U{slash}O{slash}S)*%
X161848800Y-85344000D03*
X167182800Y-83058000D03*
%TD*%
D15*
%TO.N,/COMP*%
X156006800Y-83820000D02*
X156006800Y-86156800D01*
%TO.N,GNDPWR*%
X180644800Y-85598000D02*
X178104800Y-85598000D01*
X172364400Y-87426800D02*
X172618400Y-87172800D01*
D16*
X173024800Y-85598000D02*
X171627800Y-86995000D01*
D15*
X178104800Y-85598000D02*
X175564800Y-85598000D01*
D17*
X158329800Y-87339000D02*
X158800800Y-86868000D01*
D16*
X172466000Y-87299800D02*
X172466000Y-85521800D01*
D18*
X175564800Y-87757000D02*
X175437800Y-87884000D01*
D17*
X155706495Y-87339000D02*
X158329800Y-87339000D01*
D19*
X172008800Y-87071200D02*
X171955000Y-87125000D01*
X170030600Y-87125000D02*
X169976800Y-87071200D01*
D16*
X175564800Y-85598000D02*
X175564800Y-87757000D01*
D20*
X169138600Y-87045800D02*
X168376600Y-86283800D01*
X168757600Y-86233000D02*
X167995600Y-86995000D01*
D18*
X153525300Y-84836000D02*
X153525300Y-85157805D01*
D17*
X153525300Y-85157805D02*
X155706495Y-87339000D01*
D15*
X182654800Y-87608000D02*
X180644800Y-85598000D01*
X184538800Y-87608000D02*
X182654800Y-87608000D01*
D19*
X171955000Y-87125000D02*
X170030600Y-87125000D01*
D20*
X168071800Y-86995000D02*
X165404800Y-86995000D01*
D17*
%TO.N,/Vout*%
X174249800Y-83873000D02*
X173024800Y-82648000D01*
X172770800Y-88392000D02*
X174249800Y-86913000D01*
X160578800Y-88392000D02*
X172770800Y-88392000D01*
X174249800Y-86913000D02*
X174249800Y-83873000D01*
%TO.N,/FB*%
X152908000Y-88087200D02*
X155702000Y-88087200D01*
X152704800Y-87884000D02*
X152908000Y-88087200D01*
X155702000Y-88087200D02*
X156260800Y-88646000D01*
D18*
%TO.N,Net-(J2-Pin_1)*%
X165460800Y-83058000D02*
X165460800Y-83383000D01*
D15*
X165433698Y-83410102D02*
X162154801Y-83410102D01*
D18*
X165460800Y-83383000D02*
X165433698Y-83410102D01*
D15*
%TO.N,Net-(U1-U{slash}O{slash}S)*%
X167182800Y-83058000D02*
X164896800Y-85344000D01*
X164896800Y-85344000D02*
X161848800Y-85344000D01*
%TD*%
%TA.AperFunction,Conductor*%
%TO.N,GNDPWR*%
G36*
X151688800Y-90373200D02*
G01*
X147291600Y-90373200D01*
X147229600Y-90356587D01*
X147184213Y-90311200D01*
X147167600Y-90249200D01*
X147167600Y-84350400D01*
X147184213Y-84288400D01*
X147229600Y-84243013D01*
X147291600Y-84226400D01*
X150799800Y-84226400D01*
X151638000Y-84226400D01*
X151688800Y-90373200D01*
G37*
%TD.AperFunction*%
%TD*%
%TA.AperFunction,Conductor*%
%TO.N,/Vbat*%
G36*
X156300400Y-77791413D02*
G01*
X156345787Y-77836800D01*
X156362400Y-77898800D01*
X156362400Y-80902000D01*
X156345787Y-80964000D01*
X156300400Y-81009387D01*
X156238400Y-81026000D01*
X150520400Y-81026000D01*
X150520400Y-83799464D01*
X150504099Y-83860921D01*
X150459481Y-83906219D01*
X150398279Y-83923450D01*
X148682468Y-83949447D01*
X147293478Y-83970492D01*
X147230688Y-83954515D01*
X147184527Y-83909049D01*
X147167600Y-83846507D01*
X147167600Y-77898800D01*
X147184213Y-77836800D01*
X147229600Y-77791413D01*
X147291600Y-77774800D01*
X156238400Y-77774800D01*
X156300400Y-77791413D01*
G37*
%TD.AperFunction*%
%TD*%
%TA.AperFunction,Conductor*%
%TO.N,GNDPWR*%
G36*
X188456800Y-76318213D02*
G01*
X188502187Y-76363600D01*
X188518800Y-76425600D01*
X188518800Y-91773200D01*
X188502187Y-91835200D01*
X188456800Y-91880587D01*
X188394800Y-91897200D01*
X186001200Y-91897200D01*
X185939200Y-91880587D01*
X185893813Y-91835200D01*
X185877200Y-91773200D01*
X185877200Y-76425600D01*
X185893813Y-76363600D01*
X185939200Y-76318213D01*
X186001200Y-76301600D01*
X188394800Y-76301600D01*
X188456800Y-76318213D01*
G37*
%TD.AperFunction*%
%TD*%
%TA.AperFunction,Conductor*%
%TO.N,GNDPWR*%
G36*
X169481792Y-82689932D02*
G01*
X169525427Y-82726030D01*
X169548461Y-82777765D01*
X169546089Y-82834347D01*
X169518806Y-82883973D01*
X169498266Y-82906784D01*
X169403620Y-83070715D01*
X169345126Y-83250742D01*
X169334706Y-83349888D01*
X169325340Y-83439000D01*
X169327263Y-83457294D01*
X169345126Y-83627257D01*
X169403620Y-83807284D01*
X169498266Y-83971216D01*
X169630457Y-84118028D01*
X169658624Y-84171002D01*
X169658624Y-84230998D01*
X169630457Y-84283972D01*
X169498266Y-84430783D01*
X169403620Y-84594715D01*
X169345126Y-84774742D01*
X169325340Y-84963000D01*
X169345126Y-85151257D01*
X169403620Y-85331284D01*
X169498266Y-85495216D01*
X169624929Y-85635889D01*
X169778069Y-85747151D01*
X169950997Y-85824144D01*
X170148902Y-85866210D01*
X170148543Y-85867894D01*
X170178303Y-85874220D01*
X170220018Y-85904528D01*
X170245799Y-85949182D01*
X170292620Y-86093284D01*
X170387266Y-86257216D01*
X170513929Y-86397889D01*
X170667069Y-86509151D01*
X170839997Y-86586144D01*
X171025152Y-86625500D01*
X171025154Y-86625500D01*
X171196000Y-86625500D01*
X171196000Y-87641500D01*
X161118137Y-87641500D01*
X161079818Y-87635431D01*
X161045250Y-87617817D01*
X161031528Y-87607847D01*
X160858602Y-87530855D01*
X160673448Y-87491500D01*
X160673446Y-87491500D01*
X160484154Y-87491500D01*
X160484152Y-87491500D01*
X160298997Y-87530855D01*
X160126069Y-87607848D01*
X159972929Y-87719110D01*
X159846266Y-87859783D01*
X159751620Y-88023715D01*
X159693126Y-88203742D01*
X159673340Y-88391999D01*
X159693126Y-88580257D01*
X159751620Y-88760284D01*
X159846266Y-88924216D01*
X159972929Y-89064889D01*
X160126069Y-89176151D01*
X160298997Y-89253144D01*
X160484152Y-89292500D01*
X160484154Y-89292500D01*
X160673446Y-89292500D01*
X160673448Y-89292500D01*
X160796884Y-89266262D01*
X160858603Y-89253144D01*
X161031530Y-89176151D01*
X161045249Y-89166183D01*
X161079818Y-89148569D01*
X161118137Y-89142500D01*
X171196000Y-89142500D01*
X171196000Y-91795600D01*
X171231559Y-91836239D01*
X171231559Y-91836240D01*
X170902119Y-92165681D01*
X170861891Y-92192561D01*
X170814438Y-92202000D01*
X151105162Y-92202000D01*
X151057709Y-92192561D01*
X151017481Y-92165681D01*
X150836119Y-91984319D01*
X150809239Y-91944091D01*
X150799800Y-91896638D01*
X150799800Y-90373200D01*
X151688800Y-90373200D01*
X151668228Y-87884000D01*
X151799340Y-87884000D01*
X151819126Y-88072257D01*
X151877620Y-88252284D01*
X151972266Y-88416216D01*
X152098929Y-88556889D01*
X152252069Y-88668151D01*
X152424997Y-88745144D01*
X152610154Y-88784500D01*
X152610155Y-88784500D01*
X152618896Y-88786358D01*
X152648765Y-88796837D01*
X152649567Y-88797240D01*
X152649570Y-88797240D01*
X152650704Y-88797810D01*
X152669085Y-88804198D01*
X152670321Y-88804453D01*
X152670327Y-88804456D01*
X152743862Y-88819639D01*
X152747209Y-88820381D01*
X152820279Y-88837700D01*
X152820281Y-88837700D01*
X152821505Y-88837990D01*
X152840876Y-88839969D01*
X152842140Y-88839932D01*
X152842144Y-88839933D01*
X152917110Y-88837752D01*
X152920716Y-88837700D01*
X155286154Y-88837700D01*
X155336589Y-88848420D01*
X155378304Y-88878728D01*
X155404085Y-88923382D01*
X155433620Y-89014284D01*
X155528266Y-89178216D01*
X155654929Y-89318889D01*
X155808069Y-89430151D01*
X155980997Y-89507144D01*
X156166152Y-89546500D01*
X156166154Y-89546500D01*
X156355446Y-89546500D01*
X156355448Y-89546500D01*
X156478884Y-89520262D01*
X156540603Y-89507144D01*
X156713530Y-89430151D01*
X156866671Y-89318888D01*
X156993333Y-89178216D01*
X157087979Y-89014284D01*
X157146474Y-88834256D01*
X157166260Y-88646000D01*
X157146474Y-88457744D01*
X157087979Y-88277716D01*
X157087979Y-88277715D01*
X156993333Y-88113783D01*
X156866670Y-87973110D01*
X156713530Y-87861848D01*
X156540602Y-87784855D01*
X156475470Y-87771011D01*
X156442083Y-87758694D01*
X156413570Y-87737402D01*
X156277725Y-87601557D01*
X156265946Y-87587926D01*
X156251610Y-87568670D01*
X156213667Y-87536831D01*
X156205691Y-87529523D01*
X156201782Y-87525614D01*
X156201777Y-87525609D01*
X156177423Y-87506352D01*
X156174647Y-87504090D01*
X156116251Y-87455090D01*
X156099821Y-87444622D01*
X156030691Y-87412386D01*
X156027447Y-87410815D01*
X155959306Y-87376594D01*
X155940903Y-87370197D01*
X155866211Y-87354774D01*
X155862692Y-87353994D01*
X155788490Y-87336408D01*
X155769121Y-87334429D01*
X155692869Y-87336648D01*
X155689263Y-87336700D01*
X153478959Y-87336700D01*
X153428523Y-87325980D01*
X153386809Y-87295672D01*
X153310670Y-87211110D01*
X153157530Y-87099848D01*
X152984602Y-87022855D01*
X152799448Y-86983500D01*
X152799446Y-86983500D01*
X152610154Y-86983500D01*
X152610152Y-86983500D01*
X152424997Y-87022855D01*
X152252069Y-87099848D01*
X152098929Y-87211110D01*
X151972266Y-87351783D01*
X151877620Y-87515715D01*
X151819126Y-87695742D01*
X151799340Y-87884000D01*
X151668228Y-87884000D01*
X151638420Y-84277200D01*
X155106300Y-84277200D01*
X155106300Y-86103108D01*
X155105621Y-86116069D01*
X155101340Y-86156800D01*
X155106300Y-86203992D01*
X155121126Y-86345057D01*
X155179620Y-86525084D01*
X155274266Y-86689016D01*
X155400929Y-86829689D01*
X155554069Y-86940951D01*
X155726997Y-87017944D01*
X155912152Y-87057300D01*
X155912154Y-87057300D01*
X156101446Y-87057300D01*
X156101448Y-87057300D01*
X156224884Y-87031062D01*
X156286603Y-87017944D01*
X156459530Y-86940951D01*
X156612671Y-86829688D01*
X156739333Y-86689016D01*
X156833979Y-86525084D01*
X156892474Y-86345056D01*
X156901582Y-86258400D01*
X162483800Y-86258400D01*
X162494933Y-86258400D01*
X162501609Y-86253939D01*
X162549062Y-86244500D01*
X164816174Y-86244500D01*
X164835571Y-86246026D01*
X164849412Y-86248219D01*
X164917136Y-86244670D01*
X164923626Y-86244500D01*
X164943996Y-86244500D01*
X164964248Y-86242371D01*
X164970706Y-86241862D01*
X165038446Y-86238313D01*
X165051993Y-86234682D01*
X165071109Y-86231139D01*
X165085056Y-86229674D01*
X165149586Y-86208706D01*
X165155751Y-86206880D01*
X165221288Y-86189320D01*
X165233774Y-86182956D01*
X165251753Y-86175509D01*
X165265084Y-86171179D01*
X165323851Y-86137248D01*
X165329477Y-86134193D01*
X165389949Y-86103383D01*
X165400842Y-86094560D01*
X165416874Y-86083542D01*
X165429016Y-86076533D01*
X165479439Y-86031131D01*
X165484321Y-86026961D01*
X165500180Y-86014119D01*
X165514601Y-85999696D01*
X165519272Y-85995264D01*
X165569688Y-85949871D01*
X165577929Y-85938526D01*
X165590560Y-85923737D01*
X167762537Y-83751760D01*
X167777326Y-83739129D01*
X167788671Y-83730888D01*
X167834064Y-83680472D01*
X167838496Y-83675801D01*
X167852919Y-83661380D01*
X167865761Y-83645521D01*
X167869935Y-83640635D01*
X167915333Y-83590216D01*
X167922342Y-83578074D01*
X167933360Y-83562042D01*
X167942183Y-83551149D01*
X167972993Y-83490677D01*
X167976048Y-83485051D01*
X168009979Y-83426284D01*
X168014309Y-83412956D01*
X168021760Y-83394968D01*
X168028120Y-83382488D01*
X168045682Y-83316937D01*
X168047503Y-83310794D01*
X168068474Y-83246256D01*
X168069939Y-83232305D01*
X168073483Y-83213186D01*
X168077112Y-83199646D01*
X168080662Y-83131901D01*
X168081165Y-83125497D01*
X168088260Y-83058000D01*
X168086795Y-83044064D01*
X168086285Y-83024607D01*
X168087019Y-83010612D01*
X168076408Y-82943621D01*
X168075566Y-82937230D01*
X168068474Y-82869744D01*
X168064140Y-82856405D01*
X168059598Y-82837482D01*
X168056892Y-82820391D01*
X168060023Y-82767337D01*
X168085078Y-82720466D01*
X168127454Y-82688390D01*
X168179366Y-82677000D01*
X169426657Y-82677000D01*
X169481792Y-82689932D01*
G37*
%TD.AperFunction*%
%TD*%
%TA.AperFunction,Conductor*%
%TO.N,/OUT*%
G36*
X170863247Y-75953175D02*
G01*
X170900005Y-75973871D01*
X171330627Y-76324748D01*
X171364301Y-76367663D01*
X171376300Y-76420877D01*
X171376300Y-81524542D01*
X171390351Y-81642896D01*
X171401456Y-81689007D01*
X171401460Y-81689023D01*
X171403952Y-81699369D01*
X171445331Y-81811151D01*
X171511729Y-81910130D01*
X171521714Y-81921769D01*
X171543889Y-81959461D01*
X171551600Y-82002507D01*
X171551600Y-83394103D01*
X171535656Y-83454928D01*
X171530631Y-83463856D01*
X171502655Y-83513552D01*
X171451798Y-83642794D01*
X171438033Y-83781003D01*
X171440461Y-83843933D01*
X171440635Y-83848442D01*
X171465000Y-83985170D01*
X171490219Y-84062785D01*
X171504267Y-84106021D01*
X171509657Y-84131376D01*
X171510857Y-84142796D01*
X171538575Y-84262857D01*
X171544121Y-84278092D01*
X171551600Y-84320505D01*
X171551600Y-85090071D01*
X171541551Y-85138971D01*
X171512727Y-85206139D01*
X171506460Y-85220742D01*
X171473781Y-85379765D01*
X171465500Y-85420061D01*
X171465500Y-85691018D01*
X171456061Y-85738471D01*
X171429181Y-85778699D01*
X171419699Y-85788181D01*
X171379471Y-85815061D01*
X171332018Y-85824500D01*
X170821120Y-85824500D01*
X170774668Y-85815471D01*
X170734982Y-85789698D01*
X170707842Y-85750936D01*
X170683575Y-85696432D01*
X170657794Y-85651778D01*
X170657793Y-85651777D01*
X170657791Y-85651773D01*
X170595679Y-85566283D01*
X170517147Y-85495573D01*
X170517148Y-85495573D01*
X170517145Y-85495571D01*
X170475430Y-85465263D01*
X170383912Y-85412424D01*
X170283407Y-85379767D01*
X170283404Y-85379766D01*
X170283400Y-85379765D01*
X170274378Y-85377847D01*
X170258784Y-85373449D01*
X170254005Y-85371756D01*
X170120811Y-85343445D01*
X170096158Y-85335435D01*
X170095438Y-85335114D01*
X170044113Y-85312263D01*
X170021668Y-85299304D01*
X169975579Y-85265818D01*
X169956315Y-85248473D01*
X169918197Y-85206139D01*
X169902960Y-85185166D01*
X169874476Y-85135830D01*
X169863933Y-85112153D01*
X169846329Y-85057972D01*
X169840940Y-85032617D01*
X169834986Y-84975958D01*
X169834986Y-84950040D01*
X169837424Y-84926837D01*
X169840941Y-84893375D01*
X169846328Y-84868027D01*
X169863934Y-84813841D01*
X169874474Y-84790170D01*
X169902962Y-84740827D01*
X169918192Y-84719865D01*
X170006114Y-84622220D01*
X170076786Y-84521291D01*
X170104953Y-84468317D01*
X170149108Y-84353290D01*
X170164124Y-84230998D01*
X170164124Y-84171002D01*
X170149108Y-84048710D01*
X170104953Y-83933683D01*
X170092775Y-83910781D01*
X170076786Y-83880708D01*
X170006116Y-83779781D01*
X169965878Y-83735093D01*
X169918191Y-83682131D01*
X169902962Y-83661170D01*
X169874474Y-83611827D01*
X169863935Y-83588154D01*
X169846331Y-83533978D01*
X169840940Y-83508617D01*
X169834986Y-83451958D01*
X169834986Y-83426040D01*
X169838342Y-83394103D01*
X169840941Y-83369372D01*
X169846328Y-83344029D01*
X169863935Y-83289839D01*
X169874470Y-83266176D01*
X169920255Y-83186873D01*
X169926553Y-83177063D01*
X169961776Y-83127505D01*
X169989059Y-83077879D01*
X170032966Y-82970291D01*
X170051145Y-82855520D01*
X170053517Y-82798938D01*
X170045008Y-82683046D01*
X170010258Y-82572159D01*
X170006092Y-82562803D01*
X169987223Y-82520421D01*
X169928073Y-82420405D01*
X169885365Y-82375870D01*
X169847645Y-82336536D01*
X169804010Y-82300438D01*
X169706556Y-82237150D01*
X169706554Y-82237149D01*
X169597226Y-82197788D01*
X169578846Y-82193477D01*
X169542090Y-82184856D01*
X169465134Y-82175952D01*
X169426658Y-82171500D01*
X169426657Y-82171500D01*
X168989405Y-82171500D01*
X168922552Y-82151935D01*
X168876796Y-82099414D01*
X168829380Y-81996564D01*
X168829377Y-81996557D01*
X168799127Y-81947194D01*
X168725561Y-81853877D01*
X168725559Y-81853874D01*
X167957564Y-81085879D01*
X167912322Y-81048750D01*
X167880963Y-81023014D01*
X167840735Y-80996134D01*
X167827767Y-80989202D01*
X167753337Y-80949417D01*
X167658510Y-80920651D01*
X167611059Y-80911213D01*
X167512438Y-80901500D01*
X162899582Y-80901500D01*
X162846728Y-80904270D01*
X162820959Y-80906979D01*
X162796894Y-80910790D01*
X162792586Y-80911473D01*
X162773190Y-80913000D01*
X162702409Y-80913000D01*
X162683012Y-80911473D01*
X162654644Y-80906980D01*
X162654638Y-80906979D01*
X162628871Y-80904270D01*
X162576018Y-80901500D01*
X161375582Y-80901500D01*
X161322728Y-80904270D01*
X161296959Y-80906979D01*
X161272894Y-80910790D01*
X161268586Y-80911473D01*
X161249190Y-80913000D01*
X161178409Y-80913000D01*
X161159012Y-80911473D01*
X161130644Y-80906980D01*
X161130638Y-80906979D01*
X161104871Y-80904270D01*
X161052018Y-80901500D01*
X159851582Y-80901500D01*
X159798728Y-80904270D01*
X159772959Y-80906979D01*
X159748894Y-80910790D01*
X159744586Y-80911473D01*
X159725190Y-80913000D01*
X159654409Y-80913000D01*
X159635012Y-80911473D01*
X159606644Y-80906980D01*
X159606638Y-80906979D01*
X159580871Y-80904270D01*
X159528018Y-80901500D01*
X158327582Y-80901500D01*
X158274728Y-80904270D01*
X158248959Y-80906979D01*
X158224894Y-80910790D01*
X158220586Y-80911473D01*
X158201190Y-80913000D01*
X158130409Y-80913000D01*
X158111012Y-80911473D01*
X158082644Y-80906980D01*
X158082638Y-80906979D01*
X158056871Y-80904270D01*
X158004018Y-80901500D01*
X157037325Y-80901500D01*
X156996235Y-80894494D01*
X156978370Y-80888219D01*
X156950809Y-80878539D01*
X156907488Y-80852379D01*
X156878227Y-80811089D01*
X156867900Y-80761546D01*
X156867900Y-77898799D01*
X156850675Y-77767969D01*
X156850675Y-77767966D01*
X156834062Y-77705966D01*
X156783563Y-77584050D01*
X156703229Y-77479357D01*
X156657847Y-77433975D01*
X156657842Y-77433971D01*
X156563311Y-77361434D01*
X156527588Y-77317904D01*
X156514800Y-77263060D01*
X156514800Y-76378362D01*
X156524239Y-76330909D01*
X156551119Y-76290681D01*
X156859481Y-75982319D01*
X156899709Y-75955439D01*
X156947162Y-75946000D01*
X170821678Y-75946000D01*
X170863247Y-75953175D01*
G37*
%TD.AperFunction*%
%TD*%
%TA.AperFunction,Conductor*%
%TO.N,GNDPWR*%
G36*
X156792809Y-81353444D02*
G01*
X156895800Y-81407000D01*
X158004018Y-81407000D01*
X158029799Y-81409710D01*
X158071153Y-81418500D01*
X158071154Y-81418500D01*
X158260446Y-81418500D01*
X158260447Y-81418500D01*
X158301801Y-81409710D01*
X158327582Y-81407000D01*
X159528018Y-81407000D01*
X159553799Y-81409710D01*
X159595153Y-81418500D01*
X159595154Y-81418500D01*
X159784446Y-81418500D01*
X159784447Y-81418500D01*
X159825801Y-81409710D01*
X159851582Y-81407000D01*
X161052018Y-81407000D01*
X161077799Y-81409710D01*
X161119153Y-81418500D01*
X161119154Y-81418500D01*
X161308446Y-81418500D01*
X161308447Y-81418500D01*
X161349801Y-81409710D01*
X161375582Y-81407000D01*
X162576018Y-81407000D01*
X162601799Y-81409710D01*
X162643153Y-81418500D01*
X162643154Y-81418500D01*
X162832446Y-81418500D01*
X162832447Y-81418500D01*
X162873801Y-81409710D01*
X162899582Y-81407000D01*
X167512438Y-81407000D01*
X167559891Y-81416439D01*
X167600119Y-81443319D01*
X168368119Y-82211319D01*
X168398369Y-82260682D01*
X168402911Y-82318398D01*
X168380756Y-82371885D01*
X168336733Y-82409485D01*
X168280438Y-82423000D01*
X167877994Y-82423000D01*
X167827558Y-82412280D01*
X167799733Y-82392063D01*
X167799217Y-82392774D01*
X167788668Y-82385110D01*
X167777328Y-82376871D01*
X167762538Y-82364239D01*
X167752625Y-82354326D01*
X167752622Y-82354324D01*
X167752621Y-82354323D01*
X167695736Y-82317381D01*
X167690386Y-82313704D01*
X167635529Y-82273847D01*
X167622727Y-82268148D01*
X167605630Y-82258866D01*
X167593870Y-82251229D01*
X167530547Y-82226922D01*
X167524569Y-82224445D01*
X167462603Y-82196856D01*
X167462601Y-82196855D01*
X167448876Y-82193937D01*
X167430231Y-82188414D01*
X167417150Y-82183393D01*
X167417147Y-82183392D01*
X167417146Y-82183392D01*
X167350173Y-82172784D01*
X167343792Y-82171602D01*
X167327396Y-82168117D01*
X167277446Y-82157500D01*
X167277444Y-82157500D01*
X167263426Y-82157500D01*
X167244028Y-82155973D01*
X167230188Y-82153781D01*
X167162470Y-82157330D01*
X167155980Y-82157500D01*
X167088152Y-82157500D01*
X167074433Y-82160415D01*
X167055160Y-82162952D01*
X167041156Y-82163687D01*
X166975651Y-82181238D01*
X166969342Y-82182753D01*
X166902995Y-82196855D01*
X166890187Y-82202558D01*
X166871858Y-82209049D01*
X166858311Y-82212679D01*
X166797881Y-82243470D01*
X166792025Y-82246264D01*
X166730067Y-82273850D01*
X166718730Y-82282087D01*
X166702149Y-82292248D01*
X166689653Y-82298615D01*
X166636945Y-82341297D01*
X166631796Y-82345247D01*
X166566386Y-82392771D01*
X166565870Y-82392060D01*
X166538042Y-82412280D01*
X166487606Y-82423000D01*
X166155994Y-82423000D01*
X166105558Y-82412280D01*
X166077730Y-82392061D01*
X166077215Y-82392772D01*
X165913530Y-82273848D01*
X165740602Y-82196855D01*
X165555448Y-82157500D01*
X165555446Y-82157500D01*
X165366154Y-82157500D01*
X165366152Y-82157500D01*
X165180997Y-82196855D01*
X165008069Y-82273848D01*
X164854929Y-82385110D01*
X164779779Y-82468574D01*
X164738064Y-82498882D01*
X164687629Y-82509602D01*
X162060152Y-82509602D01*
X162020093Y-82518115D01*
X162007284Y-82520144D01*
X161966545Y-82524427D01*
X161927595Y-82537083D01*
X161915059Y-82540442D01*
X161874999Y-82548956D01*
X161837581Y-82565616D01*
X161825469Y-82570265D01*
X161786516Y-82582922D01*
X161751042Y-82603403D01*
X161739482Y-82609293D01*
X161702071Y-82625950D01*
X161668938Y-82650021D01*
X161658061Y-82657085D01*
X161622583Y-82677569D01*
X161592148Y-82704973D01*
X161582065Y-82713138D01*
X161548929Y-82737213D01*
X161521523Y-82767650D01*
X161512349Y-82776824D01*
X161481912Y-82804230D01*
X161457837Y-82837366D01*
X161449672Y-82847449D01*
X161422268Y-82877884D01*
X161401784Y-82913362D01*
X161394720Y-82924239D01*
X161370649Y-82957372D01*
X161353992Y-82994783D01*
X161348102Y-83006343D01*
X161327621Y-83041817D01*
X161314964Y-83080770D01*
X161310315Y-83092882D01*
X161293655Y-83130300D01*
X161285141Y-83170360D01*
X161281782Y-83182896D01*
X161269126Y-83221846D01*
X161264843Y-83262585D01*
X161262814Y-83275394D01*
X161254301Y-83315453D01*
X161254301Y-83356410D01*
X161253622Y-83369371D01*
X161249341Y-83410102D01*
X161253622Y-83450833D01*
X161254301Y-83463794D01*
X161254301Y-83504747D01*
X161262815Y-83544806D01*
X161264844Y-83557621D01*
X161269126Y-83598357D01*
X161281783Y-83637311D01*
X161285143Y-83649848D01*
X161293657Y-83689907D01*
X161310313Y-83727315D01*
X161314965Y-83739433D01*
X161327622Y-83778386D01*
X161348101Y-83813857D01*
X161353988Y-83825410D01*
X161363382Y-83846507D01*
X161370651Y-83862834D01*
X161394719Y-83895962D01*
X161401785Y-83906842D01*
X161422267Y-83942317D01*
X161449678Y-83972759D01*
X161457842Y-83982841D01*
X161481913Y-84015973D01*
X161512347Y-84043376D01*
X161521521Y-84052549D01*
X161557651Y-84092675D01*
X161556271Y-84093916D01*
X161581285Y-84123204D01*
X161594800Y-84179498D01*
X161594800Y-84389596D01*
X161584080Y-84440031D01*
X161553773Y-84481746D01*
X161509119Y-84507527D01*
X161480513Y-84516821D01*
X161445041Y-84537301D01*
X161433481Y-84543191D01*
X161396070Y-84559848D01*
X161362937Y-84583919D01*
X161352060Y-84590983D01*
X161316582Y-84611467D01*
X161286147Y-84638871D01*
X161276064Y-84647036D01*
X161242928Y-84671111D01*
X161215522Y-84701548D01*
X161206348Y-84710722D01*
X161175911Y-84738128D01*
X161151836Y-84771264D01*
X161143671Y-84781347D01*
X161116267Y-84811782D01*
X161095783Y-84847260D01*
X161088719Y-84858137D01*
X161064648Y-84891270D01*
X161047991Y-84928681D01*
X161042101Y-84940241D01*
X161021620Y-84975715D01*
X161008963Y-85014668D01*
X161004314Y-85026780D01*
X160987654Y-85064198D01*
X160979140Y-85104258D01*
X160975781Y-85116794D01*
X160963125Y-85155744D01*
X160958842Y-85196483D01*
X160956813Y-85209292D01*
X160948300Y-85249351D01*
X160948300Y-85290308D01*
X160947621Y-85303269D01*
X160943340Y-85343999D01*
X160947621Y-85384731D01*
X160948300Y-85397692D01*
X160948300Y-85438645D01*
X160956814Y-85478704D01*
X160958843Y-85491519D01*
X160963125Y-85532255D01*
X160975782Y-85571209D01*
X160979142Y-85583746D01*
X160987656Y-85623805D01*
X161004312Y-85661213D01*
X161008964Y-85673331D01*
X161021621Y-85712284D01*
X161042100Y-85747755D01*
X161047987Y-85759308D01*
X161064649Y-85796730D01*
X161064650Y-85796732D01*
X161088718Y-85829860D01*
X161095784Y-85840740D01*
X161116266Y-85876215D01*
X161143677Y-85906657D01*
X161151841Y-85916739D01*
X161175912Y-85949871D01*
X161206346Y-85977274D01*
X161215515Y-85986442D01*
X161240436Y-86014119D01*
X161242930Y-86016889D01*
X161276058Y-86040957D01*
X161286147Y-86049127D01*
X161316581Y-86076531D01*
X161316583Y-86076532D01*
X161316584Y-86076533D01*
X161352066Y-86097019D01*
X161362936Y-86104078D01*
X161396070Y-86128151D01*
X161433483Y-86144808D01*
X161445039Y-86150696D01*
X161480516Y-86171179D01*
X161519466Y-86183834D01*
X161531578Y-86188483D01*
X161568997Y-86205144D01*
X161609067Y-86213660D01*
X161621582Y-86217014D01*
X161660544Y-86229674D01*
X161701285Y-86233955D01*
X161714094Y-86235985D01*
X161754154Y-86244500D01*
X161801608Y-86244500D01*
X161943446Y-86244500D01*
X162037538Y-86244500D01*
X162084991Y-86253939D01*
X162091667Y-86258400D01*
X156901582Y-86258400D01*
X156907300Y-86203992D01*
X156912260Y-86156800D01*
X156907978Y-86116067D01*
X156907300Y-86103108D01*
X156907300Y-83873692D01*
X156907979Y-83860731D01*
X156909474Y-83846507D01*
X156912260Y-83820000D01*
X156892474Y-83631744D01*
X156845712Y-83487827D01*
X156833979Y-83451715D01*
X156739333Y-83287783D01*
X156612670Y-83147110D01*
X156459530Y-83035848D01*
X156286602Y-82958855D01*
X156101448Y-82919500D01*
X156101446Y-82919500D01*
X155912154Y-82919500D01*
X155912152Y-82919500D01*
X155726997Y-82958855D01*
X155554069Y-83035848D01*
X155400929Y-83147110D01*
X155274266Y-83287783D01*
X155179620Y-83451715D01*
X155121126Y-83631742D01*
X155101340Y-83820000D01*
X155105621Y-83860731D01*
X155106300Y-83873692D01*
X155106300Y-84277200D01*
X151638420Y-84277200D01*
X151638000Y-84226400D01*
X150853645Y-84226400D01*
X150864234Y-84215650D01*
X150934249Y-84123204D01*
X150943143Y-84111461D01*
X150950841Y-84092675D01*
X150992704Y-83990520D01*
X151009005Y-83929063D01*
X151025900Y-83799464D01*
X151025900Y-81655500D01*
X151042513Y-81593500D01*
X151087900Y-81548113D01*
X151149900Y-81531500D01*
X156238401Y-81531500D01*
X156264566Y-81528055D01*
X156369234Y-81514275D01*
X156431234Y-81497662D01*
X156553150Y-81447163D01*
X156657842Y-81366829D01*
X156657841Y-81366829D01*
X156660115Y-81365085D01*
X156724767Y-81339934D01*
X156792809Y-81353444D01*
G37*
%TD.AperFunction*%
%TD*%
%TA.AperFunction,Conductor*%
%TO.N,/Vout*%
G36*
X184958891Y-75955439D02*
G01*
X184999119Y-75982319D01*
X185307481Y-76290681D01*
X185334361Y-76330909D01*
X185343800Y-76378362D01*
X185343800Y-79270000D01*
X185327187Y-79332000D01*
X185281800Y-79377387D01*
X185219800Y-79394000D01*
X184788800Y-79394000D01*
X184788800Y-80734000D01*
X184772187Y-80796000D01*
X184726800Y-80841387D01*
X184664800Y-80858000D01*
X183324800Y-80858000D01*
X183324800Y-81369824D01*
X183331202Y-81429375D01*
X183381447Y-81564089D01*
X183467611Y-81679188D01*
X183582710Y-81765352D01*
X183717424Y-81815597D01*
X183776976Y-81822000D01*
X183864706Y-81822000D01*
X183924822Y-81837547D01*
X183969864Y-81880290D01*
X183988536Y-81939510D01*
X183976156Y-82000358D01*
X183935829Y-82047575D01*
X183755152Y-82174085D01*
X183604885Y-82324352D01*
X183482995Y-82498430D01*
X183393184Y-82691028D01*
X183338181Y-82896301D01*
X183319660Y-83107999D01*
X183338181Y-83319698D01*
X183393184Y-83524971D01*
X183441586Y-83628768D01*
X183482995Y-83717570D01*
X183604885Y-83891647D01*
X183604888Y-83891650D01*
X183639944Y-83926706D01*
X183672547Y-83984257D01*
X183670924Y-84050382D01*
X183635537Y-84106264D01*
X183576455Y-84136004D01*
X183510490Y-84131139D01*
X183445819Y-84108000D01*
X183430431Y-84102494D01*
X183430427Y-84102493D01*
X183375586Y-84089705D01*
X183260802Y-84076500D01*
X183260798Y-84076500D01*
X181963824Y-84076500D01*
X181963820Y-84076500D01*
X181845823Y-84090466D01*
X181789524Y-84103981D01*
X181678033Y-84145112D01*
X181625671Y-84180101D01*
X181592775Y-84195660D01*
X181556779Y-84201000D01*
X172136910Y-84201000D01*
X172078695Y-84186485D01*
X172034109Y-84146340D01*
X172013589Y-84089963D01*
X172005474Y-84012744D01*
X171946979Y-83832716D01*
X171945759Y-83828961D01*
X171943158Y-83761520D01*
X171976265Y-83702707D01*
X172035270Y-83669944D01*
X172102695Y-83672937D01*
X172222105Y-83712506D01*
X172324821Y-83723000D01*
X172774800Y-83723000D01*
X172774800Y-82898000D01*
X173274800Y-82898000D01*
X173274800Y-83722999D01*
X173724779Y-83722999D01*
X173827495Y-83712506D01*
X173993922Y-83657357D01*
X174143142Y-83565318D01*
X174207118Y-83501342D01*
X174262706Y-83469248D01*
X174326894Y-83469248D01*
X174382482Y-83501342D01*
X174446457Y-83565318D01*
X174595677Y-83657357D01*
X174762103Y-83712506D01*
X174864821Y-83723000D01*
X175314800Y-83723000D01*
X175314800Y-82898000D01*
X175814800Y-82898000D01*
X175814800Y-83722999D01*
X176264779Y-83722999D01*
X176367495Y-83712506D01*
X176533922Y-83657357D01*
X176683142Y-83565318D01*
X176747118Y-83501342D01*
X176802706Y-83469248D01*
X176866894Y-83469248D01*
X176922482Y-83501342D01*
X176986457Y-83565318D01*
X177135677Y-83657357D01*
X177302103Y-83712506D01*
X177404821Y-83723000D01*
X177854800Y-83723000D01*
X177854800Y-82898000D01*
X178354800Y-82898000D01*
X178354800Y-83722999D01*
X178804779Y-83722999D01*
X178907495Y-83712506D01*
X179073922Y-83657357D01*
X179223142Y-83565318D01*
X179287118Y-83501342D01*
X179342706Y-83469248D01*
X179406894Y-83469248D01*
X179462482Y-83501342D01*
X179526457Y-83565318D01*
X179675677Y-83657357D01*
X179842103Y-83712506D01*
X179944821Y-83723000D01*
X180394800Y-83723000D01*
X180394800Y-82898000D01*
X180894800Y-82898000D01*
X180894800Y-83722999D01*
X181344779Y-83722999D01*
X181447495Y-83712506D01*
X181613922Y-83657357D01*
X181763145Y-83565316D01*
X181887116Y-83441345D01*
X181979157Y-83292122D01*
X182034306Y-83125696D01*
X182044800Y-83022979D01*
X182044800Y-82898000D01*
X180894800Y-82898000D01*
X180394800Y-82898000D01*
X178354800Y-82898000D01*
X177854800Y-82898000D01*
X175814800Y-82898000D01*
X175314800Y-82898000D01*
X173274800Y-82898000D01*
X172774800Y-82898000D01*
X172774800Y-81573001D01*
X172324821Y-81573001D01*
X172222104Y-81583493D01*
X172044804Y-81642246D01*
X171986937Y-81647097D01*
X171933207Y-81625070D01*
X171895397Y-81580996D01*
X171893471Y-81573000D01*
X173274800Y-81573000D01*
X173274800Y-82398000D01*
X175314800Y-82398000D01*
X175314800Y-81573001D01*
X174864821Y-81573001D01*
X174762104Y-81583493D01*
X174595677Y-81638642D01*
X174446454Y-81730683D01*
X174382481Y-81794657D01*
X174326894Y-81826751D01*
X174262706Y-81826751D01*
X174207119Y-81794657D01*
X174143145Y-81730683D01*
X173993922Y-81638642D01*
X173827496Y-81583493D01*
X173724779Y-81573000D01*
X175814800Y-81573000D01*
X175814800Y-82398000D01*
X177854800Y-82398000D01*
X177854800Y-81573001D01*
X177404821Y-81573001D01*
X177302104Y-81583493D01*
X177135677Y-81638642D01*
X176986454Y-81730683D01*
X176922481Y-81794657D01*
X176866894Y-81826751D01*
X176802706Y-81826751D01*
X176747119Y-81794657D01*
X176683145Y-81730683D01*
X176533922Y-81638642D01*
X176367496Y-81583493D01*
X176264779Y-81573000D01*
X178354800Y-81573000D01*
X178354800Y-82398000D01*
X180394800Y-82398000D01*
X180394800Y-81573001D01*
X179944821Y-81573001D01*
X179842104Y-81583493D01*
X179675677Y-81638642D01*
X179526454Y-81730683D01*
X179462481Y-81794657D01*
X179406894Y-81826751D01*
X179342706Y-81826751D01*
X179287119Y-81794657D01*
X179223145Y-81730683D01*
X179073922Y-81638642D01*
X178907496Y-81583493D01*
X178804779Y-81573000D01*
X180894800Y-81573000D01*
X180894800Y-82398000D01*
X182044799Y-82398000D01*
X182044799Y-82273021D01*
X182034306Y-82170304D01*
X181979157Y-82003877D01*
X181887116Y-81854654D01*
X181763145Y-81730683D01*
X181613922Y-81638642D01*
X181447496Y-81583493D01*
X181344779Y-81573000D01*
X180894800Y-81573000D01*
X178804779Y-81573000D01*
X178354800Y-81573000D01*
X176264779Y-81573000D01*
X175814800Y-81573000D01*
X173724779Y-81573000D01*
X173274800Y-81573000D01*
X171893471Y-81573000D01*
X171881800Y-81524540D01*
X171881800Y-80358000D01*
X183324800Y-80358000D01*
X184288800Y-80358000D01*
X184288800Y-79394000D01*
X183776976Y-79394000D01*
X183717424Y-79400402D01*
X183582710Y-79450647D01*
X183467611Y-79536811D01*
X183381447Y-79651910D01*
X183331202Y-79786624D01*
X183324800Y-79846176D01*
X183324800Y-80358000D01*
X171881800Y-80358000D01*
X171881800Y-76378362D01*
X171891239Y-76330909D01*
X171918119Y-76290681D01*
X172226481Y-75982319D01*
X172266709Y-75955439D01*
X172314162Y-75946000D01*
X184911438Y-75946000D01*
X184958891Y-75955439D01*
G37*
%TD.AperFunction*%
%TD*%
%TA.AperFunction,Conductor*%
%TO.N,GNDPWR*%
G36*
X183315642Y-84594788D02*
G01*
X183359174Y-84630514D01*
X183382415Y-84681809D01*
X183380573Y-84738094D01*
X183338181Y-84896301D01*
X183319660Y-85108000D01*
X183338181Y-85319698D01*
X183378990Y-85472000D01*
X183393184Y-85524970D01*
X183482995Y-85717570D01*
X183604885Y-85891647D01*
X183755153Y-86041915D01*
X183929230Y-86163805D01*
X184093423Y-86240369D01*
X184105270Y-86245894D01*
X184157446Y-86291651D01*
X184176865Y-86358276D01*
X184157445Y-86424901D01*
X184105269Y-86470658D01*
X183929483Y-86552627D01*
X183875076Y-86590723D01*
X184804672Y-87520319D01*
X184836766Y-87575906D01*
X184836766Y-87640094D01*
X184804672Y-87695681D01*
X183875077Y-88625275D01*
X183929484Y-88663372D01*
X184121998Y-88753142D01*
X184327188Y-88808123D01*
X184538799Y-88826637D01*
X184750411Y-88808123D01*
X184955601Y-88753142D01*
X185148115Y-88663372D01*
X185148675Y-88662981D01*
X185149816Y-88662579D01*
X185157952Y-88658786D01*
X185158325Y-88659587D01*
X185211688Y-88640821D01*
X185277056Y-88654565D01*
X185325809Y-88700227D01*
X185343800Y-88764555D01*
X185343800Y-91652667D01*
X185337437Y-91691879D01*
X185319000Y-91727065D01*
X185159341Y-91939945D01*
X185000000Y-92152400D01*
X184956254Y-92188909D01*
X184900800Y-92202000D01*
X171607868Y-92202000D01*
X171556629Y-92190919D01*
X171514549Y-92159655D01*
X171382487Y-92008728D01*
X171231560Y-91836240D01*
X171196000Y-91795600D01*
X171196000Y-89142500D01*
X172707094Y-89142500D01*
X172725064Y-89143809D01*
X172729120Y-89144402D01*
X172748823Y-89147289D01*
X172798168Y-89142972D01*
X172808976Y-89142500D01*
X172814506Y-89142500D01*
X172814509Y-89142500D01*
X172845350Y-89138894D01*
X172848831Y-89138539D01*
X172923597Y-89131999D01*
X172923597Y-89131998D01*
X172924852Y-89131889D01*
X172943862Y-89127674D01*
X172945050Y-89127241D01*
X172945055Y-89127241D01*
X173015620Y-89101557D01*
X173018895Y-89100419D01*
X173090134Y-89076814D01*
X173090136Y-89076812D01*
X173091336Y-89076415D01*
X173108863Y-89067929D01*
X173109912Y-89067238D01*
X173109917Y-89067237D01*
X173172606Y-89026005D01*
X173175598Y-89024099D01*
X173239456Y-88984712D01*
X173239456Y-88984711D01*
X173240529Y-88984050D01*
X173255624Y-88971753D01*
X173256492Y-88970832D01*
X173256496Y-88970830D01*
X173307984Y-88916254D01*
X173310430Y-88913736D01*
X174616166Y-87608000D01*
X183320162Y-87608000D01*
X183338676Y-87819611D01*
X183393657Y-88024801D01*
X183483426Y-88217314D01*
X183521523Y-88271721D01*
X184185246Y-87607999D01*
X184185246Y-87607998D01*
X183521523Y-86944276D01*
X183483427Y-86998683D01*
X183393657Y-87191198D01*
X183338676Y-87396388D01*
X183320162Y-87608000D01*
X174616166Y-87608000D01*
X174735442Y-87488724D01*
X174749060Y-87476954D01*
X174768330Y-87462610D01*
X174800176Y-87424656D01*
X174807462Y-87416704D01*
X174811391Y-87412777D01*
X174830633Y-87388439D01*
X174832890Y-87385670D01*
X174847653Y-87368075D01*
X174881102Y-87328214D01*
X174881103Y-87328211D01*
X174881915Y-87327244D01*
X174892373Y-87310827D01*
X174892906Y-87309682D01*
X174892911Y-87309677D01*
X174924633Y-87241646D01*
X174926162Y-87238488D01*
X174959840Y-87171433D01*
X174959840Y-87171432D01*
X174960412Y-87170294D01*
X174966800Y-87151914D01*
X174967055Y-87150675D01*
X174967057Y-87150673D01*
X174982247Y-87077103D01*
X174982986Y-87073770D01*
X175000300Y-87000721D01*
X175000300Y-87000717D01*
X175000591Y-86999489D01*
X175002570Y-86980121D01*
X175002533Y-86978859D01*
X175002534Y-86978856D01*
X175000352Y-86903869D01*
X175000300Y-86900263D01*
X175000300Y-86797000D01*
X175016913Y-86735000D01*
X175062300Y-86689613D01*
X175124300Y-86673000D01*
X175314800Y-86673000D01*
X175314800Y-85848000D01*
X175814800Y-85848000D01*
X175814800Y-86672999D01*
X176264779Y-86672999D01*
X176367495Y-86662506D01*
X176533922Y-86607357D01*
X176683142Y-86515318D01*
X176747118Y-86451342D01*
X176802706Y-86419248D01*
X176866894Y-86419248D01*
X176922482Y-86451342D01*
X176986457Y-86515318D01*
X177135677Y-86607357D01*
X177302103Y-86662506D01*
X177404821Y-86673000D01*
X177854800Y-86673000D01*
X177854800Y-85848000D01*
X178354800Y-85848000D01*
X178354800Y-86672999D01*
X178804779Y-86672999D01*
X178907495Y-86662506D01*
X179073922Y-86607357D01*
X179223142Y-86515318D01*
X179287118Y-86451342D01*
X179342706Y-86419248D01*
X179406894Y-86419248D01*
X179462482Y-86451342D01*
X179526457Y-86515318D01*
X179675677Y-86607357D01*
X179842103Y-86662506D01*
X179944821Y-86673000D01*
X180394800Y-86673000D01*
X180394800Y-85848000D01*
X180894800Y-85848000D01*
X180894800Y-86672999D01*
X181344779Y-86672999D01*
X181447495Y-86662506D01*
X181613922Y-86607357D01*
X181763145Y-86515316D01*
X181887116Y-86391345D01*
X181979157Y-86242122D01*
X182034306Y-86075696D01*
X182044800Y-85972979D01*
X182044800Y-85848000D01*
X180894800Y-85848000D01*
X180394800Y-85848000D01*
X178354800Y-85848000D01*
X177854800Y-85848000D01*
X175814800Y-85848000D01*
X175314800Y-85848000D01*
X175124300Y-85848000D01*
X175062300Y-85831387D01*
X175016913Y-85786000D01*
X175000300Y-85724000D01*
X175000300Y-85472000D01*
X175016913Y-85410000D01*
X175062300Y-85364613D01*
X175124300Y-85348000D01*
X182044799Y-85348000D01*
X182044799Y-85223021D01*
X182034306Y-85120304D01*
X181979157Y-84953877D01*
X181887116Y-84804654D01*
X181876143Y-84793681D01*
X181845893Y-84744318D01*
X181841351Y-84686602D01*
X181863506Y-84633115D01*
X181907529Y-84595515D01*
X181963824Y-84582000D01*
X183260798Y-84582000D01*
X183315642Y-84594788D01*
G37*
%TD.AperFunction*%
%TA.AperFunction,Conductor*%
G36*
X173437300Y-85364613D02*
G01*
X173482687Y-85410000D01*
X173499300Y-85472000D01*
X173499300Y-85724000D01*
X173482687Y-85786000D01*
X173437300Y-85831387D01*
X173375300Y-85848000D01*
X173274800Y-85848000D01*
X173274800Y-86680952D01*
X173296029Y-86717721D01*
X173296029Y-86781909D01*
X173263935Y-86837496D01*
X172496251Y-87605181D01*
X172456023Y-87632061D01*
X172408570Y-87641500D01*
X171196000Y-87641500D01*
X171196000Y-86625500D01*
X171214448Y-86625500D01*
X171378060Y-86590723D01*
X171399603Y-86586144D01*
X171474002Y-86553019D01*
X171572527Y-86509153D01*
X171572530Y-86509151D01*
X171676689Y-86433475D01*
X171730173Y-86411322D01*
X171787889Y-86415864D01*
X171837252Y-86446114D01*
X171906454Y-86515316D01*
X172055677Y-86607357D01*
X172222103Y-86662506D01*
X172324821Y-86673000D01*
X172774800Y-86673000D01*
X172774800Y-85472000D01*
X172791413Y-85410000D01*
X172836800Y-85364613D01*
X172898800Y-85348000D01*
X173375300Y-85348000D01*
X173437300Y-85364613D01*
G37*
%TD.AperFunction*%
%TD*%
M02*
