%TF.GenerationSoftware,KiCad,Pcbnew,7.0.1*%
%TF.CreationDate,2023-04-26T12:17:49+02:00*%
%TF.ProjectId,L5988D_RPI_POWER_SUPPLY,4c353938-3844-45f5-9250-495f504f5745,rev?*%
%TF.SameCoordinates,Original*%
%TF.FileFunction,Copper,L1,Top*%
%TF.FilePolarity,Positive*%
%FSLAX46Y46*%
G04 Gerber Fmt 4.6, Leading zero omitted, Abs format (unit mm)*
G04 Created by KiCad (PCBNEW 7.0.1) date 2023-04-26 12:17:49*
%MOMM*%
%LPD*%
G01*
G04 APERTURE LIST*
G04 Aperture macros list*
%AMRoundRect*
0 Rectangle with rounded corners*
0 $1 Rounding radius*
0 $2 $3 $4 $5 $6 $7 $8 $9 X,Y pos of 4 corners*
0 Add a 4 corners polygon primitive as box body*
4,1,4,$2,$3,$4,$5,$6,$7,$8,$9,$2,$3,0*
0 Add four circle primitives for the rounded corners*
1,1,$1+$1,$2,$3*
1,1,$1+$1,$4,$5*
1,1,$1+$1,$6,$7*
1,1,$1+$1,$8,$9*
0 Add four rect primitives between the rounded corners*
20,1,$1+$1,$2,$3,$4,$5,0*
20,1,$1+$1,$4,$5,$6,$7,0*
20,1,$1+$1,$6,$7,$8,$9,0*
20,1,$1+$1,$8,$9,$2,$3,0*%
G04 Aperture macros list end*
%TA.AperFunction,SMDPad,CuDef*%
%ADD10RoundRect,0.250000X0.250000X0.750000X-0.250000X0.750000X-0.250000X-0.750000X0.250000X-0.750000X0*%
%TD*%
%TA.AperFunction,SMDPad,CuDef*%
%ADD11RoundRect,0.250000X-0.250000X-0.475000X0.250000X-0.475000X0.250000X0.475000X-0.250000X0.475000X0*%
%TD*%
%TA.AperFunction,SMDPad,CuDef*%
%ADD12RoundRect,0.250000X-0.325000X-0.650000X0.325000X-0.650000X0.325000X0.650000X-0.325000X0.650000X0*%
%TD*%
%TA.AperFunction,SMDPad,CuDef*%
%ADD13RoundRect,0.250000X0.250000X0.475000X-0.250000X0.475000X-0.250000X-0.475000X0.250000X-0.475000X0*%
%TD*%
%TA.AperFunction,SMDPad,CuDef*%
%ADD14RoundRect,0.250000X-0.250000X-0.750000X0.250000X-0.750000X0.250000X0.750000X-0.250000X0.750000X0*%
%TD*%
%TA.AperFunction,SMDPad,CuDef*%
%ADD15RoundRect,0.250000X-0.475000X0.250000X-0.475000X-0.250000X0.475000X-0.250000X0.475000X0.250000X0*%
%TD*%
%TA.AperFunction,SMDPad,CuDef*%
%ADD16RoundRect,0.041000X-0.744000X-0.164000X0.744000X-0.164000X0.744000X0.164000X-0.744000X0.164000X0*%
%TD*%
%TA.AperFunction,SMDPad,CuDef*%
%ADD17R,2.105000X3.115000*%
%TD*%
%TA.AperFunction,SMDPad,CuDef*%
%ADD18RoundRect,0.750000X0.750000X-1.950000X0.750000X1.950000X-0.750000X1.950000X-0.750000X-1.950000X0*%
%TD*%
%TA.AperFunction,ComponentPad*%
%ADD19C,2.300000*%
%TD*%
%TA.AperFunction,ComponentPad*%
%ADD20R,1.428000X1.428000*%
%TD*%
%TA.AperFunction,ComponentPad*%
%ADD21C,1.428000*%
%TD*%
%TA.AperFunction,ViaPad*%
%ADD22C,0.800000*%
%TD*%
%TA.AperFunction,Conductor*%
%ADD23C,0.800000*%
%TD*%
%TA.AperFunction,Conductor*%
%ADD24C,0.400000*%
%TD*%
%TA.AperFunction,Conductor*%
%ADD25C,0.250000*%
%TD*%
%TA.AperFunction,Conductor*%
%ADD26C,1.000000*%
%TD*%
%TA.AperFunction,Conductor*%
%ADD27C,0.500000*%
%TD*%
%TA.AperFunction,Conductor*%
%ADD28C,1.300000*%
%TD*%
%TA.AperFunction,Conductor*%
%ADD29C,1.600000*%
%TD*%
%TA.AperFunction,Conductor*%
%ADD30C,0.300000*%
%TD*%
G04 APERTURE END LIST*
D10*
%TO.P,VREF,1,Pin_1*%
%TO.N,Net-(J2-Pin_1)*%
X166344800Y-90170000D03*
%TD*%
D11*
%TO.P,Css1,1*%
%TO.N,GNDPWR*%
X152724800Y-82606000D03*
%TO.P,Css1,2*%
%TO.N,Net-(U1-SS{slash}INH#)*%
X154624800Y-82606000D03*
%TD*%
D12*
%TO.P,Cin1,1*%
%TO.N,/Vbat*%
X159076800Y-77724000D03*
%TO.P,Cin1,2*%
%TO.N,GNDPWR*%
X162026800Y-77724000D03*
%TD*%
D11*
%TO.P,Rsous1,1*%
%TO.N,Net-(J2-Pin_1)*%
X165460800Y-83058000D03*
%TO.P,Rsous1,2*%
%TO.N,Net-(U1-U{slash}O{slash}S)*%
X167360800Y-83058000D03*
%TD*%
D13*
%TO.P,Rl1,1*%
%TO.N,GNDPWR*%
X159486800Y-86939000D03*
%TO.P,Rl1,2*%
%TO.N,/FB*%
X157586800Y-86939000D03*
%TD*%
D11*
%TO.P,Rh1,1*%
%TO.N,/FB*%
X157586800Y-88971000D03*
%TO.P,Rh1,2*%
%TO.N,/Vout*%
X159486800Y-88971000D03*
%TD*%
D14*
%TO.P,SYNC,1,Pin_1*%
%TO.N,Net-(J1-Pin_1)*%
X162534800Y-90170000D03*
%TD*%
D13*
%TO.P,Rc1,1*%
%TO.N,Net-(Cc1-Pad2)*%
X154736800Y-90292000D03*
%TO.P,Rc1,2*%
%TO.N,/FB*%
X152836800Y-90292000D03*
%TD*%
%TO.P,Rsous2,1*%
%TO.N,Net-(U1-U{slash}O{slash}S)*%
X167360800Y-85344000D03*
%TO.P,Rsous2,2*%
%TO.N,GNDPWR*%
X165460800Y-85344000D03*
%TD*%
D15*
%TO.P,Cc1,1*%
%TO.N,/COMP*%
X154736800Y-86614000D03*
%TO.P,Cc1,2*%
%TO.N,Net-(Cc1-Pad2)*%
X154736800Y-88514000D03*
%TD*%
D16*
%TO.P,U1,1,OUT*%
%TO.N,/OUT*%
X157632800Y-80783000D03*
%TO.P,U1,2,VIN*%
%TO.N,/Vbat*%
X157632800Y-81433000D03*
%TO.P,U1,3,VIN*%
X157632800Y-82083000D03*
%TO.P,U1,4,VCC*%
X157632800Y-82733000D03*
%TO.P,U1,5,SS/INH#*%
%TO.N,Net-(U1-SS{slash}INH#)*%
X157632800Y-83383000D03*
%TO.P,U1,6,COMP*%
%TO.N,/COMP*%
X157632800Y-84033000D03*
%TO.P,U1,7,ILIM-ADJ*%
%TO.N,Net-(U1-ILIM-ADJ)*%
X157632800Y-84683000D03*
%TO.P,U1,8,FB*%
%TO.N,/FB*%
X157632800Y-85333000D03*
%TO.P,U1,9,SYNCH*%
%TO.N,Net-(J1-Pin_1)*%
X163372800Y-85333000D03*
%TO.P,U1,10,FSW*%
%TO.N,unconnected-(U1-FSW-Pad10)*%
X163372800Y-84683000D03*
%TO.P,U1,11,U/O/S*%
%TO.N,Net-(U1-U{slash}O{slash}S)*%
X163372800Y-84033000D03*
%TO.P,U1,12,VREF*%
%TO.N,Net-(J2-Pin_1)*%
X163372800Y-83383000D03*
%TO.P,U1,13,SGND*%
%TO.N,GNDPWR*%
X163372800Y-82733000D03*
%TO.P,U1,14,PGND*%
X163372800Y-82083000D03*
%TO.P,U1,15,PGND*%
X163372800Y-81433000D03*
%TO.P,U1,16,OUT*%
%TO.N,/OUT*%
X163372800Y-80783000D03*
D17*
%TO.P,U1,17,EP*%
%TO.N,GNDPWR*%
X160502800Y-83058000D03*
%TD*%
D11*
%TO.P,Rlim1,1*%
%TO.N,GNDPWR*%
X152724800Y-84704000D03*
%TO.P,Rlim1,2*%
%TO.N,Net-(U1-ILIM-ADJ)*%
X154624800Y-84704000D03*
%TD*%
D18*
%TO.P,L1,1,1*%
%TO.N,/OUT*%
X172114800Y-84074000D03*
%TO.P,L1,2,2*%
%TO.N,/Vout*%
X181914800Y-84074000D03*
%TD*%
D15*
%TO.P,Cp1,1*%
%TO.N,/COMP*%
X152704800Y-86614000D03*
%TO.P,Cp1,2*%
%TO.N,/FB*%
X152704800Y-88514000D03*
%TD*%
D19*
%TO.P,P1,*%
%TO.N,GNDPWR*%
X187248800Y-77538000D03*
X187248800Y-90678000D03*
D20*
%TO.P,P1,1,VBUS*%
%TO.N,/Vout*%
X184538800Y-80608000D03*
D21*
%TO.P,P1,2,D-*%
%TO.N,unconnected-(P1-D--Pad2)*%
X184538800Y-83108000D03*
%TO.P,P1,3,D+*%
%TO.N,unconnected-(P1-D+-Pad3)*%
X184538800Y-85108000D03*
%TO.P,P1,4,GND*%
%TO.N,GNDPWR*%
X184538800Y-87608000D03*
%TD*%
D22*
%TO.N,/COMP*%
X156006800Y-83820000D03*
X156006800Y-86156800D03*
%TO.N,/Vbat*%
X151384000Y-79959200D03*
X155803600Y-78587600D03*
X155803600Y-79959200D03*
X153009600Y-79959200D03*
X154482800Y-78536800D03*
X153009600Y-78536800D03*
X151384000Y-78486000D03*
X154482800Y-79959200D03*
%TO.N,GNDPWR*%
X175437800Y-89916000D03*
X161036000Y-84175600D03*
X160528000Y-85191600D03*
X172770800Y-89789000D03*
X181787800Y-89027000D03*
X180517800Y-89916000D03*
X159054800Y-85725000D03*
X161086800Y-81940400D03*
X159969200Y-81991200D03*
X181787800Y-90424000D03*
X179247800Y-89027000D03*
X177977800Y-91440000D03*
X177977800Y-89916000D03*
X168833800Y-86233000D03*
X163372800Y-82042000D03*
X153525300Y-84836000D03*
X175437800Y-91440000D03*
X183057800Y-89916000D03*
X151180800Y-85750400D03*
X151180800Y-87071200D03*
X183057800Y-91440000D03*
X168833800Y-83439000D03*
X184327800Y-89027000D03*
X174040800Y-88900000D03*
X184327800Y-90424000D03*
X151180800Y-84455000D03*
X172364400Y-87426800D03*
X172770800Y-91313000D03*
X158800800Y-86868000D03*
X175437800Y-87884000D03*
X159867600Y-84124800D03*
X168833800Y-84734400D03*
X180517800Y-91440000D03*
X176707800Y-89027000D03*
X160782000Y-83007200D03*
X159715200Y-83007200D03*
X176707800Y-90424000D03*
X151180800Y-88392000D03*
X174040800Y-90297000D03*
X179247800Y-90424000D03*
X165404800Y-86995000D03*
X151180800Y-89662000D03*
%TO.N,/Vout*%
X182803800Y-79121000D03*
X172516800Y-77470000D03*
X178993800Y-78105000D03*
X177723800Y-79121000D03*
X176453800Y-76708000D03*
X175183800Y-79121000D03*
X181533800Y-78105000D03*
X173786800Y-77978000D03*
X176453800Y-78105000D03*
X182803800Y-77597000D03*
X173786800Y-76581000D03*
X180263800Y-77597000D03*
X178993800Y-76708000D03*
X184073800Y-78105000D03*
X172516800Y-78994000D03*
X177723800Y-77597000D03*
X175183800Y-77597000D03*
X180263800Y-79121000D03*
X181533800Y-76708000D03*
X160578800Y-88392000D03*
%TO.N,/FB*%
X156260800Y-88646000D03*
X152704800Y-87884000D03*
%TO.N,Net-(J2-Pin_1)*%
X165460800Y-83058000D03*
X162154801Y-83410102D03*
%TO.N,/OUT*%
X159689800Y-80518000D03*
X171119800Y-85725000D03*
X161213800Y-80518000D03*
X158165800Y-80518000D03*
X161975800Y-79756000D03*
X170230800Y-84963000D03*
X170230800Y-83439000D03*
X160451800Y-79756000D03*
X170230800Y-81915000D03*
X162737800Y-80518000D03*
X171119800Y-84201000D03*
X157403800Y-79756000D03*
X158927800Y-79756000D03*
X171119800Y-82677000D03*
X163499800Y-79756000D03*
%TO.N,Net-(U1-U{slash}O{slash}S)*%
X161848800Y-85344000D03*
X167182800Y-83058000D03*
%TD*%
D23*
%TO.N,/COMP*%
X156006800Y-86156800D02*
X155549600Y-86614000D01*
X154736800Y-86614000D02*
X152704800Y-86614000D01*
D24*
X157632800Y-84033000D02*
X156219800Y-84033000D01*
D25*
X156219800Y-84033000D02*
X156006800Y-83820000D01*
D23*
X155549600Y-86614000D02*
X154736800Y-86614000D01*
%TO.N,Net-(Cc1-Pad2)*%
X154736800Y-88514000D02*
X154736800Y-90292000D01*
D26*
%TO.N,/Vbat*%
X156662567Y-81768699D02*
X156876499Y-81768699D01*
X158760402Y-77724000D02*
X156615800Y-77724000D01*
X155803600Y-79959200D02*
X155899101Y-80054701D01*
X155899101Y-78683101D02*
X155899101Y-79863699D01*
X155899101Y-80054701D02*
X155899101Y-81005233D01*
X155899101Y-81005233D02*
X156662567Y-81768699D01*
X159096101Y-78059699D02*
X158760402Y-77724000D01*
X155899101Y-78440699D02*
X155899101Y-78492099D01*
X155803600Y-78587600D02*
X155899101Y-78683101D01*
X155899101Y-78492099D02*
X155803600Y-78587600D01*
X157632800Y-81773000D02*
X157632800Y-82423000D01*
X155899101Y-79863699D02*
X155803600Y-79959200D01*
X156615800Y-77724000D02*
X155899101Y-78440699D01*
X157632800Y-81717000D02*
X157632800Y-82367000D01*
D24*
%TO.N,GNDPWR*%
X164585000Y-83771173D02*
X164585000Y-83220398D01*
D23*
X164388800Y-77724000D02*
X165150800Y-78486000D01*
D25*
X169214800Y-83185000D02*
X167436800Y-81407000D01*
D27*
X164148402Y-82733000D02*
X163372800Y-82733000D01*
D25*
X151053800Y-92075000D02*
X168198800Y-92075000D01*
X169214800Y-91059000D02*
X169214800Y-83185000D01*
X164148402Y-81433000D02*
X163372800Y-81433000D01*
D24*
X164592000Y-84526000D02*
X164592000Y-83778173D01*
D23*
X163372800Y-82042000D02*
X163372800Y-82083000D01*
D25*
X158800800Y-86868000D02*
X159415800Y-86868000D01*
D27*
X165460800Y-85344000D02*
X164642800Y-84526000D01*
D28*
X175183800Y-87630000D02*
X172389800Y-87630000D01*
D23*
X163372800Y-81661000D02*
X163372800Y-82042000D01*
D25*
X164174402Y-81407000D02*
X164148402Y-81433000D01*
X150926800Y-91948000D02*
X151053800Y-92075000D01*
X167436800Y-81407000D02*
X164174402Y-81407000D01*
X168198800Y-92075000D02*
X169214800Y-91059000D01*
X153393300Y-84704000D02*
X153525300Y-84836000D01*
D23*
X152724800Y-82606000D02*
X152724800Y-84704000D01*
D25*
X152724800Y-84704000D02*
X153393300Y-84704000D01*
D27*
X164541200Y-83058000D02*
X164053802Y-82570602D01*
D25*
X159415800Y-86868000D02*
X159486800Y-86939000D01*
D29*
X165404800Y-86995000D02*
X165404800Y-85400000D01*
D23*
X163372800Y-82083000D02*
X163372800Y-82550000D01*
X164309311Y-81661000D02*
X163372800Y-81661000D01*
X165150800Y-80819511D02*
X164309311Y-81661000D01*
D25*
X162026800Y-77724000D02*
X162102800Y-77648000D01*
D23*
X162026800Y-77724000D02*
X164388800Y-77724000D01*
D26*
X175437800Y-87884000D02*
X175183800Y-87630000D01*
D25*
X165404800Y-85400000D02*
X165460800Y-85344000D01*
D23*
X165150800Y-78486000D02*
X165150800Y-80819511D01*
D25*
%TO.N,/Vout*%
X159486800Y-88971000D02*
X159999800Y-88971000D01*
D23*
X159999800Y-88971000D02*
X160578800Y-88392000D01*
%TO.N,/FB*%
X152704800Y-88514000D02*
X152704800Y-90160000D01*
X157586800Y-87158000D02*
X157586800Y-85598000D01*
D25*
X152704800Y-90160000D02*
X152836800Y-90292000D01*
X152704800Y-88514000D02*
X152704800Y-87884000D01*
D23*
X156260800Y-88646000D02*
X157261800Y-88646000D01*
D25*
X157261800Y-88646000D02*
X157586800Y-88971000D01*
D23*
X157586800Y-88971000D02*
X157586800Y-86939000D01*
D25*
X157586800Y-85379000D02*
X157632800Y-85333000D01*
D27*
%TO.N,Net-(U1-SS{slash}INH#)*%
X155924171Y-82606000D02*
X154624800Y-82606000D01*
D24*
X155924171Y-82606000D02*
X155803600Y-82606000D01*
X156701171Y-83383000D02*
X155924171Y-82606000D01*
X157632800Y-83383000D02*
X156701171Y-83383000D01*
D25*
%TO.N,Net-(J1-Pin_1)*%
X162534800Y-86171000D02*
X163372800Y-85333000D01*
X162534800Y-90170000D02*
X162534800Y-86171000D01*
%TO.N,Net-(J2-Pin_1)*%
X166522400Y-90370086D02*
X166522400Y-84867427D01*
X166420800Y-84816627D02*
X166420800Y-84785200D01*
X162154801Y-83410102D02*
X163345698Y-83410102D01*
X163345698Y-83410102D02*
X163372800Y-83383000D01*
X166344800Y-84689827D02*
X165460800Y-83805827D01*
X165460800Y-83805827D02*
X165460800Y-83058000D01*
D24*
%TO.N,Net-(U1-ILIM-ADJ)*%
X156667800Y-84683000D02*
X156514800Y-84836000D01*
D25*
X154756800Y-84836000D02*
X154624800Y-84704000D01*
D24*
X157632800Y-84683000D02*
X156667800Y-84683000D01*
D27*
X156514800Y-84836000D02*
X154756800Y-84836000D01*
D30*
%TO.N,Net-(U1-U{slash}O{slash}S)*%
X162204400Y-84988400D02*
X162204400Y-84353400D01*
D25*
X167360800Y-83058000D02*
X167182800Y-83058000D01*
X161848800Y-85344000D02*
X161880300Y-85312500D01*
D30*
X162397698Y-84160102D02*
X162465462Y-84160102D01*
D23*
X167360800Y-85344000D02*
X167360800Y-83058000D01*
D30*
X162204400Y-84353400D02*
X162397698Y-84160102D01*
X161880300Y-85312500D02*
X162204400Y-84988400D01*
X162465462Y-84160102D02*
X162592564Y-84033000D01*
X162592564Y-84033000D02*
X163372800Y-84033000D01*
%TD*%
%TA.AperFunction,Conductor*%
%TO.N,GNDPWR*%
G36*
X188456800Y-76318213D02*
G01*
X188502187Y-76363600D01*
X188518800Y-76425600D01*
X188518800Y-91773200D01*
X188502187Y-91835200D01*
X188456800Y-91880587D01*
X188394800Y-91897200D01*
X186001200Y-91897200D01*
X185939200Y-91880587D01*
X185893813Y-91835200D01*
X185877200Y-91773200D01*
X185877200Y-76425600D01*
X185893813Y-76363600D01*
X185939200Y-76318213D01*
X186001200Y-76301600D01*
X188394800Y-76301600D01*
X188456800Y-76318213D01*
G37*
%TD.AperFunction*%
%TD*%
%TA.AperFunction,Conductor*%
%TO.N,/OUT*%
G36*
X158086995Y-78755723D02*
G01*
X158132102Y-78798904D01*
X158159086Y-78842654D01*
X158283145Y-78966713D01*
X158357804Y-79012762D01*
X158432466Y-79058814D01*
X158543817Y-79095712D01*
X158599002Y-79113999D01*
X158609503Y-79115071D01*
X158701791Y-79124500D01*
X159451808Y-79124499D01*
X159554597Y-79113999D01*
X159721134Y-79058814D01*
X159870456Y-78966712D01*
X159994512Y-78842656D01*
X160021498Y-78798903D01*
X160066605Y-78755723D01*
X160127037Y-78740000D01*
X160976563Y-78740000D01*
X161036995Y-78755723D01*
X161082102Y-78798904D01*
X161109086Y-78842654D01*
X161233145Y-78966713D01*
X161307804Y-79012762D01*
X161382466Y-79058814D01*
X161493817Y-79095712D01*
X161549002Y-79113999D01*
X161559503Y-79115071D01*
X161651791Y-79124500D01*
X162401808Y-79124499D01*
X162504597Y-79113999D01*
X162671134Y-79058814D01*
X162820456Y-78966712D01*
X162944512Y-78842656D01*
X162971498Y-78798903D01*
X163016605Y-78755723D01*
X163077037Y-78740000D01*
X164079938Y-78740000D01*
X164127391Y-78749439D01*
X164167619Y-78776319D01*
X164213981Y-78822681D01*
X164240861Y-78862909D01*
X164250300Y-78910362D01*
X164250300Y-80395150D01*
X164240861Y-80442603D01*
X164213981Y-80482831D01*
X164005631Y-80691181D01*
X163965403Y-80718061D01*
X163917950Y-80727500D01*
X162586402Y-80727500D01*
X162499390Y-80737949D01*
X162365160Y-80790882D01*
X162328661Y-80799201D01*
X162291343Y-80796248D01*
X162255634Y-80787869D01*
X162255632Y-80787868D01*
X162255629Y-80787868D01*
X162140144Y-80774500D01*
X161737308Y-80774500D01*
X161658230Y-80780724D01*
X161658226Y-80780724D01*
X161658221Y-80780725D01*
X161619919Y-80786791D01*
X161542792Y-80805306D01*
X161469507Y-80835660D01*
X161458811Y-80841108D01*
X161452971Y-80843893D01*
X161348439Y-80890434D01*
X161323786Y-80898445D01*
X161286590Y-80906352D01*
X161268063Y-80910290D01*
X161242282Y-80913000D01*
X161185318Y-80913000D01*
X161159536Y-80910290D01*
X161126063Y-80903174D01*
X161103812Y-80898445D01*
X161079160Y-80890434D01*
X161030203Y-80868637D01*
X160974617Y-80843888D01*
X160968771Y-80841100D01*
X160962430Y-80837870D01*
X160958088Y-80835658D01*
X160884811Y-80805308D01*
X160859373Y-80799201D01*
X160807685Y-80786792D01*
X160769378Y-80780725D01*
X160769374Y-80780724D01*
X160769370Y-80780724D01*
X160690292Y-80774500D01*
X160213308Y-80774500D01*
X160134230Y-80780724D01*
X160134226Y-80780724D01*
X160134221Y-80780725D01*
X160095919Y-80786791D01*
X160018792Y-80805306D01*
X159945507Y-80835660D01*
X159934811Y-80841108D01*
X159928971Y-80843893D01*
X159824439Y-80890434D01*
X159799786Y-80898445D01*
X159762590Y-80906352D01*
X159744063Y-80910290D01*
X159718282Y-80913000D01*
X159661318Y-80913000D01*
X159635536Y-80910290D01*
X159602063Y-80903174D01*
X159579812Y-80898445D01*
X159555160Y-80890434D01*
X159506203Y-80868637D01*
X159450617Y-80843888D01*
X159444771Y-80841100D01*
X159438430Y-80837870D01*
X159434088Y-80835658D01*
X159360811Y-80805308D01*
X159335373Y-80799201D01*
X159283685Y-80786792D01*
X159245378Y-80780725D01*
X159245374Y-80780724D01*
X159245370Y-80780724D01*
X159166292Y-80774500D01*
X159042300Y-80774500D01*
X159042299Y-80774500D01*
X158911469Y-80791724D01*
X158849464Y-80808338D01*
X158796193Y-80830404D01*
X158732906Y-80838827D01*
X158673818Y-80814647D01*
X158644690Y-80792558D01*
X158577844Y-80766197D01*
X158506209Y-80737948D01*
X158419198Y-80727500D01*
X158419194Y-80727500D01*
X157818499Y-80727500D01*
X157787419Y-80723541D01*
X157785085Y-80722937D01*
X157774777Y-80722414D01*
X157581863Y-80712630D01*
X157499817Y-80725200D01*
X157494138Y-80726070D01*
X157475362Y-80727500D01*
X157087652Y-80727500D01*
X157040200Y-80718061D01*
X156999971Y-80691182D01*
X156935920Y-80627132D01*
X156909040Y-80586903D01*
X156899601Y-80539450D01*
X156899601Y-80068980D01*
X156899641Y-80065839D01*
X156901858Y-79978339D01*
X156901547Y-79976603D01*
X156899601Y-79954720D01*
X156899601Y-79906457D01*
X156899959Y-79897043D01*
X156900065Y-79895645D01*
X156904438Y-79838223D01*
X156900594Y-79808047D01*
X156899601Y-79792382D01*
X156899601Y-78906482D01*
X156909040Y-78859029D01*
X156935920Y-78818801D01*
X156978402Y-78776319D01*
X157018630Y-78749439D01*
X157066083Y-78740000D01*
X158026563Y-78740000D01*
X158086995Y-78755723D01*
G37*
%TD.AperFunction*%
%TD*%
%TA.AperFunction,Conductor*%
%TO.N,/Vbat*%
G36*
X150545800Y-81026000D02*
G01*
X150545800Y-83571500D01*
X150529187Y-83633500D01*
X150483800Y-83678887D01*
X150421800Y-83695500D01*
X147291600Y-83695500D01*
X147229600Y-83678887D01*
X147184213Y-83633500D01*
X147167600Y-83571500D01*
X147167600Y-77848000D01*
X147184213Y-77786000D01*
X147229600Y-77740613D01*
X147291600Y-77724000D01*
X150545800Y-77724000D01*
X150545800Y-81026000D01*
G37*
%TD.AperFunction*%
%TD*%
%TA.AperFunction,Conductor*%
%TO.N,/Vout*%
G36*
X184958891Y-75955439D02*
G01*
X184999119Y-75982319D01*
X185307481Y-76290681D01*
X185334361Y-76330909D01*
X185343800Y-76378362D01*
X185343800Y-79270000D01*
X185327187Y-79332000D01*
X185281800Y-79377387D01*
X185219800Y-79394000D01*
X184788800Y-79394000D01*
X184788800Y-80734000D01*
X184772187Y-80796000D01*
X184726800Y-80841387D01*
X184664800Y-80858000D01*
X183324800Y-80858000D01*
X183324800Y-80858365D01*
X183309662Y-80917736D01*
X183267946Y-80962612D01*
X183209835Y-80982035D01*
X183149518Y-80971264D01*
X183079318Y-80939377D01*
X182861132Y-80884400D01*
X182728988Y-80874000D01*
X182164800Y-80874000D01*
X182164800Y-81407000D01*
X181664800Y-81407000D01*
X181664800Y-80874001D01*
X181100612Y-80874001D01*
X180968468Y-80884400D01*
X180750281Y-80939377D01*
X180545420Y-81032430D01*
X180360467Y-81160565D01*
X180201365Y-81319667D01*
X180177846Y-81353616D01*
X180133449Y-81392846D01*
X180075918Y-81407000D01*
X173954290Y-81407000D01*
X173896759Y-81392846D01*
X173852362Y-81353616D01*
X173828619Y-81319345D01*
X173669454Y-81160180D01*
X173484425Y-81031992D01*
X173279481Y-80938902D01*
X173061216Y-80883904D01*
X172995114Y-80878701D01*
X172929017Y-80873500D01*
X172929013Y-80873500D01*
X172929007Y-80873500D01*
X172005798Y-80873500D01*
X171943800Y-80856888D01*
X171898413Y-80811501D01*
X171881800Y-80749501D01*
X171881800Y-80358000D01*
X183324800Y-80358000D01*
X184288800Y-80358000D01*
X184288800Y-79394000D01*
X183776976Y-79394000D01*
X183717424Y-79400402D01*
X183582710Y-79450647D01*
X183467611Y-79536811D01*
X183381447Y-79651910D01*
X183331202Y-79786624D01*
X183324800Y-79846176D01*
X183324800Y-80358000D01*
X171881800Y-80358000D01*
X171881800Y-76378362D01*
X171891239Y-76330909D01*
X171918119Y-76290681D01*
X172226481Y-75982319D01*
X172266709Y-75955439D01*
X172314162Y-75946000D01*
X184911438Y-75946000D01*
X184958891Y-75955439D01*
G37*
%TD.AperFunction*%
%TD*%
%TA.AperFunction,Conductor*%
%TO.N,/OUT*%
G36*
X171565800Y-81423613D02*
G01*
X171611187Y-81469000D01*
X171627800Y-81531000D01*
X171627800Y-85982000D01*
X171611187Y-86044000D01*
X171565800Y-86089387D01*
X171503800Y-86106000D01*
X170743800Y-86106000D01*
X170681800Y-86089387D01*
X170636413Y-86044000D01*
X170619800Y-85982000D01*
X170619800Y-85959268D01*
X170606843Y-85845551D01*
X170606312Y-85843250D01*
X170594293Y-85791192D01*
X170556088Y-85683308D01*
X170526358Y-85636642D01*
X170494594Y-85586782D01*
X170459486Y-85543429D01*
X170377856Y-85463212D01*
X170280280Y-85403418D01*
X170229716Y-85379839D01*
X170121181Y-85343524D01*
X170120962Y-85343477D01*
X170120803Y-85343444D01*
X170096163Y-85335436D01*
X170044116Y-85312263D01*
X170021667Y-85299302D01*
X169975580Y-85265818D01*
X169956315Y-85248473D01*
X169918197Y-85206139D01*
X169902960Y-85185166D01*
X169874476Y-85135830D01*
X169863932Y-85112148D01*
X169846369Y-85058095D01*
X169840300Y-85019777D01*
X169840300Y-84906222D01*
X169846369Y-84867904D01*
X169863933Y-84813847D01*
X169874474Y-84790170D01*
X169902962Y-84740827D01*
X169918192Y-84719865D01*
X170006114Y-84622220D01*
X170076786Y-84521291D01*
X170104953Y-84468317D01*
X170149108Y-84353290D01*
X170164124Y-84230998D01*
X170164124Y-84171002D01*
X170149108Y-84048710D01*
X170104953Y-83933683D01*
X170092775Y-83910781D01*
X170076786Y-83880708D01*
X170006116Y-83779781D01*
X169954925Y-83722928D01*
X169918191Y-83682131D01*
X169902962Y-83661170D01*
X169874474Y-83611827D01*
X169863934Y-83588153D01*
X169846369Y-83534095D01*
X169840300Y-83495776D01*
X169840300Y-83382221D01*
X169846369Y-83343902D01*
X169863934Y-83289844D01*
X169874472Y-83266173D01*
X169902962Y-83216826D01*
X169918192Y-83195865D01*
X170006116Y-83098218D01*
X170076786Y-82997290D01*
X170104953Y-82944316D01*
X170149108Y-82829289D01*
X170164124Y-82706997D01*
X170164124Y-82647000D01*
X170149108Y-82524708D01*
X170104953Y-82409681D01*
X170076786Y-82356707D01*
X170006115Y-82255778D01*
X169918197Y-82158136D01*
X169902959Y-82137164D01*
X169874473Y-82087825D01*
X169863932Y-82064149D01*
X169846330Y-82009977D01*
X169840940Y-81984617D01*
X169836419Y-81941599D01*
X169834986Y-81927958D01*
X169834986Y-81902040D01*
X169839003Y-81863813D01*
X169840941Y-81845375D01*
X169846330Y-81820022D01*
X169863629Y-81766782D01*
X169863935Y-81765840D01*
X169874470Y-81742176D01*
X169902962Y-81692826D01*
X169918197Y-81671858D01*
X169920566Y-81669227D01*
X169956317Y-81629521D01*
X169975577Y-81612180D01*
X170021669Y-81578692D01*
X170044116Y-81565734D01*
X170096159Y-81542563D01*
X170120815Y-81534552D01*
X170176536Y-81522709D01*
X170202315Y-81520000D01*
X170259288Y-81520000D01*
X170285061Y-81522708D01*
X170340793Y-81534554D01*
X170362167Y-81541500D01*
X170364864Y-81542307D01*
X170364866Y-81542308D01*
X170488592Y-81579336D01*
X170550604Y-81589515D01*
X170679675Y-81593982D01*
X170721672Y-81584520D01*
X170805660Y-81565601D01*
X170805664Y-81565599D01*
X170805666Y-81565599D01*
X170864704Y-81544070D01*
X170979396Y-81484683D01*
X170986472Y-81479779D01*
X171005806Y-81468808D01*
X171107592Y-81422575D01*
X171128570Y-81415235D01*
X171139172Y-81412564D01*
X171146346Y-81410757D01*
X171176638Y-81407000D01*
X171503800Y-81407000D01*
X171565800Y-81423613D01*
G37*
%TD.AperFunction*%
%TD*%
%TA.AperFunction,Conductor*%
%TO.N,GNDPWR*%
G36*
X150926800Y-90424000D02*
G01*
X147291600Y-90424000D01*
X147229600Y-90407387D01*
X147184213Y-90362000D01*
X147167600Y-90300000D01*
X147167600Y-84325000D01*
X147184213Y-84263000D01*
X147229600Y-84217613D01*
X147291600Y-84201000D01*
X150781349Y-84201000D01*
X150926800Y-84201000D01*
X150926800Y-90424000D01*
G37*
%TD.AperFunction*%
%TD*%
%TA.AperFunction,Conductor*%
%TO.N,GNDPWR*%
G36*
X159204610Y-81286069D02*
G01*
X159229961Y-81298985D01*
X159237067Y-81302148D01*
X159237070Y-81302151D01*
X159408688Y-81378561D01*
X159409997Y-81379144D01*
X159595152Y-81418500D01*
X159595154Y-81418500D01*
X159784446Y-81418500D01*
X159784448Y-81418500D01*
X159907883Y-81392262D01*
X159969603Y-81379144D01*
X160142530Y-81302151D01*
X160142534Y-81302147D01*
X160149638Y-81298985D01*
X160174990Y-81286069D01*
X160213308Y-81280000D01*
X160690292Y-81280000D01*
X160728610Y-81286069D01*
X160753961Y-81298985D01*
X160761067Y-81302148D01*
X160761070Y-81302151D01*
X160932688Y-81378561D01*
X160933997Y-81379144D01*
X161119152Y-81418500D01*
X161119154Y-81418500D01*
X161308446Y-81418500D01*
X161308448Y-81418500D01*
X161431883Y-81392262D01*
X161493603Y-81379144D01*
X161666530Y-81302151D01*
X161666534Y-81302147D01*
X161673638Y-81298985D01*
X161698990Y-81286069D01*
X161737308Y-81280000D01*
X162140144Y-81280000D01*
X162195304Y-81292944D01*
X162238947Y-81329074D01*
X162242302Y-81333498D01*
X162360910Y-81423442D01*
X162499387Y-81478050D01*
X162499390Y-81478051D01*
X162586402Y-81488500D01*
X162586406Y-81488500D01*
X164159194Y-81488500D01*
X164159198Y-81488500D01*
X164246209Y-81478051D01*
X164246210Y-81478050D01*
X164246213Y-81478050D01*
X164384690Y-81423442D01*
X164443873Y-81378561D01*
X164507172Y-81353910D01*
X164573960Y-81366308D01*
X164624194Y-81412033D01*
X164642800Y-81477364D01*
X164642800Y-82039113D01*
X164624339Y-82104209D01*
X164525986Y-82263665D01*
X164470800Y-82430202D01*
X164460300Y-82532991D01*
X164460300Y-82590182D01*
X164445907Y-82648168D01*
X164406068Y-82692692D01*
X164350033Y-82713419D01*
X164290811Y-82705537D01*
X164246213Y-82687950D01*
X164246210Y-82687949D01*
X164246209Y-82687949D01*
X164159198Y-82677500D01*
X164159194Y-82677500D01*
X162718772Y-82677500D01*
X162680454Y-82671431D01*
X162645887Y-82653818D01*
X162607531Y-82625951D01*
X162434603Y-82548957D01*
X162249449Y-82509602D01*
X162249447Y-82509602D01*
X162060155Y-82509602D01*
X162060153Y-82509602D01*
X161874998Y-82548957D01*
X161702070Y-82625950D01*
X161548930Y-82737212D01*
X161422267Y-82877885D01*
X161327621Y-83041817D01*
X161269127Y-83221844D01*
X161249341Y-83410102D01*
X161269127Y-83598359D01*
X161327621Y-83778386D01*
X161422267Y-83942318D01*
X161543107Y-84076524D01*
X161569850Y-84124278D01*
X161573431Y-84178893D01*
X161567624Y-84215559D01*
X161565255Y-84226998D01*
X161553900Y-84271224D01*
X161553900Y-84292445D01*
X161552373Y-84311844D01*
X161549053Y-84332805D01*
X161549967Y-84342470D01*
X161553350Y-84378261D01*
X161553900Y-84389930D01*
X161553900Y-84409052D01*
X161544871Y-84455503D01*
X161519098Y-84495190D01*
X161480336Y-84522330D01*
X161457639Y-84532436D01*
X161396067Y-84559849D01*
X161242929Y-84671110D01*
X161116266Y-84811783D01*
X161021620Y-84975715D01*
X160963126Y-85155742D01*
X160943340Y-85344000D01*
X160963126Y-85532257D01*
X161021620Y-85712284D01*
X161116266Y-85876216D01*
X161208813Y-85979000D01*
X158673800Y-85979000D01*
X158684211Y-85968588D01*
X158686744Y-85957797D01*
X158722874Y-85914154D01*
X158763297Y-85883499D01*
X158768820Y-85876216D01*
X158853242Y-85764890D01*
X158907850Y-85626413D01*
X158907850Y-85626410D01*
X158907851Y-85626409D01*
X158918300Y-85539398D01*
X158918300Y-85126601D01*
X158905947Y-85023733D01*
X158907643Y-85023529D01*
X158904687Y-85008000D01*
X158907643Y-84992470D01*
X158905947Y-84992267D01*
X158918300Y-84889399D01*
X158918300Y-84476601D01*
X158905947Y-84373733D01*
X158907646Y-84373528D01*
X158904687Y-84357954D01*
X158907641Y-84342470D01*
X158905947Y-84342267D01*
X158918300Y-84239399D01*
X158918300Y-83826601D01*
X158905947Y-83723733D01*
X158907646Y-83723528D01*
X158904687Y-83707954D01*
X158907641Y-83692470D01*
X158905947Y-83692267D01*
X158918300Y-83589399D01*
X158918300Y-83176601D01*
X158905947Y-83073733D01*
X158907646Y-83073528D01*
X158904687Y-83057978D01*
X158907644Y-83042471D01*
X158905947Y-83042268D01*
X158918300Y-82939399D01*
X158918300Y-82526601D01*
X158905947Y-82423733D01*
X158907643Y-82423529D01*
X158904687Y-82408000D01*
X158907643Y-82392470D01*
X158905947Y-82392267D01*
X158918300Y-82289399D01*
X158918300Y-81876601D01*
X158905947Y-81773733D01*
X158907643Y-81773529D01*
X158904687Y-81758000D01*
X158907643Y-81742470D01*
X158905947Y-81742267D01*
X158918300Y-81639399D01*
X158918300Y-81404000D01*
X158934913Y-81342000D01*
X158980300Y-81296613D01*
X159042300Y-81280000D01*
X159166292Y-81280000D01*
X159204610Y-81286069D01*
G37*
%TD.AperFunction*%
%TD*%
%TA.AperFunction,Conductor*%
%TO.N,GNDPWR*%
G36*
X170861891Y-75955439D02*
G01*
X170902119Y-75982319D01*
X171210481Y-76290681D01*
X171237361Y-76330909D01*
X171246800Y-76378362D01*
X171246800Y-80767515D01*
X171234919Y-80820479D01*
X171201554Y-80863295D01*
X171153098Y-80887756D01*
X170950118Y-80938902D01*
X170745171Y-81031993D01*
X170691522Y-81069161D01*
X170632484Y-81090690D01*
X170570472Y-81080511D01*
X170510602Y-81053855D01*
X170325448Y-81014500D01*
X170325446Y-81014500D01*
X170136154Y-81014500D01*
X170136152Y-81014500D01*
X169950997Y-81053855D01*
X169778069Y-81130848D01*
X169624929Y-81242110D01*
X169498266Y-81382783D01*
X169403620Y-81546715D01*
X169345126Y-81726742D01*
X169325340Y-81915000D01*
X169345126Y-82103257D01*
X169403620Y-82283284D01*
X169498264Y-82447213D01*
X169498267Y-82447216D01*
X169624929Y-82587888D01*
X169624932Y-82587890D01*
X169630457Y-82594026D01*
X169658624Y-82647000D01*
X169658624Y-82706997D01*
X169630457Y-82759971D01*
X169498266Y-82906783D01*
X169403620Y-83070715D01*
X169345126Y-83250742D01*
X169325340Y-83438999D01*
X169345126Y-83627257D01*
X169403620Y-83807284D01*
X169498266Y-83971216D01*
X169630457Y-84118028D01*
X169658624Y-84171002D01*
X169658624Y-84230998D01*
X169630457Y-84283972D01*
X169498266Y-84430783D01*
X169403620Y-84594715D01*
X169345126Y-84774742D01*
X169325340Y-84963000D01*
X169345126Y-85151257D01*
X169403620Y-85331284D01*
X169498266Y-85495216D01*
X169624929Y-85635889D01*
X169778069Y-85747151D01*
X169893968Y-85798752D01*
X169950997Y-85824144D01*
X170016083Y-85837978D01*
X170066641Y-85861554D01*
X170101750Y-85904909D01*
X170114300Y-85959267D01*
X170114300Y-86088213D01*
X170124704Y-86220416D01*
X170179702Y-86438681D01*
X170272792Y-86643625D01*
X170400980Y-86828654D01*
X170560145Y-86987819D01*
X170745174Y-87116007D01*
X170950118Y-87209097D01*
X171168383Y-87264095D01*
X171168384Y-87264095D01*
X171168388Y-87264096D01*
X171196000Y-87266269D01*
X171196000Y-91795600D01*
X171231559Y-91836239D01*
X171231559Y-91836240D01*
X170902119Y-92165681D01*
X170861891Y-92192561D01*
X170814438Y-92202000D01*
X151232162Y-92202000D01*
X151184709Y-92192561D01*
X151144481Y-92165681D01*
X150835995Y-91857195D01*
X150809172Y-91817105D01*
X150799676Y-91769814D01*
X150796417Y-90424000D01*
X150926800Y-90424000D01*
X150926800Y-84201000D01*
X150781349Y-84201000D01*
X150781211Y-84143840D01*
X150793933Y-84088830D01*
X150829723Y-84045167D01*
X150841242Y-84036329D01*
X150886629Y-83990942D01*
X150966963Y-83886250D01*
X151017462Y-83764334D01*
X151034075Y-83702334D01*
X151051300Y-83571500D01*
X151051300Y-81655500D01*
X151067913Y-81593500D01*
X151113300Y-81548113D01*
X151175300Y-81531500D01*
X153640619Y-81531500D01*
X153703398Y-81548566D01*
X153748896Y-81595068D01*
X153764590Y-81658204D01*
X153746158Y-81720596D01*
X153689986Y-81811665D01*
X153634800Y-81978202D01*
X153624300Y-82080990D01*
X153624300Y-83131008D01*
X153634800Y-83233796D01*
X153689986Y-83400334D01*
X153782088Y-83549657D01*
X153799750Y-83567319D01*
X153831844Y-83622906D01*
X153831844Y-83687094D01*
X153799750Y-83742681D01*
X153782088Y-83760342D01*
X153689986Y-83909665D01*
X153634800Y-84076202D01*
X153624300Y-84178990D01*
X153624300Y-85229008D01*
X153634800Y-85331796D01*
X153689986Y-85498334D01*
X153706066Y-85524404D01*
X153724498Y-85586796D01*
X153708804Y-85649932D01*
X153663306Y-85696434D01*
X153600527Y-85713500D01*
X153589932Y-85713500D01*
X153524836Y-85695039D01*
X153499134Y-85679186D01*
X153332597Y-85624000D01*
X153229809Y-85613500D01*
X152179791Y-85613500D01*
X152077003Y-85624000D01*
X151910465Y-85679186D01*
X151761142Y-85771288D01*
X151637088Y-85895342D01*
X151544986Y-86044665D01*
X151489800Y-86211202D01*
X151479300Y-86313991D01*
X151479300Y-86914008D01*
X151489800Y-87016796D01*
X151544986Y-87183334D01*
X151637086Y-87332654D01*
X151637087Y-87332655D01*
X151637088Y-87332656D01*
X151761144Y-87456712D01*
X151761146Y-87456713D01*
X151761147Y-87456714D01*
X151763982Y-87458463D01*
X151807161Y-87503569D01*
X151822883Y-87563999D01*
X151807162Y-87624429D01*
X151763984Y-87669536D01*
X151761146Y-87671286D01*
X151637086Y-87795345D01*
X151544986Y-87944665D01*
X151489800Y-88111202D01*
X151479300Y-88213991D01*
X151479300Y-88814008D01*
X151489800Y-88916796D01*
X151544986Y-89083334D01*
X151637088Y-89232657D01*
X151767981Y-89363550D01*
X151794861Y-89403778D01*
X151804300Y-89451231D01*
X151804300Y-90207189D01*
X151819126Y-90348259D01*
X151830231Y-90382435D01*
X151836300Y-90420752D01*
X151836300Y-90817008D01*
X151846800Y-90919796D01*
X151901986Y-91086334D01*
X151994088Y-91235657D01*
X152118142Y-91359711D01*
X152118144Y-91359712D01*
X152267466Y-91451814D01*
X152378817Y-91488712D01*
X152434002Y-91506999D01*
X152443529Y-91507972D01*
X152536791Y-91517500D01*
X153136808Y-91517499D01*
X153239597Y-91506999D01*
X153406134Y-91451814D01*
X153555456Y-91359712D01*
X153679512Y-91235656D01*
X153681260Y-91232821D01*
X153726368Y-91189640D01*
X153786800Y-91173917D01*
X153847232Y-91189640D01*
X153892339Y-91232821D01*
X153894088Y-91235657D01*
X154018142Y-91359711D01*
X154018144Y-91359712D01*
X154167466Y-91451814D01*
X154278817Y-91488712D01*
X154334002Y-91506999D01*
X154343529Y-91507972D01*
X154436791Y-91517500D01*
X155036808Y-91517499D01*
X155139597Y-91506999D01*
X155306134Y-91451814D01*
X155455456Y-91359712D01*
X155579512Y-91235656D01*
X155671614Y-91086334D01*
X155726799Y-90919797D01*
X155737300Y-90817009D01*
X155737299Y-89766992D01*
X155726799Y-89664203D01*
X155711818Y-89618995D01*
X155707166Y-89559885D01*
X155730494Y-89505369D01*
X155776468Y-89467918D01*
X155834575Y-89456097D01*
X155880073Y-89469287D01*
X155880118Y-89469151D01*
X155884388Y-89470538D01*
X155891527Y-89472608D01*
X155892515Y-89473179D01*
X155908181Y-89478268D01*
X155931466Y-89485834D01*
X155943578Y-89490483D01*
X155980997Y-89507144D01*
X156021067Y-89515660D01*
X156033582Y-89519014D01*
X156072544Y-89531674D01*
X156113285Y-89535955D01*
X156126094Y-89537985D01*
X156166154Y-89546500D01*
X156213608Y-89546500D01*
X156355446Y-89546500D01*
X156489930Y-89546500D01*
X156540145Y-89557123D01*
X156581757Y-89587171D01*
X156607636Y-89631495D01*
X156651986Y-89765334D01*
X156671499Y-89796969D01*
X156744088Y-89914657D01*
X156868142Y-90038711D01*
X156924695Y-90073592D01*
X157017466Y-90130814D01*
X157128816Y-90167712D01*
X157184002Y-90185999D01*
X157193529Y-90186972D01*
X157286791Y-90196500D01*
X157886808Y-90196499D01*
X157989597Y-90185999D01*
X158156134Y-90130814D01*
X158305456Y-90038712D01*
X158429512Y-89914656D01*
X158431260Y-89911821D01*
X158476368Y-89868640D01*
X158536800Y-89852917D01*
X158597232Y-89868640D01*
X158642339Y-89911821D01*
X158644088Y-89914657D01*
X158768142Y-90038711D01*
X158824695Y-90073592D01*
X158917466Y-90130814D01*
X159028816Y-90167712D01*
X159084002Y-90185999D01*
X159093529Y-90186972D01*
X159186791Y-90196500D01*
X159786808Y-90196499D01*
X159889597Y-90185999D01*
X160056134Y-90130814D01*
X160205456Y-90038712D01*
X160329512Y-89914656D01*
X160402101Y-89796967D01*
X160451345Y-89751580D01*
X160492949Y-89730383D01*
X160603180Y-89641119D01*
X161158542Y-89085756D01*
X161173327Y-89073129D01*
X161184671Y-89064888D01*
X161230056Y-89014481D01*
X161234488Y-89009810D01*
X161248920Y-88995380D01*
X161261738Y-88979549D01*
X161265952Y-88974616D01*
X161311329Y-88924220D01*
X161311333Y-88924216D01*
X161318344Y-88912071D01*
X161329364Y-88896039D01*
X161338183Y-88885149D01*
X161368985Y-88824693D01*
X161372048Y-88819051D01*
X161405979Y-88760284D01*
X161410309Y-88746953D01*
X161417756Y-88728974D01*
X161424120Y-88716488D01*
X161441675Y-88650970D01*
X161443507Y-88644782D01*
X161464474Y-88580256D01*
X161465940Y-88566305D01*
X161469483Y-88547190D01*
X161473113Y-88533645D01*
X161476662Y-88465898D01*
X161477167Y-88459477D01*
X161484260Y-88392000D01*
X161482793Y-88378051D01*
X161482284Y-88358619D01*
X161483019Y-88344612D01*
X161472408Y-88277621D01*
X161471566Y-88271230D01*
X161464474Y-88203744D01*
X161460140Y-88190405D01*
X161455598Y-88171487D01*
X161453407Y-88157650D01*
X161429092Y-88094306D01*
X161426937Y-88088219D01*
X161405980Y-88023717D01*
X161398975Y-88011585D01*
X161390597Y-87994020D01*
X161385573Y-87980933D01*
X161385572Y-87980930D01*
X161348608Y-87924011D01*
X161345255Y-87918538D01*
X161311333Y-87859784D01*
X161301950Y-87849364D01*
X161290104Y-87833923D01*
X161282474Y-87822174D01*
X161234515Y-87774215D01*
X161230064Y-87769526D01*
X161184671Y-87719112D01*
X161173330Y-87710872D01*
X161158540Y-87698240D01*
X161148625Y-87688325D01*
X161148622Y-87688323D01*
X161148621Y-87688322D01*
X161091731Y-87651377D01*
X161086381Y-87647700D01*
X161031531Y-87607850D01*
X161031530Y-87607849D01*
X161018727Y-87602148D01*
X161001630Y-87592865D01*
X160989867Y-87585226D01*
X160926556Y-87560924D01*
X160920558Y-87558440D01*
X160858601Y-87530855D01*
X160844887Y-87527940D01*
X160826232Y-87522414D01*
X160813149Y-87517392D01*
X160746174Y-87506784D01*
X160739792Y-87505602D01*
X160711902Y-87499674D01*
X160673446Y-87491500D01*
X160673444Y-87491500D01*
X160659426Y-87491500D01*
X160640028Y-87489973D01*
X160626188Y-87487781D01*
X160558464Y-87491330D01*
X160551975Y-87491500D01*
X160484154Y-87491500D01*
X160475647Y-87493308D01*
X160470442Y-87494414D01*
X160451161Y-87496952D01*
X160437155Y-87497686D01*
X160371639Y-87515241D01*
X160365328Y-87516756D01*
X160298995Y-87530855D01*
X160286187Y-87536558D01*
X160267858Y-87543049D01*
X160254311Y-87546679D01*
X160193881Y-87577470D01*
X160188025Y-87580264D01*
X160126067Y-87607850D01*
X160114730Y-87616087D01*
X160098149Y-87626248D01*
X160085650Y-87632616D01*
X160032935Y-87675303D01*
X160027789Y-87679252D01*
X159962387Y-87726771D01*
X159961234Y-87725184D01*
X159930065Y-87746635D01*
X159872864Y-87754291D01*
X159797919Y-87746635D01*
X159786808Y-87745500D01*
X159186791Y-87745500D01*
X159084003Y-87756000D01*
X158917465Y-87811186D01*
X158768142Y-87903288D01*
X158698981Y-87972450D01*
X158649618Y-88002700D01*
X158591902Y-88007242D01*
X158538415Y-87985087D01*
X158500815Y-87941064D01*
X158487300Y-87884769D01*
X158487300Y-87824132D01*
X158505761Y-87759036D01*
X158507633Y-87756001D01*
X158521614Y-87733334D01*
X158576799Y-87566797D01*
X158587300Y-87464009D01*
X158587299Y-86413992D01*
X158576799Y-86311203D01*
X158522548Y-86147487D01*
X158518373Y-86085665D01*
X158544632Y-86029539D01*
X158594768Y-85993128D01*
X158608674Y-85987645D01*
X158608677Y-85987644D01*
X158654163Y-85979000D01*
X158673800Y-85979000D01*
X161208814Y-85979000D01*
X161242929Y-86016889D01*
X161396069Y-86128151D01*
X161568997Y-86205144D01*
X161754152Y-86244500D01*
X161754154Y-86244500D01*
X161785300Y-86244500D01*
X161847300Y-86261113D01*
X161892687Y-86306500D01*
X161909300Y-86368500D01*
X161909300Y-88700622D01*
X161893577Y-88761054D01*
X161850396Y-88806161D01*
X161816142Y-88827288D01*
X161692088Y-88951342D01*
X161599986Y-89100665D01*
X161544800Y-89267202D01*
X161534300Y-89369990D01*
X161534300Y-90970008D01*
X161544800Y-91072796D01*
X161599986Y-91239334D01*
X161692088Y-91388657D01*
X161816142Y-91512711D01*
X161872695Y-91547592D01*
X161965466Y-91604814D01*
X162076816Y-91641712D01*
X162132002Y-91659999D01*
X162141529Y-91660972D01*
X162234791Y-91670500D01*
X162834808Y-91670499D01*
X162937597Y-91659999D01*
X163104134Y-91604814D01*
X163253456Y-91512712D01*
X163377512Y-91388656D01*
X163469614Y-91239334D01*
X163524799Y-91072797D01*
X163535300Y-90970009D01*
X163535299Y-89369992D01*
X163533942Y-89356712D01*
X163524799Y-89267203D01*
X163524799Y-89267202D01*
X163469614Y-89100666D01*
X163412392Y-89007895D01*
X163377511Y-88951342D01*
X163253457Y-88827288D01*
X163219204Y-88806161D01*
X163176023Y-88761054D01*
X163160300Y-88700622D01*
X163160300Y-86481452D01*
X163169739Y-86433999D01*
X163196619Y-86393771D01*
X163515572Y-86074819D01*
X163555800Y-86047939D01*
X163603253Y-86038500D01*
X164159198Y-86038500D01*
X164217206Y-86031533D01*
X164246213Y-86028050D01*
X164304823Y-86004937D01*
X164348675Y-85987645D01*
X164394164Y-85979000D01*
X164769800Y-85979000D01*
X164769800Y-84349218D01*
X164783397Y-84292763D01*
X164821206Y-84248688D01*
X164874936Y-84226661D01*
X164932803Y-84231512D01*
X164956590Y-84239394D01*
X165008239Y-84256508D01*
X165056916Y-84286533D01*
X165835454Y-85065071D01*
X165863063Y-85107100D01*
X165868311Y-85120355D01*
X165868314Y-85120359D01*
X165873219Y-85127110D01*
X165890831Y-85161676D01*
X165896900Y-85199994D01*
X165896900Y-88605406D01*
X165886277Y-88655621D01*
X165856229Y-88697233D01*
X165811905Y-88723111D01*
X165795066Y-88728691D01*
X165775465Y-88735186D01*
X165626142Y-88827288D01*
X165502088Y-88951342D01*
X165409986Y-89100665D01*
X165354800Y-89267202D01*
X165344300Y-89369990D01*
X165344300Y-90970008D01*
X165354800Y-91072796D01*
X165409986Y-91239334D01*
X165502088Y-91388657D01*
X165626142Y-91512711D01*
X165682695Y-91547592D01*
X165775466Y-91604814D01*
X165886816Y-91641712D01*
X165942002Y-91659999D01*
X165951529Y-91660972D01*
X166044791Y-91670500D01*
X166644808Y-91670499D01*
X166747597Y-91659999D01*
X166914134Y-91604814D01*
X167063456Y-91512712D01*
X167187512Y-91388656D01*
X167279614Y-91239334D01*
X167334799Y-91072797D01*
X167345300Y-90970009D01*
X167345299Y-89369992D01*
X167343942Y-89356712D01*
X167334799Y-89267203D01*
X167334799Y-89267202D01*
X167279614Y-89100666D01*
X167222392Y-89007895D01*
X167187511Y-88951342D01*
X167184219Y-88948050D01*
X167157339Y-88907822D01*
X167147900Y-88860369D01*
X167147900Y-86693500D01*
X167164513Y-86631500D01*
X167209900Y-86586113D01*
X167271900Y-86569500D01*
X167660808Y-86569499D01*
X167660807Y-86569499D01*
X167763597Y-86558999D01*
X167930134Y-86503814D01*
X168079456Y-86411712D01*
X168203512Y-86287656D01*
X168295614Y-86138334D01*
X168350799Y-85971797D01*
X168361300Y-85869009D01*
X168361299Y-84818992D01*
X168350799Y-84716203D01*
X168295614Y-84549666D01*
X168279761Y-84523964D01*
X168261300Y-84458868D01*
X168261300Y-83943132D01*
X168279761Y-83878036D01*
X168280906Y-83876179D01*
X168295614Y-83852334D01*
X168350799Y-83685797D01*
X168361300Y-83583009D01*
X168361299Y-82532992D01*
X168350799Y-82430203D01*
X168295614Y-82263666D01*
X168203512Y-82114344D01*
X168203511Y-82114342D01*
X168079457Y-81990288D01*
X167930134Y-81898186D01*
X167763597Y-81843000D01*
X167670335Y-81833473D01*
X167660808Y-81832500D01*
X167060791Y-81832500D01*
X166958003Y-81843000D01*
X166791465Y-81898186D01*
X166642142Y-81990288D01*
X166518086Y-82114344D01*
X166516337Y-82117181D01*
X166471231Y-82160360D01*
X166410800Y-82176082D01*
X166350369Y-82160360D01*
X166305263Y-82117181D01*
X166303513Y-82114344D01*
X166179457Y-81990288D01*
X166030134Y-81898186D01*
X165863597Y-81843000D01*
X165770335Y-81833473D01*
X165760808Y-81832500D01*
X165160791Y-81832500D01*
X165058003Y-81843000D01*
X164932804Y-81884488D01*
X164874937Y-81889339D01*
X164821207Y-81867312D01*
X164783397Y-81823238D01*
X164769800Y-81766782D01*
X164769800Y-76070000D01*
X164786413Y-76008000D01*
X164831800Y-75962613D01*
X164893800Y-75946000D01*
X170814438Y-75946000D01*
X170861891Y-75955439D01*
G37*
%TD.AperFunction*%
%TD*%
%TA.AperFunction,Conductor*%
%TO.N,/Vbat*%
G36*
X156198800Y-77740613D02*
G01*
X156244187Y-77786000D01*
X156260800Y-77848000D01*
X156260800Y-80902000D01*
X156244187Y-80964000D01*
X156198800Y-81009387D01*
X156136800Y-81026000D01*
X150545800Y-81026000D01*
X150545800Y-77724000D01*
X156136800Y-77724000D01*
X156198800Y-77740613D01*
G37*
%TD.AperFunction*%
%TD*%
%TA.AperFunction,Conductor*%
%TO.N,GNDPWR*%
G36*
X180381595Y-87009587D02*
G01*
X180415319Y-87026043D01*
X180545174Y-87116007D01*
X180615030Y-87147737D01*
X180750118Y-87209097D01*
X180968383Y-87264095D01*
X180968384Y-87264095D01*
X180968388Y-87264096D01*
X181100583Y-87274500D01*
X182729016Y-87274499D01*
X182861212Y-87264096D01*
X183079483Y-87209096D01*
X183192739Y-87157652D01*
X183261123Y-87147737D01*
X183324197Y-87175961D01*
X183362372Y-87233559D01*
X183363794Y-87302645D01*
X183338676Y-87396386D01*
X183320162Y-87608000D01*
X183338676Y-87819611D01*
X183393657Y-88024801D01*
X183483426Y-88217314D01*
X183521523Y-88271721D01*
X184451118Y-87342127D01*
X184506705Y-87310033D01*
X184570893Y-87310033D01*
X184626480Y-87342127D01*
X184804672Y-87520319D01*
X184836766Y-87575906D01*
X184836766Y-87640094D01*
X184804672Y-87695681D01*
X183875077Y-88625275D01*
X183929484Y-88663372D01*
X184121998Y-88753142D01*
X184327188Y-88808123D01*
X184538799Y-88826637D01*
X184750411Y-88808123D01*
X184955601Y-88753142D01*
X185148115Y-88663372D01*
X185148675Y-88662981D01*
X185149816Y-88662579D01*
X185157952Y-88658786D01*
X185158325Y-88659587D01*
X185211688Y-88640821D01*
X185277056Y-88654565D01*
X185325809Y-88700227D01*
X185343800Y-88764555D01*
X185343800Y-91652667D01*
X185337437Y-91691879D01*
X185319000Y-91727065D01*
X185159341Y-91939945D01*
X185000000Y-92152400D01*
X184956254Y-92188909D01*
X184900800Y-92202000D01*
X171607868Y-92202000D01*
X171556629Y-92190919D01*
X171514549Y-92159655D01*
X171382487Y-92008728D01*
X171231560Y-91836240D01*
X171196000Y-91795600D01*
X171196000Y-87266269D01*
X171300583Y-87274500D01*
X172929016Y-87274499D01*
X173061212Y-87264096D01*
X173061216Y-87264095D01*
X173279481Y-87209097D01*
X173484423Y-87116009D01*
X173484426Y-87116007D01*
X173596978Y-87038030D01*
X173630489Y-87021642D01*
X173667356Y-87015963D01*
X180344494Y-87003975D01*
X180381595Y-87009587D01*
G37*
%TD.AperFunction*%
%TD*%
M02*
