M48
; DRILL file {KiCad 7.0.1} date Wed Apr 26 12:17:52 2023
; FORMAT={-:-/ absolute / inch / decimal}
; #@! TF.CreationDate,2023-04-26T12:17:52+02:00
; #@! TF.GenerationSoftware,Kicad,Pcbnew,7.0.1
; #@! TF.FileFunction,Plated,1,2,PTH
FMAT,2
INCH
; #@! TA.AperFunction,Plated,PTH,ViaDrill
T1C0.0157
; #@! TA.AperFunction,Plated,PTH,ComponentDrill
T2C0.0362
; #@! TA.AperFunction,Plated,PTH,ComponentDrill
T3C0.0906
%
G90
G05
T1
X5.952Y-3.325
X5.952Y-3.376
X5.952Y-3.428
X5.952Y-3.48
X5.952Y-3.53
X5.96Y-3.09
X5.96Y-3.148
X6.012Y-3.46
X6.024Y-3.092
X6.024Y-3.148
X6.0443Y-3.34
X6.082Y-3.092
X6.082Y-3.148
X6.134Y-3.094
X6.134Y-3.148
X6.142Y-3.3
X6.142Y-3.392
X6.152Y-3.49
X6.197Y-3.14
X6.227Y-3.17
X6.252Y-3.42
X6.257Y-3.14
X6.262Y-3.375
X6.287Y-3.17
X6.288Y-3.268
X6.294Y-3.312
X6.298Y-3.228
X6.317Y-3.14
X6.32Y-3.354
X6.322Y-3.48
X6.33Y-3.268
X6.34Y-3.314
X6.342Y-3.226
X6.347Y-3.17
X6.372Y-3.36
X6.377Y-3.14
X6.384Y-3.2839
X6.407Y-3.17
X6.432Y-3.23
X6.437Y-3.14
X6.512Y-3.425
X6.5142Y-3.27
X6.582Y-3.27
X6.647Y-3.285
X6.647Y-3.336
X6.647Y-3.395
X6.702Y-3.225
X6.702Y-3.285
X6.702Y-3.345
X6.737Y-3.255
X6.737Y-3.315
X6.737Y-3.375
X6.786Y-3.442
X6.792Y-3.05
X6.792Y-3.11
X6.802Y-3.535
X6.802Y-3.595
X6.842Y-3.015
X6.842Y-3.07
X6.852Y-3.5
X6.852Y-3.555
X6.897Y-3.055
X6.897Y-3.115
X6.907Y-3.46
X6.907Y-3.54
X6.907Y-3.6
X6.947Y-3.02
X6.947Y-3.075
X6.957Y-3.505
X6.957Y-3.56
X6.997Y-3.055
X6.997Y-3.115
X7.007Y-3.54
X7.007Y-3.6
X7.047Y-3.02
X7.047Y-3.075
X7.057Y-3.505
X7.057Y-3.56
X7.097Y-3.055
X7.097Y-3.115
X7.107Y-3.54
X7.107Y-3.6
X7.147Y-3.02
X7.147Y-3.075
X7.157Y-3.505
X7.157Y-3.56
X7.197Y-3.055
X7.197Y-3.115
X7.207Y-3.54
X7.207Y-3.6
X7.247Y-3.075
X7.257Y-3.505
X7.257Y-3.56
T2
X7.2653Y-3.1735
X7.2653Y-3.272
X7.2653Y-3.3507
X7.2653Y-3.4491
T3
X7.372Y-3.0527
X7.372Y-3.57
T0
M30
