%TF.GenerationSoftware,KiCad,Pcbnew,7.0.1*%
%TF.CreationDate,2023-04-26T12:17:49+02:00*%
%TF.ProjectId,L5988D_RPI_POWER_SUPPLY,4c353938-3844-45f5-9250-495f504f5745,rev?*%
%TF.SameCoordinates,Original*%
%TF.FileFunction,Legend,Top*%
%TF.FilePolarity,Positive*%
%FSLAX46Y46*%
G04 Gerber Fmt 4.6, Leading zero omitted, Abs format (unit mm)*
G04 Created by KiCad (PCBNEW 7.0.1) date 2023-04-26 12:17:49*
%MOMM*%
%LPD*%
G01*
G04 APERTURE LIST*
%ADD10C,0.150000*%
%ADD11C,0.200000*%
%ADD12C,0.120000*%
%ADD13C,0.127000*%
G04 APERTURE END LIST*
D10*
%TO.C,REF\u002A\u002A*%
X148983866Y-69059019D02*
X148650533Y-68582828D01*
X148412438Y-69059019D02*
X148412438Y-68059019D01*
X148412438Y-68059019D02*
X148793390Y-68059019D01*
X148793390Y-68059019D02*
X148888628Y-68106638D01*
X148888628Y-68106638D02*
X148936247Y-68154257D01*
X148936247Y-68154257D02*
X148983866Y-68249495D01*
X148983866Y-68249495D02*
X148983866Y-68392352D01*
X148983866Y-68392352D02*
X148936247Y-68487590D01*
X148936247Y-68487590D02*
X148888628Y-68535209D01*
X148888628Y-68535209D02*
X148793390Y-68582828D01*
X148793390Y-68582828D02*
X148412438Y-68582828D01*
X149412438Y-68535209D02*
X149745771Y-68535209D01*
X149888628Y-69059019D02*
X149412438Y-69059019D01*
X149412438Y-69059019D02*
X149412438Y-68059019D01*
X149412438Y-68059019D02*
X149888628Y-68059019D01*
X150650533Y-68535209D02*
X150317200Y-68535209D01*
X150317200Y-69059019D02*
X150317200Y-68059019D01*
X150317200Y-68059019D02*
X150793390Y-68059019D01*
X151317200Y-68059019D02*
X151317200Y-68297114D01*
X151079105Y-68201876D02*
X151317200Y-68297114D01*
X151317200Y-68297114D02*
X151555295Y-68201876D01*
X151174343Y-68487590D02*
X151317200Y-68297114D01*
X151317200Y-68297114D02*
X151460057Y-68487590D01*
X152079105Y-68059019D02*
X152079105Y-68297114D01*
X151841010Y-68201876D02*
X152079105Y-68297114D01*
X152079105Y-68297114D02*
X152317200Y-68201876D01*
X151936248Y-68487590D02*
X152079105Y-68297114D01*
X152079105Y-68297114D02*
X152221962Y-68487590D01*
X184239066Y-69109819D02*
X183905733Y-68633628D01*
X183667638Y-69109819D02*
X183667638Y-68109819D01*
X183667638Y-68109819D02*
X184048590Y-68109819D01*
X184048590Y-68109819D02*
X184143828Y-68157438D01*
X184143828Y-68157438D02*
X184191447Y-68205057D01*
X184191447Y-68205057D02*
X184239066Y-68300295D01*
X184239066Y-68300295D02*
X184239066Y-68443152D01*
X184239066Y-68443152D02*
X184191447Y-68538390D01*
X184191447Y-68538390D02*
X184143828Y-68586009D01*
X184143828Y-68586009D02*
X184048590Y-68633628D01*
X184048590Y-68633628D02*
X183667638Y-68633628D01*
X184667638Y-68586009D02*
X185000971Y-68586009D01*
X185143828Y-69109819D02*
X184667638Y-69109819D01*
X184667638Y-69109819D02*
X184667638Y-68109819D01*
X184667638Y-68109819D02*
X185143828Y-68109819D01*
X185905733Y-68586009D02*
X185572400Y-68586009D01*
X185572400Y-69109819D02*
X185572400Y-68109819D01*
X185572400Y-68109819D02*
X186048590Y-68109819D01*
X186572400Y-68109819D02*
X186572400Y-68347914D01*
X186334305Y-68252676D02*
X186572400Y-68347914D01*
X186572400Y-68347914D02*
X186810495Y-68252676D01*
X186429543Y-68538390D02*
X186572400Y-68347914D01*
X186572400Y-68347914D02*
X186715257Y-68538390D01*
X187334305Y-68109819D02*
X187334305Y-68347914D01*
X187096210Y-68252676D02*
X187334305Y-68347914D01*
X187334305Y-68347914D02*
X187572400Y-68252676D01*
X187191448Y-68538390D02*
X187334305Y-68347914D01*
X187334305Y-68347914D02*
X187477162Y-68538390D01*
%TO.C,VREF*%
X164410219Y-92341485D02*
X165410219Y-92008152D01*
X165410219Y-92008152D02*
X164410219Y-91674819D01*
X165410219Y-90770057D02*
X164934028Y-91103390D01*
X165410219Y-91341485D02*
X164410219Y-91341485D01*
X164410219Y-91341485D02*
X164410219Y-90960533D01*
X164410219Y-90960533D02*
X164457838Y-90865295D01*
X164457838Y-90865295D02*
X164505457Y-90817676D01*
X164505457Y-90817676D02*
X164600695Y-90770057D01*
X164600695Y-90770057D02*
X164743552Y-90770057D01*
X164743552Y-90770057D02*
X164838790Y-90817676D01*
X164838790Y-90817676D02*
X164886409Y-90865295D01*
X164886409Y-90865295D02*
X164934028Y-90960533D01*
X164934028Y-90960533D02*
X164934028Y-91341485D01*
X164886409Y-90341485D02*
X164886409Y-90008152D01*
X165410219Y-89865295D02*
X165410219Y-90341485D01*
X165410219Y-90341485D02*
X164410219Y-90341485D01*
X164410219Y-90341485D02*
X164410219Y-89865295D01*
X164886409Y-89103390D02*
X164886409Y-89436723D01*
X165410219Y-89436723D02*
X164410219Y-89436723D01*
X164410219Y-89436723D02*
X164410219Y-88960533D01*
%TO.C,Css1*%
X152698609Y-79991380D02*
X152650990Y-80039000D01*
X152650990Y-80039000D02*
X152508133Y-80086619D01*
X152508133Y-80086619D02*
X152412895Y-80086619D01*
X152412895Y-80086619D02*
X152270038Y-80039000D01*
X152270038Y-80039000D02*
X152174800Y-79943761D01*
X152174800Y-79943761D02*
X152127181Y-79848523D01*
X152127181Y-79848523D02*
X152079562Y-79658047D01*
X152079562Y-79658047D02*
X152079562Y-79515190D01*
X152079562Y-79515190D02*
X152127181Y-79324714D01*
X152127181Y-79324714D02*
X152174800Y-79229476D01*
X152174800Y-79229476D02*
X152270038Y-79134238D01*
X152270038Y-79134238D02*
X152412895Y-79086619D01*
X152412895Y-79086619D02*
X152508133Y-79086619D01*
X152508133Y-79086619D02*
X152650990Y-79134238D01*
X152650990Y-79134238D02*
X152698609Y-79181857D01*
X153079562Y-80039000D02*
X153174800Y-80086619D01*
X153174800Y-80086619D02*
X153365276Y-80086619D01*
X153365276Y-80086619D02*
X153460514Y-80039000D01*
X153460514Y-80039000D02*
X153508133Y-79943761D01*
X153508133Y-79943761D02*
X153508133Y-79896142D01*
X153508133Y-79896142D02*
X153460514Y-79800904D01*
X153460514Y-79800904D02*
X153365276Y-79753285D01*
X153365276Y-79753285D02*
X153222419Y-79753285D01*
X153222419Y-79753285D02*
X153127181Y-79705666D01*
X153127181Y-79705666D02*
X153079562Y-79610428D01*
X153079562Y-79610428D02*
X153079562Y-79562809D01*
X153079562Y-79562809D02*
X153127181Y-79467571D01*
X153127181Y-79467571D02*
X153222419Y-79419952D01*
X153222419Y-79419952D02*
X153365276Y-79419952D01*
X153365276Y-79419952D02*
X153460514Y-79467571D01*
X153889086Y-80039000D02*
X153984324Y-80086619D01*
X153984324Y-80086619D02*
X154174800Y-80086619D01*
X154174800Y-80086619D02*
X154270038Y-80039000D01*
X154270038Y-80039000D02*
X154317657Y-79943761D01*
X154317657Y-79943761D02*
X154317657Y-79896142D01*
X154317657Y-79896142D02*
X154270038Y-79800904D01*
X154270038Y-79800904D02*
X154174800Y-79753285D01*
X154174800Y-79753285D02*
X154031943Y-79753285D01*
X154031943Y-79753285D02*
X153936705Y-79705666D01*
X153936705Y-79705666D02*
X153889086Y-79610428D01*
X153889086Y-79610428D02*
X153889086Y-79562809D01*
X153889086Y-79562809D02*
X153936705Y-79467571D01*
X153936705Y-79467571D02*
X154031943Y-79419952D01*
X154031943Y-79419952D02*
X154174800Y-79419952D01*
X154174800Y-79419952D02*
X154270038Y-79467571D01*
X155270038Y-80086619D02*
X154698610Y-80086619D01*
X154984324Y-80086619D02*
X154984324Y-79086619D01*
X154984324Y-79086619D02*
X154889086Y-79229476D01*
X154889086Y-79229476D02*
X154793848Y-79324714D01*
X154793848Y-79324714D02*
X154698610Y-79372333D01*
%TO.C,Cin1*%
X159645657Y-79940380D02*
X159598038Y-79988000D01*
X159598038Y-79988000D02*
X159455181Y-80035619D01*
X159455181Y-80035619D02*
X159359943Y-80035619D01*
X159359943Y-80035619D02*
X159217086Y-79988000D01*
X159217086Y-79988000D02*
X159121848Y-79892761D01*
X159121848Y-79892761D02*
X159074229Y-79797523D01*
X159074229Y-79797523D02*
X159026610Y-79607047D01*
X159026610Y-79607047D02*
X159026610Y-79464190D01*
X159026610Y-79464190D02*
X159074229Y-79273714D01*
X159074229Y-79273714D02*
X159121848Y-79178476D01*
X159121848Y-79178476D02*
X159217086Y-79083238D01*
X159217086Y-79083238D02*
X159359943Y-79035619D01*
X159359943Y-79035619D02*
X159455181Y-79035619D01*
X159455181Y-79035619D02*
X159598038Y-79083238D01*
X159598038Y-79083238D02*
X159645657Y-79130857D01*
X160074229Y-80035619D02*
X160074229Y-79368952D01*
X160074229Y-79035619D02*
X160026610Y-79083238D01*
X160026610Y-79083238D02*
X160074229Y-79130857D01*
X160074229Y-79130857D02*
X160121848Y-79083238D01*
X160121848Y-79083238D02*
X160074229Y-79035619D01*
X160074229Y-79035619D02*
X160074229Y-79130857D01*
X160550419Y-79368952D02*
X160550419Y-80035619D01*
X160550419Y-79464190D02*
X160598038Y-79416571D01*
X160598038Y-79416571D02*
X160693276Y-79368952D01*
X160693276Y-79368952D02*
X160836133Y-79368952D01*
X160836133Y-79368952D02*
X160931371Y-79416571D01*
X160931371Y-79416571D02*
X160978990Y-79511809D01*
X160978990Y-79511809D02*
X160978990Y-80035619D01*
X161978990Y-80035619D02*
X161407562Y-80035619D01*
X161693276Y-80035619D02*
X161693276Y-79035619D01*
X161693276Y-79035619D02*
X161598038Y-79178476D01*
X161598038Y-79178476D02*
X161502800Y-79273714D01*
X161502800Y-79273714D02*
X161407562Y-79321333D01*
%TO.C,Rsous1*%
X165479847Y-80218619D02*
X165146514Y-79742428D01*
X164908419Y-80218619D02*
X164908419Y-79218619D01*
X164908419Y-79218619D02*
X165289371Y-79218619D01*
X165289371Y-79218619D02*
X165384609Y-79266238D01*
X165384609Y-79266238D02*
X165432228Y-79313857D01*
X165432228Y-79313857D02*
X165479847Y-79409095D01*
X165479847Y-79409095D02*
X165479847Y-79551952D01*
X165479847Y-79551952D02*
X165432228Y-79647190D01*
X165432228Y-79647190D02*
X165384609Y-79694809D01*
X165384609Y-79694809D02*
X165289371Y-79742428D01*
X165289371Y-79742428D02*
X164908419Y-79742428D01*
X165860800Y-80171000D02*
X165956038Y-80218619D01*
X165956038Y-80218619D02*
X166146514Y-80218619D01*
X166146514Y-80218619D02*
X166241752Y-80171000D01*
X166241752Y-80171000D02*
X166289371Y-80075761D01*
X166289371Y-80075761D02*
X166289371Y-80028142D01*
X166289371Y-80028142D02*
X166241752Y-79932904D01*
X166241752Y-79932904D02*
X166146514Y-79885285D01*
X166146514Y-79885285D02*
X166003657Y-79885285D01*
X166003657Y-79885285D02*
X165908419Y-79837666D01*
X165908419Y-79837666D02*
X165860800Y-79742428D01*
X165860800Y-79742428D02*
X165860800Y-79694809D01*
X165860800Y-79694809D02*
X165908419Y-79599571D01*
X165908419Y-79599571D02*
X166003657Y-79551952D01*
X166003657Y-79551952D02*
X166146514Y-79551952D01*
X166146514Y-79551952D02*
X166241752Y-79599571D01*
X166860800Y-80218619D02*
X166765562Y-80171000D01*
X166765562Y-80171000D02*
X166717943Y-80123380D01*
X166717943Y-80123380D02*
X166670324Y-80028142D01*
X166670324Y-80028142D02*
X166670324Y-79742428D01*
X166670324Y-79742428D02*
X166717943Y-79647190D01*
X166717943Y-79647190D02*
X166765562Y-79599571D01*
X166765562Y-79599571D02*
X166860800Y-79551952D01*
X166860800Y-79551952D02*
X167003657Y-79551952D01*
X167003657Y-79551952D02*
X167098895Y-79599571D01*
X167098895Y-79599571D02*
X167146514Y-79647190D01*
X167146514Y-79647190D02*
X167194133Y-79742428D01*
X167194133Y-79742428D02*
X167194133Y-80028142D01*
X167194133Y-80028142D02*
X167146514Y-80123380D01*
X167146514Y-80123380D02*
X167098895Y-80171000D01*
X167098895Y-80171000D02*
X167003657Y-80218619D01*
X167003657Y-80218619D02*
X166860800Y-80218619D01*
X168051276Y-79551952D02*
X168051276Y-80218619D01*
X167622705Y-79551952D02*
X167622705Y-80075761D01*
X167622705Y-80075761D02*
X167670324Y-80171000D01*
X167670324Y-80171000D02*
X167765562Y-80218619D01*
X167765562Y-80218619D02*
X167908419Y-80218619D01*
X167908419Y-80218619D02*
X168003657Y-80171000D01*
X168003657Y-80171000D02*
X168051276Y-80123380D01*
X168479848Y-80171000D02*
X168575086Y-80218619D01*
X168575086Y-80218619D02*
X168765562Y-80218619D01*
X168765562Y-80218619D02*
X168860800Y-80171000D01*
X168860800Y-80171000D02*
X168908419Y-80075761D01*
X168908419Y-80075761D02*
X168908419Y-80028142D01*
X168908419Y-80028142D02*
X168860800Y-79932904D01*
X168860800Y-79932904D02*
X168765562Y-79885285D01*
X168765562Y-79885285D02*
X168622705Y-79885285D01*
X168622705Y-79885285D02*
X168527467Y-79837666D01*
X168527467Y-79837666D02*
X168479848Y-79742428D01*
X168479848Y-79742428D02*
X168479848Y-79694809D01*
X168479848Y-79694809D02*
X168527467Y-79599571D01*
X168527467Y-79599571D02*
X168622705Y-79551952D01*
X168622705Y-79551952D02*
X168765562Y-79551952D01*
X168765562Y-79551952D02*
X168860800Y-79599571D01*
X169860800Y-80218619D02*
X169289372Y-80218619D01*
X169575086Y-80218619D02*
X169575086Y-79218619D01*
X169575086Y-79218619D02*
X169479848Y-79361476D01*
X169479848Y-79361476D02*
X169384610Y-79456714D01*
X169384610Y-79456714D02*
X169289372Y-79504333D01*
%TO.C,Rl1*%
X158102343Y-90946495D02*
X157835676Y-90565542D01*
X157645200Y-90946495D02*
X157645200Y-90146495D01*
X157645200Y-90146495D02*
X157949962Y-90146495D01*
X157949962Y-90146495D02*
X158026152Y-90184590D01*
X158026152Y-90184590D02*
X158064247Y-90222685D01*
X158064247Y-90222685D02*
X158102343Y-90298876D01*
X158102343Y-90298876D02*
X158102343Y-90413161D01*
X158102343Y-90413161D02*
X158064247Y-90489352D01*
X158064247Y-90489352D02*
X158026152Y-90527447D01*
X158026152Y-90527447D02*
X157949962Y-90565542D01*
X157949962Y-90565542D02*
X157645200Y-90565542D01*
X158559485Y-90946495D02*
X158483295Y-90908400D01*
X158483295Y-90908400D02*
X158445200Y-90832209D01*
X158445200Y-90832209D02*
X158445200Y-90146495D01*
X159283295Y-90946495D02*
X158826152Y-90946495D01*
X159054724Y-90946495D02*
X159054724Y-90146495D01*
X159054724Y-90146495D02*
X158978533Y-90260780D01*
X158978533Y-90260780D02*
X158902343Y-90336971D01*
X158902343Y-90336971D02*
X158826152Y-90375066D01*
%TO.C,Rh1*%
X158000762Y-92114895D02*
X157734095Y-91733942D01*
X157543619Y-92114895D02*
X157543619Y-91314895D01*
X157543619Y-91314895D02*
X157848381Y-91314895D01*
X157848381Y-91314895D02*
X157924571Y-91352990D01*
X157924571Y-91352990D02*
X157962666Y-91391085D01*
X157962666Y-91391085D02*
X158000762Y-91467276D01*
X158000762Y-91467276D02*
X158000762Y-91581561D01*
X158000762Y-91581561D02*
X157962666Y-91657752D01*
X157962666Y-91657752D02*
X157924571Y-91695847D01*
X157924571Y-91695847D02*
X157848381Y-91733942D01*
X157848381Y-91733942D02*
X157543619Y-91733942D01*
X158343619Y-92114895D02*
X158343619Y-91314895D01*
X158686476Y-92114895D02*
X158686476Y-91695847D01*
X158686476Y-91695847D02*
X158648381Y-91619657D01*
X158648381Y-91619657D02*
X158572190Y-91581561D01*
X158572190Y-91581561D02*
X158457904Y-91581561D01*
X158457904Y-91581561D02*
X158381714Y-91619657D01*
X158381714Y-91619657D02*
X158343619Y-91657752D01*
X159486476Y-92114895D02*
X159029333Y-92114895D01*
X159257905Y-92114895D02*
X159257905Y-91314895D01*
X159257905Y-91314895D02*
X159181714Y-91429180D01*
X159181714Y-91429180D02*
X159105524Y-91505371D01*
X159105524Y-91505371D02*
X159029333Y-91543466D01*
%TO.C,SYNC*%
X161705000Y-92314494D02*
X161752619Y-92171637D01*
X161752619Y-92171637D02*
X161752619Y-91933542D01*
X161752619Y-91933542D02*
X161705000Y-91838304D01*
X161705000Y-91838304D02*
X161657380Y-91790685D01*
X161657380Y-91790685D02*
X161562142Y-91743066D01*
X161562142Y-91743066D02*
X161466904Y-91743066D01*
X161466904Y-91743066D02*
X161371666Y-91790685D01*
X161371666Y-91790685D02*
X161324047Y-91838304D01*
X161324047Y-91838304D02*
X161276428Y-91933542D01*
X161276428Y-91933542D02*
X161228809Y-92124018D01*
X161228809Y-92124018D02*
X161181190Y-92219256D01*
X161181190Y-92219256D02*
X161133571Y-92266875D01*
X161133571Y-92266875D02*
X161038333Y-92314494D01*
X161038333Y-92314494D02*
X160943095Y-92314494D01*
X160943095Y-92314494D02*
X160847857Y-92266875D01*
X160847857Y-92266875D02*
X160800238Y-92219256D01*
X160800238Y-92219256D02*
X160752619Y-92124018D01*
X160752619Y-92124018D02*
X160752619Y-91885923D01*
X160752619Y-91885923D02*
X160800238Y-91743066D01*
X161276428Y-91124018D02*
X161752619Y-91124018D01*
X160752619Y-91457351D02*
X161276428Y-91124018D01*
X161276428Y-91124018D02*
X160752619Y-90790685D01*
X161752619Y-90457351D02*
X160752619Y-90457351D01*
X160752619Y-90457351D02*
X161752619Y-89885923D01*
X161752619Y-89885923D02*
X160752619Y-89885923D01*
X161657380Y-88838304D02*
X161705000Y-88885923D01*
X161705000Y-88885923D02*
X161752619Y-89028780D01*
X161752619Y-89028780D02*
X161752619Y-89124018D01*
X161752619Y-89124018D02*
X161705000Y-89266875D01*
X161705000Y-89266875D02*
X161609761Y-89362113D01*
X161609761Y-89362113D02*
X161514523Y-89409732D01*
X161514523Y-89409732D02*
X161324047Y-89457351D01*
X161324047Y-89457351D02*
X161181190Y-89457351D01*
X161181190Y-89457351D02*
X160990714Y-89409732D01*
X160990714Y-89409732D02*
X160895476Y-89362113D01*
X160895476Y-89362113D02*
X160800238Y-89266875D01*
X160800238Y-89266875D02*
X160752619Y-89124018D01*
X160752619Y-89124018D02*
X160752619Y-89028780D01*
X160752619Y-89028780D02*
X160800238Y-88885923D01*
X160800238Y-88885923D02*
X160847857Y-88838304D01*
%TO.C,Rc1*%
X153310610Y-92165695D02*
X153043943Y-91784742D01*
X152853467Y-92165695D02*
X152853467Y-91365695D01*
X152853467Y-91365695D02*
X153158229Y-91365695D01*
X153158229Y-91365695D02*
X153234419Y-91403790D01*
X153234419Y-91403790D02*
X153272514Y-91441885D01*
X153272514Y-91441885D02*
X153310610Y-91518076D01*
X153310610Y-91518076D02*
X153310610Y-91632361D01*
X153310610Y-91632361D02*
X153272514Y-91708552D01*
X153272514Y-91708552D02*
X153234419Y-91746647D01*
X153234419Y-91746647D02*
X153158229Y-91784742D01*
X153158229Y-91784742D02*
X152853467Y-91784742D01*
X153996324Y-92127600D02*
X153920133Y-92165695D01*
X153920133Y-92165695D02*
X153767752Y-92165695D01*
X153767752Y-92165695D02*
X153691562Y-92127600D01*
X153691562Y-92127600D02*
X153653467Y-92089504D01*
X153653467Y-92089504D02*
X153615371Y-92013314D01*
X153615371Y-92013314D02*
X153615371Y-91784742D01*
X153615371Y-91784742D02*
X153653467Y-91708552D01*
X153653467Y-91708552D02*
X153691562Y-91670457D01*
X153691562Y-91670457D02*
X153767752Y-91632361D01*
X153767752Y-91632361D02*
X153920133Y-91632361D01*
X153920133Y-91632361D02*
X153996324Y-91670457D01*
X154758228Y-92165695D02*
X154301085Y-92165695D01*
X154529657Y-92165695D02*
X154529657Y-91365695D01*
X154529657Y-91365695D02*
X154453466Y-91479980D01*
X154453466Y-91479980D02*
X154377276Y-91556171D01*
X154377276Y-91556171D02*
X154301085Y-91594266D01*
%TO.C,Rsous2*%
X165479847Y-81742619D02*
X165146514Y-81266428D01*
X164908419Y-81742619D02*
X164908419Y-80742619D01*
X164908419Y-80742619D02*
X165289371Y-80742619D01*
X165289371Y-80742619D02*
X165384609Y-80790238D01*
X165384609Y-80790238D02*
X165432228Y-80837857D01*
X165432228Y-80837857D02*
X165479847Y-80933095D01*
X165479847Y-80933095D02*
X165479847Y-81075952D01*
X165479847Y-81075952D02*
X165432228Y-81171190D01*
X165432228Y-81171190D02*
X165384609Y-81218809D01*
X165384609Y-81218809D02*
X165289371Y-81266428D01*
X165289371Y-81266428D02*
X164908419Y-81266428D01*
X165860800Y-81695000D02*
X165956038Y-81742619D01*
X165956038Y-81742619D02*
X166146514Y-81742619D01*
X166146514Y-81742619D02*
X166241752Y-81695000D01*
X166241752Y-81695000D02*
X166289371Y-81599761D01*
X166289371Y-81599761D02*
X166289371Y-81552142D01*
X166289371Y-81552142D02*
X166241752Y-81456904D01*
X166241752Y-81456904D02*
X166146514Y-81409285D01*
X166146514Y-81409285D02*
X166003657Y-81409285D01*
X166003657Y-81409285D02*
X165908419Y-81361666D01*
X165908419Y-81361666D02*
X165860800Y-81266428D01*
X165860800Y-81266428D02*
X165860800Y-81218809D01*
X165860800Y-81218809D02*
X165908419Y-81123571D01*
X165908419Y-81123571D02*
X166003657Y-81075952D01*
X166003657Y-81075952D02*
X166146514Y-81075952D01*
X166146514Y-81075952D02*
X166241752Y-81123571D01*
X166860800Y-81742619D02*
X166765562Y-81695000D01*
X166765562Y-81695000D02*
X166717943Y-81647380D01*
X166717943Y-81647380D02*
X166670324Y-81552142D01*
X166670324Y-81552142D02*
X166670324Y-81266428D01*
X166670324Y-81266428D02*
X166717943Y-81171190D01*
X166717943Y-81171190D02*
X166765562Y-81123571D01*
X166765562Y-81123571D02*
X166860800Y-81075952D01*
X166860800Y-81075952D02*
X167003657Y-81075952D01*
X167003657Y-81075952D02*
X167098895Y-81123571D01*
X167098895Y-81123571D02*
X167146514Y-81171190D01*
X167146514Y-81171190D02*
X167194133Y-81266428D01*
X167194133Y-81266428D02*
X167194133Y-81552142D01*
X167194133Y-81552142D02*
X167146514Y-81647380D01*
X167146514Y-81647380D02*
X167098895Y-81695000D01*
X167098895Y-81695000D02*
X167003657Y-81742619D01*
X167003657Y-81742619D02*
X166860800Y-81742619D01*
X168051276Y-81075952D02*
X168051276Y-81742619D01*
X167622705Y-81075952D02*
X167622705Y-81599761D01*
X167622705Y-81599761D02*
X167670324Y-81695000D01*
X167670324Y-81695000D02*
X167765562Y-81742619D01*
X167765562Y-81742619D02*
X167908419Y-81742619D01*
X167908419Y-81742619D02*
X168003657Y-81695000D01*
X168003657Y-81695000D02*
X168051276Y-81647380D01*
X168479848Y-81695000D02*
X168575086Y-81742619D01*
X168575086Y-81742619D02*
X168765562Y-81742619D01*
X168765562Y-81742619D02*
X168860800Y-81695000D01*
X168860800Y-81695000D02*
X168908419Y-81599761D01*
X168908419Y-81599761D02*
X168908419Y-81552142D01*
X168908419Y-81552142D02*
X168860800Y-81456904D01*
X168860800Y-81456904D02*
X168765562Y-81409285D01*
X168765562Y-81409285D02*
X168622705Y-81409285D01*
X168622705Y-81409285D02*
X168527467Y-81361666D01*
X168527467Y-81361666D02*
X168479848Y-81266428D01*
X168479848Y-81266428D02*
X168479848Y-81218809D01*
X168479848Y-81218809D02*
X168527467Y-81123571D01*
X168527467Y-81123571D02*
X168622705Y-81075952D01*
X168622705Y-81075952D02*
X168765562Y-81075952D01*
X168765562Y-81075952D02*
X168860800Y-81123571D01*
X169289372Y-80837857D02*
X169336991Y-80790238D01*
X169336991Y-80790238D02*
X169432229Y-80742619D01*
X169432229Y-80742619D02*
X169670324Y-80742619D01*
X169670324Y-80742619D02*
X169765562Y-80790238D01*
X169765562Y-80790238D02*
X169813181Y-80837857D01*
X169813181Y-80837857D02*
X169860800Y-80933095D01*
X169860800Y-80933095D02*
X169860800Y-81028333D01*
X169860800Y-81028333D02*
X169813181Y-81171190D01*
X169813181Y-81171190D02*
X169241753Y-81742619D01*
X169241753Y-81742619D02*
X169860800Y-81742619D01*
D11*
%TO.C,Cc1*%
X150509504Y-88207789D02*
X150547600Y-88245885D01*
X150547600Y-88245885D02*
X150585695Y-88360170D01*
X150585695Y-88360170D02*
X150585695Y-88436361D01*
X150585695Y-88436361D02*
X150547600Y-88550647D01*
X150547600Y-88550647D02*
X150471409Y-88626837D01*
X150471409Y-88626837D02*
X150395219Y-88664932D01*
X150395219Y-88664932D02*
X150242838Y-88703028D01*
X150242838Y-88703028D02*
X150128552Y-88703028D01*
X150128552Y-88703028D02*
X149976171Y-88664932D01*
X149976171Y-88664932D02*
X149899980Y-88626837D01*
X149899980Y-88626837D02*
X149823790Y-88550647D01*
X149823790Y-88550647D02*
X149785695Y-88436361D01*
X149785695Y-88436361D02*
X149785695Y-88360170D01*
X149785695Y-88360170D02*
X149823790Y-88245885D01*
X149823790Y-88245885D02*
X149861885Y-88207789D01*
X150547600Y-87522075D02*
X150585695Y-87598266D01*
X150585695Y-87598266D02*
X150585695Y-87750647D01*
X150585695Y-87750647D02*
X150547600Y-87826837D01*
X150547600Y-87826837D02*
X150509504Y-87864932D01*
X150509504Y-87864932D02*
X150433314Y-87903028D01*
X150433314Y-87903028D02*
X150204742Y-87903028D01*
X150204742Y-87903028D02*
X150128552Y-87864932D01*
X150128552Y-87864932D02*
X150090457Y-87826837D01*
X150090457Y-87826837D02*
X150052361Y-87750647D01*
X150052361Y-87750647D02*
X150052361Y-87598266D01*
X150052361Y-87598266D02*
X150090457Y-87522075D01*
X150585695Y-86760171D02*
X150585695Y-87217314D01*
X150585695Y-86988742D02*
X149785695Y-86988742D01*
X149785695Y-86988742D02*
X149899980Y-87064933D01*
X149899980Y-87064933D02*
X149976171Y-87141123D01*
X149976171Y-87141123D02*
X150014266Y-87217314D01*
D10*
%TO.C,Rlim1*%
X152341466Y-81322619D02*
X152008133Y-80846428D01*
X151770038Y-81322619D02*
X151770038Y-80322619D01*
X151770038Y-80322619D02*
X152150990Y-80322619D01*
X152150990Y-80322619D02*
X152246228Y-80370238D01*
X152246228Y-80370238D02*
X152293847Y-80417857D01*
X152293847Y-80417857D02*
X152341466Y-80513095D01*
X152341466Y-80513095D02*
X152341466Y-80655952D01*
X152341466Y-80655952D02*
X152293847Y-80751190D01*
X152293847Y-80751190D02*
X152246228Y-80798809D01*
X152246228Y-80798809D02*
X152150990Y-80846428D01*
X152150990Y-80846428D02*
X151770038Y-80846428D01*
X152912895Y-81322619D02*
X152817657Y-81275000D01*
X152817657Y-81275000D02*
X152770038Y-81179761D01*
X152770038Y-81179761D02*
X152770038Y-80322619D01*
X153293848Y-81322619D02*
X153293848Y-80655952D01*
X153293848Y-80322619D02*
X153246229Y-80370238D01*
X153246229Y-80370238D02*
X153293848Y-80417857D01*
X153293848Y-80417857D02*
X153341467Y-80370238D01*
X153341467Y-80370238D02*
X153293848Y-80322619D01*
X153293848Y-80322619D02*
X153293848Y-80417857D01*
X153770038Y-81322619D02*
X153770038Y-80655952D01*
X153770038Y-80751190D02*
X153817657Y-80703571D01*
X153817657Y-80703571D02*
X153912895Y-80655952D01*
X153912895Y-80655952D02*
X154055752Y-80655952D01*
X154055752Y-80655952D02*
X154150990Y-80703571D01*
X154150990Y-80703571D02*
X154198609Y-80798809D01*
X154198609Y-80798809D02*
X154198609Y-81322619D01*
X154198609Y-80798809D02*
X154246228Y-80703571D01*
X154246228Y-80703571D02*
X154341466Y-80655952D01*
X154341466Y-80655952D02*
X154484323Y-80655952D01*
X154484323Y-80655952D02*
X154579562Y-80703571D01*
X154579562Y-80703571D02*
X154627181Y-80798809D01*
X154627181Y-80798809D02*
X154627181Y-81322619D01*
X155627180Y-81322619D02*
X155055752Y-81322619D01*
X155341466Y-81322619D02*
X155341466Y-80322619D01*
X155341466Y-80322619D02*
X155246228Y-80465476D01*
X155246228Y-80465476D02*
X155150990Y-80560714D01*
X155150990Y-80560714D02*
X155055752Y-80608333D01*
%TO.C,L1*%
X176848133Y-77424619D02*
X176371943Y-77424619D01*
X176371943Y-77424619D02*
X176371943Y-76424619D01*
X177705276Y-77424619D02*
X177133848Y-77424619D01*
X177419562Y-77424619D02*
X177419562Y-76424619D01*
X177419562Y-76424619D02*
X177324324Y-76567476D01*
X177324324Y-76567476D02*
X177229086Y-76662714D01*
X177229086Y-76662714D02*
X177133848Y-76710333D01*
D11*
%TO.C,Cp1*%
X149087104Y-88226837D02*
X149125200Y-88264933D01*
X149125200Y-88264933D02*
X149163295Y-88379218D01*
X149163295Y-88379218D02*
X149163295Y-88455409D01*
X149163295Y-88455409D02*
X149125200Y-88569695D01*
X149125200Y-88569695D02*
X149049009Y-88645885D01*
X149049009Y-88645885D02*
X148972819Y-88683980D01*
X148972819Y-88683980D02*
X148820438Y-88722076D01*
X148820438Y-88722076D02*
X148706152Y-88722076D01*
X148706152Y-88722076D02*
X148553771Y-88683980D01*
X148553771Y-88683980D02*
X148477580Y-88645885D01*
X148477580Y-88645885D02*
X148401390Y-88569695D01*
X148401390Y-88569695D02*
X148363295Y-88455409D01*
X148363295Y-88455409D02*
X148363295Y-88379218D01*
X148363295Y-88379218D02*
X148401390Y-88264933D01*
X148401390Y-88264933D02*
X148439485Y-88226837D01*
X148629961Y-87883980D02*
X149429961Y-87883980D01*
X148668057Y-87883980D02*
X148629961Y-87807790D01*
X148629961Y-87807790D02*
X148629961Y-87655409D01*
X148629961Y-87655409D02*
X148668057Y-87579218D01*
X148668057Y-87579218D02*
X148706152Y-87541123D01*
X148706152Y-87541123D02*
X148782342Y-87503028D01*
X148782342Y-87503028D02*
X149010914Y-87503028D01*
X149010914Y-87503028D02*
X149087104Y-87541123D01*
X149087104Y-87541123D02*
X149125200Y-87579218D01*
X149125200Y-87579218D02*
X149163295Y-87655409D01*
X149163295Y-87655409D02*
X149163295Y-87807790D01*
X149163295Y-87807790D02*
X149125200Y-87883980D01*
X149163295Y-86741123D02*
X149163295Y-87198266D01*
X149163295Y-86969694D02*
X148363295Y-86969694D01*
X148363295Y-86969694D02*
X148477580Y-87045885D01*
X148477580Y-87045885D02*
X148553771Y-87122075D01*
X148553771Y-87122075D02*
X148591866Y-87198266D01*
D12*
%TO.C,Css1*%
X153413548Y-81871000D02*
X153936052Y-81871000D01*
X153413548Y-83341000D02*
X153936052Y-83341000D01*
%TO.C,Cin1*%
X159840548Y-76814000D02*
X161263052Y-76814000D01*
X159840548Y-78634000D02*
X161263052Y-78634000D01*
%TO.C,Rsous1*%
X166149548Y-82323000D02*
X166672052Y-82323000D01*
X166149548Y-83793000D02*
X166672052Y-83793000D01*
%TO.C,Rl1*%
X158798052Y-87674000D02*
X158275548Y-87674000D01*
X158798052Y-86204000D02*
X158275548Y-86204000D01*
%TO.C,Rh1*%
X158275548Y-88236000D02*
X158798052Y-88236000D01*
X158275548Y-89706000D02*
X158798052Y-89706000D01*
%TO.C,Rc1*%
X154048052Y-91027000D02*
X153525548Y-91027000D01*
X154048052Y-89557000D02*
X153525548Y-89557000D01*
%TO.C,Rsous2*%
X166672052Y-86079000D02*
X166149548Y-86079000D01*
X166672052Y-84609000D02*
X166149548Y-84609000D01*
%TO.C,Cc1*%
X155471800Y-87302748D02*
X155471800Y-87825252D01*
X154001800Y-87302748D02*
X154001800Y-87825252D01*
D13*
%TO.C,U1*%
X158702800Y-80508000D02*
X162302800Y-80508000D01*
X158702800Y-85608000D02*
X162302800Y-85608000D01*
D11*
X156257800Y-80373000D02*
G75*
G03*
X156257800Y-80373000I-100000J0D01*
G01*
D12*
%TO.C,Rlim1*%
X153413548Y-83969000D02*
X153936052Y-83969000D01*
X153413548Y-85439000D02*
X153936052Y-85439000D01*
%TO.C,L1*%
X170614800Y-90474000D02*
X183414800Y-90474000D01*
X183414800Y-90474000D02*
X183414800Y-77674000D01*
X183414800Y-77674000D02*
X170614800Y-77674000D01*
X170614800Y-77674000D02*
X170614800Y-90474000D01*
%TO.C,Cp1*%
X153439800Y-87302748D02*
X153439800Y-87825252D01*
X151969800Y-87302748D02*
X151969800Y-87825252D01*
%TD*%
M02*
