%TF.GenerationSoftware,KiCad,Pcbnew,7.0.2*%
%TF.CreationDate,2023-04-27T19:49:05+02:00*%
%TF.ProjectId,CherrycountPCB,43686572-7279-4636-9f75-6e745043422e,rev?*%
%TF.SameCoordinates,Original*%
%TF.FileFunction,Copper,L2,Bot*%
%TF.FilePolarity,Positive*%
%FSLAX46Y46*%
G04 Gerber Fmt 4.6, Leading zero omitted, Abs format (unit mm)*
G04 Created by KiCad (PCBNEW 7.0.2) date 2023-04-27 19:49:05*
%MOMM*%
%LPD*%
G01*
G04 APERTURE LIST*
%TA.AperFunction,ComponentPad*%
%ADD10R,1.700000X1.700000*%
%TD*%
%TA.AperFunction,ComponentPad*%
%ADD11O,1.700000X1.700000*%
%TD*%
%TA.AperFunction,ComponentPad*%
%ADD12R,1.050000X1.500000*%
%TD*%
%TA.AperFunction,ComponentPad*%
%ADD13O,1.050000X1.500000*%
%TD*%
%TA.AperFunction,ComponentPad*%
%ADD14C,2.540000*%
%TD*%
%TA.AperFunction,ComponentPad*%
%ADD15R,1.600000X1.600000*%
%TD*%
%TA.AperFunction,ComponentPad*%
%ADD16O,1.600000X1.600000*%
%TD*%
%TA.AperFunction,ComponentPad*%
%ADD17R,2.200000X2.200000*%
%TD*%
%TA.AperFunction,ComponentPad*%
%ADD18O,2.200000X2.200000*%
%TD*%
%TA.AperFunction,ComponentPad*%
%ADD19C,1.524000*%
%TD*%
%TA.AperFunction,ViaPad*%
%ADD20C,0.800000*%
%TD*%
%TA.AperFunction,Conductor*%
%ADD21C,0.300000*%
%TD*%
%TA.AperFunction,Conductor*%
%ADD22C,0.500000*%
%TD*%
G04 APERTURE END LIST*
D10*
%TO.P,J2,1,Pin_1*%
%TO.N,Conn1x3*%
X133642000Y-129350000D03*
D11*
%TO.P,J2,2,Pin_2*%
%TO.N,Net-(A1-+5V)*%
X136182000Y-129350000D03*
%TO.P,J2,3,Pin_3*%
%TO.N,GND*%
X138722000Y-129350000D03*
%TD*%
D12*
%TO.P,Q1,1,E*%
%TO.N,Net-(A1-+5V)*%
X165990000Y-91110000D03*
D13*
%TO.P,Q1,2,B*%
%TO.N,Net-(Q1-B)*%
X167260000Y-91110000D03*
%TO.P,Q1,3,C*%
%TO.N,Net-(Q1-C)*%
X168530000Y-91110000D03*
%TD*%
D14*
%TO.P,J4,1,Pin_1*%
%TO.N,Net-(J4-Pin_1)*%
X121560000Y-135560000D03*
%TO.P,J4,2,Pin_2*%
%TO.N,Net-(J4-Pin_2)*%
X125060000Y-135560000D03*
%TD*%
D12*
%TO.P,Q2,1,E*%
%TO.N,Net-(A1-+5V)*%
X92090000Y-91160000D03*
D13*
%TO.P,Q2,2,B*%
%TO.N,Net-(Q2-B)*%
X90820000Y-91160000D03*
%TO.P,Q2,3,C*%
%TO.N,Net-(Q2-C)*%
X89550000Y-91160000D03*
%TD*%
D14*
%TO.P,J5,1,Pin_1*%
%TO.N,Net-(J4-Pin_1)*%
X108860000Y-135560000D03*
%TO.P,J5,2,Pin_2*%
%TO.N,Net-(J5-Pin_2)*%
X112360000Y-135560000D03*
%TD*%
%TO.P,J6,1,Pin_1*%
%TO.N,Net-(J5-Pin_2)*%
X96160000Y-135560000D03*
%TO.P,J6,2,Pin_2*%
%TO.N,GND*%
X99660000Y-135560000D03*
%TD*%
D10*
%TO.P,J3,1,Pin_1*%
%TO.N,D12*%
X158026000Y-129350000D03*
D11*
%TO.P,J3,2,Pin_2*%
%TO.N,D6*%
X155486000Y-129350000D03*
%TO.P,J3,3,Pin_3*%
%TO.N,Net-(A1-+5V)*%
X152946000Y-129350000D03*
%TO.P,J3,4,Pin_4*%
%TO.N,VIN*%
X150406000Y-129350000D03*
%TO.P,J3,5,Pin_5*%
%TO.N,GND*%
X147866000Y-129350000D03*
%TD*%
D10*
%TO.P,J1,1,Pin_1*%
%TO.N,Net-(A1-A5)*%
X89680000Y-115750000D03*
D11*
%TO.P,J1,2,Pin_2*%
%TO.N,Net-(A1-+5V)*%
X89680000Y-113210000D03*
%TD*%
D15*
%TO.P,A1,1,NC*%
%TO.N,unconnected-(A1-NC-Pad1)*%
X135270000Y-115888000D03*
D16*
%TO.P,A1,2,IOREF*%
%TO.N,unconnected-(A1-IOREF-Pad2)*%
X132730000Y-115888000D03*
%TO.P,A1,3,~{RESET}*%
%TO.N,unconnected-(A1-~{RESET}-Pad3)*%
X130190000Y-115888000D03*
%TO.P,A1,4,3V3*%
%TO.N,unconnected-(A1-3V3-Pad4)*%
X127650000Y-115888000D03*
%TO.P,A1,5,+5V*%
%TO.N,Net-(A1-+5V)*%
X125110000Y-115888000D03*
%TO.P,A1,6,GND*%
%TO.N,GND*%
X122570000Y-115888000D03*
%TO.P,A1,7,GND*%
%TO.N,unconnected-(A1-GND-Pad7)*%
X120030000Y-115888000D03*
%TO.P,A1,8,VIN*%
%TO.N,VIN*%
X117490000Y-115888000D03*
%TO.P,A1,9,A0*%
%TO.N,unconnected-(A1-A0-Pad9)*%
X112410000Y-115888000D03*
%TO.P,A1,10,A1*%
%TO.N,unconnected-(A1-A1-Pad10)*%
X109870000Y-115888000D03*
%TO.P,A1,11,A2*%
%TO.N,unconnected-(A1-A2-Pad11)*%
X107330000Y-115888000D03*
%TO.P,A1,12,A3*%
%TO.N,unconnected-(A1-A3-Pad12)*%
X104790000Y-115888000D03*
%TO.P,A1,13,A4*%
%TO.N,unconnected-(A1-A4-Pad13)*%
X102250000Y-115888000D03*
%TO.P,A1,14,A5*%
%TO.N,Net-(A1-A5)*%
X99710000Y-115888000D03*
%TO.P,A1,15,D0/RX*%
%TO.N,unconnected-(A1-D0{slash}RX-Pad15)*%
X99710000Y-67628000D03*
%TO.P,A1,16,D1/TX*%
%TO.N,Conn1x3*%
X102250000Y-67628000D03*
%TO.P,A1,17,D2/SDA*%
%TO.N,Net-(A1-D2{slash}SDA)*%
X104790000Y-67628000D03*
%TO.P,A1,18,D3/SCL*%
%TO.N,Net-(A1-D3{slash}SCL)*%
X107330000Y-67628000D03*
%TO.P,A1,19,D4*%
%TO.N,Net-(A1-D4)*%
X109870000Y-67628000D03*
%TO.P,A1,20,D5*%
%TO.N,Net-(A1-D5)*%
X112410000Y-67628000D03*
%TO.P,A1,21,D6*%
%TO.N,D6*%
X114950000Y-67628000D03*
%TO.P,A1,22,D7*%
%TO.N,BASE1*%
X117490000Y-67628000D03*
%TO.P,A1,23,D8*%
%TO.N,BASE2*%
X121550000Y-67628000D03*
%TO.P,A1,24,D9*%
%TO.N,Net-(A1-D9)*%
X124090000Y-67628000D03*
%TO.P,A1,25,D10*%
%TO.N,Net-(A1-D10)*%
X126630000Y-67628000D03*
%TO.P,A1,26,D11*%
%TO.N,Net-(A1-D11)*%
X129170000Y-67628000D03*
%TO.P,A1,27,D12*%
%TO.N,D12*%
X131710000Y-67628000D03*
%TO.P,A1,28,D13*%
%TO.N,Net-(A1-D13)*%
X134250000Y-67628000D03*
%TO.P,A1,29,GND*%
%TO.N,unconnected-(A1-GND-Pad29)*%
X136790000Y-67628000D03*
%TO.P,A1,30,AREF*%
%TO.N,unconnected-(A1-AREF-Pad30)*%
X139330000Y-67628000D03*
%TO.P,A1,31,SDA/D2*%
%TO.N,unconnected-(A1-SDA{slash}D2-Pad31)*%
X141870000Y-67628000D03*
%TO.P,A1,32,SCL/D3*%
%TO.N,unconnected-(A1-SCL{slash}D3-Pad32)*%
X144410000Y-67628000D03*
%TD*%
D17*
%TO.P,D1,1,A*%
%TO.N,GND*%
X143040000Y-123000000D03*
D18*
%TO.P,D1,2,K*%
%TO.N,VIN*%
X135420000Y-123000000D03*
%TD*%
D19*
%TO.P,AFF1,1,e*%
%TO.N,Net-(AFF1-e)*%
X143600000Y-75337000D03*
%TO.P,AFF1,2,d*%
%TO.N,Net-(AFF1-d)*%
X141060000Y-75337000D03*
%TO.P,AFF1,3,C.A.*%
%TO.N,Net-(Q1-C)*%
X138520000Y-75337000D03*
%TO.P,AFF1,4,c*%
%TO.N,Net-(AFF1-c)*%
X135980000Y-75337000D03*
%TO.P,AFF1,5,DP*%
%TO.N,DP*%
X133440000Y-75337000D03*
%TO.P,AFF1,6,b*%
%TO.N,Net-(AFF1-b)*%
X143600000Y-106337000D03*
%TO.P,AFF1,7,a*%
%TO.N,Net-(AFF1-a)*%
X141060000Y-106337000D03*
%TO.P,AFF1,8,C.A.*%
%TO.N,unconnected-(AFF1-C.A.-Pad8)*%
X138520000Y-106337000D03*
%TO.P,AFF1,9,f*%
%TO.N,Net-(AFF1-f)*%
X135980000Y-106337000D03*
%TO.P,AFF1,10,g*%
%TO.N,Net-(AFF1-g)*%
X133440000Y-106337000D03*
%TD*%
%TO.P,AFF2,1,e*%
%TO.N,Net-(AFF1-e)*%
X119437000Y-75337000D03*
%TO.P,AFF2,2,d*%
%TO.N,Net-(AFF1-d)*%
X116897000Y-75337000D03*
%TO.P,AFF2,3,C.A.*%
%TO.N,Net-(Q2-C)*%
X114357000Y-75337000D03*
%TO.P,AFF2,4,c*%
%TO.N,Net-(AFF1-c)*%
X111817000Y-75337000D03*
%TO.P,AFF2,5,DP*%
%TO.N,DP*%
X109277000Y-75337000D03*
%TO.P,AFF2,6,b*%
%TO.N,Net-(AFF1-b)*%
X119437000Y-106337000D03*
%TO.P,AFF2,7,a*%
%TO.N,Net-(AFF1-a)*%
X116897000Y-106337000D03*
%TO.P,AFF2,8,C.A.*%
%TO.N,unconnected-(AFF2-C.A.-Pad8)*%
X114357000Y-106337000D03*
%TO.P,AFF2,9,f*%
%TO.N,Net-(AFF1-f)*%
X111817000Y-106337000D03*
%TO.P,AFF2,10,g*%
%TO.N,Net-(AFF1-g)*%
X109277000Y-106337000D03*
%TD*%
D20*
%TO.N,GND*%
X106390000Y-71190000D03*
X136720000Y-69720000D03*
X139970000Y-104630000D03*
X116050000Y-108520000D03*
X104940000Y-76370000D03*
X92630000Y-69360000D03*
X141732000Y-85457000D03*
X134850000Y-126750000D03*
X145270000Y-106290000D03*
X148352000Y-71677000D03*
X118162000Y-91657000D03*
X131100000Y-70720000D03*
X132000000Y-125780000D03*
X134740000Y-84680000D03*
X108840000Y-92400000D03*
X122100000Y-94060000D03*
%TO.N,Net-(J4-Pin_2)*%
X124470000Y-135150000D03*
%TD*%
D21*
%TO.N,DP*%
X112697000Y-78757000D02*
X129102000Y-78757000D01*
X129102000Y-78757000D02*
X132522000Y-75337000D01*
X109277000Y-75337000D02*
X112697000Y-78757000D01*
X132522000Y-75337000D02*
X133440000Y-75337000D01*
D22*
%TO.N,Net-(A1-+5V)*%
X122680000Y-111860000D02*
X100010000Y-111860000D01*
X92090000Y-110800000D02*
X89680000Y-113210000D01*
X133500000Y-126668000D02*
X136182000Y-129350000D01*
X133500000Y-124278000D02*
X133500000Y-126668000D01*
X92090000Y-103460000D02*
X92090000Y-110800000D01*
X125110000Y-115888000D02*
X125110000Y-114290000D01*
X125110000Y-115888000D02*
X133500000Y-124278000D01*
X92090000Y-103940000D02*
X92090000Y-103460000D01*
X125110000Y-114290000D02*
X122680000Y-111860000D01*
X92090000Y-103460000D02*
X92090000Y-91160000D01*
X100010000Y-111860000D02*
X92090000Y-103940000D01*
D21*
%TO.N,D6*%
X109318000Y-73260000D02*
X114950000Y-67628000D01*
X120770000Y-80070000D02*
X111040000Y-80070000D01*
X155486000Y-129350000D02*
X155486000Y-125316000D01*
X106590000Y-73890000D02*
X107220000Y-73260000D01*
X155486000Y-125316000D02*
X147410000Y-117240000D01*
X147410000Y-106710000D02*
X120770000Y-80070000D01*
X107220000Y-73260000D02*
X109318000Y-73260000D01*
X147410000Y-117240000D02*
X147410000Y-106710000D01*
X106590000Y-75620000D02*
X106590000Y-73890000D01*
X111040000Y-80070000D02*
X106590000Y-75620000D01*
%TO.N,D12*%
X148590000Y-76985000D02*
X148590000Y-116840000D01*
X134859000Y-70777000D02*
X142382000Y-70777000D01*
X148590000Y-116840000D02*
X158026000Y-126276000D01*
X158026000Y-126276000D02*
X158026000Y-129350000D01*
X131710000Y-67628000D02*
X134859000Y-70777000D01*
X142382000Y-70777000D02*
X148590000Y-76985000D01*
%TO.N,Net-(AFF1-e)*%
X141567000Y-72157000D02*
X143600000Y-74190000D01*
X131922000Y-72157000D02*
X141567000Y-72157000D01*
X143600000Y-74190000D02*
X143600000Y-75337000D01*
X119437000Y-75337000D02*
X128742000Y-75337000D01*
X128742000Y-75337000D02*
X131922000Y-72157000D01*
%TO.N,Net-(AFF1-d)*%
X118267000Y-76707000D02*
X128752000Y-76707000D01*
X128752000Y-76707000D02*
X132202000Y-73257000D01*
X116897000Y-75337000D02*
X118267000Y-76707000D01*
X138980000Y-73257000D02*
X141060000Y-75337000D01*
X132202000Y-73257000D02*
X138980000Y-73257000D01*
%TO.N,Net-(AFF1-c)*%
X111817000Y-75337000D02*
X114237000Y-77757000D01*
X114237000Y-77757000D02*
X128992000Y-77757000D01*
X128992000Y-77757000D02*
X132562000Y-74187000D01*
X134830000Y-74187000D02*
X135980000Y-75337000D01*
X132562000Y-74187000D02*
X134830000Y-74187000D01*
%TO.N,Net-(AFF1-g)*%
X129302000Y-106337000D02*
X125569000Y-110070000D01*
X133440000Y-106337000D02*
X129302000Y-106337000D01*
X125569000Y-110070000D02*
X113010000Y-110070000D01*
X113010000Y-110070000D02*
X109277000Y-106337000D01*
%TD*%
%TA.AperFunction,Conductor*%
%TO.N,GND*%
G36*
X142128231Y-71447185D02*
G01*
X142148873Y-71463819D01*
X144234888Y-73549834D01*
X144244335Y-73567134D01*
X144254831Y-73571221D01*
X144266782Y-73581728D01*
X145051228Y-74366173D01*
X147903181Y-77218126D01*
X147936666Y-77279449D01*
X147939500Y-77305807D01*
X147939500Y-106020192D01*
X147919815Y-106087231D01*
X147867011Y-106132986D01*
X147797853Y-106142930D01*
X147734297Y-106113905D01*
X147727819Y-106107873D01*
X121290434Y-79670488D01*
X121277091Y-79653834D01*
X121243077Y-79621893D01*
X121207682Y-79561652D01*
X121210474Y-79491838D01*
X121250568Y-79434616D01*
X121315233Y-79408155D01*
X121327960Y-79407500D01*
X129016495Y-79407500D01*
X129037704Y-79409841D01*
X129040294Y-79409759D01*
X129040296Y-79409760D01*
X129110262Y-79407560D01*
X129114157Y-79407500D01*
X129139025Y-79407500D01*
X129142925Y-79407500D01*
X129147294Y-79406947D01*
X129158939Y-79406030D01*
X129204569Y-79404597D01*
X129224949Y-79398675D01*
X129243989Y-79394732D01*
X129265058Y-79392071D01*
X129307520Y-79375258D01*
X129318557Y-79371480D01*
X129362398Y-79358744D01*
X129380670Y-79347936D01*
X129398136Y-79339380D01*
X129417871Y-79331568D01*
X129454816Y-79304725D01*
X129464548Y-79298332D01*
X129503865Y-79275081D01*
X129518874Y-79260071D01*
X129533663Y-79247439D01*
X129550837Y-79234963D01*
X129579946Y-79199774D01*
X129587790Y-79191154D01*
X132461078Y-76317867D01*
X132522399Y-76284384D01*
X132592091Y-76289368D01*
X132619880Y-76303975D01*
X132625380Y-76307826D01*
X132806338Y-76434534D01*
X133006550Y-76527894D01*
X133219932Y-76585070D01*
X133440000Y-76604323D01*
X133660068Y-76585070D01*
X133873450Y-76527894D01*
X134073662Y-76434534D01*
X134254620Y-76307826D01*
X134410826Y-76151620D01*
X134537534Y-75970662D01*
X134597617Y-75841811D01*
X134643790Y-75789372D01*
X134710984Y-75770220D01*
X134777865Y-75790436D01*
X134822382Y-75841811D01*
X134882466Y-75970662D01*
X135009174Y-76151620D01*
X135165380Y-76307826D01*
X135346338Y-76434534D01*
X135546550Y-76527894D01*
X135759932Y-76585070D01*
X135980000Y-76604323D01*
X136200068Y-76585070D01*
X136413450Y-76527894D01*
X136613662Y-76434534D01*
X136794620Y-76307826D01*
X136950826Y-76151620D01*
X137077534Y-75970662D01*
X137137617Y-75841811D01*
X137183790Y-75789372D01*
X137250984Y-75770220D01*
X137317865Y-75790436D01*
X137362382Y-75841811D01*
X137422466Y-75970662D01*
X137549174Y-76151620D01*
X137705380Y-76307826D01*
X137886338Y-76434534D01*
X138086550Y-76527894D01*
X138299932Y-76585070D01*
X138520000Y-76604323D01*
X138740068Y-76585070D01*
X138953450Y-76527894D01*
X139153662Y-76434534D01*
X139334620Y-76307826D01*
X139490826Y-76151620D01*
X139617534Y-75970662D01*
X139677617Y-75841811D01*
X139723790Y-75789372D01*
X139790984Y-75770220D01*
X139857865Y-75790436D01*
X139902382Y-75841811D01*
X139962466Y-75970662D01*
X140089174Y-76151620D01*
X140245380Y-76307826D01*
X140426338Y-76434534D01*
X140626550Y-76527894D01*
X140839932Y-76585070D01*
X140986643Y-76597905D01*
X141059999Y-76604323D01*
X141059999Y-76604322D01*
X141060000Y-76604323D01*
X141280068Y-76585070D01*
X141493450Y-76527894D01*
X141693662Y-76434534D01*
X141874620Y-76307826D01*
X142030826Y-76151620D01*
X142157534Y-75970662D01*
X142217617Y-75841811D01*
X142263790Y-75789372D01*
X142330984Y-75770220D01*
X142397865Y-75790436D01*
X142442382Y-75841811D01*
X142502466Y-75970662D01*
X142629174Y-76151620D01*
X142785380Y-76307826D01*
X142966338Y-76434534D01*
X143166550Y-76527894D01*
X143379932Y-76585070D01*
X143600000Y-76604323D01*
X143820068Y-76585070D01*
X144033450Y-76527894D01*
X144233662Y-76434534D01*
X144414620Y-76307826D01*
X144570826Y-76151620D01*
X144697534Y-75970662D01*
X144790894Y-75770450D01*
X144848070Y-75557068D01*
X144867323Y-75337000D01*
X144848070Y-75116932D01*
X144790894Y-74903550D01*
X144697534Y-74703339D01*
X144570826Y-74522380D01*
X144414620Y-74366174D01*
X144372950Y-74336996D01*
X144303660Y-74288478D01*
X144260035Y-74233901D01*
X144250845Y-74190788D01*
X144250561Y-74181726D01*
X144250500Y-74177842D01*
X144250500Y-74152976D01*
X144250500Y-74149075D01*
X144249948Y-74144709D01*
X144249030Y-74133055D01*
X144248485Y-74115703D01*
X144247597Y-74087431D01*
X144241675Y-74067048D01*
X144237732Y-74048011D01*
X144235071Y-74026942D01*
X144218264Y-73984492D01*
X144214483Y-73973448D01*
X144201745Y-73929604D01*
X144201744Y-73929603D01*
X144201744Y-73929601D01*
X144190934Y-73911322D01*
X144182380Y-73893862D01*
X144174568Y-73874129D01*
X144147723Y-73837180D01*
X144141332Y-73827451D01*
X144118081Y-73788135D01*
X144103068Y-73773122D01*
X144090438Y-73758334D01*
X144078785Y-73742295D01*
X144077824Y-73739601D01*
X144068167Y-73733058D01*
X144042781Y-73712057D01*
X144034140Y-73704194D01*
X142087434Y-71757488D01*
X142074091Y-71740833D01*
X142021166Y-71691134D01*
X142018369Y-71688423D01*
X142000789Y-71670843D01*
X141998035Y-71668089D01*
X141994956Y-71665701D01*
X141994951Y-71665696D01*
X141994548Y-71665383D01*
X141985668Y-71657799D01*
X141968729Y-71641892D01*
X141933334Y-71581650D01*
X141936128Y-71511836D01*
X141976222Y-71454615D01*
X142040887Y-71428155D01*
X142053613Y-71427500D01*
X142061192Y-71427500D01*
X142128231Y-71447185D01*
G37*
%TD.AperFunction*%
%TA.AperFunction,Conductor*%
G36*
X171761323Y-50120649D02*
G01*
X171956830Y-50140749D01*
X172191590Y-50165989D01*
X172199375Y-50167078D01*
X172475997Y-50214774D01*
X172715756Y-50258033D01*
X172723021Y-50259572D01*
X172992816Y-50325320D01*
X173232141Y-50386406D01*
X173238970Y-50388359D01*
X173502131Y-50471883D01*
X173738313Y-50550494D01*
X173744633Y-50552790D01*
X174000681Y-50653763D01*
X174231761Y-50749481D01*
X174237553Y-50752056D01*
X174484531Y-50869514D01*
X174486698Y-50870571D01*
X174710126Y-50982412D01*
X174715333Y-50985177D01*
X174953363Y-51119015D01*
X174955791Y-51120419D01*
X175171005Y-51248113D01*
X175175739Y-51251068D01*
X175403707Y-51400593D01*
X175406419Y-51402423D01*
X175612178Y-51545284D01*
X175616375Y-51548330D01*
X175833553Y-51713021D01*
X175836351Y-51715210D01*
X176031540Y-51872503D01*
X176035220Y-51875588D01*
X176067152Y-51903431D01*
X176240489Y-52054573D01*
X176243488Y-52057274D01*
X176273405Y-52085128D01*
X176427049Y-52228176D01*
X176430234Y-52231250D01*
X176622748Y-52423764D01*
X176625822Y-52426949D01*
X176796720Y-52610506D01*
X176799425Y-52613509D01*
X176978404Y-52818771D01*
X176981495Y-52822458D01*
X177138775Y-53017630D01*
X177140992Y-53020465D01*
X177160008Y-53045541D01*
X177305662Y-53237615D01*
X177308714Y-53241820D01*
X177451575Y-53447579D01*
X177453405Y-53450291D01*
X177602930Y-53678259D01*
X177605885Y-53682993D01*
X177733579Y-53898207D01*
X177735024Y-53900707D01*
X177868804Y-54138634D01*
X177871602Y-54143903D01*
X177983407Y-54367260D01*
X177984504Y-54369509D01*
X178101939Y-54616438D01*
X178104519Y-54622241D01*
X178200248Y-54853349D01*
X178301207Y-55109360D01*
X178303504Y-55115683D01*
X178382124Y-55351894D01*
X178465637Y-55615022D01*
X178467593Y-55621861D01*
X178528686Y-55861214D01*
X178594416Y-56130932D01*
X178595971Y-56138271D01*
X178639242Y-56378096D01*
X178686918Y-56654610D01*
X178688010Y-56662422D01*
X178713251Y-56897178D01*
X178742684Y-57183477D01*
X178743255Y-57191730D01*
X178750350Y-57390327D01*
X178761274Y-57710046D01*
X178761346Y-57714280D01*
X178761346Y-133937873D01*
X178761274Y-133942107D01*
X178750923Y-134245107D01*
X178743189Y-134461101D01*
X178742618Y-134469344D01*
X178714276Y-134745047D01*
X178687890Y-134990470D01*
X178686798Y-134998283D01*
X178640267Y-135268160D01*
X178595796Y-135514638D01*
X178594241Y-135521977D01*
X178529707Y-135786797D01*
X178467362Y-136031061D01*
X178465405Y-136037902D01*
X178383124Y-136297153D01*
X178303218Y-136537236D01*
X178300920Y-136543562D01*
X178201234Y-136796350D01*
X178104151Y-137030730D01*
X178101574Y-137036525D01*
X177985483Y-137280629D01*
X177984386Y-137282877D01*
X177871150Y-137509096D01*
X177868352Y-137514366D01*
X177735993Y-137749767D01*
X177734549Y-137752266D01*
X177605364Y-137969997D01*
X177602409Y-137974732D01*
X177454354Y-138200462D01*
X177452523Y-138203174D01*
X177308071Y-138411225D01*
X177305019Y-138415430D01*
X177141960Y-138630457D01*
X177139707Y-138633338D01*
X176980745Y-138830597D01*
X176977655Y-138834284D01*
X176800349Y-139037629D01*
X176797643Y-139040631D01*
X176624935Y-139226134D01*
X176621861Y-139229320D01*
X176431158Y-139420024D01*
X176427973Y-139423098D01*
X176242442Y-139595835D01*
X176239440Y-139598540D01*
X176036151Y-139775800D01*
X176032463Y-139778891D01*
X175835166Y-139937884D01*
X175832286Y-139940137D01*
X175617262Y-140103196D01*
X175613056Y-140106248D01*
X175404984Y-140250716D01*
X175402272Y-140252546D01*
X175176590Y-140400572D01*
X175171856Y-140403527D01*
X174954117Y-140532719D01*
X174951617Y-140534164D01*
X174716203Y-140666532D01*
X174710934Y-140669330D01*
X174484713Y-140782570D01*
X174482464Y-140783667D01*
X174238374Y-140899752D01*
X174232571Y-140902332D01*
X173998152Y-140999433D01*
X173745434Y-141099092D01*
X173739112Y-141101389D01*
X173499002Y-141181308D01*
X173239739Y-141263596D01*
X173232899Y-141265552D01*
X172988700Y-141327882D01*
X172723816Y-141392433D01*
X172716477Y-141393988D01*
X172470023Y-141438455D01*
X172200111Y-141484993D01*
X172192299Y-141486085D01*
X171946940Y-141512466D01*
X171671209Y-141540813D01*
X171662956Y-141541384D01*
X171434120Y-141549559D01*
X171145289Y-141559428D01*
X171141055Y-141559500D01*
X89302126Y-141559500D01*
X89297892Y-141559428D01*
X88978225Y-141548507D01*
X88779574Y-141541412D01*
X88771320Y-141540841D01*
X88485175Y-141511425D01*
X88250250Y-141486167D01*
X88242438Y-141485075D01*
X87966027Y-141437418D01*
X87726107Y-141394131D01*
X87718767Y-141392576D01*
X87449065Y-141326851D01*
X87209707Y-141265758D01*
X87202866Y-141263801D01*
X86939718Y-141180283D01*
X86845002Y-141148759D01*
X86703540Y-141101676D01*
X86697229Y-141099383D01*
X86441188Y-140998414D01*
X86210071Y-140902683D01*
X86204276Y-140900106D01*
X85957324Y-140782660D01*
X85955075Y-140781563D01*
X85731755Y-140669777D01*
X85726487Y-140666979D01*
X85488514Y-140533174D01*
X85486013Y-140531730D01*
X85270856Y-140404071D01*
X85266122Y-140401116D01*
X85038101Y-140251557D01*
X85035389Y-140249726D01*
X84829650Y-140106879D01*
X84825445Y-140103827D01*
X84608349Y-139939198D01*
X84605468Y-139936946D01*
X84410286Y-139779659D01*
X84406599Y-139776567D01*
X84201323Y-139597575D01*
X84198320Y-139594870D01*
X84014792Y-139424000D01*
X84011607Y-139420926D01*
X83819072Y-139228391D01*
X83815998Y-139225206D01*
X83645128Y-139041678D01*
X83642423Y-139038675D01*
X83463431Y-138833399D01*
X83460352Y-138829727D01*
X83303046Y-138634523D01*
X83300800Y-138631649D01*
X83136171Y-138414553D01*
X83133119Y-138410348D01*
X82990272Y-138204609D01*
X82988441Y-138201897D01*
X82838882Y-137973876D01*
X82835938Y-137969160D01*
X82708229Y-137753917D01*
X82706824Y-137751484D01*
X82573019Y-137513511D01*
X82570234Y-137508269D01*
X82458405Y-137284862D01*
X82457338Y-137282674D01*
X82339884Y-137035704D01*
X82337314Y-137029922D01*
X82241585Y-136798810D01*
X82140615Y-136542768D01*
X82138319Y-136536445D01*
X82059732Y-136300331D01*
X81976188Y-136037105D01*
X81974245Y-136030312D01*
X81913148Y-135790934D01*
X81897245Y-135725675D01*
X81847416Y-135521205D01*
X81845870Y-135513907D01*
X81802592Y-135274032D01*
X81767027Y-135067764D01*
X87445787Y-135067764D01*
X87475413Y-135337016D01*
X87487145Y-135381890D01*
X87543928Y-135599088D01*
X87644468Y-135835677D01*
X87649871Y-135848392D01*
X87790982Y-136079611D01*
X87964253Y-136287818D01*
X87964255Y-136287820D01*
X88165998Y-136468582D01*
X88391910Y-136618044D01*
X88498211Y-136667876D01*
X88637177Y-136733021D01*
X88896562Y-136811058D01*
X88896569Y-136811060D01*
X89164561Y-136850500D01*
X89164564Y-136850500D01*
X89365369Y-136850500D01*
X89367631Y-136850500D01*
X89570156Y-136835677D01*
X89834553Y-136776780D01*
X90087558Y-136680014D01*
X90323777Y-136547441D01*
X90538177Y-136381888D01*
X90726186Y-136186881D01*
X90883799Y-135966579D01*
X91007656Y-135725675D01*
X91064177Y-135560000D01*
X94384534Y-135560000D01*
X94404364Y-135824616D01*
X94463414Y-136083329D01*
X94560360Y-136330343D01*
X94685701Y-136547441D01*
X94693042Y-136560155D01*
X94858492Y-136767623D01*
X94947634Y-136850334D01*
X95053018Y-136948116D01*
X95271630Y-137097163D01*
X95272268Y-137097598D01*
X95511350Y-137212734D01*
X95764922Y-137290950D01*
X95980748Y-137323480D01*
X96027318Y-137330500D01*
X96027319Y-137330500D01*
X96292682Y-137330500D01*
X96332231Y-137324538D01*
X96555078Y-137290950D01*
X96808650Y-137212734D01*
X97047733Y-137097598D01*
X97226645Y-136975617D01*
X97266986Y-136948113D01*
X97388163Y-136835677D01*
X97461508Y-136767623D01*
X97626958Y-136560155D01*
X97759639Y-136330345D01*
X97794842Y-136240647D01*
X97837655Y-136185438D01*
X97903524Y-136162137D01*
X97971535Y-136178146D01*
X98020094Y-136228384D01*
X98025696Y-136240650D01*
X98060814Y-136330128D01*
X98193456Y-136559871D01*
X98243642Y-136622803D01*
X98243643Y-136622803D01*
X99011564Y-135854882D01*
X99070395Y-135966975D01*
X99184923Y-136096251D01*
X99327061Y-136194362D01*
X99364856Y-136208695D01*
X98596438Y-136977112D01*
X98772521Y-137097163D01*
X99011533Y-137212265D01*
X99265034Y-137290461D01*
X99527356Y-137330000D01*
X99792644Y-137330000D01*
X100054965Y-137290461D01*
X100308469Y-137212265D01*
X100547481Y-137097163D01*
X100723560Y-136977112D01*
X99955143Y-136208695D01*
X99992939Y-136194362D01*
X100135077Y-136096251D01*
X100249605Y-135966975D01*
X100308435Y-135854882D01*
X101076355Y-136622803D01*
X101126543Y-136559870D01*
X101259186Y-136330126D01*
X101356105Y-136083182D01*
X101415138Y-135824542D01*
X101434963Y-135560000D01*
X107084534Y-135560000D01*
X107104364Y-135824616D01*
X107163414Y-136083329D01*
X107260360Y-136330343D01*
X107385701Y-136547441D01*
X107393042Y-136560155D01*
X107558492Y-136767623D01*
X107647634Y-136850334D01*
X107753018Y-136948116D01*
X107971630Y-137097163D01*
X107972268Y-137097598D01*
X108211350Y-137212734D01*
X108464922Y-137290950D01*
X108680748Y-137323480D01*
X108727318Y-137330500D01*
X108727319Y-137330500D01*
X108992682Y-137330500D01*
X109032232Y-137324538D01*
X109255078Y-137290950D01*
X109508650Y-137212734D01*
X109747733Y-137097598D01*
X109926645Y-136975617D01*
X109966986Y-136948113D01*
X110088163Y-136835677D01*
X110161508Y-136767623D01*
X110326958Y-136560155D01*
X110459639Y-136330345D01*
X110494572Y-136241335D01*
X110537387Y-136186122D01*
X110603257Y-136162821D01*
X110671268Y-136178832D01*
X110719827Y-136229069D01*
X110725425Y-136241331D01*
X110743670Y-136287818D01*
X110760360Y-136330343D01*
X110885701Y-136547441D01*
X110893042Y-136560155D01*
X111058492Y-136767623D01*
X111147634Y-136850334D01*
X111253018Y-136948116D01*
X111471630Y-137097163D01*
X111472268Y-137097598D01*
X111711350Y-137212734D01*
X111964922Y-137290950D01*
X112180748Y-137323480D01*
X112227318Y-137330500D01*
X112227319Y-137330500D01*
X112492682Y-137330500D01*
X112532232Y-137324538D01*
X112755078Y-137290950D01*
X113008650Y-137212734D01*
X113247733Y-137097598D01*
X113426645Y-136975617D01*
X113466986Y-136948113D01*
X113588163Y-136835677D01*
X113661508Y-136767623D01*
X113826958Y-136560155D01*
X113959639Y-136330345D01*
X114056586Y-136083327D01*
X114115635Y-135824619D01*
X114135465Y-135560000D01*
X119784534Y-135560000D01*
X119804364Y-135824616D01*
X119863414Y-136083329D01*
X119960360Y-136330343D01*
X120085701Y-136547441D01*
X120093042Y-136560155D01*
X120258492Y-136767623D01*
X120347634Y-136850334D01*
X120453018Y-136948116D01*
X120671630Y-137097163D01*
X120672268Y-137097598D01*
X120911350Y-137212734D01*
X121164922Y-137290950D01*
X121380748Y-137323480D01*
X121427318Y-137330500D01*
X121427319Y-137330500D01*
X121692682Y-137330500D01*
X121732231Y-137324538D01*
X121955078Y-137290950D01*
X122208650Y-137212734D01*
X122447733Y-137097598D01*
X122626645Y-136975617D01*
X122666986Y-136948113D01*
X122788163Y-136835677D01*
X122861508Y-136767623D01*
X123026958Y-136560155D01*
X123159639Y-136330345D01*
X123194572Y-136241335D01*
X123237387Y-136186122D01*
X123303257Y-136162821D01*
X123371268Y-136178832D01*
X123419827Y-136229069D01*
X123425425Y-136241331D01*
X123443670Y-136287818D01*
X123460360Y-136330343D01*
X123585701Y-136547441D01*
X123593042Y-136560155D01*
X123758492Y-136767623D01*
X123847634Y-136850334D01*
X123953018Y-136948116D01*
X124171630Y-137097163D01*
X124172268Y-137097598D01*
X124411350Y-137212734D01*
X124664922Y-137290950D01*
X124880748Y-137323480D01*
X124927318Y-137330500D01*
X124927319Y-137330500D01*
X125192682Y-137330500D01*
X125232231Y-137324538D01*
X125455078Y-137290950D01*
X125708650Y-137212734D01*
X125947733Y-137097598D01*
X126126645Y-136975617D01*
X126166986Y-136948113D01*
X126288163Y-136835677D01*
X126361508Y-136767623D01*
X126526958Y-136560155D01*
X126659639Y-136330345D01*
X126756586Y-136083327D01*
X126815635Y-135824619D01*
X126835465Y-135560000D01*
X126815635Y-135295381D01*
X126756586Y-135036673D01*
X126659639Y-134789655D01*
X126526958Y-134559845D01*
X126361508Y-134352377D01*
X126344953Y-134337016D01*
X126166986Y-134171886D01*
X126014267Y-134067764D01*
X169245787Y-134067764D01*
X169275413Y-134337016D01*
X169317290Y-134497195D01*
X169343928Y-134599088D01*
X169424911Y-134789656D01*
X169449871Y-134848392D01*
X169590982Y-135079611D01*
X169764253Y-135287818D01*
X169764255Y-135287820D01*
X169965998Y-135468582D01*
X170191910Y-135618044D01*
X170252303Y-135646355D01*
X170437177Y-135733021D01*
X170696562Y-135811058D01*
X170696569Y-135811060D01*
X170964561Y-135850500D01*
X170964564Y-135850500D01*
X171165369Y-135850500D01*
X171167631Y-135850500D01*
X171370156Y-135835677D01*
X171634553Y-135776780D01*
X171887558Y-135680014D01*
X172123777Y-135547441D01*
X172338177Y-135381888D01*
X172526186Y-135186881D01*
X172683799Y-134966579D01*
X172807656Y-134725675D01*
X172895118Y-134469305D01*
X172944319Y-134202933D01*
X172954212Y-133932235D01*
X172924586Y-133662982D01*
X172856072Y-133400912D01*
X172750130Y-133151610D01*
X172609018Y-132920390D01*
X172609017Y-132920388D01*
X172435746Y-132712181D01*
X172330759Y-132618112D01*
X172234002Y-132531418D01*
X172008090Y-132381956D01*
X172008086Y-132381954D01*
X171762822Y-132266978D01*
X171503437Y-132188941D01*
X171503431Y-132188940D01*
X171235439Y-132149500D01*
X171032369Y-132149500D01*
X171030120Y-132149664D01*
X171030109Y-132149665D01*
X170829843Y-132164322D01*
X170565449Y-132223219D01*
X170312441Y-132319986D01*
X170076223Y-132452559D01*
X169861825Y-132618109D01*
X169673813Y-132813120D01*
X169516201Y-133033420D01*
X169392342Y-133274329D01*
X169304881Y-133530695D01*
X169255680Y-133797066D01*
X169245787Y-134067764D01*
X126014267Y-134067764D01*
X125947732Y-134022401D01*
X125708650Y-133907266D01*
X125455079Y-133829050D01*
X125192682Y-133789500D01*
X125192681Y-133789500D01*
X124927319Y-133789500D01*
X124927318Y-133789500D01*
X124664920Y-133829050D01*
X124411351Y-133907265D01*
X124172265Y-134022403D01*
X123953018Y-134171883D01*
X123758492Y-134352377D01*
X123593041Y-134559845D01*
X123460360Y-134789656D01*
X123425428Y-134878663D01*
X123382612Y-134933877D01*
X123316742Y-134957178D01*
X123248732Y-134941167D01*
X123200173Y-134890929D01*
X123194572Y-134878663D01*
X123162548Y-134797067D01*
X123159639Y-134789655D01*
X123026958Y-134559845D01*
X122861508Y-134352377D01*
X122844953Y-134337016D01*
X122666986Y-134171886D01*
X122447732Y-134022401D01*
X122208650Y-133907266D01*
X121955079Y-133829050D01*
X121692682Y-133789500D01*
X121692681Y-133789500D01*
X121427319Y-133789500D01*
X121427318Y-133789500D01*
X121164920Y-133829050D01*
X120911351Y-133907265D01*
X120672265Y-134022403D01*
X120453018Y-134171883D01*
X120258492Y-134352377D01*
X120093041Y-134559845D01*
X119960360Y-134789656D01*
X119863414Y-135036670D01*
X119804364Y-135295383D01*
X119784534Y-135560000D01*
X114135465Y-135560000D01*
X114115635Y-135295381D01*
X114056586Y-135036673D01*
X113959639Y-134789655D01*
X113826958Y-134559845D01*
X113661508Y-134352377D01*
X113644953Y-134337016D01*
X113466986Y-134171886D01*
X113247732Y-134022401D01*
X113008650Y-133907266D01*
X112755079Y-133829050D01*
X112492682Y-133789500D01*
X112492681Y-133789500D01*
X112227319Y-133789500D01*
X112227318Y-133789500D01*
X111964920Y-133829050D01*
X111711351Y-133907265D01*
X111472265Y-134022403D01*
X111253018Y-134171883D01*
X111058492Y-134352377D01*
X110893041Y-134559845D01*
X110760360Y-134789656D01*
X110725428Y-134878663D01*
X110682612Y-134933877D01*
X110616742Y-134957178D01*
X110548732Y-134941167D01*
X110500173Y-134890929D01*
X110494572Y-134878663D01*
X110462548Y-134797067D01*
X110459639Y-134789655D01*
X110326958Y-134559845D01*
X110161508Y-134352377D01*
X110144953Y-134337016D01*
X109966986Y-134171886D01*
X109747732Y-134022401D01*
X109508650Y-133907266D01*
X109255079Y-133829050D01*
X108992682Y-133789500D01*
X108992681Y-133789500D01*
X108727319Y-133789500D01*
X108727318Y-133789500D01*
X108464920Y-133829050D01*
X108211351Y-133907265D01*
X107972265Y-134022403D01*
X107753018Y-134171883D01*
X107558492Y-134352377D01*
X107393041Y-134559845D01*
X107260360Y-134789656D01*
X107163414Y-135036670D01*
X107104364Y-135295383D01*
X107084534Y-135560000D01*
X101434963Y-135560000D01*
X101434963Y-135559999D01*
X101415138Y-135295457D01*
X101356105Y-135036817D01*
X101259186Y-134789873D01*
X101126543Y-134560128D01*
X101076355Y-134497195D01*
X100308435Y-135265116D01*
X100249605Y-135153025D01*
X100135077Y-135023749D01*
X99992939Y-134925638D01*
X99955143Y-134911304D01*
X100723560Y-134142886D01*
X100547481Y-134022836D01*
X100308469Y-133907734D01*
X100054965Y-133829538D01*
X99792644Y-133790000D01*
X99527356Y-133790000D01*
X99265034Y-133829538D01*
X99011533Y-133907734D01*
X98772518Y-134022837D01*
X98596438Y-134142886D01*
X99364856Y-134911304D01*
X99327061Y-134925638D01*
X99184923Y-135023749D01*
X99070395Y-135153025D01*
X99011564Y-135265117D01*
X98243643Y-134497196D01*
X98193455Y-134560130D01*
X98060814Y-134789871D01*
X98025696Y-134879349D01*
X97982879Y-134934563D01*
X97917009Y-134957863D01*
X97848999Y-134941852D01*
X97800441Y-134891613D01*
X97794848Y-134879368D01*
X97759639Y-134789655D01*
X97626958Y-134559845D01*
X97461508Y-134352377D01*
X97444953Y-134337016D01*
X97266986Y-134171886D01*
X97047732Y-134022401D01*
X96808650Y-133907266D01*
X96555079Y-133829050D01*
X96292682Y-133789500D01*
X96292681Y-133789500D01*
X96027319Y-133789500D01*
X96027318Y-133789500D01*
X95764920Y-133829050D01*
X95511351Y-133907265D01*
X95272265Y-134022403D01*
X95053018Y-134171883D01*
X94858492Y-134352377D01*
X94693041Y-134559845D01*
X94560360Y-134789656D01*
X94463414Y-135036670D01*
X94404364Y-135295383D01*
X94384534Y-135560000D01*
X91064177Y-135560000D01*
X91095118Y-135469305D01*
X91144319Y-135202933D01*
X91154212Y-134932235D01*
X91124586Y-134662982D01*
X91056072Y-134400912D01*
X90950130Y-134151610D01*
X90820681Y-133939500D01*
X90809017Y-133920388D01*
X90635746Y-133712181D01*
X90580837Y-133662982D01*
X90434002Y-133531418D01*
X90208090Y-133381956D01*
X90208086Y-133381954D01*
X89962822Y-133266978D01*
X89703437Y-133188941D01*
X89703431Y-133188940D01*
X89435439Y-133149500D01*
X89232369Y-133149500D01*
X89230120Y-133149664D01*
X89230109Y-133149665D01*
X89029843Y-133164322D01*
X88765449Y-133223219D01*
X88512441Y-133319986D01*
X88276223Y-133452559D01*
X88061825Y-133618109D01*
X87873813Y-133813120D01*
X87716201Y-134033420D01*
X87592342Y-134274329D01*
X87504881Y-134530695D01*
X87455680Y-134797066D01*
X87445787Y-135067764D01*
X81767027Y-135067764D01*
X81754923Y-134997560D01*
X81753835Y-134989788D01*
X81728594Y-134755017D01*
X81699155Y-134468651D01*
X81698588Y-134460454D01*
X81691504Y-134262138D01*
X81680572Y-133942107D01*
X81680500Y-133937874D01*
X81680500Y-113209999D01*
X88324340Y-113209999D01*
X88344936Y-113445407D01*
X88389709Y-113612502D01*
X88406097Y-113673663D01*
X88505965Y-113887830D01*
X88641505Y-114081401D01*
X88641508Y-114081404D01*
X88763430Y-114203326D01*
X88796915Y-114264649D01*
X88791931Y-114334341D01*
X88750059Y-114390274D01*
X88719083Y-114407189D01*
X88587669Y-114456204D01*
X88472454Y-114542454D01*
X88386204Y-114657668D01*
X88335909Y-114792516D01*
X88332054Y-114828376D01*
X88329500Y-114852127D01*
X88329500Y-114855448D01*
X88329500Y-114855449D01*
X88329500Y-116644560D01*
X88329500Y-116644578D01*
X88329501Y-116647872D01*
X88329853Y-116651152D01*
X88329854Y-116651159D01*
X88335909Y-116707484D01*
X88355648Y-116760405D01*
X88386204Y-116842331D01*
X88472454Y-116957546D01*
X88587669Y-117043796D01*
X88722517Y-117094091D01*
X88782127Y-117100500D01*
X90577872Y-117100499D01*
X90637483Y-117094091D01*
X90772331Y-117043796D01*
X90887546Y-116957546D01*
X90973796Y-116842331D01*
X91024091Y-116707483D01*
X91030500Y-116647873D01*
X91030500Y-115888000D01*
X98404531Y-115888000D01*
X98424364Y-116114689D01*
X98483261Y-116334497D01*
X98579432Y-116540735D01*
X98709953Y-116727140D01*
X98870859Y-116888046D01*
X99057264Y-117018567D01*
X99057265Y-117018567D01*
X99057266Y-117018568D01*
X99263504Y-117114739D01*
X99483308Y-117173635D01*
X99710000Y-117193468D01*
X99936692Y-117173635D01*
X100156496Y-117114739D01*
X100362734Y-117018568D01*
X100549139Y-116888047D01*
X100710047Y-116727139D01*
X100840568Y-116540734D01*
X100867618Y-116482724D01*
X100913790Y-116430285D01*
X100980983Y-116411133D01*
X101047865Y-116431348D01*
X101092382Y-116482725D01*
X101119431Y-116540733D01*
X101249953Y-116727140D01*
X101410859Y-116888046D01*
X101597264Y-117018567D01*
X101597265Y-117018567D01*
X101597266Y-117018568D01*
X101803504Y-117114739D01*
X102023308Y-117173635D01*
X102174435Y-117186857D01*
X102249999Y-117193468D01*
X102249999Y-117193467D01*
X102250000Y-117193468D01*
X102476692Y-117173635D01*
X102696496Y-117114739D01*
X102902734Y-117018568D01*
X103089139Y-116888047D01*
X103250047Y-116727139D01*
X103380568Y-116540734D01*
X103407619Y-116482721D01*
X103453788Y-116430286D01*
X103520981Y-116411133D01*
X103587862Y-116431348D01*
X103632380Y-116482722D01*
X103659432Y-116540733D01*
X103659433Y-116540736D01*
X103789953Y-116727140D01*
X103950859Y-116888046D01*
X104137264Y-117018567D01*
X104137265Y-117018567D01*
X104137266Y-117018568D01*
X104343504Y-117114739D01*
X104563308Y-117173635D01*
X104790000Y-117193468D01*
X105016692Y-117173635D01*
X105236496Y-117114739D01*
X105442734Y-117018568D01*
X105629139Y-116888047D01*
X105790047Y-116727139D01*
X105920568Y-116540734D01*
X105947618Y-116482724D01*
X105993790Y-116430285D01*
X106060983Y-116411133D01*
X106127865Y-116431348D01*
X106172382Y-116482725D01*
X106199431Y-116540733D01*
X106329953Y-116727140D01*
X106490859Y-116888046D01*
X106677264Y-117018567D01*
X106677265Y-117018567D01*
X106677266Y-117018568D01*
X106883504Y-117114739D01*
X107103308Y-117173635D01*
X107254436Y-117186856D01*
X107329999Y-117193468D01*
X107329999Y-117193467D01*
X107330000Y-117193468D01*
X107556692Y-117173635D01*
X107776496Y-117114739D01*
X107982734Y-117018568D01*
X108169139Y-116888047D01*
X108330047Y-116727139D01*
X108460568Y-116540734D01*
X108487618Y-116482724D01*
X108533790Y-116430285D01*
X108600983Y-116411133D01*
X108667865Y-116431348D01*
X108712382Y-116482725D01*
X108739431Y-116540733D01*
X108869953Y-116727140D01*
X109030859Y-116888046D01*
X109217264Y-117018567D01*
X109217265Y-117018567D01*
X109217266Y-117018568D01*
X109423504Y-117114739D01*
X109643308Y-117173635D01*
X109870000Y-117193468D01*
X110096692Y-117173635D01*
X110316496Y-117114739D01*
X110522734Y-117018568D01*
X110709139Y-116888047D01*
X110870047Y-116727139D01*
X111000568Y-116540734D01*
X111027618Y-116482724D01*
X111073790Y-116430285D01*
X111140983Y-116411133D01*
X111207865Y-116431348D01*
X111252382Y-116482725D01*
X111279431Y-116540733D01*
X111409953Y-116727140D01*
X111570859Y-116888046D01*
X111757264Y-117018567D01*
X111757265Y-117018567D01*
X111757266Y-117018568D01*
X111963504Y-117114739D01*
X112183308Y-117173635D01*
X112410000Y-117193468D01*
X112636692Y-117173635D01*
X112856496Y-117114739D01*
X113062734Y-117018568D01*
X113249139Y-116888047D01*
X113410047Y-116727139D01*
X113540568Y-116540734D01*
X113636739Y-116334496D01*
X113695635Y-116114692D01*
X113715468Y-115888000D01*
X113695635Y-115661308D01*
X113636739Y-115441504D01*
X113540568Y-115235266D01*
X113436637Y-115086835D01*
X113410046Y-115048859D01*
X113249140Y-114887953D01*
X113062735Y-114757432D01*
X112856497Y-114661261D01*
X112636689Y-114602364D01*
X112410000Y-114582531D01*
X112183310Y-114602364D01*
X111963502Y-114661261D01*
X111757264Y-114757432D01*
X111570859Y-114887953D01*
X111409953Y-115048859D01*
X111279433Y-115235263D01*
X111252382Y-115293275D01*
X111206209Y-115345714D01*
X111139015Y-115364865D01*
X111072134Y-115344649D01*
X111027618Y-115293275D01*
X111000687Y-115235522D01*
X111000568Y-115235266D01*
X110919854Y-115119993D01*
X110870046Y-115048859D01*
X110709140Y-114887953D01*
X110522735Y-114757432D01*
X110316497Y-114661261D01*
X110096689Y-114602364D01*
X109870000Y-114582531D01*
X109643310Y-114602364D01*
X109423502Y-114661261D01*
X109217264Y-114757432D01*
X109030859Y-114887953D01*
X108869953Y-115048859D01*
X108739433Y-115235263D01*
X108712382Y-115293275D01*
X108666209Y-115345714D01*
X108599015Y-115364865D01*
X108532134Y-115344649D01*
X108487618Y-115293275D01*
X108460687Y-115235522D01*
X108460568Y-115235266D01*
X108379854Y-115119993D01*
X108330046Y-115048859D01*
X108169140Y-114887953D01*
X107982735Y-114757432D01*
X107776497Y-114661261D01*
X107556689Y-114602364D01*
X107329999Y-114582531D01*
X107103310Y-114602364D01*
X106883502Y-114661261D01*
X106677264Y-114757432D01*
X106490859Y-114887953D01*
X106329953Y-115048859D01*
X106199433Y-115235263D01*
X106172382Y-115293275D01*
X106126209Y-115345714D01*
X106059015Y-115364865D01*
X105992134Y-115344649D01*
X105947618Y-115293275D01*
X105920687Y-115235522D01*
X105920568Y-115235266D01*
X105839854Y-115119993D01*
X105790046Y-115048859D01*
X105629140Y-114887953D01*
X105442735Y-114757432D01*
X105236497Y-114661261D01*
X105016689Y-114602364D01*
X104790000Y-114582531D01*
X104563310Y-114602364D01*
X104343502Y-114661261D01*
X104137264Y-114757432D01*
X103950859Y-114887953D01*
X103789953Y-115048859D01*
X103659433Y-115235263D01*
X103632382Y-115293275D01*
X103586209Y-115345714D01*
X103519015Y-115364865D01*
X103452134Y-115344649D01*
X103407618Y-115293275D01*
X103380687Y-115235522D01*
X103380568Y-115235266D01*
X103299854Y-115119993D01*
X103250046Y-115048859D01*
X103089140Y-114887953D01*
X102902735Y-114757432D01*
X102696497Y-114661261D01*
X102476689Y-114602364D01*
X102249999Y-114582531D01*
X102023310Y-114602364D01*
X101803502Y-114661261D01*
X101597264Y-114757432D01*
X101410859Y-114887953D01*
X101249953Y-115048859D01*
X101119433Y-115235263D01*
X101092382Y-115293275D01*
X101046209Y-115345714D01*
X100979015Y-115364865D01*
X100912134Y-115344649D01*
X100867618Y-115293275D01*
X100840687Y-115235522D01*
X100840568Y-115235266D01*
X100759854Y-115119993D01*
X100710046Y-115048859D01*
X100549140Y-114887953D01*
X100362735Y-114757432D01*
X100156497Y-114661261D01*
X99936689Y-114602364D01*
X99710000Y-114582531D01*
X99483310Y-114602364D01*
X99263502Y-114661261D01*
X99057264Y-114757432D01*
X98870859Y-114887953D01*
X98709953Y-115048859D01*
X98579432Y-115235264D01*
X98483261Y-115441502D01*
X98424364Y-115661310D01*
X98404531Y-115888000D01*
X91030500Y-115888000D01*
X91030499Y-114852128D01*
X91024091Y-114792517D01*
X90973796Y-114657669D01*
X90887546Y-114542454D01*
X90772331Y-114456204D01*
X90710898Y-114433291D01*
X90640916Y-114407189D01*
X90584983Y-114365317D01*
X90560566Y-114299853D01*
X90575418Y-114231580D01*
X90596563Y-114203332D01*
X90718495Y-114081401D01*
X90854035Y-113887830D01*
X90953903Y-113673663D01*
X91015063Y-113445408D01*
X91035659Y-113210000D01*
X91017022Y-112996985D01*
X91030788Y-112928486D01*
X91052866Y-112898500D01*
X92575638Y-111375727D01*
X92589256Y-111363957D01*
X92608530Y-111349610D01*
X92640372Y-111311661D01*
X92647686Y-111303681D01*
X92648264Y-111303102D01*
X92651591Y-111299776D01*
X92670853Y-111275413D01*
X92673076Y-111272686D01*
X92710665Y-111227890D01*
X92721302Y-111215214D01*
X92721303Y-111215211D01*
X92722115Y-111214244D01*
X92732573Y-111197827D01*
X92733106Y-111196682D01*
X92733111Y-111196677D01*
X92764833Y-111128646D01*
X92766362Y-111125488D01*
X92800040Y-111058433D01*
X92800040Y-111058432D01*
X92800612Y-111057294D01*
X92807000Y-111038915D01*
X92807255Y-111037675D01*
X92807257Y-111037673D01*
X92822435Y-110964157D01*
X92823200Y-110960708D01*
X92840500Y-110887721D01*
X92840500Y-110887718D01*
X92840791Y-110886491D01*
X92842770Y-110867120D01*
X92842733Y-110865858D01*
X92842734Y-110865855D01*
X92840552Y-110790868D01*
X92840500Y-110787262D01*
X92840500Y-106051228D01*
X92860185Y-105984189D01*
X92912989Y-105938434D01*
X92982147Y-105928490D01*
X93045703Y-105957515D01*
X93052166Y-105963533D01*
X96471814Y-109383181D01*
X99434267Y-112345634D01*
X99446048Y-112359266D01*
X99460389Y-112378529D01*
X99498339Y-112410373D01*
X99506314Y-112417681D01*
X99510223Y-112421590D01*
X99513055Y-112423829D01*
X99513065Y-112423838D01*
X99534537Y-112440815D01*
X99537337Y-112443096D01*
X99595754Y-112492115D01*
X99612165Y-112502569D01*
X99613319Y-112503107D01*
X99613323Y-112503110D01*
X99681328Y-112534821D01*
X99684451Y-112536333D01*
X99751567Y-112570040D01*
X99752704Y-112570611D01*
X99771084Y-112576998D01*
X99772321Y-112577253D01*
X99772327Y-112577256D01*
X99845862Y-112592439D01*
X99849209Y-112593181D01*
X99922279Y-112610500D01*
X99922281Y-112610500D01*
X99923505Y-112610790D01*
X99942876Y-112612769D01*
X99944140Y-112612732D01*
X99944144Y-112612733D01*
X100019110Y-112610552D01*
X100022716Y-112610500D01*
X122317770Y-112610500D01*
X122384809Y-112630185D01*
X122405451Y-112646819D01*
X124323180Y-114564548D01*
X124356665Y-114625871D01*
X124359499Y-114652229D01*
X124359499Y-114761337D01*
X124339814Y-114828376D01*
X124306624Y-114862911D01*
X124270859Y-114887954D01*
X124109953Y-115048860D01*
X123979430Y-115235267D01*
X123952105Y-115293866D01*
X123905932Y-115346305D01*
X123838739Y-115365456D01*
X123771858Y-115345239D01*
X123727342Y-115293865D01*
X123700134Y-115235519D01*
X123569658Y-115049180D01*
X123408819Y-114888341D01*
X123222480Y-114757865D01*
X123016326Y-114661733D01*
X122820000Y-114609126D01*
X122819999Y-115452498D01*
X122712315Y-115403320D01*
X122605763Y-115388000D01*
X122534237Y-115388000D01*
X122427685Y-115403320D01*
X122320000Y-115452498D01*
X122320000Y-114609127D01*
X122319999Y-114609126D01*
X122123673Y-114661733D01*
X121917519Y-114757865D01*
X121731180Y-114888341D01*
X121570341Y-115049180D01*
X121439863Y-115235522D01*
X121412656Y-115293866D01*
X121366483Y-115346305D01*
X121299290Y-115365456D01*
X121232409Y-115345239D01*
X121187893Y-115293865D01*
X121160567Y-115235264D01*
X121030046Y-115048859D01*
X120869140Y-114887953D01*
X120682735Y-114757432D01*
X120476497Y-114661261D01*
X120256689Y-114602364D01*
X120030000Y-114582531D01*
X119803310Y-114602364D01*
X119583502Y-114661261D01*
X119377264Y-114757432D01*
X119190859Y-114887953D01*
X119029953Y-115048859D01*
X118899433Y-115235263D01*
X118872382Y-115293275D01*
X118826209Y-115345714D01*
X118759015Y-115364865D01*
X118692134Y-115344649D01*
X118647618Y-115293275D01*
X118620687Y-115235522D01*
X118620568Y-115235266D01*
X118539854Y-115119993D01*
X118490046Y-115048859D01*
X118329140Y-114887953D01*
X118142735Y-114757432D01*
X117936497Y-114661261D01*
X117716689Y-114602364D01*
X117489999Y-114582531D01*
X117263310Y-114602364D01*
X117043502Y-114661261D01*
X116837264Y-114757432D01*
X116650859Y-114887953D01*
X116489953Y-115048859D01*
X116359432Y-115235264D01*
X116263261Y-115441502D01*
X116204364Y-115661310D01*
X116184531Y-115888000D01*
X116204364Y-116114689D01*
X116263261Y-116334497D01*
X116359432Y-116540735D01*
X116489953Y-116727140D01*
X116650859Y-116888046D01*
X116837264Y-117018567D01*
X116837265Y-117018567D01*
X116837266Y-117018568D01*
X117043504Y-117114739D01*
X117263308Y-117173635D01*
X117414435Y-117186856D01*
X117489999Y-117193468D01*
X117489999Y-117193467D01*
X117490000Y-117193468D01*
X117716692Y-117173635D01*
X117936496Y-117114739D01*
X118142734Y-117018568D01*
X118329139Y-116888047D01*
X118490047Y-116727139D01*
X118620568Y-116540734D01*
X118647618Y-116482724D01*
X118693790Y-116430285D01*
X118760983Y-116411133D01*
X118827865Y-116431348D01*
X118872382Y-116482725D01*
X118899431Y-116540733D01*
X119029953Y-116727140D01*
X119190859Y-116888046D01*
X119377264Y-117018567D01*
X119377265Y-117018567D01*
X119377266Y-117018568D01*
X119583504Y-117114739D01*
X119803308Y-117173635D01*
X120030000Y-117193468D01*
X120256692Y-117173635D01*
X120476496Y-117114739D01*
X120682734Y-117018568D01*
X120869139Y-116888047D01*
X121030047Y-116727139D01*
X121160568Y-116540734D01*
X121187893Y-116482134D01*
X121234065Y-116429695D01*
X121301258Y-116410543D01*
X121368139Y-116430758D01*
X121412657Y-116482133D01*
X121439866Y-116540482D01*
X121570341Y-116726819D01*
X121731180Y-116887658D01*
X121917519Y-117018134D01*
X122123673Y-117114266D01*
X122319999Y-117166871D01*
X122320000Y-117166871D01*
X122320000Y-116323501D01*
X122427685Y-116372680D01*
X122534237Y-116388000D01*
X122605763Y-116388000D01*
X122712315Y-116372680D01*
X122819999Y-116323501D01*
X122820000Y-117166871D01*
X123016326Y-117114266D01*
X123222480Y-117018134D01*
X123408819Y-116887658D01*
X123569658Y-116726819D01*
X123700135Y-116540479D01*
X123727342Y-116482135D01*
X123773514Y-116429695D01*
X123840707Y-116410543D01*
X123907589Y-116430758D01*
X123952105Y-116482132D01*
X123979432Y-116540733D01*
X123979433Y-116540736D01*
X124109953Y-116727140D01*
X124270859Y-116888046D01*
X124457264Y-117018567D01*
X124457265Y-117018567D01*
X124457266Y-117018568D01*
X124663504Y-117114739D01*
X124883308Y-117173635D01*
X125034436Y-117186857D01*
X125109999Y-117193468D01*
X125109999Y-117193467D01*
X125110000Y-117193468D01*
X125276861Y-117178869D01*
X125345359Y-117192635D01*
X125375347Y-117214715D01*
X132713181Y-124552550D01*
X132746665Y-124613871D01*
X132749499Y-124640229D01*
X132749499Y-126604299D01*
X132748190Y-126622267D01*
X132744710Y-126646022D01*
X132749028Y-126695368D01*
X132749500Y-126706175D01*
X132749500Y-126711709D01*
X132749916Y-126715272D01*
X132749917Y-126715282D01*
X132753098Y-126742496D01*
X132753464Y-126746082D01*
X132760109Y-126822041D01*
X132764329Y-126841071D01*
X132764758Y-126842251D01*
X132764759Y-126842255D01*
X132790413Y-126912742D01*
X132791582Y-126916107D01*
X132815580Y-126988524D01*
X132824075Y-127006072D01*
X132865979Y-127069784D01*
X132867889Y-127072782D01*
X132907288Y-127136656D01*
X132907952Y-127137732D01*
X132920253Y-127152830D01*
X132921168Y-127153693D01*
X132921170Y-127153696D01*
X132975708Y-127205150D01*
X132978295Y-127207663D01*
X133558451Y-127787819D01*
X133591936Y-127849142D01*
X133586952Y-127918834D01*
X133545080Y-127974767D01*
X133479616Y-127999184D01*
X133470770Y-127999500D01*
X132747439Y-127999500D01*
X132747420Y-127999500D01*
X132744128Y-127999501D01*
X132740848Y-127999853D01*
X132740840Y-127999854D01*
X132684515Y-128005909D01*
X132549669Y-128056204D01*
X132434454Y-128142454D01*
X132348204Y-128257668D01*
X132297909Y-128392516D01*
X132292265Y-128445016D01*
X132291500Y-128452127D01*
X132291500Y-128455448D01*
X132291500Y-128455449D01*
X132291500Y-130244560D01*
X132291500Y-130244578D01*
X132291501Y-130247872D01*
X132291853Y-130251152D01*
X132291854Y-130251159D01*
X132297909Y-130307484D01*
X132323056Y-130374906D01*
X132348204Y-130442331D01*
X132434454Y-130557546D01*
X132549669Y-130643796D01*
X132684517Y-130694091D01*
X132744127Y-130700500D01*
X134539872Y-130700499D01*
X134599483Y-130694091D01*
X134734331Y-130643796D01*
X134849546Y-130557546D01*
X134935796Y-130442331D01*
X134984810Y-130310916D01*
X135026681Y-130254983D01*
X135092146Y-130230566D01*
X135160419Y-130245418D01*
X135188673Y-130266569D01*
X135310599Y-130388495D01*
X135504170Y-130524035D01*
X135718337Y-130623903D01*
X135930059Y-130680633D01*
X135946592Y-130685063D01*
X136181999Y-130705659D01*
X136181999Y-130705658D01*
X136182000Y-130705659D01*
X136417408Y-130685063D01*
X136645663Y-130623903D01*
X136859830Y-130524035D01*
X137053401Y-130388495D01*
X137220495Y-130221401D01*
X137350732Y-130035403D01*
X137405307Y-129991780D01*
X137474805Y-129984586D01*
X137537160Y-130016109D01*
X137553880Y-130035404D01*
X137683893Y-130221081D01*
X137850918Y-130388106D01*
X138044423Y-130523600D01*
X138258509Y-130623430D01*
X138472000Y-130680634D01*
X138472000Y-129785501D01*
X138579685Y-129834680D01*
X138686237Y-129850000D01*
X138757763Y-129850000D01*
X138864315Y-129834680D01*
X138972000Y-129785501D01*
X138972000Y-130680633D01*
X139185490Y-130623430D01*
X139399576Y-130523600D01*
X139593081Y-130388106D01*
X139760106Y-130221081D01*
X139895600Y-130027576D01*
X139995430Y-129813492D01*
X140052636Y-129600000D01*
X139155686Y-129600000D01*
X139181493Y-129559844D01*
X139222000Y-129421889D01*
X139222000Y-129278111D01*
X139181493Y-129140156D01*
X139155686Y-129100000D01*
X140052636Y-129100000D01*
X140052635Y-129099999D01*
X139995430Y-128886507D01*
X139895599Y-128672421D01*
X139760109Y-128478921D01*
X139593081Y-128311893D01*
X139399576Y-128176399D01*
X139185492Y-128076569D01*
X138972000Y-128019364D01*
X138972000Y-128914498D01*
X138864315Y-128865320D01*
X138757763Y-128850000D01*
X138686237Y-128850000D01*
X138579685Y-128865320D01*
X138472000Y-128914498D01*
X138472000Y-128019364D01*
X138471999Y-128019364D01*
X138258507Y-128076569D01*
X138044421Y-128176400D01*
X137850921Y-128311890D01*
X137683893Y-128478918D01*
X137553880Y-128664596D01*
X137499303Y-128708220D01*
X137429804Y-128715413D01*
X137367450Y-128683891D01*
X137350730Y-128664595D01*
X137220494Y-128478598D01*
X137053404Y-128311508D01*
X137053401Y-128311505D01*
X136859830Y-128175965D01*
X136645663Y-128076097D01*
X136584501Y-128059709D01*
X136417407Y-128014936D01*
X136181999Y-127994340D01*
X135968985Y-128012977D01*
X135900485Y-127999210D01*
X135870497Y-127977130D01*
X134286819Y-126393451D01*
X134253334Y-126332128D01*
X134250500Y-126305770D01*
X134250500Y-124374926D01*
X134270185Y-124307887D01*
X134322989Y-124262132D01*
X134392147Y-124252188D01*
X134455031Y-124280635D01*
X134476341Y-124298836D01*
X134691141Y-124430466D01*
X134923889Y-124526873D01*
X135168852Y-124585683D01*
X135420000Y-124605449D01*
X135671148Y-124585683D01*
X135916111Y-124526873D01*
X136148859Y-124430466D01*
X136363659Y-124298836D01*
X136544342Y-124144518D01*
X141440000Y-124144518D01*
X141440354Y-124151132D01*
X141446400Y-124207371D01*
X141496647Y-124342089D01*
X141582811Y-124457188D01*
X141697910Y-124543352D01*
X141832628Y-124593599D01*
X141888867Y-124599645D01*
X141895482Y-124600000D01*
X142790000Y-124600000D01*
X142790000Y-123491683D01*
X142818819Y-123509209D01*
X142964404Y-123550000D01*
X143077622Y-123550000D01*
X143189783Y-123534584D01*
X143290000Y-123491053D01*
X143290000Y-124600000D01*
X144184518Y-124600000D01*
X144191132Y-124599645D01*
X144247371Y-124593599D01*
X144382089Y-124543352D01*
X144497188Y-124457188D01*
X144583352Y-124342089D01*
X144633599Y-124207371D01*
X144639645Y-124151132D01*
X144640000Y-124144518D01*
X144640000Y-123250000D01*
X143534852Y-123250000D01*
X143583559Y-123112953D01*
X143593877Y-122962114D01*
X143563116Y-122814085D01*
X143529910Y-122750000D01*
X144640000Y-122750000D01*
X144640000Y-121855481D01*
X144639645Y-121848867D01*
X144633599Y-121792628D01*
X144583352Y-121657910D01*
X144497188Y-121542811D01*
X144382089Y-121456647D01*
X144247371Y-121406400D01*
X144191132Y-121400354D01*
X144184518Y-121400000D01*
X143290000Y-121400000D01*
X143290000Y-122508316D01*
X143261181Y-122490791D01*
X143115596Y-122450000D01*
X143002378Y-122450000D01*
X142890217Y-122465416D01*
X142790000Y-122508946D01*
X142790000Y-121400000D01*
X141895482Y-121400000D01*
X141888867Y-121400354D01*
X141832628Y-121406400D01*
X141697910Y-121456647D01*
X141582811Y-121542811D01*
X141496647Y-121657910D01*
X141446400Y-121792628D01*
X141440354Y-121848867D01*
X141440000Y-121855481D01*
X141440000Y-122750000D01*
X142545148Y-122750000D01*
X142496441Y-122887047D01*
X142486123Y-123037886D01*
X142516884Y-123185915D01*
X142550090Y-123250000D01*
X141440000Y-123250000D01*
X141440000Y-124144518D01*
X136544342Y-124144518D01*
X136555224Y-124135224D01*
X136718836Y-123943659D01*
X136850466Y-123728859D01*
X136946873Y-123496111D01*
X137005683Y-123251148D01*
X137025449Y-123000000D01*
X137005683Y-122748852D01*
X136946873Y-122503889D01*
X136850466Y-122271141D01*
X136718836Y-122056341D01*
X136555224Y-121864776D01*
X136363659Y-121701164D01*
X136148859Y-121569534D01*
X136032484Y-121521330D01*
X135916110Y-121473126D01*
X135671149Y-121414317D01*
X135420000Y-121394551D01*
X135168850Y-121414317D01*
X134923889Y-121473126D01*
X134691139Y-121569535D01*
X134476342Y-121701163D01*
X134284776Y-121864776D01*
X134121163Y-122056342D01*
X133989535Y-122271139D01*
X133893126Y-122503889D01*
X133834317Y-122748850D01*
X133814551Y-123000000D01*
X133833556Y-123241480D01*
X133819192Y-123309858D01*
X133770140Y-123359614D01*
X133701975Y-123374953D01*
X133636338Y-123351004D01*
X133622257Y-123338890D01*
X127678800Y-117395432D01*
X127645315Y-117334109D01*
X127650299Y-117264417D01*
X127692171Y-117208484D01*
X127755674Y-117184223D01*
X127818809Y-117178699D01*
X127876692Y-117173635D01*
X128096496Y-117114739D01*
X128302734Y-117018568D01*
X128489139Y-116888047D01*
X128650047Y-116727139D01*
X128780568Y-116540734D01*
X128807619Y-116482721D01*
X128853788Y-116430286D01*
X128920981Y-116411133D01*
X128987862Y-116431348D01*
X129032380Y-116482722D01*
X129059432Y-116540733D01*
X129059433Y-116540736D01*
X129189953Y-116727140D01*
X129350859Y-116888046D01*
X129537264Y-117018567D01*
X129537265Y-117018567D01*
X129537266Y-117018568D01*
X129743504Y-117114739D01*
X129963308Y-117173635D01*
X130190000Y-117193468D01*
X130416692Y-117173635D01*
X130636496Y-117114739D01*
X130842734Y-117018568D01*
X131029139Y-116888047D01*
X131190047Y-116727139D01*
X131320568Y-116540734D01*
X131347619Y-116482721D01*
X131393788Y-116430286D01*
X131460981Y-116411133D01*
X131527862Y-116431348D01*
X131572380Y-116482722D01*
X131599432Y-116540733D01*
X131599433Y-116540736D01*
X131729953Y-116727140D01*
X131890859Y-116888046D01*
X132077264Y-117018567D01*
X132077265Y-117018567D01*
X132077266Y-117018568D01*
X132283504Y-117114739D01*
X132503308Y-117173635D01*
X132730000Y-117193468D01*
X132956692Y-117173635D01*
X133176496Y-117114739D01*
X133382734Y-117018568D01*
X133569139Y-116888047D01*
X133730047Y-116727139D01*
X133747273Y-116702537D01*
X133801847Y-116658913D01*
X133871345Y-116651718D01*
X133933701Y-116683239D01*
X133969116Y-116743468D01*
X133972138Y-116760405D01*
X133975909Y-116795483D01*
X134026204Y-116930331D01*
X134112454Y-117045546D01*
X134227669Y-117131796D01*
X134362517Y-117182091D01*
X134422127Y-117188500D01*
X136117872Y-117188499D01*
X136177483Y-117182091D01*
X136312331Y-117131796D01*
X136427546Y-117045546D01*
X136513796Y-116930331D01*
X136564091Y-116795483D01*
X136570500Y-116735873D01*
X136570499Y-115040128D01*
X136564091Y-114980517D01*
X136513796Y-114845669D01*
X136427546Y-114730454D01*
X136312331Y-114644204D01*
X136177483Y-114593909D01*
X136117873Y-114587500D01*
X136114550Y-114587500D01*
X134425439Y-114587500D01*
X134425420Y-114587500D01*
X134422128Y-114587501D01*
X134418848Y-114587853D01*
X134418840Y-114587854D01*
X134362515Y-114593909D01*
X134227669Y-114644204D01*
X134112454Y-114730454D01*
X134026204Y-114845668D01*
X133975909Y-114980516D01*
X133972138Y-115015594D01*
X133945400Y-115080145D01*
X133888007Y-115119993D01*
X133818182Y-115122487D01*
X133758093Y-115086835D01*
X133747272Y-115073461D01*
X133730045Y-115048858D01*
X133569140Y-114887953D01*
X133382735Y-114757432D01*
X133176497Y-114661261D01*
X132956689Y-114602364D01*
X132730000Y-114582531D01*
X132503310Y-114602364D01*
X132283502Y-114661261D01*
X132077264Y-114757432D01*
X131890859Y-114887953D01*
X131729953Y-115048859D01*
X131599433Y-115235263D01*
X131572382Y-115293275D01*
X131526209Y-115345714D01*
X131459015Y-115364865D01*
X131392134Y-115344649D01*
X131347618Y-115293275D01*
X131320687Y-115235522D01*
X131320568Y-115235266D01*
X131239854Y-115119993D01*
X131190046Y-115048859D01*
X131029140Y-114887953D01*
X130842735Y-114757432D01*
X130636497Y-114661261D01*
X130416689Y-114602364D01*
X130190000Y-114582531D01*
X129963310Y-114602364D01*
X129743502Y-114661261D01*
X129537264Y-114757432D01*
X129350859Y-114887953D01*
X129189953Y-115048859D01*
X129059433Y-115235263D01*
X129032382Y-115293275D01*
X128986209Y-115345714D01*
X128919015Y-115364865D01*
X128852134Y-115344649D01*
X128807618Y-115293275D01*
X128780687Y-115235522D01*
X128780568Y-115235266D01*
X128699854Y-115119993D01*
X128650046Y-115048859D01*
X128489140Y-114887953D01*
X128302735Y-114757432D01*
X128096497Y-114661261D01*
X127876689Y-114602364D01*
X127649999Y-114582531D01*
X127423310Y-114602364D01*
X127203502Y-114661261D01*
X126997264Y-114757432D01*
X126810859Y-114887953D01*
X126649953Y-115048859D01*
X126519433Y-115235263D01*
X126492382Y-115293275D01*
X126446209Y-115345714D01*
X126379015Y-115364865D01*
X126312134Y-115344649D01*
X126267618Y-115293275D01*
X126240687Y-115235522D01*
X126240568Y-115235266D01*
X126110047Y-115048861D01*
X125949139Y-114887953D01*
X125913373Y-114862909D01*
X125869750Y-114808333D01*
X125860499Y-114761340D01*
X125860499Y-114353703D01*
X125861809Y-114335729D01*
X125862012Y-114334341D01*
X125865289Y-114311977D01*
X125860972Y-114262629D01*
X125860500Y-114251823D01*
X125860500Y-114249901D01*
X125860500Y-114246291D01*
X125856903Y-114215520D01*
X125856536Y-114211929D01*
X125849889Y-114135949D01*
X125845672Y-114116930D01*
X125832740Y-114081400D01*
X125819591Y-114045273D01*
X125818408Y-114041868D01*
X125794814Y-113970666D01*
X125794812Y-113970663D01*
X125794415Y-113969464D01*
X125785929Y-113951936D01*
X125785237Y-113950884D01*
X125785237Y-113950883D01*
X125744001Y-113888188D01*
X125742086Y-113885181D01*
X125702048Y-113820269D01*
X125689748Y-113805170D01*
X125634272Y-113752831D01*
X125631685Y-113750318D01*
X123255728Y-111374360D01*
X123243946Y-111360727D01*
X123235668Y-111349608D01*
X123229610Y-111341470D01*
X123191667Y-111309631D01*
X123183691Y-111302323D01*
X123182329Y-111300961D01*
X123179777Y-111298409D01*
X123155444Y-111279169D01*
X123152647Y-111276890D01*
X123094251Y-111227890D01*
X123077821Y-111217422D01*
X123008691Y-111185186D01*
X123005447Y-111183615D01*
X122937306Y-111149394D01*
X122918903Y-111142997D01*
X122844211Y-111127574D01*
X122840692Y-111126794D01*
X122766490Y-111109208D01*
X122747121Y-111107229D01*
X122670869Y-111109448D01*
X122667263Y-111109500D01*
X100372229Y-111109500D01*
X100305190Y-111089815D01*
X100284548Y-111073181D01*
X95548368Y-106337000D01*
X108009676Y-106337000D01*
X108028929Y-106557065D01*
X108086106Y-106770451D01*
X108166626Y-106943127D01*
X108179466Y-106970662D01*
X108306174Y-107151620D01*
X108462380Y-107307826D01*
X108643338Y-107434534D01*
X108843550Y-107527894D01*
X109056932Y-107585070D01*
X109203643Y-107597905D01*
X109276999Y-107604323D01*
X109276999Y-107604322D01*
X109277000Y-107604323D01*
X109325945Y-107600041D01*
X109497062Y-107585071D01*
X109497064Y-107585070D01*
X109497068Y-107585070D01*
X109513133Y-107580765D01*
X109582979Y-107582424D01*
X109632911Y-107612857D01*
X112489564Y-110469510D01*
X112502911Y-110486169D01*
X112555832Y-110535864D01*
X112558629Y-110538575D01*
X112578965Y-110558911D01*
X112582036Y-110561293D01*
X112582437Y-110561604D01*
X112591323Y-110569192D01*
X112624607Y-110600448D01*
X112635251Y-110606299D01*
X112643204Y-110610672D01*
X112659464Y-110621352D01*
X112676236Y-110634362D01*
X112718140Y-110652495D01*
X112728620Y-110657629D01*
X112768632Y-110679627D01*
X112789195Y-110684906D01*
X112807598Y-110691207D01*
X112827073Y-110699635D01*
X112872175Y-110706778D01*
X112883570Y-110709137D01*
X112927823Y-110720500D01*
X112949051Y-110720500D01*
X112968449Y-110722026D01*
X112989405Y-110725346D01*
X113034851Y-110721050D01*
X113046521Y-110720500D01*
X125483495Y-110720500D01*
X125504704Y-110722841D01*
X125507294Y-110722759D01*
X125507296Y-110722760D01*
X125577262Y-110720560D01*
X125581157Y-110720500D01*
X125606025Y-110720500D01*
X125609925Y-110720500D01*
X125614294Y-110719947D01*
X125625939Y-110719030D01*
X125671569Y-110717597D01*
X125691949Y-110711675D01*
X125710989Y-110707732D01*
X125732058Y-110705071D01*
X125774520Y-110688258D01*
X125785557Y-110684480D01*
X125829398Y-110671744D01*
X125847670Y-110660936D01*
X125865136Y-110652380D01*
X125884871Y-110644568D01*
X125921816Y-110617725D01*
X125931548Y-110611332D01*
X125970865Y-110588081D01*
X125985874Y-110573071D01*
X126000663Y-110560439D01*
X126017837Y-110547963D01*
X126046946Y-110512774D01*
X126054790Y-110504154D01*
X129535126Y-107023819D01*
X129596450Y-106990334D01*
X129622808Y-106987500D01*
X132289706Y-106987500D01*
X132356745Y-107007185D01*
X132391278Y-107040373D01*
X132469174Y-107151620D01*
X132625380Y-107307826D01*
X132806338Y-107434534D01*
X133006550Y-107527894D01*
X133219932Y-107585070D01*
X133440000Y-107604323D01*
X133660068Y-107585070D01*
X133873450Y-107527894D01*
X134073662Y-107434534D01*
X134254620Y-107307826D01*
X134410826Y-107151620D01*
X134537534Y-106970662D01*
X134595185Y-106847027D01*
X134597618Y-106841811D01*
X134643790Y-106789372D01*
X134710984Y-106770220D01*
X134777865Y-106790436D01*
X134822382Y-106841811D01*
X134869626Y-106943127D01*
X134882466Y-106970662D01*
X135009174Y-107151620D01*
X135165380Y-107307826D01*
X135346338Y-107434534D01*
X135546550Y-107527894D01*
X135759932Y-107585070D01*
X135980000Y-107604323D01*
X136200068Y-107585070D01*
X136413450Y-107527894D01*
X136613662Y-107434534D01*
X136794620Y-107307826D01*
X136950826Y-107151620D01*
X137077534Y-106970662D01*
X137135185Y-106847027D01*
X137137618Y-106841811D01*
X137183790Y-106789372D01*
X137250984Y-106770220D01*
X137317865Y-106790436D01*
X137362382Y-106841811D01*
X137409626Y-106943127D01*
X137422466Y-106970662D01*
X137549174Y-107151620D01*
X137705380Y-107307826D01*
X137886338Y-107434534D01*
X138086550Y-107527894D01*
X138299932Y-107585070D01*
X138520000Y-107604323D01*
X138740068Y-107585070D01*
X138953450Y-107527894D01*
X139153662Y-107434534D01*
X139334620Y-107307826D01*
X139490826Y-107151620D01*
X139617534Y-106970662D01*
X139677618Y-106841810D01*
X139723789Y-106789372D01*
X139790982Y-106770220D01*
X139857863Y-106790435D01*
X139902381Y-106841811D01*
X139949626Y-106943127D01*
X139962466Y-106970662D01*
X140089174Y-107151620D01*
X140245380Y-107307826D01*
X140426338Y-107434534D01*
X140626550Y-107527894D01*
X140839932Y-107585070D01*
X140986644Y-107597905D01*
X141059999Y-107604323D01*
X141059999Y-107604322D01*
X141060000Y-107604323D01*
X141280068Y-107585070D01*
X141493450Y-107527894D01*
X141693662Y-107434534D01*
X141874620Y-107307826D01*
X142030826Y-107151620D01*
X142157534Y-106970662D01*
X142215185Y-106847027D01*
X142217618Y-106841811D01*
X142263790Y-106789372D01*
X142330984Y-106770220D01*
X142397865Y-106790436D01*
X142442382Y-106841811D01*
X142489626Y-106943127D01*
X142502466Y-106970662D01*
X142629174Y-107151620D01*
X142785380Y-107307826D01*
X142966338Y-107434534D01*
X143166550Y-107527894D01*
X143379932Y-107585070D01*
X143600000Y-107604323D01*
X143820068Y-107585070D01*
X144033450Y-107527894D01*
X144233662Y-107434534D01*
X144414620Y-107307826D01*
X144570826Y-107151620D01*
X144697534Y-106970662D01*
X144790894Y-106770450D01*
X144848070Y-106557068D01*
X144867323Y-106337000D01*
X144848070Y-106116932D01*
X144790894Y-105903550D01*
X144697534Y-105703339D01*
X144570826Y-105522380D01*
X144414620Y-105366174D01*
X144233662Y-105239466D01*
X144233661Y-105239466D01*
X144033451Y-105146106D01*
X143820065Y-105088929D01*
X143600000Y-105069676D01*
X143379934Y-105088929D01*
X143166548Y-105146106D01*
X142966338Y-105239466D01*
X142785379Y-105366174D01*
X142629174Y-105522379D01*
X142502466Y-105703338D01*
X142442382Y-105832189D01*
X142396209Y-105884628D01*
X142329016Y-105903780D01*
X142262135Y-105883564D01*
X142217618Y-105832189D01*
X142197600Y-105789260D01*
X142157534Y-105703339D01*
X142030826Y-105522380D01*
X141874620Y-105366174D01*
X141693662Y-105239466D01*
X141693661Y-105239466D01*
X141493451Y-105146106D01*
X141280065Y-105088929D01*
X141060000Y-105069676D01*
X140839934Y-105088929D01*
X140626548Y-105146106D01*
X140426338Y-105239466D01*
X140245379Y-105366174D01*
X140089174Y-105522379D01*
X139962466Y-105703338D01*
X139902382Y-105832189D01*
X139856209Y-105884628D01*
X139789016Y-105903780D01*
X139722135Y-105883564D01*
X139677618Y-105832189D01*
X139657600Y-105789260D01*
X139617534Y-105703339D01*
X139490826Y-105522380D01*
X139334620Y-105366174D01*
X139153662Y-105239466D01*
X139153661Y-105239466D01*
X138953451Y-105146106D01*
X138740065Y-105088929D01*
X138520000Y-105069676D01*
X138299934Y-105088929D01*
X138086548Y-105146106D01*
X137886338Y-105239466D01*
X137705379Y-105366174D01*
X137549174Y-105522379D01*
X137422466Y-105703338D01*
X137362382Y-105832189D01*
X137316209Y-105884628D01*
X137249016Y-105903780D01*
X137182135Y-105883564D01*
X137137618Y-105832189D01*
X137117600Y-105789260D01*
X137077534Y-105703339D01*
X136950826Y-105522380D01*
X136794620Y-105366174D01*
X136613662Y-105239466D01*
X136613661Y-105239466D01*
X136413451Y-105146106D01*
X136200065Y-105088929D01*
X135979999Y-105069676D01*
X135759934Y-105088929D01*
X135546548Y-105146106D01*
X135346338Y-105239466D01*
X135165379Y-105366174D01*
X135009174Y-105522379D01*
X134882466Y-105703338D01*
X134822382Y-105832189D01*
X134776209Y-105884628D01*
X134709016Y-105903780D01*
X134642135Y-105883564D01*
X134597618Y-105832189D01*
X134577600Y-105789260D01*
X134537534Y-105703339D01*
X134410826Y-105522380D01*
X134254620Y-105366174D01*
X134073662Y-105239466D01*
X134073661Y-105239466D01*
X133873451Y-105146106D01*
X133660065Y-105088929D01*
X133440000Y-105069676D01*
X133219934Y-105088929D01*
X133006548Y-105146106D01*
X132806338Y-105239466D01*
X132625378Y-105366175D01*
X132469173Y-105522379D01*
X132391281Y-105633623D01*
X132336705Y-105677248D01*
X132289706Y-105686500D01*
X129387504Y-105686500D01*
X129366294Y-105684158D01*
X129293737Y-105686439D01*
X129289842Y-105686500D01*
X129261075Y-105686500D01*
X129257213Y-105686987D01*
X129257192Y-105686989D01*
X129256681Y-105687054D01*
X129245059Y-105687968D01*
X129199430Y-105689402D01*
X129179051Y-105695323D01*
X129160007Y-105699267D01*
X129145639Y-105701082D01*
X129138941Y-105701929D01*
X129096490Y-105718736D01*
X129085443Y-105722518D01*
X129041598Y-105735256D01*
X129023330Y-105746060D01*
X129005864Y-105754617D01*
X128986129Y-105762431D01*
X128949202Y-105789260D01*
X128939442Y-105795671D01*
X128900136Y-105818917D01*
X128885125Y-105833928D01*
X128870336Y-105846558D01*
X128853164Y-105859034D01*
X128824057Y-105894218D01*
X128816196Y-105902856D01*
X125335873Y-109383181D01*
X125274550Y-109416666D01*
X125248192Y-109419500D01*
X113330808Y-109419500D01*
X113263769Y-109399815D01*
X113243127Y-109383181D01*
X111671352Y-107811406D01*
X111637867Y-107750083D01*
X111642851Y-107680391D01*
X111684723Y-107624458D01*
X111750187Y-107600041D01*
X111769838Y-107600196D01*
X111817000Y-107604323D01*
X111817000Y-107604322D01*
X111817001Y-107604323D01*
X111872017Y-107599509D01*
X112037068Y-107585070D01*
X112250450Y-107527894D01*
X112450662Y-107434534D01*
X112631620Y-107307826D01*
X112787826Y-107151620D01*
X112914534Y-106970662D01*
X112974618Y-106841810D01*
X113020789Y-106789372D01*
X113087982Y-106770220D01*
X113154863Y-106790435D01*
X113199381Y-106841811D01*
X113246626Y-106943127D01*
X113259466Y-106970662D01*
X113386174Y-107151620D01*
X113542380Y-107307826D01*
X113723338Y-107434534D01*
X113923550Y-107527894D01*
X114136932Y-107585070D01*
X114357000Y-107604323D01*
X114577068Y-107585070D01*
X114790450Y-107527894D01*
X114990662Y-107434534D01*
X115171620Y-107307826D01*
X115327826Y-107151620D01*
X115454534Y-106970662D01*
X115512185Y-106847027D01*
X115514618Y-106841811D01*
X115560790Y-106789372D01*
X115627984Y-106770220D01*
X115694865Y-106790436D01*
X115739382Y-106841811D01*
X115786626Y-106943127D01*
X115799466Y-106970662D01*
X115926174Y-107151620D01*
X116082380Y-107307826D01*
X116263338Y-107434534D01*
X116463550Y-107527894D01*
X116676932Y-107585070D01*
X116823644Y-107597905D01*
X116896999Y-107604323D01*
X116896999Y-107604322D01*
X116897000Y-107604323D01*
X117117068Y-107585070D01*
X117330450Y-107527894D01*
X117530662Y-107434534D01*
X117711620Y-107307826D01*
X117867826Y-107151620D01*
X117994534Y-106970662D01*
X118054618Y-106841810D01*
X118100789Y-106789372D01*
X118167982Y-106770220D01*
X118234863Y-106790435D01*
X118279381Y-106841811D01*
X118326626Y-106943127D01*
X118339466Y-106970662D01*
X118466174Y-107151620D01*
X118622380Y-107307826D01*
X118803338Y-107434534D01*
X119003550Y-107527894D01*
X119216932Y-107585070D01*
X119363643Y-107597905D01*
X119436999Y-107604323D01*
X119436999Y-107604322D01*
X119437000Y-107604323D01*
X119657068Y-107585070D01*
X119870450Y-107527894D01*
X120070662Y-107434534D01*
X120251620Y-107307826D01*
X120407826Y-107151620D01*
X120534534Y-106970662D01*
X120627894Y-106770450D01*
X120685070Y-106557068D01*
X120704323Y-106337000D01*
X120685070Y-106116932D01*
X120627894Y-105903550D01*
X120534534Y-105703339D01*
X120407826Y-105522380D01*
X120251620Y-105366174D01*
X120070662Y-105239466D01*
X120070661Y-105239466D01*
X119870451Y-105146106D01*
X119657065Y-105088929D01*
X119437000Y-105069676D01*
X119216934Y-105088929D01*
X119003548Y-105146106D01*
X118803338Y-105239466D01*
X118622379Y-105366174D01*
X118466174Y-105522379D01*
X118339466Y-105703338D01*
X118279382Y-105832189D01*
X118233209Y-105884628D01*
X118166016Y-105903780D01*
X118099135Y-105883564D01*
X118054618Y-105832189D01*
X118034600Y-105789260D01*
X117994534Y-105703339D01*
X117867826Y-105522380D01*
X117711620Y-105366174D01*
X117530662Y-105239466D01*
X117530661Y-105239466D01*
X117330451Y-105146106D01*
X117117065Y-105088929D01*
X116897000Y-105069676D01*
X116676934Y-105088929D01*
X116463548Y-105146106D01*
X116263338Y-105239466D01*
X116082379Y-105366174D01*
X115926174Y-105522379D01*
X115799466Y-105703338D01*
X115739382Y-105832189D01*
X115693209Y-105884628D01*
X115626016Y-105903780D01*
X115559135Y-105883564D01*
X115514618Y-105832189D01*
X115494600Y-105789260D01*
X115454534Y-105703339D01*
X115327826Y-105522380D01*
X115171620Y-105366174D01*
X114990662Y-105239466D01*
X114990661Y-105239466D01*
X114790451Y-105146106D01*
X114577065Y-105088929D01*
X114356999Y-105069676D01*
X114136934Y-105088929D01*
X113923548Y-105146106D01*
X113723338Y-105239466D01*
X113542379Y-105366174D01*
X113386174Y-105522379D01*
X113259466Y-105703338D01*
X113199382Y-105832189D01*
X113153209Y-105884628D01*
X113086016Y-105903780D01*
X113019135Y-105883564D01*
X112974618Y-105832189D01*
X112954600Y-105789260D01*
X112914534Y-105703339D01*
X112787826Y-105522380D01*
X112631620Y-105366174D01*
X112450662Y-105239466D01*
X112450661Y-105239466D01*
X112250451Y-105146106D01*
X112037065Y-105088929D01*
X111816999Y-105069676D01*
X111596934Y-105088929D01*
X111383548Y-105146106D01*
X111183338Y-105239466D01*
X111002379Y-105366174D01*
X110846174Y-105522379D01*
X110719466Y-105703338D01*
X110659382Y-105832189D01*
X110613209Y-105884628D01*
X110546016Y-105903780D01*
X110479135Y-105883564D01*
X110434618Y-105832189D01*
X110414600Y-105789260D01*
X110374534Y-105703339D01*
X110247826Y-105522380D01*
X110091620Y-105366174D01*
X109910662Y-105239466D01*
X109910661Y-105239466D01*
X109710451Y-105146106D01*
X109497065Y-105088929D01*
X109277000Y-105069676D01*
X109056934Y-105088929D01*
X108843548Y-105146106D01*
X108643338Y-105239466D01*
X108462379Y-105366174D01*
X108306174Y-105522379D01*
X108179466Y-105703338D01*
X108086106Y-105903548D01*
X108028929Y-106116934D01*
X108009676Y-106337000D01*
X95548368Y-106337000D01*
X92876819Y-103665451D01*
X92843334Y-103604128D01*
X92840500Y-103577770D01*
X92840500Y-103416290D01*
X92840499Y-92428466D01*
X92860184Y-92361427D01*
X92890188Y-92329199D01*
X92924122Y-92303796D01*
X92972546Y-92267546D01*
X93058796Y-92152331D01*
X93109091Y-92017483D01*
X93115500Y-91957873D01*
X93115499Y-90362128D01*
X93109091Y-90302517D01*
X93058796Y-90167669D01*
X92972546Y-90052454D01*
X92857331Y-89966204D01*
X92722483Y-89915909D01*
X92662873Y-89909500D01*
X92659550Y-89909500D01*
X91520439Y-89909500D01*
X91520420Y-89909500D01*
X91517128Y-89909501D01*
X91513848Y-89909853D01*
X91513840Y-89909854D01*
X91457515Y-89915909D01*
X91305964Y-89972434D01*
X91305587Y-89971424D01*
X91260257Y-89988329D01*
X91215424Y-89983305D01*
X91021031Y-89924337D01*
X90841962Y-89906701D01*
X90820000Y-89904538D01*
X90819999Y-89904538D01*
X90618968Y-89924337D01*
X90425656Y-89982978D01*
X90243453Y-90080368D01*
X90175050Y-90094610D01*
X90126547Y-90080368D01*
X89944343Y-89982978D01*
X89944342Y-89982977D01*
X89944341Y-89982977D01*
X89847687Y-89953657D01*
X89751031Y-89924337D01*
X89550000Y-89904538D01*
X89348968Y-89924337D01*
X89155656Y-89982978D01*
X88977507Y-90078201D01*
X88821352Y-90206352D01*
X88693201Y-90362507D01*
X88597978Y-90540656D01*
X88539337Y-90733968D01*
X88524798Y-90881585D01*
X88524797Y-90881603D01*
X88524500Y-90884620D01*
X88524500Y-91435380D01*
X88524797Y-91438397D01*
X88524798Y-91438414D01*
X88539337Y-91586031D01*
X88539338Y-91586033D01*
X88597977Y-91779341D01*
X88693202Y-91957494D01*
X88696216Y-91961166D01*
X88821352Y-92113647D01*
X88896586Y-92175389D01*
X88977506Y-92241798D01*
X89155659Y-92337023D01*
X89348967Y-92395662D01*
X89550000Y-92415462D01*
X89751033Y-92395662D01*
X89944341Y-92337023D01*
X90122494Y-92241798D01*
X90122496Y-92241796D01*
X90126547Y-92239631D01*
X90194949Y-92225389D01*
X90243453Y-92239631D01*
X90247503Y-92241796D01*
X90247506Y-92241798D01*
X90425659Y-92337023D01*
X90618967Y-92395662D01*
X90820000Y-92415462D01*
X91021033Y-92395662D01*
X91179506Y-92347589D01*
X91249371Y-92346966D01*
X91308484Y-92384214D01*
X91338075Y-92447508D01*
X91339500Y-92466250D01*
X91339500Y-103876294D01*
X91338191Y-103894264D01*
X91334711Y-103918023D01*
X91339028Y-103967368D01*
X91339500Y-103978175D01*
X91339500Y-110437769D01*
X91319815Y-110504808D01*
X91303181Y-110525450D01*
X89991500Y-111837130D01*
X89930177Y-111870615D01*
X89893011Y-111872977D01*
X89679999Y-111854340D01*
X89444592Y-111874936D01*
X89216336Y-111936097D01*
X89002170Y-112035965D01*
X88808598Y-112171505D01*
X88641505Y-112338598D01*
X88505965Y-112532170D01*
X88406097Y-112746336D01*
X88344936Y-112974592D01*
X88324340Y-113209999D01*
X81680500Y-113209999D01*
X81680500Y-67627999D01*
X98404531Y-67627999D01*
X98424364Y-67854689D01*
X98483261Y-68074497D01*
X98579432Y-68280735D01*
X98709953Y-68467140D01*
X98870859Y-68628046D01*
X99057264Y-68758567D01*
X99057265Y-68758567D01*
X99057266Y-68758568D01*
X99263504Y-68854739D01*
X99483308Y-68913635D01*
X99710000Y-68933468D01*
X99936692Y-68913635D01*
X100156496Y-68854739D01*
X100362734Y-68758568D01*
X100549139Y-68628047D01*
X100710047Y-68467139D01*
X100840568Y-68280734D01*
X100867618Y-68222724D01*
X100913790Y-68170285D01*
X100980983Y-68151133D01*
X101047865Y-68171348D01*
X101092382Y-68222725D01*
X101119431Y-68280733D01*
X101249953Y-68467140D01*
X101410859Y-68628046D01*
X101597264Y-68758567D01*
X101597265Y-68758567D01*
X101597266Y-68758568D01*
X101803504Y-68854739D01*
X102023308Y-68913635D01*
X102174436Y-68926856D01*
X102249999Y-68933468D01*
X102249999Y-68933467D01*
X102250000Y-68933468D01*
X102476692Y-68913635D01*
X102696496Y-68854739D01*
X102902734Y-68758568D01*
X103089139Y-68628047D01*
X103250047Y-68467139D01*
X103380568Y-68280734D01*
X103407618Y-68222724D01*
X103453790Y-68170285D01*
X103520983Y-68151133D01*
X103587865Y-68171348D01*
X103632382Y-68222725D01*
X103659431Y-68280733D01*
X103789953Y-68467140D01*
X103950859Y-68628046D01*
X104137264Y-68758567D01*
X104137265Y-68758567D01*
X104137266Y-68758568D01*
X104343504Y-68854739D01*
X104563308Y-68913635D01*
X104714436Y-68926856D01*
X104789999Y-68933468D01*
X104789999Y-68933467D01*
X104790000Y-68933468D01*
X105016692Y-68913635D01*
X105236496Y-68854739D01*
X105442734Y-68758568D01*
X105629139Y-68628047D01*
X105790047Y-68467139D01*
X105920568Y-68280734D01*
X105947618Y-68222724D01*
X105993790Y-68170285D01*
X106060983Y-68151133D01*
X106127865Y-68171348D01*
X106172382Y-68222725D01*
X106199431Y-68280733D01*
X106329953Y-68467140D01*
X106490859Y-68628046D01*
X106677264Y-68758567D01*
X106677265Y-68758567D01*
X106677266Y-68758568D01*
X106883504Y-68854739D01*
X107103308Y-68913635D01*
X107330000Y-68933468D01*
X107556692Y-68913635D01*
X107776496Y-68854739D01*
X107982734Y-68758568D01*
X108169139Y-68628047D01*
X108330047Y-68467139D01*
X108460568Y-68280734D01*
X108487618Y-68222724D01*
X108533790Y-68170285D01*
X108600983Y-68151133D01*
X108667865Y-68171348D01*
X108712382Y-68222725D01*
X108739431Y-68280733D01*
X108869953Y-68467140D01*
X109030859Y-68628046D01*
X109217264Y-68758567D01*
X109217265Y-68758567D01*
X109217266Y-68758568D01*
X109423504Y-68854739D01*
X109643308Y-68913635D01*
X109870000Y-68933468D01*
X110096692Y-68913635D01*
X110316496Y-68854739D01*
X110522734Y-68758568D01*
X110709139Y-68628047D01*
X110870047Y-68467139D01*
X111000568Y-68280734D01*
X111027618Y-68222724D01*
X111073790Y-68170285D01*
X111140983Y-68151133D01*
X111207865Y-68171348D01*
X111252382Y-68222725D01*
X111279431Y-68280733D01*
X111409953Y-68467140D01*
X111570859Y-68628046D01*
X111757264Y-68758567D01*
X111757265Y-68758567D01*
X111757266Y-68758568D01*
X111963504Y-68854739D01*
X112183308Y-68913635D01*
X112410000Y-68933468D01*
X112415352Y-68932999D01*
X112483849Y-68946762D01*
X112534035Y-68995375D01*
X112549972Y-69063403D01*
X112526601Y-69129247D01*
X112513844Y-69144208D01*
X109084873Y-72573181D01*
X109023550Y-72606666D01*
X108997192Y-72609500D01*
X107305505Y-72609500D01*
X107284294Y-72607158D01*
X107211724Y-72609439D01*
X107207829Y-72609500D01*
X107179075Y-72609500D01*
X107175212Y-72609987D01*
X107175193Y-72609989D01*
X107174691Y-72610053D01*
X107163069Y-72610967D01*
X107117428Y-72612401D01*
X107097041Y-72618324D01*
X107077998Y-72622268D01*
X107056942Y-72624928D01*
X107014496Y-72641733D01*
X107003450Y-72645514D01*
X106959602Y-72658254D01*
X106941324Y-72669063D01*
X106923861Y-72677618D01*
X106904130Y-72685431D01*
X106867187Y-72712270D01*
X106857428Y-72718680D01*
X106818135Y-72741918D01*
X106803125Y-72756928D01*
X106788336Y-72769558D01*
X106771164Y-72782034D01*
X106742057Y-72817218D01*
X106734196Y-72825856D01*
X106190484Y-73369568D01*
X106173831Y-73382910D01*
X106124133Y-73435833D01*
X106121428Y-73438625D01*
X106101089Y-73458965D01*
X106098713Y-73462027D01*
X106098702Y-73462040D01*
X106098378Y-73462459D01*
X106090806Y-73471323D01*
X106059550Y-73504607D01*
X106049322Y-73523212D01*
X106038645Y-73539467D01*
X106025636Y-73556238D01*
X106007506Y-73598132D01*
X106002370Y-73608616D01*
X105980372Y-73648632D01*
X105975091Y-73669199D01*
X105968791Y-73687600D01*
X105960364Y-73707073D01*
X105953223Y-73752162D01*
X105950857Y-73763589D01*
X105939500Y-73807823D01*
X105939499Y-73807825D01*
X105939500Y-73807825D01*
X105939499Y-73829049D01*
X105937973Y-73848435D01*
X105934652Y-73869402D01*
X105938950Y-73914858D01*
X105939500Y-73926528D01*
X105939500Y-75534494D01*
X105937158Y-75555702D01*
X105939439Y-75628262D01*
X105939500Y-75632157D01*
X105939500Y-75660925D01*
X105939987Y-75664785D01*
X105939989Y-75664808D01*
X105940054Y-75665320D01*
X105940968Y-75676942D01*
X105942402Y-75722569D01*
X105948323Y-75742950D01*
X105952267Y-75761995D01*
X105954928Y-75783059D01*
X105971737Y-75825515D01*
X105975520Y-75836563D01*
X105988256Y-75880400D01*
X105999061Y-75898670D01*
X106007621Y-75916143D01*
X106015431Y-75935869D01*
X106042267Y-75972808D01*
X106048673Y-75982560D01*
X106071919Y-76021865D01*
X106071921Y-76021867D01*
X106086925Y-76036871D01*
X106099564Y-76051669D01*
X106112037Y-76068837D01*
X106147212Y-76097936D01*
X106155854Y-76105800D01*
X110519564Y-80469510D01*
X110532911Y-80486169D01*
X110585832Y-80535864D01*
X110588629Y-80538575D01*
X110608965Y-80558911D01*
X110612036Y-80561293D01*
X110612437Y-80561604D01*
X110621323Y-80569192D01*
X110654607Y-80600448D01*
X110665251Y-80606299D01*
X110673204Y-80610672D01*
X110689464Y-80621352D01*
X110706236Y-80634362D01*
X110748140Y-80652495D01*
X110758620Y-80657629D01*
X110798632Y-80679627D01*
X110819195Y-80684906D01*
X110837598Y-80691207D01*
X110857073Y-80699635D01*
X110902175Y-80706778D01*
X110913570Y-80709137D01*
X110957823Y-80720500D01*
X110979051Y-80720500D01*
X110998449Y-80722026D01*
X111019405Y-80725346D01*
X111064851Y-80721050D01*
X111076521Y-80720500D01*
X120449192Y-80720500D01*
X120516231Y-80740185D01*
X120536873Y-80756819D01*
X146723181Y-106943127D01*
X146756666Y-107004450D01*
X146759500Y-107030808D01*
X146759500Y-117154494D01*
X146757158Y-117175702D01*
X146759439Y-117248262D01*
X146759500Y-117252157D01*
X146759500Y-117280925D01*
X146759987Y-117284785D01*
X146759989Y-117284808D01*
X146760054Y-117285320D01*
X146760968Y-117296942D01*
X146762402Y-117342569D01*
X146768323Y-117362950D01*
X146772267Y-117381995D01*
X146774928Y-117403059D01*
X146791737Y-117445515D01*
X146795520Y-117456563D01*
X146808256Y-117500400D01*
X146819061Y-117518670D01*
X146827621Y-117536143D01*
X146835431Y-117555869D01*
X146862267Y-117592808D01*
X146868673Y-117602560D01*
X146891919Y-117641865D01*
X146891921Y-117641867D01*
X146906925Y-117656871D01*
X146919564Y-117671669D01*
X146932037Y-117688837D01*
X146967212Y-117717936D01*
X146975854Y-117725800D01*
X154799181Y-125549126D01*
X154832666Y-125610449D01*
X154835500Y-125636807D01*
X154835500Y-128092278D01*
X154815815Y-128159317D01*
X154782624Y-128193853D01*
X154614595Y-128311508D01*
X154447505Y-128478598D01*
X154317575Y-128664159D01*
X154262998Y-128707784D01*
X154193500Y-128714978D01*
X154131145Y-128683455D01*
X154114425Y-128664159D01*
X153984494Y-128478598D01*
X153817404Y-128311508D01*
X153817401Y-128311505D01*
X153623830Y-128175965D01*
X153409663Y-128076097D01*
X153348501Y-128059709D01*
X153181407Y-128014936D01*
X152945999Y-127994340D01*
X152710592Y-128014936D01*
X152482336Y-128076097D01*
X152268170Y-128175965D01*
X152074598Y-128311505D01*
X151907505Y-128478598D01*
X151777575Y-128664159D01*
X151722998Y-128707784D01*
X151653500Y-128714978D01*
X151591145Y-128683455D01*
X151574425Y-128664159D01*
X151444494Y-128478598D01*
X151277404Y-128311508D01*
X151277403Y-128311508D01*
X151277401Y-128311505D01*
X151083830Y-128175965D01*
X150869663Y-128076097D01*
X150808501Y-128059709D01*
X150641407Y-128014936D01*
X150406000Y-127994340D01*
X150170592Y-128014936D01*
X149942336Y-128076097D01*
X149728170Y-128175965D01*
X149534598Y-128311505D01*
X149367508Y-128478595D01*
X149237269Y-128664596D01*
X149182692Y-128708220D01*
X149113193Y-128715413D01*
X149050839Y-128683891D01*
X149034119Y-128664595D01*
X148904109Y-128478921D01*
X148737081Y-128311893D01*
X148543576Y-128176399D01*
X148329492Y-128076569D01*
X148116000Y-128019364D01*
X148116000Y-128914498D01*
X148008315Y-128865320D01*
X147901763Y-128850000D01*
X147830237Y-128850000D01*
X147723685Y-128865320D01*
X147616000Y-128914498D01*
X147616000Y-128019364D01*
X147615999Y-128019364D01*
X147402507Y-128076569D01*
X147188421Y-128176400D01*
X146994921Y-128311890D01*
X146827890Y-128478921D01*
X146692400Y-128672421D01*
X146592569Y-128886507D01*
X146535364Y-129099999D01*
X146535364Y-129100000D01*
X147432314Y-129100000D01*
X147406507Y-129140156D01*
X147366000Y-129278111D01*
X147366000Y-129421889D01*
X147406507Y-129559844D01*
X147432314Y-129600000D01*
X146535364Y-129600000D01*
X146592569Y-129813492D01*
X146692399Y-130027576D01*
X146827893Y-130221081D01*
X146994918Y-130388106D01*
X147188423Y-130523600D01*
X147402509Y-130623430D01*
X147616000Y-130680634D01*
X147616000Y-129785501D01*
X147723685Y-129834680D01*
X147830237Y-129850000D01*
X147901763Y-129850000D01*
X148008315Y-129834680D01*
X148116000Y-129785501D01*
X148116000Y-130680633D01*
X148329490Y-130623430D01*
X148543576Y-130523600D01*
X148737081Y-130388106D01*
X148904109Y-130221078D01*
X149034119Y-130035405D01*
X149088696Y-129991780D01*
X149158194Y-129984586D01*
X149220549Y-130016109D01*
X149237265Y-130035400D01*
X149367505Y-130221401D01*
X149534599Y-130388495D01*
X149728170Y-130524035D01*
X149942337Y-130623903D01*
X150170592Y-130685063D01*
X150406000Y-130705659D01*
X150641408Y-130685063D01*
X150869663Y-130623903D01*
X151083830Y-130524035D01*
X151277401Y-130388495D01*
X151444495Y-130221401D01*
X151574426Y-130035839D01*
X151629002Y-129992217D01*
X151698501Y-129985024D01*
X151760855Y-130016546D01*
X151777571Y-130035837D01*
X151907505Y-130221401D01*
X152074599Y-130388495D01*
X152268170Y-130524035D01*
X152482337Y-130623903D01*
X152694059Y-130680633D01*
X152710592Y-130685063D01*
X152945999Y-130705659D01*
X152945999Y-130705658D01*
X152946000Y-130705659D01*
X153181408Y-130685063D01*
X153409663Y-130623903D01*
X153623830Y-130524035D01*
X153817401Y-130388495D01*
X153984495Y-130221401D01*
X154114426Y-130035839D01*
X154169002Y-129992216D01*
X154238500Y-129985022D01*
X154300855Y-130016545D01*
X154317571Y-130035837D01*
X154447505Y-130221401D01*
X154614599Y-130388495D01*
X154808170Y-130524035D01*
X155022337Y-130623903D01*
X155234059Y-130680633D01*
X155250592Y-130685063D01*
X155485999Y-130705659D01*
X155485999Y-130705658D01*
X155486000Y-130705659D01*
X155721408Y-130685063D01*
X155949663Y-130623903D01*
X156163830Y-130524035D01*
X156357401Y-130388495D01*
X156479329Y-130266566D01*
X156540648Y-130233084D01*
X156610340Y-130238068D01*
X156666274Y-130279939D01*
X156683189Y-130310916D01*
X156709291Y-130380898D01*
X156732204Y-130442331D01*
X156818454Y-130557546D01*
X156933669Y-130643796D01*
X157068517Y-130694091D01*
X157128127Y-130700500D01*
X158923872Y-130700499D01*
X158983483Y-130694091D01*
X159118331Y-130643796D01*
X159233546Y-130557546D01*
X159319796Y-130442331D01*
X159370091Y-130307483D01*
X159376500Y-130247873D01*
X159376499Y-128452128D01*
X159370091Y-128392517D01*
X159319796Y-128257669D01*
X159233546Y-128142454D01*
X159118331Y-128056204D01*
X158983483Y-128005909D01*
X158923873Y-127999500D01*
X158920551Y-127999500D01*
X158800500Y-127999500D01*
X158733461Y-127979815D01*
X158687706Y-127927011D01*
X158676500Y-127875500D01*
X158676500Y-126361502D01*
X158678841Y-126340299D01*
X158678759Y-126337705D01*
X158678760Y-126337703D01*
X158676561Y-126267736D01*
X158676500Y-126263841D01*
X158676500Y-126238976D01*
X158676500Y-126235075D01*
X158675948Y-126230709D01*
X158675030Y-126219055D01*
X158673597Y-126173431D01*
X158667675Y-126153048D01*
X158663732Y-126134011D01*
X158661071Y-126112942D01*
X158644264Y-126070492D01*
X158640483Y-126059448D01*
X158627745Y-126015604D01*
X158627744Y-126015603D01*
X158627744Y-126015601D01*
X158616934Y-125997322D01*
X158608380Y-125979862D01*
X158600568Y-125960129D01*
X158573723Y-125923180D01*
X158567332Y-125913451D01*
X158544081Y-125874135D01*
X158529068Y-125859122D01*
X158516435Y-125844330D01*
X158503963Y-125827163D01*
X158468779Y-125798056D01*
X158460140Y-125790194D01*
X149276819Y-116606872D01*
X149243334Y-116545549D01*
X149240500Y-116519191D01*
X149240500Y-91904578D01*
X164964500Y-91904578D01*
X164964501Y-91907872D01*
X164970909Y-91967483D01*
X165021204Y-92102331D01*
X165107454Y-92217546D01*
X165222669Y-92303796D01*
X165357517Y-92354091D01*
X165417127Y-92360500D01*
X166562872Y-92360499D01*
X166622483Y-92354091D01*
X166757331Y-92303796D01*
X166757331Y-92303795D01*
X166774037Y-92297565D01*
X166774413Y-92298574D01*
X166819725Y-92281671D01*
X166864576Y-92286693D01*
X166865652Y-92287019D01*
X166865659Y-92287023D01*
X167058967Y-92345662D01*
X167260000Y-92365462D01*
X167461033Y-92345662D01*
X167654341Y-92287023D01*
X167832494Y-92191798D01*
X167832496Y-92191796D01*
X167836547Y-92189631D01*
X167904949Y-92175389D01*
X167953453Y-92189631D01*
X167957503Y-92191796D01*
X167957506Y-92191798D01*
X168135659Y-92287023D01*
X168328967Y-92345662D01*
X168530000Y-92365462D01*
X168731033Y-92345662D01*
X168924341Y-92287023D01*
X169102494Y-92191798D01*
X169258647Y-92063647D01*
X169386798Y-91907494D01*
X169482023Y-91729341D01*
X169540662Y-91536033D01*
X169555500Y-91385380D01*
X169555500Y-90834620D01*
X169540662Y-90683967D01*
X169482023Y-90490659D01*
X169386798Y-90312506D01*
X169267934Y-90167669D01*
X169258647Y-90156352D01*
X169105133Y-90030368D01*
X169102494Y-90028202D01*
X168924341Y-89932977D01*
X168827686Y-89903657D01*
X168731031Y-89874337D01*
X168530000Y-89854538D01*
X168328968Y-89874337D01*
X168135656Y-89932978D01*
X167953453Y-90030368D01*
X167885050Y-90044610D01*
X167836547Y-90030368D01*
X167654343Y-89932978D01*
X167654342Y-89932977D01*
X167654341Y-89932977D01*
X167557686Y-89903657D01*
X167461031Y-89874337D01*
X167281962Y-89856701D01*
X167260000Y-89854538D01*
X167259999Y-89854538D01*
X167058968Y-89874337D01*
X166864574Y-89933306D01*
X166794707Y-89933929D01*
X166763698Y-89918579D01*
X166757331Y-89916204D01*
X166622483Y-89865909D01*
X166562873Y-89859500D01*
X166559550Y-89859500D01*
X165420439Y-89859500D01*
X165420420Y-89859500D01*
X165417128Y-89859501D01*
X165413848Y-89859853D01*
X165413840Y-89859854D01*
X165357515Y-89865909D01*
X165222669Y-89916204D01*
X165107454Y-90002454D01*
X165021204Y-90117668D01*
X165006776Y-90156353D01*
X164970909Y-90252517D01*
X164964500Y-90312127D01*
X164964500Y-90315448D01*
X164964500Y-90315449D01*
X164964500Y-91904560D01*
X164964500Y-91904578D01*
X149240500Y-91904578D01*
X149240500Y-77070503D01*
X149242841Y-77049300D01*
X149242759Y-77046706D01*
X149242760Y-77046704D01*
X149240561Y-76976722D01*
X149240500Y-76972828D01*
X149240500Y-76947977D01*
X149240500Y-76947976D01*
X149240500Y-76944075D01*
X149239948Y-76939712D01*
X149239031Y-76928063D01*
X149237598Y-76882431D01*
X149231677Y-76862051D01*
X149227730Y-76843001D01*
X149225071Y-76821942D01*
X149208264Y-76779493D01*
X149204481Y-76768445D01*
X149191744Y-76724602D01*
X149180937Y-76706329D01*
X149172382Y-76688866D01*
X149164568Y-76669129D01*
X149137733Y-76632193D01*
X149131325Y-76622436D01*
X149108084Y-76583138D01*
X149105711Y-76580765D01*
X149093068Y-76568122D01*
X149080435Y-76553330D01*
X149067963Y-76536163D01*
X149032779Y-76507056D01*
X149024140Y-76499194D01*
X142902434Y-70377488D01*
X142889091Y-70360833D01*
X142836166Y-70311134D01*
X142833369Y-70308423D01*
X142815789Y-70290843D01*
X142813035Y-70288089D01*
X142809956Y-70285701D01*
X142809951Y-70285696D01*
X142809548Y-70285383D01*
X142800669Y-70277800D01*
X142767392Y-70246551D01*
X142748793Y-70236326D01*
X142732532Y-70225645D01*
X142715764Y-70212638D01*
X142673870Y-70194508D01*
X142663379Y-70189369D01*
X142623367Y-70167372D01*
X142602800Y-70162091D01*
X142584398Y-70155791D01*
X142564924Y-70147364D01*
X142519837Y-70140223D01*
X142508398Y-70137854D01*
X142464178Y-70126500D01*
X142464177Y-70126500D01*
X142442955Y-70126500D01*
X142423556Y-70124973D01*
X142402596Y-70121653D01*
X142402595Y-70121653D01*
X142380558Y-70123736D01*
X142357139Y-70125950D01*
X142345470Y-70126500D01*
X135179808Y-70126500D01*
X135112769Y-70106815D01*
X135092127Y-70090181D01*
X134146154Y-69144208D01*
X134112669Y-69082885D01*
X134117653Y-69013193D01*
X134159525Y-68957260D01*
X134224989Y-68932843D01*
X134244638Y-68932998D01*
X134250000Y-68933468D01*
X134476692Y-68913635D01*
X134696496Y-68854739D01*
X134902734Y-68758568D01*
X135089139Y-68628047D01*
X135250047Y-68467139D01*
X135380568Y-68280734D01*
X135407618Y-68222724D01*
X135453790Y-68170285D01*
X135520983Y-68151133D01*
X135587865Y-68171348D01*
X135632382Y-68222725D01*
X135659431Y-68280733D01*
X135789953Y-68467140D01*
X135950859Y-68628046D01*
X136137264Y-68758567D01*
X136137265Y-68758567D01*
X136137266Y-68758568D01*
X136343504Y-68854739D01*
X136563308Y-68913635D01*
X136714436Y-68926856D01*
X136789999Y-68933468D01*
X136789999Y-68933467D01*
X136790000Y-68933468D01*
X137016692Y-68913635D01*
X137236496Y-68854739D01*
X137442734Y-68758568D01*
X137629139Y-68628047D01*
X137790047Y-68467139D01*
X137920568Y-68280734D01*
X137947618Y-68222724D01*
X137993790Y-68170285D01*
X138060983Y-68151133D01*
X138127865Y-68171348D01*
X138172382Y-68222725D01*
X138199431Y-68280733D01*
X138329953Y-68467140D01*
X138490859Y-68628046D01*
X138677264Y-68758567D01*
X138677265Y-68758567D01*
X138677266Y-68758568D01*
X138883504Y-68854739D01*
X139103308Y-68913635D01*
X139330000Y-68933468D01*
X139556692Y-68913635D01*
X139776496Y-68854739D01*
X139982734Y-68758568D01*
X140169139Y-68628047D01*
X140330047Y-68467139D01*
X140460568Y-68280734D01*
X140487618Y-68222724D01*
X140533790Y-68170285D01*
X140600983Y-68151133D01*
X140667865Y-68171348D01*
X140712382Y-68222725D01*
X140739431Y-68280733D01*
X140869953Y-68467140D01*
X141030859Y-68628046D01*
X141217264Y-68758567D01*
X141217265Y-68758567D01*
X141217266Y-68758568D01*
X141423504Y-68854739D01*
X141643308Y-68913635D01*
X141870000Y-68933468D01*
X142096692Y-68913635D01*
X142316496Y-68854739D01*
X142522734Y-68758568D01*
X142709139Y-68628047D01*
X142870047Y-68467139D01*
X143000568Y-68280734D01*
X143027618Y-68222724D01*
X143073790Y-68170285D01*
X143140983Y-68151133D01*
X143207865Y-68171348D01*
X143252382Y-68222725D01*
X143279431Y-68280733D01*
X143409953Y-68467140D01*
X143570859Y-68628046D01*
X143757264Y-68758567D01*
X143757265Y-68758567D01*
X143757266Y-68758568D01*
X143963504Y-68854739D01*
X144183308Y-68913635D01*
X144334436Y-68926856D01*
X144409999Y-68933468D01*
X144409999Y-68933467D01*
X144410000Y-68933468D01*
X144636692Y-68913635D01*
X144856496Y-68854739D01*
X145062734Y-68758568D01*
X145249139Y-68628047D01*
X145410047Y-68467139D01*
X145540568Y-68280734D01*
X145636739Y-68074496D01*
X145695635Y-67854692D01*
X145715468Y-67628000D01*
X145695635Y-67401308D01*
X145636739Y-67181504D01*
X145540568Y-66975266D01*
X145410047Y-66788861D01*
X145410046Y-66788859D01*
X145249140Y-66627953D01*
X145062735Y-66497432D01*
X144856497Y-66401261D01*
X144636689Y-66342364D01*
X144410000Y-66322531D01*
X144183310Y-66342364D01*
X143963502Y-66401261D01*
X143757264Y-66497432D01*
X143570859Y-66627953D01*
X143409953Y-66788859D01*
X143279433Y-66975263D01*
X143252382Y-67033275D01*
X143206209Y-67085714D01*
X143139015Y-67104865D01*
X143072134Y-67084649D01*
X143027618Y-67033275D01*
X143027617Y-67033273D01*
X143000568Y-66975266D01*
X142870047Y-66788861D01*
X142870046Y-66788859D01*
X142709140Y-66627953D01*
X142522735Y-66497432D01*
X142316497Y-66401261D01*
X142096689Y-66342364D01*
X141869999Y-66322531D01*
X141643310Y-66342364D01*
X141423502Y-66401261D01*
X141217264Y-66497432D01*
X141030859Y-66627953D01*
X140869953Y-66788859D01*
X140739433Y-66975263D01*
X140712382Y-67033275D01*
X140666209Y-67085714D01*
X140599015Y-67104865D01*
X140532134Y-67084649D01*
X140487618Y-67033275D01*
X140487617Y-67033273D01*
X140460568Y-66975266D01*
X140330047Y-66788861D01*
X140330046Y-66788859D01*
X140169140Y-66627953D01*
X139982735Y-66497432D01*
X139776497Y-66401261D01*
X139556689Y-66342364D01*
X139330000Y-66322531D01*
X139103310Y-66342364D01*
X138883502Y-66401261D01*
X138677264Y-66497432D01*
X138490859Y-66627953D01*
X138329953Y-66788859D01*
X138199433Y-66975263D01*
X138172382Y-67033275D01*
X138126209Y-67085714D01*
X138059015Y-67104865D01*
X137992134Y-67084649D01*
X137947618Y-67033275D01*
X137947617Y-67033273D01*
X137920568Y-66975266D01*
X137790047Y-66788861D01*
X137790046Y-66788859D01*
X137629140Y-66627953D01*
X137442735Y-66497432D01*
X137236497Y-66401261D01*
X137016689Y-66342364D01*
X136789999Y-66322531D01*
X136563310Y-66342364D01*
X136343502Y-66401261D01*
X136137264Y-66497432D01*
X135950859Y-66627953D01*
X135789953Y-66788859D01*
X135659433Y-66975263D01*
X135632382Y-67033275D01*
X135586209Y-67085714D01*
X135519015Y-67104865D01*
X135452134Y-67084649D01*
X135407618Y-67033275D01*
X135407617Y-67033273D01*
X135380568Y-66975266D01*
X135250047Y-66788861D01*
X135250046Y-66788859D01*
X135089140Y-66627953D01*
X134902735Y-66497432D01*
X134696497Y-66401261D01*
X134476689Y-66342364D01*
X134250000Y-66322531D01*
X134023310Y-66342364D01*
X133803502Y-66401261D01*
X133597264Y-66497432D01*
X133410859Y-66627953D01*
X133249953Y-66788859D01*
X133119431Y-66975266D01*
X133092380Y-67033276D01*
X133046207Y-67085714D01*
X132979013Y-67104865D01*
X132912132Y-67084648D01*
X132867617Y-67033273D01*
X132840568Y-66975266D01*
X132710046Y-66788859D01*
X132549140Y-66627953D01*
X132362735Y-66497432D01*
X132156497Y-66401261D01*
X131936689Y-66342364D01*
X131710000Y-66322531D01*
X131483310Y-66342364D01*
X131263502Y-66401261D01*
X131057264Y-66497432D01*
X130870859Y-66627953D01*
X130709953Y-66788859D01*
X130579433Y-66975263D01*
X130552382Y-67033275D01*
X130506209Y-67085714D01*
X130439015Y-67104865D01*
X130372134Y-67084649D01*
X130327618Y-67033275D01*
X130327617Y-67033273D01*
X130300568Y-66975266D01*
X130170047Y-66788861D01*
X130170046Y-66788859D01*
X130009140Y-66627953D01*
X129822735Y-66497432D01*
X129616497Y-66401261D01*
X129396689Y-66342364D01*
X129169999Y-66322531D01*
X128943310Y-66342364D01*
X128723502Y-66401261D01*
X128517264Y-66497432D01*
X128330859Y-66627953D01*
X128169953Y-66788859D01*
X128039433Y-66975263D01*
X128012382Y-67033275D01*
X127966209Y-67085714D01*
X127899015Y-67104865D01*
X127832134Y-67084649D01*
X127787618Y-67033275D01*
X127787617Y-67033273D01*
X127760568Y-66975266D01*
X127630047Y-66788861D01*
X127630046Y-66788859D01*
X127469140Y-66627953D01*
X127282735Y-66497432D01*
X127076497Y-66401261D01*
X126856689Y-66342364D01*
X126630000Y-66322531D01*
X126403310Y-66342364D01*
X126183502Y-66401261D01*
X125977264Y-66497432D01*
X125790859Y-66627953D01*
X125629953Y-66788859D01*
X125499431Y-66975266D01*
X125472380Y-67033276D01*
X125426207Y-67085714D01*
X125359013Y-67104865D01*
X125292132Y-67084648D01*
X125247617Y-67033273D01*
X125220568Y-66975266D01*
X125090046Y-66788859D01*
X124929140Y-66627953D01*
X124742735Y-66497432D01*
X124536497Y-66401261D01*
X124316689Y-66342364D01*
X124090000Y-66322531D01*
X123863310Y-66342364D01*
X123643502Y-66401261D01*
X123437264Y-66497432D01*
X123250859Y-66627953D01*
X123089953Y-66788859D01*
X122959433Y-66975263D01*
X122932382Y-67033275D01*
X122886209Y-67085714D01*
X122819015Y-67104865D01*
X122752134Y-67084649D01*
X122707618Y-67033275D01*
X122707617Y-67033273D01*
X122680568Y-66975266D01*
X122550047Y-66788861D01*
X122550046Y-66788859D01*
X122389140Y-66627953D01*
X122202735Y-66497432D01*
X121996497Y-66401261D01*
X121776689Y-66342364D01*
X121549999Y-66322531D01*
X121323310Y-66342364D01*
X121103502Y-66401261D01*
X120897264Y-66497432D01*
X120710859Y-66627953D01*
X120549953Y-66788859D01*
X120419432Y-66975264D01*
X120323261Y-67181502D01*
X120264364Y-67401310D01*
X120244531Y-67627999D01*
X120264364Y-67854689D01*
X120323261Y-68074497D01*
X120419432Y-68280735D01*
X120549953Y-68467140D01*
X120710859Y-68628046D01*
X120897264Y-68758567D01*
X120897265Y-68758567D01*
X120897266Y-68758568D01*
X121103504Y-68854739D01*
X121323308Y-68913635D01*
X121550000Y-68933468D01*
X121776692Y-68913635D01*
X121996496Y-68854739D01*
X122202734Y-68758568D01*
X122389139Y-68628047D01*
X122550047Y-68467139D01*
X122680568Y-68280734D01*
X122707618Y-68222724D01*
X122753790Y-68170285D01*
X122820983Y-68151133D01*
X122887865Y-68171348D01*
X122932382Y-68222725D01*
X122959431Y-68280733D01*
X123089953Y-68467140D01*
X123250859Y-68628046D01*
X123437264Y-68758567D01*
X123437265Y-68758567D01*
X123437266Y-68758568D01*
X123643504Y-68854739D01*
X123863308Y-68913635D01*
X124014436Y-68926856D01*
X124089999Y-68933468D01*
X124089999Y-68933467D01*
X124090000Y-68933468D01*
X124316692Y-68913635D01*
X124536496Y-68854739D01*
X124742734Y-68758568D01*
X124929139Y-68628047D01*
X125090047Y-68467139D01*
X125220568Y-68280734D01*
X125247618Y-68222724D01*
X125293790Y-68170285D01*
X125360983Y-68151133D01*
X125427865Y-68171348D01*
X125472382Y-68222725D01*
X125499431Y-68280733D01*
X125629953Y-68467140D01*
X125790859Y-68628046D01*
X125977264Y-68758567D01*
X125977265Y-68758567D01*
X125977266Y-68758568D01*
X126183504Y-68854739D01*
X126403308Y-68913635D01*
X126630000Y-68933468D01*
X126856692Y-68913635D01*
X127076496Y-68854739D01*
X127282734Y-68758568D01*
X127469139Y-68628047D01*
X127630047Y-68467139D01*
X127760568Y-68280734D01*
X127787618Y-68222724D01*
X127833790Y-68170285D01*
X127900983Y-68151133D01*
X127967865Y-68171348D01*
X128012382Y-68222725D01*
X128039431Y-68280733D01*
X128169953Y-68467140D01*
X128330859Y-68628046D01*
X128517264Y-68758567D01*
X128517265Y-68758567D01*
X128517266Y-68758568D01*
X128723504Y-68854739D01*
X128943308Y-68913635D01*
X129094435Y-68926856D01*
X129169999Y-68933468D01*
X129169999Y-68933467D01*
X129170000Y-68933468D01*
X129396692Y-68913635D01*
X129616496Y-68854739D01*
X129822734Y-68758568D01*
X130009139Y-68628047D01*
X130170047Y-68467139D01*
X130300568Y-68280734D01*
X130327618Y-68222724D01*
X130373790Y-68170285D01*
X130440983Y-68151133D01*
X130507865Y-68171348D01*
X130552382Y-68222725D01*
X130579431Y-68280733D01*
X130709953Y-68467140D01*
X130870859Y-68628046D01*
X131057264Y-68758567D01*
X131057265Y-68758567D01*
X131057266Y-68758568D01*
X131263504Y-68854739D01*
X131483308Y-68913635D01*
X131710000Y-68933468D01*
X131936692Y-68913635D01*
X131977161Y-68902791D01*
X132047011Y-68904452D01*
X132096938Y-68934884D01*
X134338564Y-71176510D01*
X134351911Y-71193169D01*
X134404832Y-71242864D01*
X134407629Y-71245575D01*
X134427966Y-71265912D01*
X134431037Y-71268294D01*
X134431438Y-71268605D01*
X134440329Y-71276198D01*
X134457272Y-71292109D01*
X134492666Y-71352351D01*
X134489872Y-71422165D01*
X134449777Y-71479385D01*
X134385112Y-71505845D01*
X134372387Y-71506500D01*
X132007504Y-71506500D01*
X131986294Y-71504158D01*
X131913737Y-71506439D01*
X131909842Y-71506500D01*
X131881075Y-71506500D01*
X131877213Y-71506987D01*
X131877192Y-71506989D01*
X131876681Y-71507054D01*
X131865059Y-71507968D01*
X131819428Y-71509402D01*
X131799052Y-71515322D01*
X131780006Y-71519267D01*
X131758939Y-71521928D01*
X131716492Y-71538734D01*
X131705445Y-71542516D01*
X131661601Y-71555255D01*
X131643330Y-71566060D01*
X131625864Y-71574617D01*
X131606129Y-71582431D01*
X131569202Y-71609260D01*
X131559442Y-71615671D01*
X131520136Y-71638917D01*
X131505125Y-71653928D01*
X131490336Y-71666558D01*
X131473164Y-71679034D01*
X131444057Y-71714218D01*
X131436196Y-71722856D01*
X128508873Y-74650181D01*
X128447550Y-74683666D01*
X128421192Y-74686500D01*
X120587294Y-74686500D01*
X120520255Y-74666815D01*
X120485719Y-74633623D01*
X120407826Y-74522379D01*
X120251620Y-74366174D01*
X120070662Y-74239466D01*
X119870451Y-74146106D01*
X119657065Y-74088929D01*
X119437000Y-74069676D01*
X119216934Y-74088929D01*
X119003548Y-74146106D01*
X118803338Y-74239466D01*
X118622379Y-74366174D01*
X118466174Y-74522379D01*
X118339467Y-74703336D01*
X118279381Y-74832190D01*
X118233208Y-74884629D01*
X118166014Y-74903780D01*
X118099133Y-74883564D01*
X118054617Y-74832188D01*
X117994534Y-74703339D01*
X117867825Y-74522379D01*
X117711620Y-74366174D01*
X117530662Y-74239466D01*
X117330451Y-74146106D01*
X117117065Y-74088929D01*
X116896999Y-74069676D01*
X116676934Y-74088929D01*
X116463548Y-74146106D01*
X116263338Y-74239466D01*
X116082379Y-74366174D01*
X115926174Y-74522379D01*
X115799466Y-74703338D01*
X115739382Y-74832189D01*
X115693209Y-74884628D01*
X115626016Y-74903780D01*
X115559135Y-74883564D01*
X115514618Y-74832189D01*
X115497744Y-74796004D01*
X115454534Y-74703339D01*
X115327826Y-74522380D01*
X115171620Y-74366174D01*
X114990662Y-74239466D01*
X114978728Y-74233901D01*
X114790451Y-74146106D01*
X114577065Y-74088929D01*
X114356999Y-74069676D01*
X114136934Y-74088929D01*
X113923548Y-74146106D01*
X113723338Y-74239466D01*
X113542379Y-74366174D01*
X113386174Y-74522379D01*
X113259466Y-74703338D01*
X113199382Y-74832189D01*
X113153209Y-74884628D01*
X113086016Y-74903780D01*
X113019135Y-74883564D01*
X112974618Y-74832189D01*
X112957744Y-74796004D01*
X112914534Y-74703339D01*
X112787826Y-74522380D01*
X112631620Y-74366174D01*
X112450662Y-74239466D01*
X112438728Y-74233901D01*
X112250451Y-74146106D01*
X112037065Y-74088929D01*
X111816999Y-74069676D01*
X111596934Y-74088929D01*
X111383548Y-74146106D01*
X111183338Y-74239466D01*
X111002379Y-74366174D01*
X110846174Y-74522379D01*
X110719466Y-74703338D01*
X110659382Y-74832189D01*
X110613209Y-74884628D01*
X110546016Y-74903780D01*
X110479135Y-74883564D01*
X110434618Y-74832189D01*
X110417744Y-74796004D01*
X110374534Y-74703339D01*
X110247826Y-74522380D01*
X110091620Y-74366174D01*
X109910662Y-74239466D01*
X109898728Y-74233901D01*
X109710451Y-74146106D01*
X109561565Y-74106212D01*
X109501905Y-74069847D01*
X109471376Y-74007000D01*
X109479671Y-73937624D01*
X109524156Y-73883746D01*
X109559064Y-73867360D01*
X109578398Y-73861744D01*
X109596670Y-73850936D01*
X109614136Y-73842380D01*
X109633871Y-73834568D01*
X109670816Y-73807725D01*
X109680548Y-73801332D01*
X109719865Y-73778081D01*
X109734874Y-73763071D01*
X109749663Y-73750439D01*
X109766837Y-73737963D01*
X109795946Y-73702774D01*
X109803790Y-73694154D01*
X114563061Y-68934882D01*
X114624382Y-68901399D01*
X114682834Y-68902790D01*
X114723308Y-68913635D01*
X114950000Y-68933468D01*
X115176692Y-68913635D01*
X115396496Y-68854739D01*
X115602734Y-68758568D01*
X115789139Y-68628047D01*
X115950047Y-68467139D01*
X116080568Y-68280734D01*
X116107618Y-68222724D01*
X116153790Y-68170285D01*
X116220983Y-68151133D01*
X116287865Y-68171348D01*
X116332382Y-68222725D01*
X116359431Y-68280733D01*
X116489953Y-68467140D01*
X116650859Y-68628046D01*
X116837264Y-68758567D01*
X116837265Y-68758567D01*
X116837266Y-68758568D01*
X117043504Y-68854739D01*
X117263308Y-68913635D01*
X117414435Y-68926856D01*
X117489999Y-68933468D01*
X117489999Y-68933467D01*
X117490000Y-68933468D01*
X117716692Y-68913635D01*
X117936496Y-68854739D01*
X118142734Y-68758568D01*
X118329139Y-68628047D01*
X118490047Y-68467139D01*
X118620568Y-68280734D01*
X118716739Y-68074496D01*
X118775635Y-67854692D01*
X118795468Y-67628000D01*
X118775635Y-67401308D01*
X118716739Y-67181504D01*
X118620568Y-66975266D01*
X118490047Y-66788861D01*
X118490046Y-66788859D01*
X118329140Y-66627953D01*
X118142735Y-66497432D01*
X117936497Y-66401261D01*
X117716689Y-66342364D01*
X117489999Y-66322531D01*
X117263310Y-66342364D01*
X117043502Y-66401261D01*
X116837264Y-66497432D01*
X116650859Y-66627953D01*
X116489953Y-66788859D01*
X116359433Y-66975263D01*
X116332382Y-67033275D01*
X116286209Y-67085714D01*
X116219015Y-67104865D01*
X116152134Y-67084649D01*
X116107618Y-67033275D01*
X116107617Y-67033273D01*
X116080568Y-66975266D01*
X115950047Y-66788861D01*
X115950046Y-66788859D01*
X115789140Y-66627953D01*
X115602735Y-66497432D01*
X115396497Y-66401261D01*
X115176689Y-66342364D01*
X114950000Y-66322531D01*
X114723310Y-66342364D01*
X114503502Y-66401261D01*
X114297264Y-66497432D01*
X114110859Y-66627953D01*
X113949953Y-66788859D01*
X113819431Y-66975266D01*
X113792380Y-67033276D01*
X113746207Y-67085714D01*
X113679013Y-67104865D01*
X113612132Y-67084648D01*
X113567617Y-67033273D01*
X113540568Y-66975266D01*
X113410046Y-66788859D01*
X113249140Y-66627953D01*
X113062735Y-66497432D01*
X112856497Y-66401261D01*
X112636689Y-66342364D01*
X112410000Y-66322531D01*
X112183310Y-66342364D01*
X111963502Y-66401261D01*
X111757264Y-66497432D01*
X111570859Y-66627953D01*
X111409953Y-66788859D01*
X111279433Y-66975263D01*
X111252382Y-67033275D01*
X111206209Y-67085714D01*
X111139015Y-67104865D01*
X111072134Y-67084649D01*
X111027618Y-67033275D01*
X111027617Y-67033273D01*
X111000568Y-66975266D01*
X110870047Y-66788861D01*
X110870046Y-66788859D01*
X110709140Y-66627953D01*
X110522735Y-66497432D01*
X110316497Y-66401261D01*
X110096689Y-66342364D01*
X109869999Y-66322531D01*
X109643310Y-66342364D01*
X109423502Y-66401261D01*
X109217264Y-66497432D01*
X109030859Y-66627953D01*
X108869953Y-66788859D01*
X108739433Y-66975263D01*
X108712382Y-67033275D01*
X108666209Y-67085714D01*
X108599015Y-67104865D01*
X108532134Y-67084649D01*
X108487618Y-67033275D01*
X108487617Y-67033273D01*
X108460568Y-66975266D01*
X108330047Y-66788861D01*
X108330046Y-66788859D01*
X108169140Y-66627953D01*
X107982735Y-66497432D01*
X107776497Y-66401261D01*
X107556689Y-66342364D01*
X107330000Y-66322531D01*
X107103310Y-66342364D01*
X106883502Y-66401261D01*
X106677264Y-66497432D01*
X106490859Y-66627953D01*
X106329953Y-66788859D01*
X106199433Y-66975263D01*
X106172382Y-67033275D01*
X106126209Y-67085714D01*
X106059015Y-67104865D01*
X105992134Y-67084649D01*
X105947618Y-67033275D01*
X105947617Y-67033273D01*
X105920568Y-66975266D01*
X105790047Y-66788861D01*
X105790046Y-66788859D01*
X105629140Y-66627953D01*
X105442735Y-66497432D01*
X105236497Y-66401261D01*
X105016689Y-66342364D01*
X104789999Y-66322531D01*
X104563310Y-66342364D01*
X104343502Y-66401261D01*
X104137264Y-66497432D01*
X103950859Y-66627953D01*
X103789953Y-66788859D01*
X103659433Y-66975263D01*
X103632382Y-67033275D01*
X103586209Y-67085714D01*
X103519015Y-67104865D01*
X103452134Y-67084649D01*
X103407618Y-67033275D01*
X103407617Y-67033273D01*
X103380568Y-66975266D01*
X103250047Y-66788861D01*
X103250046Y-66788859D01*
X103089140Y-66627953D01*
X102902735Y-66497432D01*
X102696497Y-66401261D01*
X102476689Y-66342364D01*
X102249999Y-66322531D01*
X102023310Y-66342364D01*
X101803502Y-66401261D01*
X101597264Y-66497432D01*
X101410859Y-66627953D01*
X101249953Y-66788859D01*
X101119431Y-66975266D01*
X101092380Y-67033276D01*
X101046207Y-67085714D01*
X100979013Y-67104865D01*
X100912132Y-67084648D01*
X100867617Y-67033273D01*
X100840568Y-66975266D01*
X100710046Y-66788859D01*
X100549140Y-66627953D01*
X100362735Y-66497432D01*
X100156497Y-66401261D01*
X99936689Y-66342364D01*
X99710000Y-66322531D01*
X99483310Y-66342364D01*
X99263502Y-66401261D01*
X99057264Y-66497432D01*
X98870859Y-66627953D01*
X98709953Y-66788859D01*
X98579432Y-66975264D01*
X98483261Y-67181502D01*
X98424364Y-67401310D01*
X98404531Y-67627999D01*
X81680500Y-67627999D01*
X81680500Y-57767764D01*
X87445787Y-57767764D01*
X87475413Y-58037016D01*
X87475414Y-58037018D01*
X87543928Y-58299088D01*
X87597720Y-58425670D01*
X87649871Y-58548392D01*
X87790982Y-58779611D01*
X87964253Y-58987818D01*
X87964255Y-58987820D01*
X88165998Y-59168582D01*
X88391910Y-59318044D01*
X88498211Y-59367876D01*
X88637177Y-59433021D01*
X88896562Y-59511058D01*
X88896569Y-59511060D01*
X89164561Y-59550500D01*
X89164564Y-59550500D01*
X89365369Y-59550500D01*
X89367631Y-59550500D01*
X89570156Y-59535677D01*
X89834553Y-59476780D01*
X90087558Y-59380014D01*
X90323777Y-59247441D01*
X90538177Y-59081888D01*
X90726186Y-58886881D01*
X90883799Y-58666579D01*
X91007656Y-58425675D01*
X91095118Y-58169305D01*
X91144319Y-57902933D01*
X91145604Y-57867764D01*
X169345787Y-57867764D01*
X169375413Y-58137016D01*
X169383855Y-58169305D01*
X169443928Y-58399088D01*
X169549870Y-58648390D01*
X169549871Y-58648392D01*
X169690982Y-58879611D01*
X169859318Y-59081888D01*
X169864255Y-59087820D01*
X170065998Y-59268582D01*
X170291910Y-59418044D01*
X170323857Y-59433020D01*
X170537177Y-59533021D01*
X170796562Y-59611058D01*
X170796569Y-59611060D01*
X171064561Y-59650500D01*
X171064564Y-59650500D01*
X171265369Y-59650500D01*
X171267631Y-59650500D01*
X171470156Y-59635677D01*
X171734553Y-59576780D01*
X171987558Y-59480014D01*
X172223777Y-59347441D01*
X172438177Y-59181888D01*
X172626186Y-58986881D01*
X172783799Y-58766579D01*
X172907656Y-58525675D01*
X172995118Y-58269305D01*
X173044319Y-58002933D01*
X173054212Y-57732235D01*
X173024586Y-57462982D01*
X172956072Y-57200912D01*
X172850130Y-56951610D01*
X172709018Y-56720390D01*
X172709017Y-56720388D01*
X172535746Y-56512181D01*
X172430759Y-56418112D01*
X172334002Y-56331418D01*
X172108090Y-56181956D01*
X172108086Y-56181954D01*
X171862822Y-56066978D01*
X171603437Y-55988941D01*
X171603431Y-55988940D01*
X171335439Y-55949500D01*
X171132369Y-55949500D01*
X171130120Y-55949664D01*
X171130109Y-55949665D01*
X170929843Y-55964322D01*
X170665449Y-56023219D01*
X170412441Y-56119986D01*
X170176223Y-56252559D01*
X169961825Y-56418109D01*
X169773813Y-56613120D01*
X169616201Y-56833420D01*
X169492342Y-57074329D01*
X169404881Y-57330695D01*
X169355680Y-57597066D01*
X169345787Y-57867764D01*
X91145604Y-57867764D01*
X91154212Y-57632235D01*
X91124586Y-57362982D01*
X91056072Y-57100912D01*
X90950130Y-56851610D01*
X90809018Y-56620390D01*
X90809017Y-56620388D01*
X90635746Y-56412181D01*
X90629001Y-56406137D01*
X90434002Y-56231418D01*
X90208090Y-56081956D01*
X90208086Y-56081954D01*
X89962822Y-55966978D01*
X89703437Y-55888941D01*
X89703431Y-55888940D01*
X89435439Y-55849500D01*
X89232369Y-55849500D01*
X89230120Y-55849664D01*
X89230109Y-55849665D01*
X89029843Y-55864322D01*
X88765449Y-55923219D01*
X88512441Y-56019986D01*
X88276223Y-56152559D01*
X88061825Y-56318109D01*
X87873813Y-56513120D01*
X87716201Y-56733420D01*
X87592342Y-56974329D01*
X87504881Y-57230695D01*
X87455680Y-57497066D01*
X87445787Y-57767764D01*
X81680500Y-57767764D01*
X81680500Y-57742124D01*
X81680572Y-57737891D01*
X81684181Y-57632235D01*
X81691495Y-57418121D01*
X81698588Y-57219539D01*
X81699154Y-57211354D01*
X81728583Y-56925081D01*
X81736484Y-56851607D01*
X81753832Y-56690238D01*
X81754923Y-56682437D01*
X81802600Y-56405918D01*
X81845871Y-56166085D01*
X81847411Y-56158814D01*
X81913151Y-55889050D01*
X81923204Y-55849665D01*
X81974245Y-55649687D01*
X81976189Y-55642889D01*
X82059725Y-55379689D01*
X82138341Y-55143487D01*
X82140616Y-55137229D01*
X82241586Y-54881188D01*
X82266152Y-54821878D01*
X82337341Y-54650013D01*
X82339867Y-54644331D01*
X82457389Y-54397217D01*
X82458367Y-54395213D01*
X82570252Y-54171695D01*
X82573004Y-54166513D01*
X82706865Y-53928441D01*
X82708186Y-53926154D01*
X82835962Y-53710799D01*
X82838857Y-53706160D01*
X82988489Y-53478028D01*
X82990223Y-53475460D01*
X83133155Y-53269599D01*
X83136133Y-53265496D01*
X83300858Y-53048273D01*
X83302994Y-53045541D01*
X83460393Y-52850221D01*
X83463397Y-52846639D01*
X83642437Y-52641306D01*
X83645086Y-52638366D01*
X83816052Y-52454735D01*
X83819016Y-52451664D01*
X84011664Y-52259016D01*
X84014735Y-52256052D01*
X84198366Y-52085086D01*
X84201306Y-52082437D01*
X84406639Y-51903397D01*
X84410221Y-51900393D01*
X84605541Y-51742994D01*
X84608273Y-51740858D01*
X84825496Y-51576133D01*
X84829599Y-51573155D01*
X85035460Y-51430223D01*
X85038028Y-51428489D01*
X85266160Y-51278857D01*
X85270799Y-51275962D01*
X85486154Y-51148186D01*
X85488441Y-51146865D01*
X85726513Y-51013004D01*
X85731695Y-51010252D01*
X85955213Y-50898367D01*
X85957217Y-50897389D01*
X86204324Y-50779870D01*
X86210038Y-50777330D01*
X86441147Y-50681601D01*
X86697257Y-50580605D01*
X86703528Y-50578327D01*
X86939689Y-50499725D01*
X87202912Y-50416182D01*
X87209668Y-50414250D01*
X87449035Y-50353155D01*
X87718807Y-50287413D01*
X87726079Y-50285872D01*
X87965918Y-50242600D01*
X88242446Y-50194921D01*
X88250202Y-50193836D01*
X88485036Y-50168588D01*
X88771352Y-50139154D01*
X88779541Y-50138588D01*
X88977677Y-50131510D01*
X89297892Y-50120571D01*
X89302125Y-50120500D01*
X89351681Y-50120500D01*
X89351833Y-50120481D01*
X90767149Y-50120000D01*
X171748644Y-50120000D01*
X171761323Y-50120649D01*
G37*
%TD.AperFunction*%
%TD*%
M02*
