M48
; DRILL file {KiCad 7.0.2} date Thu Apr 27 19:49:11 2023
; FORMAT={-:-/ absolute / inch / decimal}
; #@! TF.CreationDate,2023-04-27T19:49:11+02:00
; #@! TF.GenerationSoftware,Kicad,Pcbnew,7.0.2
; #@! TF.FileFunction,Plated,1,2,PTH
FMAT,2
INCH
; #@! TA.AperFunction,Plated,PTH,ViaDrill
T1C0.0157
; #@! TA.AperFunction,Plated,PTH,ComponentDrill
T2C0.0295
; #@! TA.AperFunction,Plated,PTH,ComponentDrill
T3C0.0300
; #@! TA.AperFunction,Plated,PTH,ComponentDrill
T4C0.0394
; #@! TA.AperFunction,Plated,PTH,ComponentDrill
T5C0.0433
; #@! TA.AperFunction,Plated,PTH,ComponentDrill
T6C0.0560
%
G90
G05
T1
X3.6469Y-2.7307
X4.1315Y-3.0067
X4.1886Y-2.8028
X4.285Y-3.6378
X4.5689Y-4.2724
X4.652Y-3.6085
X4.8071Y-3.7031
X4.9004Y-5.3209
X5.1614Y-2.7843
X5.1969Y-4.952
X5.3047Y-3.3339
X5.3091Y-4.9902
X5.3827Y-2.7449
X5.5106Y-4.1193
X5.58Y-3.3644
X5.7193Y-4.1846
X5.8406Y-2.8219
T2
X3.5256Y-3.589
X3.5756Y-3.589
X3.6256Y-3.589
X6.535Y-3.587
X6.585Y-3.587
X6.635Y-3.587
T3
X4.3022Y-2.966
X4.3022Y-4.1865
X4.4022Y-2.966
X4.4022Y-4.1865
X4.5022Y-2.966
X4.5022Y-4.1865
X4.6022Y-2.966
X4.6022Y-4.1865
X4.7022Y-2.966
X4.7022Y-4.1865
X5.2535Y-2.966
X5.2535Y-4.1865
X5.3535Y-2.966
X5.3535Y-4.1865
X5.4535Y-2.966
X5.4535Y-4.1865
X5.5535Y-2.966
X5.5535Y-4.1865
X5.6535Y-2.966
X5.6535Y-4.1865
T4
X3.5307Y-4.4571
X3.5307Y-4.5571
X3.9256Y-2.6625
X3.9256Y-4.5625
X4.0256Y-2.6625
X4.0256Y-4.5625
X4.1256Y-2.6625
X4.1256Y-4.5625
X4.2256Y-2.6625
X4.2256Y-4.5625
X4.3256Y-2.6625
X4.3256Y-4.5625
X4.4256Y-2.6625
X4.4256Y-4.5625
X4.5256Y-2.6625
X4.6256Y-2.6625
X4.6256Y-4.5625
X4.7256Y-4.5625
X4.7854Y-2.6625
X4.8256Y-4.5625
X4.8854Y-2.6625
X4.9256Y-4.5625
X4.9854Y-2.6625
X5.0256Y-4.5625
X5.0854Y-2.6625
X5.1256Y-4.5625
X5.1854Y-2.6625
X5.2256Y-4.5625
X5.2615Y-5.0925
X5.2854Y-2.6625
X5.3256Y-4.5625
X5.3615Y-5.0925
X5.3854Y-2.6625
X5.4615Y-5.0925
X5.4854Y-2.6625
X5.5854Y-2.6625
X5.6854Y-2.6625
X5.8215Y-5.0925
X5.9215Y-5.0925
X6.0215Y-5.0925
X6.1215Y-5.0925
X6.2215Y-5.0925
T5
X5.3315Y-4.8425
X5.6315Y-4.8425
T6
X3.7858Y-5.337
X3.9236Y-5.337
X4.2858Y-5.337
X4.4236Y-5.337
X4.7858Y-5.337
X4.9236Y-5.337
T0
M30
