%TF.GenerationSoftware,KiCad,Pcbnew,7.0.2*%
%TF.CreationDate,2023-04-27T19:49:04+02:00*%
%TF.ProjectId,CherrycountPCB,43686572-7279-4636-9f75-6e745043422e,rev?*%
%TF.SameCoordinates,Original*%
%TF.FileFunction,Copper,L1,Top*%
%TF.FilePolarity,Positive*%
%FSLAX46Y46*%
G04 Gerber Fmt 4.6, Leading zero omitted, Abs format (unit mm)*
G04 Created by KiCad (PCBNEW 7.0.2) date 2023-04-27 19:49:04*
%MOMM*%
%LPD*%
G01*
G04 APERTURE LIST*
G04 Aperture macros list*
%AMRoundRect*
0 Rectangle with rounded corners*
0 $1 Rounding radius*
0 $2 $3 $4 $5 $6 $7 $8 $9 X,Y pos of 4 corners*
0 Add a 4 corners polygon primitive as box body*
4,1,4,$2,$3,$4,$5,$6,$7,$8,$9,$2,$3,0*
0 Add four circle primitives for the rounded corners*
1,1,$1+$1,$2,$3*
1,1,$1+$1,$4,$5*
1,1,$1+$1,$6,$7*
1,1,$1+$1,$8,$9*
0 Add four rect primitives between the rounded corners*
20,1,$1+$1,$2,$3,$4,$5,0*
20,1,$1+$1,$4,$5,$6,$7,0*
20,1,$1+$1,$6,$7,$8,$9,0*
20,1,$1+$1,$8,$9,$2,$3,0*%
G04 Aperture macros list end*
%TA.AperFunction,SMDPad,CuDef*%
%ADD10RoundRect,0.250000X-0.350000X-0.450000X0.350000X-0.450000X0.350000X0.450000X-0.350000X0.450000X0*%
%TD*%
%TA.AperFunction,SMDPad,CuDef*%
%ADD11RoundRect,0.250000X-0.450000X0.350000X-0.450000X-0.350000X0.450000X-0.350000X0.450000X0.350000X0*%
%TD*%
%TA.AperFunction,ComponentPad*%
%ADD12R,1.700000X1.700000*%
%TD*%
%TA.AperFunction,ComponentPad*%
%ADD13O,1.700000X1.700000*%
%TD*%
%TA.AperFunction,ComponentPad*%
%ADD14R,1.050000X1.500000*%
%TD*%
%TA.AperFunction,ComponentPad*%
%ADD15O,1.050000X1.500000*%
%TD*%
%TA.AperFunction,ComponentPad*%
%ADD16C,2.540000*%
%TD*%
%TA.AperFunction,SMDPad,CuDef*%
%ADD17RoundRect,0.249750X-0.425250X-1.750250X0.425250X-1.750250X0.425250X1.750250X-0.425250X1.750250X0*%
%TD*%
%TA.AperFunction,SMDPad,CuDef*%
%ADD18RoundRect,0.250000X0.450000X-0.350000X0.450000X0.350000X-0.450000X0.350000X-0.450000X-0.350000X0*%
%TD*%
%TA.AperFunction,ComponentPad*%
%ADD19R,1.600000X1.600000*%
%TD*%
%TA.AperFunction,ComponentPad*%
%ADD20O,1.600000X1.600000*%
%TD*%
%TA.AperFunction,ComponentPad*%
%ADD21R,2.200000X2.200000*%
%TD*%
%TA.AperFunction,ComponentPad*%
%ADD22O,2.200000X2.200000*%
%TD*%
%TA.AperFunction,SMDPad,CuDef*%
%ADD23RoundRect,0.250000X0.350000X0.450000X-0.350000X0.450000X-0.350000X-0.450000X0.350000X-0.450000X0*%
%TD*%
%TA.AperFunction,ComponentPad*%
%ADD24C,1.524000*%
%TD*%
%TA.AperFunction,ViaPad*%
%ADD25C,0.800000*%
%TD*%
%TA.AperFunction,Conductor*%
%ADD26C,0.500000*%
%TD*%
%TA.AperFunction,Conductor*%
%ADD27C,0.300000*%
%TD*%
%TA.AperFunction,Conductor*%
%ADD28C,0.250000*%
%TD*%
G04 APERTURE END LIST*
D10*
%TO.P,R9,1*%
%TO.N,BASE1*%
X143176000Y-63818000D03*
%TO.P,R9,2*%
%TO.N,Net-(Q1-B)*%
X145176000Y-63818000D03*
%TD*%
%TO.P,R8,1*%
%TO.N,Net-(A1-D13)*%
X133412000Y-71417000D03*
%TO.P,R8,2*%
%TO.N,DP*%
X135412000Y-71417000D03*
%TD*%
D11*
%TO.P,R2,1*%
%TO.N,Net-(A1-D2{slash}SDA)*%
X108092000Y-77788000D03*
%TO.P,R2,2*%
%TO.N,Net-(AFF1-b)*%
X108092000Y-79788000D03*
%TD*%
D12*
%TO.P,J2,1,Pin_1*%
%TO.N,Conn1x3*%
X133642000Y-129350000D03*
D13*
%TO.P,J2,2,Pin_2*%
%TO.N,Net-(A1-+5V)*%
X136182000Y-129350000D03*
%TO.P,J2,3,Pin_3*%
%TO.N,GND*%
X138722000Y-129350000D03*
%TD*%
D14*
%TO.P,Q1,1,E*%
%TO.N,Net-(A1-+5V)*%
X165990000Y-91110000D03*
D15*
%TO.P,Q1,2,B*%
%TO.N,Net-(Q1-B)*%
X167260000Y-91110000D03*
%TO.P,Q1,3,C*%
%TO.N,Net-(Q1-C)*%
X168530000Y-91110000D03*
%TD*%
D10*
%TO.P,R3,1*%
%TO.N,Net-(A1-D4)*%
X108886000Y-71184000D03*
%TO.P,R3,2*%
%TO.N,Net-(AFF1-c)*%
X110886000Y-71184000D03*
%TD*%
D16*
%TO.P,J4,1,Pin_1*%
%TO.N,Net-(J4-Pin_1)*%
X121560000Y-135560000D03*
%TO.P,J4,2,Pin_2*%
%TO.N,Net-(J4-Pin_2)*%
X125060000Y-135560000D03*
%TD*%
D11*
%TO.P,R1,1*%
%TO.N,Net-(A1-D3{slash}SCL)*%
X103520000Y-77788000D03*
%TO.P,R1,2*%
%TO.N,Net-(AFF1-a)*%
X103520000Y-79788000D03*
%TD*%
D17*
%TO.P,F1,1*%
%TO.N,Net-(J4-Pin_2)*%
X133110000Y-136250000D03*
%TO.P,F1,2*%
%TO.N,VIN*%
X137610000Y-136250000D03*
%TD*%
D14*
%TO.P,Q2,1,E*%
%TO.N,Net-(A1-+5V)*%
X92090000Y-91160000D03*
D15*
%TO.P,Q2,2,B*%
%TO.N,Net-(Q2-B)*%
X90820000Y-91160000D03*
%TO.P,Q2,3,C*%
%TO.N,Net-(Q2-C)*%
X89550000Y-91160000D03*
%TD*%
D16*
%TO.P,J5,1,Pin_1*%
%TO.N,Net-(J4-Pin_1)*%
X108860000Y-135560000D03*
%TO.P,J5,2,Pin_2*%
%TO.N,Net-(J5-Pin_2)*%
X112360000Y-135560000D03*
%TD*%
D18*
%TO.P,R11,1*%
%TO.N,GND*%
X94270000Y-117800000D03*
%TO.P,R11,2*%
%TO.N,Net-(A1-A5)*%
X94270000Y-115800000D03*
%TD*%
D11*
%TO.P,R7,1*%
%TO.N,Net-(A1-D9)*%
X128666000Y-77566000D03*
%TO.P,R7,2*%
%TO.N,Net-(AFF1-g)*%
X128666000Y-79566000D03*
%TD*%
D16*
%TO.P,J6,1,Pin_1*%
%TO.N,Net-(J5-Pin_2)*%
X96160000Y-135560000D03*
%TO.P,J6,2,Pin_2*%
%TO.N,GND*%
X99660000Y-135560000D03*
%TD*%
D12*
%TO.P,J3,1,Pin_1*%
%TO.N,D12*%
X158026000Y-129350000D03*
D13*
%TO.P,J3,2,Pin_2*%
%TO.N,D6*%
X155486000Y-129350000D03*
%TO.P,J3,3,Pin_3*%
%TO.N,Net-(A1-+5V)*%
X152946000Y-129350000D03*
%TO.P,J3,4,Pin_4*%
%TO.N,VIN*%
X150406000Y-129350000D03*
%TO.P,J3,5,Pin_5*%
%TO.N,GND*%
X147866000Y-129350000D03*
%TD*%
D12*
%TO.P,J1,1,Pin_1*%
%TO.N,Net-(A1-A5)*%
X89680000Y-115750000D03*
D13*
%TO.P,J1,2,Pin_2*%
%TO.N,Net-(A1-+5V)*%
X89680000Y-113210000D03*
%TD*%
D19*
%TO.P,A1,1,NC*%
%TO.N,unconnected-(A1-NC-Pad1)*%
X135270000Y-115888000D03*
D20*
%TO.P,A1,2,IOREF*%
%TO.N,unconnected-(A1-IOREF-Pad2)*%
X132730000Y-115888000D03*
%TO.P,A1,3,~{RESET}*%
%TO.N,unconnected-(A1-~{RESET}-Pad3)*%
X130190000Y-115888000D03*
%TO.P,A1,4,3V3*%
%TO.N,unconnected-(A1-3V3-Pad4)*%
X127650000Y-115888000D03*
%TO.P,A1,5,+5V*%
%TO.N,Net-(A1-+5V)*%
X125110000Y-115888000D03*
%TO.P,A1,6,GND*%
%TO.N,GND*%
X122570000Y-115888000D03*
%TO.P,A1,7,GND*%
%TO.N,unconnected-(A1-GND-Pad7)*%
X120030000Y-115888000D03*
%TO.P,A1,8,VIN*%
%TO.N,VIN*%
X117490000Y-115888000D03*
%TO.P,A1,9,A0*%
%TO.N,unconnected-(A1-A0-Pad9)*%
X112410000Y-115888000D03*
%TO.P,A1,10,A1*%
%TO.N,unconnected-(A1-A1-Pad10)*%
X109870000Y-115888000D03*
%TO.P,A1,11,A2*%
%TO.N,unconnected-(A1-A2-Pad11)*%
X107330000Y-115888000D03*
%TO.P,A1,12,A3*%
%TO.N,unconnected-(A1-A3-Pad12)*%
X104790000Y-115888000D03*
%TO.P,A1,13,A4*%
%TO.N,unconnected-(A1-A4-Pad13)*%
X102250000Y-115888000D03*
%TO.P,A1,14,A5*%
%TO.N,Net-(A1-A5)*%
X99710000Y-115888000D03*
%TO.P,A1,15,D0/RX*%
%TO.N,unconnected-(A1-D0{slash}RX-Pad15)*%
X99710000Y-67628000D03*
%TO.P,A1,16,D1/TX*%
%TO.N,Conn1x3*%
X102250000Y-67628000D03*
%TO.P,A1,17,D2/SDA*%
%TO.N,Net-(A1-D2{slash}SDA)*%
X104790000Y-67628000D03*
%TO.P,A1,18,D3/SCL*%
%TO.N,Net-(A1-D3{slash}SCL)*%
X107330000Y-67628000D03*
%TO.P,A1,19,D4*%
%TO.N,Net-(A1-D4)*%
X109870000Y-67628000D03*
%TO.P,A1,20,D5*%
%TO.N,Net-(A1-D5)*%
X112410000Y-67628000D03*
%TO.P,A1,21,D6*%
%TO.N,D6*%
X114950000Y-67628000D03*
%TO.P,A1,22,D7*%
%TO.N,BASE1*%
X117490000Y-67628000D03*
%TO.P,A1,23,D8*%
%TO.N,BASE2*%
X121550000Y-67628000D03*
%TO.P,A1,24,D9*%
%TO.N,Net-(A1-D9)*%
X124090000Y-67628000D03*
%TO.P,A1,25,D10*%
%TO.N,Net-(A1-D10)*%
X126630000Y-67628000D03*
%TO.P,A1,26,D11*%
%TO.N,Net-(A1-D11)*%
X129170000Y-67628000D03*
%TO.P,A1,27,D12*%
%TO.N,D12*%
X131710000Y-67628000D03*
%TO.P,A1,28,D13*%
%TO.N,Net-(A1-D13)*%
X134250000Y-67628000D03*
%TO.P,A1,29,GND*%
%TO.N,unconnected-(A1-GND-Pad29)*%
X136790000Y-67628000D03*
%TO.P,A1,30,AREF*%
%TO.N,unconnected-(A1-AREF-Pad30)*%
X139330000Y-67628000D03*
%TO.P,A1,31,SDA/D2*%
%TO.N,unconnected-(A1-SDA{slash}D2-Pad31)*%
X141870000Y-67628000D03*
%TO.P,A1,32,SCL/D3*%
%TO.N,unconnected-(A1-SCL{slash}D3-Pad32)*%
X144410000Y-67628000D03*
%TD*%
D11*
%TO.P,R6,1*%
%TO.N,Net-(A1-D11)*%
X133492000Y-77534000D03*
%TO.P,R6,2*%
%TO.N,Net-(AFF1-f)*%
X133492000Y-79534000D03*
%TD*%
D10*
%TO.P,R5,1*%
%TO.N,Net-(A1-D10)*%
X138350000Y-71438000D03*
%TO.P,R5,2*%
%TO.N,Net-(AFF1-e)*%
X140350000Y-71438000D03*
%TD*%
D21*
%TO.P,D1,1,A*%
%TO.N,GND*%
X143040000Y-123000000D03*
D22*
%TO.P,D1,2,K*%
%TO.N,VIN*%
X135420000Y-123000000D03*
%TD*%
D10*
%TO.P,R4,1*%
%TO.N,Net-(A1-D5)*%
X113712000Y-71184000D03*
%TO.P,R4,2*%
%TO.N,Net-(AFF1-d)*%
X115712000Y-71184000D03*
%TD*%
D23*
%TO.P,R10,1*%
%TO.N,BASE2*%
X106452000Y-63417000D03*
%TO.P,R10,2*%
%TO.N,Net-(Q2-B)*%
X104452000Y-63417000D03*
%TD*%
D24*
%TO.P,AFF1,1,e*%
%TO.N,Net-(AFF1-e)*%
X143600000Y-75337000D03*
%TO.P,AFF1,2,d*%
%TO.N,Net-(AFF1-d)*%
X141060000Y-75337000D03*
%TO.P,AFF1,3,C.A.*%
%TO.N,Net-(Q1-C)*%
X138520000Y-75337000D03*
%TO.P,AFF1,4,c*%
%TO.N,Net-(AFF1-c)*%
X135980000Y-75337000D03*
%TO.P,AFF1,5,DP*%
%TO.N,DP*%
X133440000Y-75337000D03*
%TO.P,AFF1,6,b*%
%TO.N,Net-(AFF1-b)*%
X143600000Y-106337000D03*
%TO.P,AFF1,7,a*%
%TO.N,Net-(AFF1-a)*%
X141060000Y-106337000D03*
%TO.P,AFF1,8,C.A.*%
%TO.N,unconnected-(AFF1-C.A.-Pad8)*%
X138520000Y-106337000D03*
%TO.P,AFF1,9,f*%
%TO.N,Net-(AFF1-f)*%
X135980000Y-106337000D03*
%TO.P,AFF1,10,g*%
%TO.N,Net-(AFF1-g)*%
X133440000Y-106337000D03*
%TD*%
%TO.P,AFF2,1,e*%
%TO.N,Net-(AFF1-e)*%
X119437000Y-75337000D03*
%TO.P,AFF2,2,d*%
%TO.N,Net-(AFF1-d)*%
X116897000Y-75337000D03*
%TO.P,AFF2,3,C.A.*%
%TO.N,Net-(Q2-C)*%
X114357000Y-75337000D03*
%TO.P,AFF2,4,c*%
%TO.N,Net-(AFF1-c)*%
X111817000Y-75337000D03*
%TO.P,AFF2,5,DP*%
%TO.N,DP*%
X109277000Y-75337000D03*
%TO.P,AFF2,6,b*%
%TO.N,Net-(AFF1-b)*%
X119437000Y-106337000D03*
%TO.P,AFF2,7,a*%
%TO.N,Net-(AFF1-a)*%
X116897000Y-106337000D03*
%TO.P,AFF2,8,C.A.*%
%TO.N,unconnected-(AFF2-C.A.-Pad8)*%
X114357000Y-106337000D03*
%TO.P,AFF2,9,f*%
%TO.N,Net-(AFF1-f)*%
X111817000Y-106337000D03*
%TO.P,AFF2,10,g*%
%TO.N,Net-(AFF1-g)*%
X109277000Y-106337000D03*
%TD*%
D25*
%TO.N,GND*%
X106390000Y-71190000D03*
X136720000Y-69720000D03*
X139970000Y-104630000D03*
X116050000Y-108520000D03*
X104940000Y-76370000D03*
X92630000Y-69360000D03*
X141732000Y-85457000D03*
X134850000Y-126750000D03*
X145270000Y-106290000D03*
X148352000Y-71677000D03*
X118162000Y-91657000D03*
X131100000Y-70720000D03*
X132000000Y-125780000D03*
X134740000Y-84680000D03*
X108840000Y-92400000D03*
X122100000Y-94060000D03*
%TO.N,Net-(J4-Pin_2)*%
X124470000Y-135150000D03*
%TD*%
D26*
%TO.N,VIN*%
X144306000Y-135450000D02*
X144306000Y-135464000D01*
X135420000Y-124790000D02*
X135420000Y-123000000D01*
X148483000Y-127427000D02*
X138057000Y-127427000D01*
X144306000Y-135464000D02*
X143520000Y-136250000D01*
X121102000Y-119500000D02*
X117490000Y-115888000D01*
X135420000Y-122860000D02*
X132060000Y-119500000D01*
X135420000Y-123000000D02*
X135420000Y-122860000D01*
X150406000Y-129350000D02*
X148483000Y-127427000D01*
X138057000Y-127427000D02*
X136182000Y-125552000D01*
X132060000Y-119500000D02*
X121102000Y-119500000D01*
X136182000Y-125552000D02*
X135420000Y-124790000D01*
X143520000Y-136250000D02*
X137610000Y-136250000D01*
X150406000Y-129350000D02*
X144306000Y-135450000D01*
D27*
%TO.N,Conn1x3*%
X102250000Y-71649000D02*
X101632000Y-72267000D01*
X131370000Y-120340000D02*
X117180000Y-120340000D01*
X102250000Y-67628000D02*
X102250000Y-71649000D01*
X133642000Y-122612000D02*
X131370000Y-120340000D01*
X115040000Y-118200000D02*
X115040000Y-114875000D01*
X101632000Y-101467000D02*
X115040000Y-114875000D01*
X101632000Y-72267000D02*
X101632000Y-101467000D01*
X117180000Y-120340000D02*
X115040000Y-118200000D01*
X133642000Y-129350000D02*
X133642000Y-122612000D01*
%TO.N,BASE1*%
X122232000Y-69727000D02*
X119589000Y-69727000D01*
X125401000Y-63818000D02*
X122832000Y-66387000D01*
X122832000Y-69127000D02*
X122232000Y-69727000D01*
X119589000Y-69727000D02*
X117490000Y-67628000D01*
X143176000Y-63818000D02*
X125401000Y-63818000D01*
X122832000Y-66387000D02*
X122832000Y-69127000D01*
%TO.N,BASE2*%
X117339000Y-63417000D02*
X121550000Y-67628000D01*
X106452000Y-63417000D02*
X117339000Y-63417000D01*
%TO.N,DP*%
X135412000Y-71417000D02*
X133440000Y-73389000D01*
X133440000Y-73389000D02*
X133440000Y-75337000D01*
D26*
%TO.N,Net-(A1-+5V)*%
X165990000Y-91110000D02*
X166030000Y-91150000D01*
X166030000Y-91150000D02*
X166030000Y-102309000D01*
X154482000Y-113857000D02*
X127141000Y-113857000D01*
X152946000Y-125006000D02*
X152946000Y-129350000D01*
X125110000Y-115888000D02*
X127779000Y-118557000D01*
X127141000Y-113857000D02*
X125110000Y-115888000D01*
X127779000Y-118557000D02*
X146497000Y-118557000D01*
X166030000Y-102309000D02*
X154482000Y-113857000D01*
X146497000Y-118557000D02*
X152946000Y-125006000D01*
D27*
%TO.N,Net-(A1-D2{slash}SDA)*%
X104790000Y-74486000D02*
X104790000Y-67628000D01*
X108092000Y-77788000D02*
X104790000Y-74486000D01*
%TO.N,Net-(A1-D3{slash}SCL)*%
X103520000Y-77788000D02*
X103520000Y-66590000D01*
X105922000Y-66220000D02*
X107330000Y-67628000D01*
X103890000Y-66220000D02*
X105922000Y-66220000D01*
X103520000Y-66590000D02*
X103890000Y-66220000D01*
%TO.N,Net-(A1-D4)*%
X108886000Y-71184000D02*
X109870000Y-70200000D01*
X109870000Y-70200000D02*
X109870000Y-67628000D01*
%TO.N,Net-(A1-D5)*%
X112410000Y-69882000D02*
X112410000Y-67628000D01*
X113712000Y-71184000D02*
X112410000Y-69882000D01*
%TO.N,Net-(A1-D9)*%
X128666000Y-77566000D02*
X124090000Y-72990000D01*
X124090000Y-72990000D02*
X124090000Y-67628000D01*
%TO.N,Net-(A1-D10)*%
X137292000Y-65747000D02*
X129792000Y-65747000D01*
X138350000Y-71438000D02*
X138205000Y-71293000D01*
X138205000Y-69010000D02*
X138042000Y-68847000D01*
X138042000Y-66497000D02*
X137292000Y-65747000D01*
X138042000Y-68847000D02*
X138042000Y-66497000D01*
X128511000Y-65747000D02*
X129792000Y-65747000D01*
X126630000Y-67628000D02*
X128511000Y-65747000D01*
X138205000Y-71293000D02*
X138205000Y-69010000D01*
%TO.N,Net-(A1-D11)*%
X129170000Y-73212000D02*
X129170000Y-67628000D01*
X133492000Y-77534000D02*
X129170000Y-73212000D01*
%TO.N,Net-(A1-D13)*%
X134250000Y-70579000D02*
X134250000Y-67628000D01*
X133412000Y-71417000D02*
X134250000Y-70579000D01*
%TO.N,Net-(AFF1-e)*%
X141688000Y-71438000D02*
X143600000Y-73350000D01*
X140350000Y-71438000D02*
X141688000Y-71438000D01*
X143600000Y-73350000D02*
X143600000Y-75337000D01*
%TO.N,Net-(AFF1-d)*%
X116897000Y-72369000D02*
X116897000Y-75337000D01*
X115712000Y-71184000D02*
X116897000Y-72369000D01*
%TO.N,Net-(Q1-C)*%
X168530000Y-91110000D02*
X168530000Y-88845000D01*
X157222000Y-77537000D02*
X139367000Y-77537000D01*
X139367000Y-77537000D02*
X138520000Y-76690000D01*
X168530000Y-88845000D02*
X157222000Y-77537000D01*
X138520000Y-76690000D02*
X138520000Y-75337000D01*
%TO.N,Net-(AFF1-c)*%
X110886000Y-71184000D02*
X111817000Y-72115000D01*
X111817000Y-72115000D02*
X111817000Y-75337000D01*
%TO.N,Net-(AFF1-b)*%
X119437000Y-86082000D02*
X119437000Y-106337000D01*
X108092000Y-79788000D02*
X113143000Y-79788000D01*
X123262000Y-107767000D02*
X121832000Y-106337000D01*
X113143000Y-79788000D02*
X119437000Y-86082000D01*
X142170000Y-107767000D02*
X143600000Y-106337000D01*
X121832000Y-106337000D02*
X119437000Y-106337000D01*
X123262000Y-107767000D02*
X142170000Y-107767000D01*
%TO.N,Net-(AFF1-a)*%
X103520000Y-79788000D02*
X105159000Y-81427000D01*
X105159000Y-81427000D02*
X112122000Y-81427000D01*
X145802000Y-104317000D02*
X143080000Y-104317000D01*
X144832000Y-108717000D02*
X146652000Y-106897000D01*
X146652000Y-106897000D02*
X146652000Y-105167000D01*
X116897000Y-86202000D02*
X116897000Y-106337000D01*
X146652000Y-105167000D02*
X145802000Y-104317000D01*
X119277000Y-108717000D02*
X144832000Y-108717000D01*
X116897000Y-106337000D02*
X119277000Y-108717000D01*
X143080000Y-104317000D02*
X141060000Y-106337000D01*
X112122000Y-81427000D02*
X116897000Y-86202000D01*
%TO.N,Net-(AFF1-f)*%
X139170000Y-103147000D02*
X135980000Y-106337000D01*
X115117000Y-109637000D02*
X145462000Y-109637000D01*
X147912000Y-104677000D02*
X146382000Y-103147000D01*
D28*
X147803000Y-107297000D02*
X147912000Y-107188000D01*
D27*
X135980000Y-82022000D02*
X135980000Y-106337000D01*
X145462000Y-109637000D02*
X147802000Y-107297000D01*
X111817000Y-106337000D02*
X115117000Y-109637000D01*
X133492000Y-79534000D02*
X135980000Y-82022000D01*
X147912000Y-107188000D02*
X147912000Y-104677000D01*
D28*
X147802000Y-107297000D02*
X147803000Y-107297000D01*
D27*
X146382000Y-103147000D02*
X139170000Y-103147000D01*
%TO.N,Net-(AFF1-g)*%
X133440000Y-82875000D02*
X133440000Y-106337000D01*
X128666000Y-79566000D02*
X130131000Y-79566000D01*
X130131000Y-79566000D02*
X133440000Y-82875000D01*
%TO.N,Net-(Q2-C)*%
X101032000Y-66507000D02*
X101032000Y-68497000D01*
X109835000Y-65620000D02*
X101919000Y-65620000D01*
X112462000Y-70641106D02*
X111132000Y-69311106D01*
X112462000Y-73442000D02*
X112462000Y-70641106D01*
X89550000Y-79980000D02*
X90820000Y-78710000D01*
X111132000Y-66917000D02*
X109835000Y-65620000D01*
X101919000Y-65620000D02*
X101032000Y-66507000D01*
X89550000Y-91160000D02*
X89550000Y-79980000D01*
X114357000Y-75337000D02*
X112462000Y-73442000D01*
X111132000Y-69311106D02*
X111132000Y-66917000D01*
D28*
X90820000Y-78710000D02*
X90820000Y-78709000D01*
D27*
X101032000Y-68497000D02*
X90820000Y-78709000D01*
%TO.N,Net-(J4-Pin_2)*%
X133120000Y-135450000D02*
X133010000Y-135560000D01*
X127840000Y-135560000D02*
X125060000Y-135560000D01*
X133110000Y-136250000D02*
X128530000Y-136250000D01*
X128530000Y-136250000D02*
X127840000Y-135560000D01*
%TO.N,Net-(J4-Pin_1)*%
X118640000Y-138480000D02*
X111780000Y-138480000D01*
X111780000Y-138480000D02*
X108860000Y-135560000D01*
X121560000Y-135560000D02*
X118640000Y-138480000D01*
%TO.N,Net-(J5-Pin_2)*%
X99190000Y-132530000D02*
X96160000Y-135560000D01*
X112360000Y-135560000D02*
X109330000Y-132530000D01*
X109330000Y-132530000D02*
X99190000Y-132530000D01*
%TO.N,Net-(Q1-B)*%
X168350000Y-92920000D02*
X167260000Y-91830000D01*
X169190000Y-92920000D02*
X168350000Y-92920000D01*
X169740000Y-88382000D02*
X169740000Y-92370000D01*
X145176000Y-63818000D02*
X169740000Y-88382000D01*
D28*
X167260000Y-91830000D02*
X167260000Y-91110000D01*
D27*
X169740000Y-92370000D02*
X169190000Y-92920000D01*
%TO.N,Net-(Q2-B)*%
X88310000Y-66310000D02*
X91203000Y-63417000D01*
X89020000Y-92720000D02*
X88310000Y-92010000D01*
X89810000Y-92720000D02*
X89020000Y-92720000D01*
X91203000Y-63417000D02*
X104452000Y-63417000D01*
X90820000Y-91710000D02*
X89810000Y-92720000D01*
X88310000Y-92010000D02*
X88310000Y-66310000D01*
X90820000Y-91160000D02*
X90820000Y-91710000D01*
%TO.N,Net-(A1-A5)*%
X94270000Y-115800000D02*
X94220000Y-115750000D01*
D28*
X94358000Y-115888000D02*
X94270000Y-115800000D01*
D27*
X94220000Y-115750000D02*
X89680000Y-115750000D01*
X99710000Y-115888000D02*
X94358000Y-115888000D01*
%TD*%
%TA.AperFunction,Conductor*%
%TO.N,GND*%
G36*
X134481287Y-124301866D02*
G01*
X134573784Y-124358549D01*
X134610290Y-124380920D01*
X134657165Y-124432732D01*
X134669500Y-124486647D01*
X134669500Y-124726294D01*
X134668191Y-124744264D01*
X134664711Y-124768023D01*
X134669028Y-124817368D01*
X134669500Y-124828175D01*
X134669500Y-124833709D01*
X134669916Y-124837272D01*
X134669917Y-124837282D01*
X134673098Y-124864496D01*
X134673464Y-124868082D01*
X134680109Y-124944041D01*
X134684329Y-124963071D01*
X134684758Y-124964251D01*
X134684759Y-124964255D01*
X134710413Y-125034742D01*
X134711582Y-125038107D01*
X134735580Y-125110524D01*
X134744075Y-125128072D01*
X134785979Y-125191784D01*
X134787889Y-125194782D01*
X134827288Y-125258656D01*
X134827952Y-125259732D01*
X134840253Y-125274830D01*
X134841168Y-125275693D01*
X134841170Y-125275696D01*
X134884809Y-125316867D01*
X134895708Y-125327150D01*
X134898295Y-125329663D01*
X135589288Y-126020656D01*
X137481267Y-127912634D01*
X137493048Y-127926266D01*
X137507389Y-127945529D01*
X137545339Y-127977373D01*
X137553314Y-127984681D01*
X137557223Y-127988590D01*
X137560055Y-127990829D01*
X137560065Y-127990838D01*
X137581537Y-128007815D01*
X137584337Y-128010096D01*
X137642754Y-128059115D01*
X137659165Y-128069569D01*
X137660319Y-128070107D01*
X137660323Y-128070110D01*
X137728328Y-128101821D01*
X137731477Y-128103346D01*
X137796361Y-128135932D01*
X137847434Y-128183609D01*
X137864623Y-128251332D01*
X137842470Y-128317596D01*
X137828390Y-128334422D01*
X137683890Y-128478922D01*
X137553880Y-128664596D01*
X137499303Y-128708220D01*
X137429804Y-128715413D01*
X137367450Y-128683891D01*
X137350730Y-128664595D01*
X137220494Y-128478598D01*
X137053404Y-128311508D01*
X137053401Y-128311505D01*
X136859830Y-128175965D01*
X136645663Y-128076097D01*
X136579250Y-128058302D01*
X136417407Y-128014936D01*
X136181999Y-127994340D01*
X135946592Y-128014936D01*
X135718336Y-128076097D01*
X135504170Y-128175965D01*
X135310601Y-128311503D01*
X135188673Y-128433431D01*
X135127350Y-128466915D01*
X135057658Y-128461931D01*
X135001725Y-128420059D01*
X134984810Y-128389082D01*
X134964423Y-128334422D01*
X134935796Y-128257669D01*
X134849546Y-128142454D01*
X134734331Y-128056204D01*
X134599483Y-128005909D01*
X134539873Y-127999500D01*
X134536551Y-127999500D01*
X134416500Y-127999500D01*
X134349461Y-127979815D01*
X134303706Y-127927011D01*
X134292500Y-127875500D01*
X134292500Y-124407595D01*
X134312185Y-124340556D01*
X134364989Y-124294801D01*
X134434147Y-124284857D01*
X134481287Y-124301866D01*
G37*
%TD.AperFunction*%
%TA.AperFunction,Conductor*%
G36*
X103355306Y-64087185D02*
G01*
X103401061Y-64139989D01*
X103405973Y-64152495D01*
X103417186Y-64186335D01*
X103509288Y-64335657D01*
X103633342Y-64459711D01*
X103652186Y-64471334D01*
X103782666Y-64551814D01*
X103889858Y-64587334D01*
X103949202Y-64606999D01*
X104048858Y-64617180D01*
X104048859Y-64617180D01*
X104051991Y-64617500D01*
X104852008Y-64617499D01*
X104954797Y-64606999D01*
X105121334Y-64551814D01*
X105270656Y-64459712D01*
X105364319Y-64366048D01*
X105425640Y-64332564D01*
X105495331Y-64337548D01*
X105539680Y-64366049D01*
X105633342Y-64459711D01*
X105652186Y-64471334D01*
X105782666Y-64551814D01*
X105889858Y-64587334D01*
X105949202Y-64606999D01*
X106048858Y-64617180D01*
X106048859Y-64617180D01*
X106051991Y-64617500D01*
X106852008Y-64617499D01*
X106954797Y-64606999D01*
X107121334Y-64551814D01*
X107270656Y-64459712D01*
X107394712Y-64335656D01*
X107486814Y-64186334D01*
X107498027Y-64152494D01*
X107537801Y-64095050D01*
X107602317Y-64068228D01*
X107615733Y-64067500D01*
X117018192Y-64067500D01*
X117085231Y-64087185D01*
X117105873Y-64103819D01*
X120243115Y-67241061D01*
X120276600Y-67302384D01*
X120275209Y-67360834D01*
X120264364Y-67401307D01*
X120244531Y-67628000D01*
X120264364Y-67854689D01*
X120323261Y-68074497D01*
X120419432Y-68280735D01*
X120549953Y-68467140D01*
X120710859Y-68628046D01*
X120897264Y-68758567D01*
X120897265Y-68758567D01*
X120897266Y-68758568D01*
X120918499Y-68768469D01*
X121072149Y-68840118D01*
X121124588Y-68886291D01*
X121143740Y-68953484D01*
X121123524Y-69020365D01*
X121070359Y-69065700D01*
X121019744Y-69076500D01*
X119909808Y-69076500D01*
X119842769Y-69056815D01*
X119822127Y-69040181D01*
X118796884Y-68014938D01*
X118763399Y-67953615D01*
X118764791Y-67895161D01*
X118775635Y-67854691D01*
X118795468Y-67628000D01*
X118775635Y-67401310D01*
X118775635Y-67401308D01*
X118716739Y-67181504D01*
X118620568Y-66975266D01*
X118490047Y-66788861D01*
X118490046Y-66788859D01*
X118329140Y-66627953D01*
X118142735Y-66497432D01*
X117936497Y-66401261D01*
X117716689Y-66342364D01*
X117489999Y-66322531D01*
X117263310Y-66342364D01*
X117043502Y-66401261D01*
X116837264Y-66497432D01*
X116650859Y-66627953D01*
X116489953Y-66788859D01*
X116359433Y-66975263D01*
X116332382Y-67033275D01*
X116286209Y-67085714D01*
X116219015Y-67104865D01*
X116152134Y-67084649D01*
X116107618Y-67033275D01*
X116107617Y-67033273D01*
X116080568Y-66975266D01*
X115950047Y-66788861D01*
X115950046Y-66788859D01*
X115789140Y-66627953D01*
X115602735Y-66497432D01*
X115396497Y-66401261D01*
X115176689Y-66342364D01*
X114950000Y-66322531D01*
X114723310Y-66342364D01*
X114503502Y-66401261D01*
X114297264Y-66497432D01*
X114110859Y-66627953D01*
X113949953Y-66788859D01*
X113819431Y-66975266D01*
X113792380Y-67033276D01*
X113746207Y-67085714D01*
X113679013Y-67104865D01*
X113612132Y-67084648D01*
X113567617Y-67033273D01*
X113540568Y-66975266D01*
X113410046Y-66788859D01*
X113249140Y-66627953D01*
X113062735Y-66497432D01*
X112856497Y-66401261D01*
X112636689Y-66342364D01*
X112410000Y-66322531D01*
X112183310Y-66342364D01*
X111963501Y-66401261D01*
X111755764Y-66498132D01*
X111686686Y-66508624D01*
X111622902Y-66480104D01*
X111618027Y-66474835D01*
X111609964Y-66468164D01*
X111609963Y-66468163D01*
X111577732Y-66441499D01*
X111574779Y-66439056D01*
X111566140Y-66431194D01*
X110355434Y-65220488D01*
X110342091Y-65203833D01*
X110289166Y-65154134D01*
X110286369Y-65151423D01*
X110268789Y-65133843D01*
X110266035Y-65131089D01*
X110262956Y-65128701D01*
X110262951Y-65128696D01*
X110262548Y-65128383D01*
X110253669Y-65120800D01*
X110220392Y-65089551D01*
X110201793Y-65079326D01*
X110185532Y-65068645D01*
X110168764Y-65055638D01*
X110145177Y-65045431D01*
X110126869Y-65037508D01*
X110116379Y-65032369D01*
X110076367Y-65010372D01*
X110055800Y-65005091D01*
X110037398Y-64998791D01*
X110017924Y-64990364D01*
X109972837Y-64983223D01*
X109961398Y-64980854D01*
X109917178Y-64969500D01*
X109917177Y-64969500D01*
X109895955Y-64969500D01*
X109876556Y-64967973D01*
X109855596Y-64964653D01*
X109855595Y-64964653D01*
X109833558Y-64966736D01*
X109810139Y-64968950D01*
X109798470Y-64969500D01*
X102004504Y-64969500D01*
X101983294Y-64967158D01*
X101910737Y-64969439D01*
X101906842Y-64969500D01*
X101878075Y-64969500D01*
X101874213Y-64969987D01*
X101874192Y-64969989D01*
X101873681Y-64970054D01*
X101862059Y-64970968D01*
X101816430Y-64972402D01*
X101796051Y-64978323D01*
X101777007Y-64982267D01*
X101762639Y-64984082D01*
X101755941Y-64984929D01*
X101713490Y-65001736D01*
X101702443Y-65005518D01*
X101658598Y-65018256D01*
X101640330Y-65029060D01*
X101622864Y-65037617D01*
X101603129Y-65045431D01*
X101566202Y-65072260D01*
X101556442Y-65078671D01*
X101517136Y-65101917D01*
X101502125Y-65116928D01*
X101487336Y-65129558D01*
X101470164Y-65142034D01*
X101441057Y-65177218D01*
X101433196Y-65185856D01*
X100632484Y-65986568D01*
X100615831Y-65999910D01*
X100566133Y-66052833D01*
X100563428Y-66055625D01*
X100543089Y-66075965D01*
X100540713Y-66079027D01*
X100540702Y-66079040D01*
X100540378Y-66079459D01*
X100532806Y-66088323D01*
X100501550Y-66121607D01*
X100491322Y-66140212D01*
X100480645Y-66156467D01*
X100467636Y-66173238D01*
X100449506Y-66215132D01*
X100444370Y-66225616D01*
X100422372Y-66265632D01*
X100417091Y-66286199D01*
X100410791Y-66304600D01*
X100402364Y-66324073D01*
X100399811Y-66340194D01*
X100369879Y-66403328D01*
X100310566Y-66440257D01*
X100240704Y-66439257D01*
X100224933Y-66433174D01*
X100156497Y-66401261D01*
X99936689Y-66342364D01*
X99710000Y-66322531D01*
X99483310Y-66342364D01*
X99263502Y-66401261D01*
X99057264Y-66497432D01*
X98870859Y-66627953D01*
X98709953Y-66788859D01*
X98579432Y-66975264D01*
X98483261Y-67181502D01*
X98424364Y-67401310D01*
X98404531Y-67627999D01*
X98424364Y-67854689D01*
X98483261Y-68074497D01*
X98579432Y-68280735D01*
X98709953Y-68467140D01*
X98870859Y-68628046D01*
X99057264Y-68758567D01*
X99057265Y-68758567D01*
X99057266Y-68758568D01*
X99263504Y-68854739D01*
X99443137Y-68902871D01*
X99502798Y-68939236D01*
X99533327Y-69002083D01*
X99525032Y-69071458D01*
X99498725Y-69110327D01*
X90333842Y-78275211D01*
X90333834Y-78275219D01*
X90331089Y-78277965D01*
X90328786Y-78280932D01*
X90323639Y-78286413D01*
X89172180Y-79437872D01*
X89110857Y-79471357D01*
X89041165Y-79466373D01*
X88985232Y-79424501D01*
X88960815Y-79359037D01*
X88960500Y-79350218D01*
X88960500Y-66630806D01*
X88980185Y-66563768D01*
X88996814Y-66543131D01*
X91436127Y-64103818D01*
X91497450Y-64070334D01*
X91523808Y-64067500D01*
X103288267Y-64067500D01*
X103355306Y-64087185D01*
G37*
%TD.AperFunction*%
%TA.AperFunction,Conductor*%
G36*
X127967865Y-68171348D02*
G01*
X128012382Y-68222725D01*
X128039431Y-68280733D01*
X128169953Y-68467140D01*
X128330860Y-68628047D01*
X128466622Y-68723108D01*
X128510247Y-68777685D01*
X128519499Y-68824683D01*
X128519499Y-73126501D01*
X128517158Y-73147708D01*
X128519439Y-73220262D01*
X128519500Y-73224157D01*
X128519500Y-73252925D01*
X128519987Y-73256785D01*
X128519989Y-73256808D01*
X128520054Y-73257320D01*
X128520968Y-73268942D01*
X128522402Y-73314569D01*
X128528323Y-73334950D01*
X128532267Y-73353995D01*
X128534928Y-73375059D01*
X128551737Y-73417515D01*
X128555520Y-73428563D01*
X128568256Y-73472400D01*
X128579061Y-73490670D01*
X128587621Y-73508143D01*
X128595431Y-73527869D01*
X128622267Y-73564808D01*
X128628673Y-73574560D01*
X128651919Y-73613865D01*
X128651921Y-73613867D01*
X128666925Y-73628871D01*
X128679564Y-73643669D01*
X128692037Y-73660837D01*
X128727212Y-73689936D01*
X128735854Y-73697800D01*
X132255181Y-77217127D01*
X132288666Y-77278450D01*
X132291500Y-77304808D01*
X132291500Y-77930858D01*
X132291500Y-77930877D01*
X132291501Y-77934008D01*
X132291820Y-77937140D01*
X132291821Y-77937141D01*
X132302000Y-78036796D01*
X132357186Y-78203334D01*
X132449288Y-78352657D01*
X132542950Y-78446319D01*
X132576435Y-78507642D01*
X132571451Y-78577334D01*
X132542950Y-78621681D01*
X132449288Y-78715342D01*
X132357186Y-78864665D01*
X132302000Y-79031202D01*
X132291819Y-79130858D01*
X132291817Y-79130878D01*
X132291500Y-79133991D01*
X132291500Y-79137138D01*
X132291500Y-79137139D01*
X132291500Y-79930858D01*
X132291500Y-79930877D01*
X132291501Y-79934008D01*
X132291820Y-79937140D01*
X132291821Y-79937141D01*
X132302000Y-80036796D01*
X132357186Y-80203334D01*
X132449288Y-80352657D01*
X132573342Y-80476711D01*
X132573344Y-80476712D01*
X132722666Y-80568814D01*
X132834017Y-80605712D01*
X132889202Y-80623999D01*
X132988858Y-80634180D01*
X132988859Y-80634180D01*
X132991991Y-80634500D01*
X133621191Y-80634499D01*
X133688230Y-80654183D01*
X133708872Y-80670818D01*
X135293181Y-82255127D01*
X135326666Y-82316450D01*
X135329500Y-82342808D01*
X135329500Y-105186705D01*
X135309815Y-105253744D01*
X135276624Y-105288279D01*
X135165380Y-105366173D01*
X135009174Y-105522379D01*
X134882466Y-105703338D01*
X134822382Y-105832189D01*
X134776209Y-105884628D01*
X134709016Y-105903780D01*
X134642135Y-105883564D01*
X134597618Y-105832189D01*
X134569848Y-105772637D01*
X134537534Y-105703339D01*
X134410826Y-105522380D01*
X134254620Y-105366174D01*
X134143374Y-105288278D01*
X134099751Y-105233703D01*
X134090500Y-105186710D01*
X134090499Y-82960503D01*
X134092841Y-82939300D01*
X134092759Y-82936706D01*
X134092760Y-82936704D01*
X134090561Y-82866722D01*
X134090500Y-82862828D01*
X134090500Y-82837977D01*
X134090500Y-82837976D01*
X134090500Y-82834075D01*
X134089948Y-82829712D01*
X134089031Y-82818064D01*
X134087598Y-82772431D01*
X134081675Y-82752045D01*
X134077731Y-82733004D01*
X134075071Y-82711942D01*
X134058267Y-82669501D01*
X134054484Y-82658452D01*
X134041745Y-82614602D01*
X134038594Y-82609275D01*
X134030937Y-82596326D01*
X134022376Y-82578850D01*
X134014568Y-82559129D01*
X133987731Y-82522191D01*
X133981317Y-82512425D01*
X133958081Y-82473135D01*
X133943074Y-82458128D01*
X133930436Y-82443331D01*
X133917963Y-82426163D01*
X133882779Y-82397056D01*
X133874140Y-82389194D01*
X130651434Y-79166488D01*
X130638091Y-79149833D01*
X130585166Y-79100134D01*
X130582369Y-79097423D01*
X130564789Y-79079843D01*
X130562035Y-79077089D01*
X130558956Y-79074701D01*
X130558951Y-79074696D01*
X130558548Y-79074383D01*
X130549669Y-79066800D01*
X130545837Y-79063202D01*
X130516393Y-79035552D01*
X130516392Y-79035551D01*
X130497793Y-79025326D01*
X130481532Y-79014645D01*
X130464764Y-79001638D01*
X130422870Y-78983508D01*
X130412379Y-78978369D01*
X130372367Y-78956372D01*
X130351800Y-78951091D01*
X130333398Y-78944791D01*
X130313924Y-78936364D01*
X130268837Y-78929223D01*
X130257398Y-78926854D01*
X130213178Y-78915500D01*
X130213177Y-78915500D01*
X130191955Y-78915500D01*
X130172556Y-78913973D01*
X130151596Y-78910653D01*
X130151595Y-78910653D01*
X130129558Y-78912736D01*
X130106139Y-78914950D01*
X130094470Y-78915500D01*
X129881638Y-78915500D01*
X129814599Y-78895815D01*
X129776099Y-78856596D01*
X129708713Y-78747345D01*
X129672599Y-78711231D01*
X129615047Y-78653679D01*
X129581564Y-78592359D01*
X129586548Y-78522667D01*
X129615047Y-78478320D01*
X129708712Y-78384656D01*
X129800814Y-78235334D01*
X129855999Y-78068797D01*
X129866500Y-77966009D01*
X129866499Y-77165992D01*
X129855999Y-77063203D01*
X129800814Y-76896666D01*
X129713895Y-76755747D01*
X129708711Y-76747342D01*
X129584657Y-76623288D01*
X129435334Y-76531186D01*
X129268797Y-76476000D01*
X129169141Y-76465819D01*
X129169122Y-76465818D01*
X129166009Y-76465500D01*
X129162860Y-76465500D01*
X128536808Y-76465500D01*
X128469769Y-76445815D01*
X128449127Y-76429181D01*
X124776819Y-72756873D01*
X124743334Y-72695550D01*
X124740500Y-72669192D01*
X124740500Y-68824683D01*
X124760185Y-68757644D01*
X124793377Y-68723108D01*
X124929140Y-68628046D01*
X125090046Y-68467140D01*
X125220567Y-68280735D01*
X125220568Y-68280734D01*
X125247618Y-68222724D01*
X125293790Y-68170285D01*
X125360983Y-68151133D01*
X125427865Y-68171348D01*
X125472382Y-68222725D01*
X125499431Y-68280733D01*
X125629953Y-68467140D01*
X125790859Y-68628046D01*
X125977264Y-68758567D01*
X125977265Y-68758567D01*
X125977266Y-68758568D01*
X126183504Y-68854739D01*
X126403308Y-68913635D01*
X126630000Y-68933468D01*
X126856692Y-68913635D01*
X127076496Y-68854739D01*
X127282734Y-68758568D01*
X127469139Y-68628047D01*
X127630047Y-68467139D01*
X127760568Y-68280734D01*
X127787618Y-68222724D01*
X127833790Y-68170285D01*
X127900983Y-68151133D01*
X127967865Y-68171348D01*
G37*
%TD.AperFunction*%
%TA.AperFunction,Conductor*%
G36*
X137317865Y-75790436D02*
G01*
X137362382Y-75841811D01*
X137422466Y-75970662D01*
X137549174Y-76151620D01*
X137705377Y-76307824D01*
X137705380Y-76307826D01*
X137816623Y-76385718D01*
X137860248Y-76440294D01*
X137869500Y-76487293D01*
X137869500Y-76604494D01*
X137867158Y-76625702D01*
X137869439Y-76698262D01*
X137869500Y-76702157D01*
X137869500Y-76730925D01*
X137869987Y-76734785D01*
X137869989Y-76734808D01*
X137870054Y-76735320D01*
X137870968Y-76746942D01*
X137872402Y-76792569D01*
X137878323Y-76812950D01*
X137882267Y-76831995D01*
X137884928Y-76853059D01*
X137901737Y-76895515D01*
X137905520Y-76906563D01*
X137918256Y-76950400D01*
X137929061Y-76968670D01*
X137937621Y-76986143D01*
X137945431Y-77005869D01*
X137972267Y-77042808D01*
X137978673Y-77052560D01*
X138001919Y-77091865D01*
X138001921Y-77091867D01*
X138016925Y-77106871D01*
X138029564Y-77121669D01*
X138042037Y-77138837D01*
X138077212Y-77167936D01*
X138085854Y-77175800D01*
X138846564Y-77936510D01*
X138859911Y-77953169D01*
X138912832Y-78002864D01*
X138915629Y-78005575D01*
X138935965Y-78025911D01*
X138939036Y-78028293D01*
X138939437Y-78028604D01*
X138948323Y-78036192D01*
X138981607Y-78067448D01*
X139000199Y-78077669D01*
X139016462Y-78088352D01*
X139033234Y-78101362D01*
X139033235Y-78101362D01*
X139033236Y-78101363D01*
X139075147Y-78119499D01*
X139085628Y-78124634D01*
X139125632Y-78146627D01*
X139146183Y-78151903D01*
X139164594Y-78158206D01*
X139184074Y-78166636D01*
X139229178Y-78173779D01*
X139240597Y-78176144D01*
X139284823Y-78187500D01*
X139306045Y-78187500D01*
X139325443Y-78189026D01*
X139346405Y-78192347D01*
X139388319Y-78188384D01*
X139391861Y-78188050D01*
X139403530Y-78187500D01*
X156901192Y-78187500D01*
X156968231Y-78207185D01*
X156988873Y-78223819D01*
X167843181Y-89078127D01*
X167876666Y-89139450D01*
X167879500Y-89165808D01*
X167879500Y-89846445D01*
X167859815Y-89913484D01*
X167807011Y-89959239D01*
X167737853Y-89969183D01*
X167697048Y-89955804D01*
X167665119Y-89938738D01*
X167654341Y-89932977D01*
X167530786Y-89895497D01*
X167461031Y-89874337D01*
X167281962Y-89856701D01*
X167260000Y-89854538D01*
X167259999Y-89854538D01*
X167058968Y-89874337D01*
X166864574Y-89933306D01*
X166794707Y-89933929D01*
X166763698Y-89918579D01*
X166757331Y-89916204D01*
X166622483Y-89865909D01*
X166562873Y-89859500D01*
X166559550Y-89859500D01*
X165420439Y-89859500D01*
X165420420Y-89859500D01*
X165417128Y-89859501D01*
X165413848Y-89859853D01*
X165413840Y-89859854D01*
X165357515Y-89865909D01*
X165222669Y-89916204D01*
X165107454Y-90002454D01*
X165021204Y-90117668D01*
X165021203Y-90117669D01*
X165021204Y-90117669D01*
X164970909Y-90252517D01*
X164964500Y-90312127D01*
X164964500Y-90315448D01*
X164964500Y-90315449D01*
X164964500Y-91904560D01*
X164964500Y-91904578D01*
X164964501Y-91907872D01*
X164964853Y-91911152D01*
X164964854Y-91911159D01*
X164968846Y-91948296D01*
X164970909Y-91967483D01*
X165021204Y-92102331D01*
X165107454Y-92217546D01*
X165222669Y-92303796D01*
X165222670Y-92303796D01*
X165229811Y-92309142D01*
X165271682Y-92365076D01*
X165279500Y-92408409D01*
X165279500Y-101946770D01*
X165259815Y-102013809D01*
X165243181Y-102034451D01*
X154207451Y-113070181D01*
X154146128Y-113103666D01*
X154119770Y-113106500D01*
X127204706Y-113106500D01*
X127186736Y-113105191D01*
X127172853Y-113103157D01*
X127162977Y-113101711D01*
X127162976Y-113101711D01*
X127113631Y-113106028D01*
X127102824Y-113106500D01*
X127097291Y-113106500D01*
X127093730Y-113106916D01*
X127093715Y-113106917D01*
X127066501Y-113110098D01*
X127062916Y-113110464D01*
X126986961Y-113117109D01*
X126967921Y-113121330D01*
X126896232Y-113147421D01*
X126892831Y-113148603D01*
X126820474Y-113172580D01*
X126802927Y-113181075D01*
X126739221Y-113222975D01*
X126736181Y-113224912D01*
X126671280Y-113264944D01*
X126656164Y-113277257D01*
X126603831Y-113332726D01*
X126601319Y-113335312D01*
X125375348Y-114561282D01*
X125314025Y-114594767D01*
X125276860Y-114597129D01*
X125110000Y-114582531D01*
X124883310Y-114602364D01*
X124663502Y-114661261D01*
X124457264Y-114757432D01*
X124270859Y-114887953D01*
X124109953Y-115048859D01*
X123979430Y-115235267D01*
X123952105Y-115293866D01*
X123905932Y-115346305D01*
X123838739Y-115365456D01*
X123771858Y-115345239D01*
X123727342Y-115293865D01*
X123700134Y-115235519D01*
X123569658Y-115049180D01*
X123408819Y-114888341D01*
X123222480Y-114757865D01*
X123016326Y-114661733D01*
X122820000Y-114609126D01*
X122819999Y-115452498D01*
X122712315Y-115403320D01*
X122605763Y-115388000D01*
X122534237Y-115388000D01*
X122427685Y-115403320D01*
X122320000Y-115452498D01*
X122320000Y-114609127D01*
X122319999Y-114609126D01*
X122123673Y-114661733D01*
X121917519Y-114757865D01*
X121731180Y-114888341D01*
X121570341Y-115049180D01*
X121439863Y-115235522D01*
X121412656Y-115293866D01*
X121366483Y-115346305D01*
X121299290Y-115365456D01*
X121232409Y-115345239D01*
X121187893Y-115293865D01*
X121160567Y-115235264D01*
X121030046Y-115048859D01*
X120869140Y-114887953D01*
X120682735Y-114757432D01*
X120476497Y-114661261D01*
X120256689Y-114602364D01*
X120030000Y-114582531D01*
X119803310Y-114602364D01*
X119583502Y-114661261D01*
X119377264Y-114757432D01*
X119190859Y-114887953D01*
X119029953Y-115048859D01*
X118899433Y-115235263D01*
X118872382Y-115293275D01*
X118826209Y-115345714D01*
X118759015Y-115364865D01*
X118692134Y-115344649D01*
X118647618Y-115293275D01*
X118620568Y-115235266D01*
X118608349Y-115217815D01*
X118490046Y-115048859D01*
X118329140Y-114887953D01*
X118142735Y-114757432D01*
X117936497Y-114661261D01*
X117716689Y-114602364D01*
X117489999Y-114582531D01*
X117263310Y-114602364D01*
X117043502Y-114661261D01*
X116837264Y-114757432D01*
X116650859Y-114887953D01*
X116489953Y-115048859D01*
X116359432Y-115235264D01*
X116263261Y-115441502D01*
X116204364Y-115661310D01*
X116184531Y-115888000D01*
X116204364Y-116114689D01*
X116263261Y-116334497D01*
X116359432Y-116540735D01*
X116489953Y-116727140D01*
X116650859Y-116888046D01*
X116837264Y-117018567D01*
X116837265Y-117018567D01*
X116837266Y-117018568D01*
X117043504Y-117114739D01*
X117263308Y-117173635D01*
X117414435Y-117186856D01*
X117489999Y-117193468D01*
X117489999Y-117193467D01*
X117490000Y-117193468D01*
X117656861Y-117178869D01*
X117725359Y-117192635D01*
X117755348Y-117214716D01*
X118957195Y-118416563D01*
X120018452Y-119477819D01*
X120051937Y-119539142D01*
X120046953Y-119608834D01*
X120005081Y-119664767D01*
X119939617Y-119689184D01*
X119930771Y-119689500D01*
X117500808Y-119689500D01*
X117433769Y-119669815D01*
X117413127Y-119653181D01*
X115726818Y-117966872D01*
X115693333Y-117905549D01*
X115690499Y-117879200D01*
X115690499Y-114960508D01*
X115692841Y-114939300D01*
X115692759Y-114936705D01*
X115692760Y-114936703D01*
X115690560Y-114866735D01*
X115690500Y-114862841D01*
X115690500Y-114837976D01*
X115690500Y-114834075D01*
X115689948Y-114829709D01*
X115689030Y-114818055D01*
X115688862Y-114812703D01*
X115687597Y-114772430D01*
X115681675Y-114752047D01*
X115677732Y-114733010D01*
X115675071Y-114711942D01*
X115661729Y-114678246D01*
X115658266Y-114669498D01*
X115654481Y-114658444D01*
X115645400Y-114627185D01*
X115641744Y-114614601D01*
X115630934Y-114596322D01*
X115622380Y-114578862D01*
X115614568Y-114559129D01*
X115587723Y-114522180D01*
X115581332Y-114512451D01*
X115558081Y-114473135D01*
X115543068Y-114458122D01*
X115530435Y-114443330D01*
X115517963Y-114426163D01*
X115482779Y-114397056D01*
X115474140Y-114389194D01*
X108855626Y-107770679D01*
X108822141Y-107709356D01*
X108827125Y-107639664D01*
X108868997Y-107583731D01*
X108934461Y-107559314D01*
X108975402Y-107563224D01*
X109056930Y-107585070D01*
X109276999Y-107604323D01*
X109276999Y-107604322D01*
X109277000Y-107604323D01*
X109497068Y-107585070D01*
X109710450Y-107527894D01*
X109910662Y-107434534D01*
X110091620Y-107307826D01*
X110247826Y-107151620D01*
X110374534Y-106970662D01*
X110434617Y-106841811D01*
X110480790Y-106789372D01*
X110547984Y-106770220D01*
X110614865Y-106790436D01*
X110659382Y-106841811D01*
X110719466Y-106970662D01*
X110846174Y-107151620D01*
X111002380Y-107307826D01*
X111183338Y-107434534D01*
X111383550Y-107527894D01*
X111596932Y-107585070D01*
X111817000Y-107604323D01*
X112037068Y-107585070D01*
X112053133Y-107580765D01*
X112122981Y-107582424D01*
X112172912Y-107612857D01*
X114596564Y-110036509D01*
X114609909Y-110053167D01*
X114662848Y-110102879D01*
X114665645Y-110105590D01*
X114685966Y-110125911D01*
X114689442Y-110128607D01*
X114698322Y-110136191D01*
X114731607Y-110167448D01*
X114750212Y-110177676D01*
X114766466Y-110188353D01*
X114783237Y-110201363D01*
X114825144Y-110219497D01*
X114835618Y-110224628D01*
X114875632Y-110246627D01*
X114896197Y-110251906D01*
X114914593Y-110258205D01*
X114934074Y-110266636D01*
X114979178Y-110273779D01*
X114990597Y-110276144D01*
X115034823Y-110287500D01*
X115056045Y-110287500D01*
X115075443Y-110289026D01*
X115096405Y-110292347D01*
X115138319Y-110288384D01*
X115141861Y-110288050D01*
X115153530Y-110287500D01*
X145376495Y-110287500D01*
X145397704Y-110289841D01*
X145400294Y-110289759D01*
X145400296Y-110289760D01*
X145470262Y-110287560D01*
X145474157Y-110287500D01*
X145499025Y-110287500D01*
X145502925Y-110287500D01*
X145507294Y-110286947D01*
X145518939Y-110286030D01*
X145564569Y-110284597D01*
X145584949Y-110278675D01*
X145603989Y-110274732D01*
X145625058Y-110272071D01*
X145667520Y-110255258D01*
X145678557Y-110251480D01*
X145722398Y-110238744D01*
X145740670Y-110227936D01*
X145758136Y-110219380D01*
X145777871Y-110211568D01*
X145814816Y-110184725D01*
X145824548Y-110178332D01*
X145863865Y-110155081D01*
X145878874Y-110140071D01*
X145893663Y-110127439D01*
X145910837Y-110114963D01*
X145939946Y-110079774D01*
X145947790Y-110071154D01*
X148290911Y-107728034D01*
X148293307Y-107724944D01*
X148295878Y-107722029D01*
X148293577Y-107724810D01*
X148324559Y-107696617D01*
X148326372Y-107695465D01*
X148329940Y-107693202D01*
X148442448Y-107573393D01*
X148521627Y-107429368D01*
X148521628Y-107429365D01*
X148562500Y-107270179D01*
X148562500Y-104762503D01*
X148564841Y-104741300D01*
X148564759Y-104738706D01*
X148564760Y-104738704D01*
X148562561Y-104668722D01*
X148562500Y-104664828D01*
X148562500Y-104639977D01*
X148562500Y-104639976D01*
X148562500Y-104636075D01*
X148561948Y-104631712D01*
X148561031Y-104620064D01*
X148560035Y-104588357D01*
X148559598Y-104574431D01*
X148553675Y-104554045D01*
X148549731Y-104535004D01*
X148547071Y-104513942D01*
X148530267Y-104471501D01*
X148526484Y-104460452D01*
X148513745Y-104416602D01*
X148510594Y-104411275D01*
X148502937Y-104398326D01*
X148494376Y-104380850D01*
X148486568Y-104361129D01*
X148459731Y-104324191D01*
X148453317Y-104314425D01*
X148430081Y-104275135D01*
X148415074Y-104260128D01*
X148402436Y-104245331D01*
X148389963Y-104228163D01*
X148354779Y-104199056D01*
X148346140Y-104191194D01*
X146902434Y-102747488D01*
X146889091Y-102730833D01*
X146836166Y-102681134D01*
X146833369Y-102678423D01*
X146815789Y-102660843D01*
X146813035Y-102658089D01*
X146809956Y-102655701D01*
X146809951Y-102655696D01*
X146809548Y-102655383D01*
X146800669Y-102647800D01*
X146767392Y-102616551D01*
X146748793Y-102606326D01*
X146732532Y-102595645D01*
X146715764Y-102582638D01*
X146692177Y-102572431D01*
X146673869Y-102564508D01*
X146663379Y-102559369D01*
X146623367Y-102537372D01*
X146602800Y-102532091D01*
X146584398Y-102525791D01*
X146564924Y-102517364D01*
X146519837Y-102510223D01*
X146508398Y-102507854D01*
X146464178Y-102496500D01*
X146464177Y-102496500D01*
X146442955Y-102496500D01*
X146423556Y-102494973D01*
X146402596Y-102491653D01*
X146402595Y-102491653D01*
X146380558Y-102493736D01*
X146357139Y-102495950D01*
X146345470Y-102496500D01*
X139255504Y-102496500D01*
X139234294Y-102494158D01*
X139161737Y-102496439D01*
X139157842Y-102496500D01*
X139129075Y-102496500D01*
X139125213Y-102496987D01*
X139125192Y-102496989D01*
X139124681Y-102497054D01*
X139113059Y-102497968D01*
X139067430Y-102499402D01*
X139047051Y-102505323D01*
X139028007Y-102509267D01*
X139013639Y-102511082D01*
X139006941Y-102511929D01*
X138964490Y-102528736D01*
X138953443Y-102532518D01*
X138909598Y-102545256D01*
X138891330Y-102556060D01*
X138873864Y-102564617D01*
X138854129Y-102572431D01*
X138817202Y-102599260D01*
X138807442Y-102605671D01*
X138768136Y-102628917D01*
X138753125Y-102643928D01*
X138738336Y-102656558D01*
X138721164Y-102669034D01*
X138692057Y-102704218D01*
X138684196Y-102712856D01*
X136842181Y-104554872D01*
X136780858Y-104588357D01*
X136711166Y-104583373D01*
X136655233Y-104541501D01*
X136630816Y-104476037D01*
X136630500Y-104467191D01*
X136630500Y-82107502D01*
X136632841Y-82086299D01*
X136632759Y-82083705D01*
X136632760Y-82083703D01*
X136630561Y-82013735D01*
X136630500Y-82009840D01*
X136630500Y-81984976D01*
X136630500Y-81981075D01*
X136629948Y-81976709D01*
X136629030Y-81965055D01*
X136628791Y-81957448D01*
X136627597Y-81919430D01*
X136621675Y-81899047D01*
X136617732Y-81880010D01*
X136615071Y-81858942D01*
X136598266Y-81816498D01*
X136594481Y-81805444D01*
X136581744Y-81761602D01*
X136581744Y-81761601D01*
X136570934Y-81743322D01*
X136562380Y-81725862D01*
X136554568Y-81706129D01*
X136527723Y-81669180D01*
X136521332Y-81659451D01*
X136498081Y-81620135D01*
X136483068Y-81605122D01*
X136470435Y-81590330D01*
X136457963Y-81573163D01*
X136422779Y-81544056D01*
X136414140Y-81536194D01*
X134728818Y-79850872D01*
X134695333Y-79789549D01*
X134692499Y-79763191D01*
X134692499Y-79137140D01*
X134692499Y-79137139D01*
X134692499Y-79133992D01*
X134681999Y-79031203D01*
X134626814Y-78864666D01*
X134563269Y-78761642D01*
X134534713Y-78715345D01*
X134519685Y-78700317D01*
X134441047Y-78621679D01*
X134407564Y-78560359D01*
X134412548Y-78490667D01*
X134441047Y-78446320D01*
X134534712Y-78352656D01*
X134626814Y-78203334D01*
X134681999Y-78036797D01*
X134692500Y-77934009D01*
X134692499Y-77133992D01*
X134681999Y-77031203D01*
X134626814Y-76864666D01*
X134554450Y-76747344D01*
X134534711Y-76715342D01*
X134410657Y-76591288D01*
X134272300Y-76505950D01*
X134225575Y-76454002D01*
X134214352Y-76385040D01*
X134242195Y-76320958D01*
X134249715Y-76312729D01*
X134254613Y-76307830D01*
X134254620Y-76307826D01*
X134410826Y-76151620D01*
X134537534Y-75970662D01*
X134595185Y-75847027D01*
X134597618Y-75841811D01*
X134643790Y-75789372D01*
X134710984Y-75770220D01*
X134777865Y-75790436D01*
X134822382Y-75841811D01*
X134882466Y-75970661D01*
X134882466Y-75970662D01*
X135009174Y-76151620D01*
X135165380Y-76307826D01*
X135346338Y-76434534D01*
X135546550Y-76527894D01*
X135759932Y-76585070D01*
X135980000Y-76604323D01*
X136200068Y-76585070D01*
X136413450Y-76527894D01*
X136613662Y-76434534D01*
X136794620Y-76307826D01*
X136950826Y-76151620D01*
X137077534Y-75970662D01*
X137135185Y-75847027D01*
X137137618Y-75841811D01*
X137183790Y-75789372D01*
X137250984Y-75770220D01*
X137317865Y-75790436D01*
G37*
%TD.AperFunction*%
%TA.AperFunction,Conductor*%
G36*
X146201809Y-119327185D02*
G01*
X146222451Y-119343819D01*
X152159181Y-125280548D01*
X152192666Y-125341871D01*
X152195500Y-125368229D01*
X152195500Y-128162298D01*
X152175815Y-128229337D01*
X152142625Y-128263872D01*
X152074597Y-128311506D01*
X151907505Y-128478598D01*
X151777575Y-128664159D01*
X151722998Y-128707784D01*
X151653500Y-128714978D01*
X151591145Y-128683455D01*
X151574425Y-128664159D01*
X151444494Y-128478598D01*
X151277404Y-128311508D01*
X151277403Y-128311508D01*
X151277401Y-128311505D01*
X151083830Y-128175965D01*
X150869663Y-128076097D01*
X150803250Y-128058302D01*
X150641407Y-128014936D01*
X150405999Y-127994340D01*
X150192985Y-128012977D01*
X150124485Y-127999210D01*
X150094497Y-127977130D01*
X149058728Y-126941360D01*
X149046946Y-126927727D01*
X149032609Y-126908469D01*
X148994666Y-126876631D01*
X148986691Y-126869323D01*
X148985329Y-126867961D01*
X148982777Y-126865409D01*
X148958444Y-126846169D01*
X148955647Y-126843890D01*
X148897251Y-126794890D01*
X148880821Y-126784422D01*
X148811691Y-126752186D01*
X148808447Y-126750615D01*
X148740306Y-126716394D01*
X148721903Y-126709997D01*
X148647211Y-126694574D01*
X148643692Y-126693794D01*
X148569490Y-126676208D01*
X148550121Y-126674229D01*
X148473869Y-126676448D01*
X148470263Y-126676500D01*
X138419229Y-126676500D01*
X138352190Y-126656815D01*
X138331548Y-126640181D01*
X136681786Y-124990418D01*
X136681785Y-124990417D01*
X136681777Y-124990409D01*
X136681772Y-124990405D01*
X136508735Y-124817368D01*
X136243325Y-124551957D01*
X136209840Y-124490634D01*
X136214824Y-124420942D01*
X136256696Y-124365009D01*
X136266216Y-124358549D01*
X136363659Y-124298836D01*
X136544342Y-124144518D01*
X141440000Y-124144518D01*
X141440354Y-124151132D01*
X141446400Y-124207371D01*
X141496647Y-124342089D01*
X141582811Y-124457188D01*
X141697910Y-124543352D01*
X141832628Y-124593599D01*
X141888867Y-124599645D01*
X141895482Y-124600000D01*
X142790000Y-124600000D01*
X142790000Y-123491683D01*
X142818819Y-123509209D01*
X142964404Y-123550000D01*
X143077622Y-123550000D01*
X143189783Y-123534584D01*
X143290000Y-123491053D01*
X143290000Y-124600000D01*
X144184518Y-124600000D01*
X144191132Y-124599645D01*
X144247371Y-124593599D01*
X144382089Y-124543352D01*
X144497188Y-124457188D01*
X144583352Y-124342089D01*
X144633599Y-124207371D01*
X144639645Y-124151132D01*
X144640000Y-124144518D01*
X144640000Y-123250000D01*
X143534852Y-123250000D01*
X143583559Y-123112953D01*
X143593877Y-122962114D01*
X143563116Y-122814085D01*
X143529910Y-122750000D01*
X144640000Y-122750000D01*
X144640000Y-121855481D01*
X144639645Y-121848867D01*
X144633599Y-121792628D01*
X144583352Y-121657910D01*
X144497188Y-121542811D01*
X144382089Y-121456647D01*
X144247371Y-121406400D01*
X144191132Y-121400354D01*
X144184518Y-121400000D01*
X143290000Y-121400000D01*
X143290000Y-122508316D01*
X143261181Y-122490791D01*
X143115596Y-122450000D01*
X143002378Y-122450000D01*
X142890217Y-122465416D01*
X142790000Y-122508946D01*
X142790000Y-121400000D01*
X141895482Y-121400000D01*
X141888867Y-121400354D01*
X141832628Y-121406400D01*
X141697910Y-121456647D01*
X141582811Y-121542811D01*
X141496647Y-121657910D01*
X141446400Y-121792628D01*
X141440354Y-121848867D01*
X141440000Y-121855481D01*
X141440000Y-122750000D01*
X142545148Y-122750000D01*
X142496441Y-122887047D01*
X142486123Y-123037886D01*
X142516884Y-123185915D01*
X142550090Y-123250000D01*
X141440000Y-123250000D01*
X141440000Y-124144518D01*
X136544342Y-124144518D01*
X136555224Y-124135224D01*
X136718836Y-123943659D01*
X136850466Y-123728859D01*
X136946873Y-123496111D01*
X137005683Y-123251148D01*
X137025449Y-123000000D01*
X137005683Y-122748852D01*
X136946873Y-122503889D01*
X136850466Y-122271141D01*
X136718836Y-122056341D01*
X136555224Y-121864776D01*
X136363659Y-121701164D01*
X136148859Y-121569534D01*
X136032484Y-121521330D01*
X135916110Y-121473126D01*
X135671149Y-121414317D01*
X135420000Y-121394551D01*
X135168848Y-121414317D01*
X135128988Y-121423887D01*
X135059206Y-121420396D01*
X135012361Y-121390994D01*
X133140549Y-119519181D01*
X133107064Y-119457858D01*
X133112048Y-119388166D01*
X133153920Y-119332233D01*
X133219384Y-119307816D01*
X133228230Y-119307500D01*
X146134770Y-119307500D01*
X146201809Y-119327185D01*
G37*
%TD.AperFunction*%
%TA.AperFunction,Conductor*%
G36*
X122820000Y-117166871D02*
G01*
X123016326Y-117114266D01*
X123222480Y-117018134D01*
X123408819Y-116887658D01*
X123569658Y-116726819D01*
X123700135Y-116540479D01*
X123727342Y-116482135D01*
X123773514Y-116429695D01*
X123840707Y-116410543D01*
X123907589Y-116430758D01*
X123952105Y-116482132D01*
X123979432Y-116540733D01*
X123979433Y-116540736D01*
X124109953Y-116727140D01*
X124270859Y-116888046D01*
X124457264Y-117018567D01*
X124457265Y-117018567D01*
X124457266Y-117018568D01*
X124663504Y-117114739D01*
X124883308Y-117173635D01*
X125034436Y-117186857D01*
X125109999Y-117193468D01*
X125109999Y-117193467D01*
X125110000Y-117193468D01*
X125276861Y-117178869D01*
X125345359Y-117192635D01*
X125375348Y-117214716D01*
X126698451Y-118537819D01*
X126731936Y-118599142D01*
X126726952Y-118668834D01*
X126685080Y-118724767D01*
X126619616Y-118749184D01*
X126610770Y-118749500D01*
X121464229Y-118749500D01*
X121397190Y-118729815D01*
X121376548Y-118713181D01*
X120058800Y-117395432D01*
X120025315Y-117334109D01*
X120030299Y-117264417D01*
X120072171Y-117208484D01*
X120135674Y-117184223D01*
X120198809Y-117178699D01*
X120256692Y-117173635D01*
X120476496Y-117114739D01*
X120682734Y-117018568D01*
X120869139Y-116888047D01*
X121030047Y-116727139D01*
X121160568Y-116540734D01*
X121187893Y-116482134D01*
X121234065Y-116429695D01*
X121301258Y-116410543D01*
X121368139Y-116430758D01*
X121412657Y-116482133D01*
X121439866Y-116540482D01*
X121570341Y-116726819D01*
X121731180Y-116887658D01*
X121917519Y-117018134D01*
X122123673Y-117114266D01*
X122319999Y-117166871D01*
X122320000Y-117166871D01*
X122320000Y-116323501D01*
X122427685Y-116372680D01*
X122534237Y-116388000D01*
X122605763Y-116388000D01*
X122712315Y-116372680D01*
X122819999Y-116323501D01*
X122820000Y-117166871D01*
G37*
%TD.AperFunction*%
%TA.AperFunction,Conductor*%
G36*
X102487703Y-80617518D02*
G01*
X102494181Y-80623550D01*
X102601342Y-80730711D01*
X102601344Y-80730712D01*
X102750666Y-80822814D01*
X102862017Y-80859712D01*
X102917202Y-80877999D01*
X103016858Y-80888180D01*
X103016859Y-80888180D01*
X103019991Y-80888500D01*
X103649191Y-80888499D01*
X103716230Y-80908183D01*
X103736872Y-80924818D01*
X104638564Y-81826510D01*
X104651911Y-81843169D01*
X104704832Y-81892864D01*
X104707629Y-81895575D01*
X104727965Y-81915911D01*
X104731036Y-81918293D01*
X104731437Y-81918604D01*
X104740327Y-81926196D01*
X104773607Y-81957448D01*
X104792206Y-81967673D01*
X104808466Y-81978354D01*
X104825236Y-81991362D01*
X104845046Y-81999934D01*
X104867129Y-82009491D01*
X104877620Y-82014630D01*
X104917632Y-82036627D01*
X104938196Y-82041906D01*
X104956601Y-82048208D01*
X104976074Y-82056635D01*
X105021171Y-82063777D01*
X105032586Y-82066141D01*
X105076823Y-82077500D01*
X105098045Y-82077500D01*
X105117444Y-82079027D01*
X105119799Y-82079399D01*
X105138405Y-82082347D01*
X105180319Y-82078384D01*
X105183861Y-82078050D01*
X105195530Y-82077500D01*
X111801192Y-82077500D01*
X111868231Y-82097185D01*
X111888873Y-82113819D01*
X116210180Y-86435126D01*
X116243665Y-86496449D01*
X116246499Y-86522807D01*
X116246500Y-105186705D01*
X116226815Y-105253744D01*
X116193624Y-105288279D01*
X116082380Y-105366173D01*
X115926174Y-105522379D01*
X115799466Y-105703338D01*
X115739382Y-105832189D01*
X115693209Y-105884628D01*
X115626016Y-105903780D01*
X115559135Y-105883564D01*
X115514618Y-105832189D01*
X115486848Y-105772637D01*
X115454534Y-105703339D01*
X115327826Y-105522380D01*
X115171620Y-105366174D01*
X114990662Y-105239466D01*
X114914352Y-105203882D01*
X114790451Y-105146106D01*
X114577065Y-105088929D01*
X114356999Y-105069676D01*
X114136934Y-105088929D01*
X113923548Y-105146106D01*
X113723338Y-105239466D01*
X113542379Y-105366174D01*
X113386174Y-105522379D01*
X113259466Y-105703338D01*
X113199382Y-105832189D01*
X113153209Y-105884628D01*
X113086016Y-105903780D01*
X113019135Y-105883564D01*
X112974618Y-105832189D01*
X112946848Y-105772637D01*
X112914534Y-105703339D01*
X112787826Y-105522380D01*
X112631620Y-105366174D01*
X112450662Y-105239466D01*
X112374352Y-105203882D01*
X112250451Y-105146106D01*
X112037065Y-105088929D01*
X111816999Y-105069676D01*
X111596934Y-105088929D01*
X111383548Y-105146106D01*
X111183338Y-105239466D01*
X111002379Y-105366174D01*
X110846174Y-105522379D01*
X110719466Y-105703338D01*
X110659382Y-105832189D01*
X110613209Y-105884628D01*
X110546016Y-105903780D01*
X110479135Y-105883564D01*
X110434618Y-105832189D01*
X110406848Y-105772637D01*
X110374534Y-105703339D01*
X110247826Y-105522380D01*
X110091620Y-105366174D01*
X109910662Y-105239466D01*
X109834352Y-105203882D01*
X109710451Y-105146106D01*
X109497065Y-105088929D01*
X109277000Y-105069676D01*
X109056934Y-105088929D01*
X108843548Y-105146106D01*
X108643338Y-105239466D01*
X108462379Y-105366174D01*
X108306174Y-105522379D01*
X108179466Y-105703338D01*
X108086106Y-105903548D01*
X108028929Y-106116934D01*
X108009676Y-106337000D01*
X108028929Y-106557065D01*
X108050776Y-106638598D01*
X108049113Y-106708448D01*
X108009951Y-106766311D01*
X107945722Y-106793815D01*
X107876820Y-106782229D01*
X107843320Y-106758373D01*
X105087650Y-104002703D01*
X102318816Y-101233869D01*
X102285333Y-101172549D01*
X102282500Y-101146200D01*
X102282500Y-80711231D01*
X102302185Y-80644192D01*
X102354989Y-80598437D01*
X102424147Y-80588493D01*
X102487703Y-80617518D01*
G37*
%TD.AperFunction*%
%TA.AperFunction,Conductor*%
G36*
X115694865Y-106790436D02*
G01*
X115739382Y-106841811D01*
X115799466Y-106970662D01*
X115926174Y-107151620D01*
X116082380Y-107307826D01*
X116263338Y-107434534D01*
X116463550Y-107527894D01*
X116676932Y-107585070D01*
X116823644Y-107597905D01*
X116896999Y-107604323D01*
X116896999Y-107604322D01*
X116897000Y-107604323D01*
X116945945Y-107600041D01*
X117117062Y-107585071D01*
X117117064Y-107585070D01*
X117117068Y-107585070D01*
X117133133Y-107580765D01*
X117202979Y-107582424D01*
X117252911Y-107612857D01*
X118414873Y-108774819D01*
X118448358Y-108836142D01*
X118443374Y-108905834D01*
X118401502Y-108961767D01*
X118336038Y-108986184D01*
X118327192Y-108986500D01*
X115437808Y-108986500D01*
X115370769Y-108966815D01*
X115350127Y-108950181D01*
X114211352Y-107811406D01*
X114177867Y-107750083D01*
X114182851Y-107680391D01*
X114224723Y-107624458D01*
X114290187Y-107600041D01*
X114309838Y-107600196D01*
X114357000Y-107604323D01*
X114357000Y-107604322D01*
X114357001Y-107604323D01*
X114412017Y-107599509D01*
X114577068Y-107585070D01*
X114790450Y-107527894D01*
X114990662Y-107434534D01*
X115171620Y-107307826D01*
X115327826Y-107151620D01*
X115454534Y-106970662D01*
X115514617Y-106841811D01*
X115560790Y-106789372D01*
X115627984Y-106770220D01*
X115694865Y-106790436D01*
G37*
%TD.AperFunction*%
%TA.AperFunction,Conductor*%
G36*
X142447230Y-103817185D02*
G01*
X142492985Y-103869989D01*
X142502929Y-103939147D01*
X142473904Y-104002703D01*
X142467872Y-104009181D01*
X141415911Y-105061141D01*
X141354588Y-105094626D01*
X141296137Y-105093235D01*
X141280067Y-105088929D01*
X141060000Y-105069676D01*
X140839934Y-105088929D01*
X140626548Y-105146106D01*
X140426338Y-105239466D01*
X140245379Y-105366174D01*
X140089174Y-105522379D01*
X139962466Y-105703338D01*
X139902382Y-105832189D01*
X139856209Y-105884628D01*
X139789016Y-105903780D01*
X139722135Y-105883564D01*
X139677618Y-105832189D01*
X139649848Y-105772637D01*
X139617534Y-105703339D01*
X139490826Y-105522380D01*
X139334620Y-105366174D01*
X139153662Y-105239466D01*
X139077352Y-105203882D01*
X138953451Y-105146106D01*
X138740065Y-105088929D01*
X138519999Y-105069676D01*
X138472838Y-105073802D01*
X138404338Y-105060035D01*
X138354156Y-105011419D01*
X138338223Y-104943390D01*
X138361599Y-104877547D01*
X138374343Y-104862601D01*
X139403126Y-103833819D01*
X139464450Y-103800334D01*
X139490808Y-103797500D01*
X142380191Y-103797500D01*
X142447230Y-103817185D01*
G37*
%TD.AperFunction*%
%TA.AperFunction,Conductor*%
G36*
X145548231Y-104987185D02*
G01*
X145568873Y-105003819D01*
X145965181Y-105400127D01*
X145998666Y-105461450D01*
X146001500Y-105487808D01*
X146001500Y-106576192D01*
X145981815Y-106643231D01*
X145965181Y-106663873D01*
X144598873Y-108030181D01*
X144537550Y-108063666D01*
X144511192Y-108066500D01*
X143089808Y-108066500D01*
X143022769Y-108046815D01*
X142977014Y-107994011D01*
X142967070Y-107924853D01*
X142996095Y-107861297D01*
X143002118Y-107854827D01*
X143244090Y-107612854D01*
X143305409Y-107579372D01*
X143363866Y-107580764D01*
X143379932Y-107585070D01*
X143600000Y-107604323D01*
X143820068Y-107585070D01*
X144033450Y-107527894D01*
X144233662Y-107434534D01*
X144414620Y-107307826D01*
X144570826Y-107151620D01*
X144697534Y-106970662D01*
X144790894Y-106770450D01*
X144848070Y-106557068D01*
X144867323Y-106337000D01*
X144848070Y-106116932D01*
X144790894Y-105903550D01*
X144697534Y-105703339D01*
X144570826Y-105522380D01*
X144414620Y-105366174D01*
X144233662Y-105239466D01*
X144157350Y-105203881D01*
X144104912Y-105157710D01*
X144085760Y-105090516D01*
X144105976Y-105023635D01*
X144159141Y-104978301D01*
X144209756Y-104967500D01*
X145481192Y-104967500D01*
X145548231Y-104987185D01*
G37*
%TD.AperFunction*%
%TA.AperFunction,Conductor*%
G36*
X116287865Y-68171348D02*
G01*
X116332382Y-68222725D01*
X116359431Y-68280733D01*
X116489953Y-68467140D01*
X116650859Y-68628046D01*
X116837264Y-68758567D01*
X116837265Y-68758567D01*
X116837266Y-68758568D01*
X117043504Y-68854739D01*
X117263308Y-68913635D01*
X117414435Y-68926856D01*
X117489999Y-68933468D01*
X117489999Y-68933467D01*
X117490000Y-68933468D01*
X117716692Y-68913635D01*
X117757161Y-68902791D01*
X117827011Y-68904452D01*
X117876938Y-68934884D01*
X119068564Y-70126510D01*
X119081911Y-70143169D01*
X119134832Y-70192864D01*
X119137629Y-70195575D01*
X119157965Y-70215911D01*
X119161036Y-70218293D01*
X119161437Y-70218604D01*
X119170323Y-70226192D01*
X119203607Y-70257448D01*
X119214251Y-70263299D01*
X119222204Y-70267672D01*
X119238464Y-70278352D01*
X119255236Y-70291362D01*
X119297140Y-70309495D01*
X119307620Y-70314629D01*
X119347632Y-70336627D01*
X119368195Y-70341906D01*
X119386598Y-70348207D01*
X119406073Y-70356635D01*
X119451175Y-70363778D01*
X119462570Y-70366137D01*
X119506823Y-70377500D01*
X119528051Y-70377500D01*
X119547449Y-70379026D01*
X119568405Y-70382346D01*
X119613851Y-70378050D01*
X119625521Y-70377500D01*
X122146495Y-70377500D01*
X122167704Y-70379841D01*
X122170294Y-70379759D01*
X122170296Y-70379760D01*
X122240262Y-70377560D01*
X122244157Y-70377500D01*
X122269025Y-70377500D01*
X122272925Y-70377500D01*
X122277294Y-70376947D01*
X122288939Y-70376030D01*
X122334569Y-70374597D01*
X122354949Y-70368675D01*
X122373989Y-70364732D01*
X122395058Y-70362071D01*
X122437520Y-70345258D01*
X122448557Y-70341480D01*
X122492398Y-70328744D01*
X122510670Y-70317936D01*
X122528136Y-70309380D01*
X122547871Y-70301568D01*
X122584816Y-70274725D01*
X122594548Y-70268332D01*
X122633865Y-70245081D01*
X122648874Y-70230071D01*
X122663663Y-70217439D01*
X122680837Y-70204963D01*
X122709946Y-70169774D01*
X122717790Y-70161154D01*
X123227820Y-69651124D01*
X123289141Y-69617641D01*
X123358833Y-69622625D01*
X123414766Y-69664497D01*
X123439183Y-69729961D01*
X123439499Y-69738807D01*
X123439499Y-72904501D01*
X123437158Y-72925708D01*
X123439439Y-72998262D01*
X123439500Y-73002157D01*
X123439500Y-73030925D01*
X123439987Y-73034785D01*
X123439989Y-73034808D01*
X123440054Y-73035320D01*
X123440968Y-73046942D01*
X123442402Y-73092569D01*
X123448323Y-73112950D01*
X123452267Y-73131995D01*
X123454928Y-73153059D01*
X123471737Y-73195515D01*
X123475520Y-73206563D01*
X123488256Y-73250400D01*
X123499061Y-73268670D01*
X123507621Y-73286143D01*
X123515169Y-73305208D01*
X123515432Y-73305871D01*
X123528648Y-73324062D01*
X123542267Y-73342808D01*
X123548673Y-73352560D01*
X123571919Y-73391865D01*
X123571921Y-73391867D01*
X123586925Y-73406871D01*
X123599562Y-73421667D01*
X123604573Y-73428563D01*
X123612037Y-73438837D01*
X123647212Y-73467936D01*
X123655854Y-73475800D01*
X127429181Y-77249127D01*
X127462666Y-77310450D01*
X127465500Y-77336808D01*
X127465500Y-77962858D01*
X127465500Y-77962877D01*
X127465501Y-77966008D01*
X127465820Y-77969140D01*
X127465821Y-77969141D01*
X127476000Y-78068796D01*
X127531186Y-78235334D01*
X127623287Y-78384655D01*
X127716950Y-78478319D01*
X127750434Y-78539642D01*
X127745450Y-78609334D01*
X127716950Y-78653681D01*
X127623287Y-78747344D01*
X127531186Y-78896665D01*
X127476000Y-79063202D01*
X127465819Y-79162858D01*
X127465817Y-79162878D01*
X127465500Y-79165991D01*
X127465500Y-79169138D01*
X127465500Y-79169139D01*
X127465500Y-79962858D01*
X127465500Y-79962877D01*
X127465501Y-79966008D01*
X127465820Y-79969140D01*
X127465821Y-79969141D01*
X127476000Y-80068796D01*
X127531186Y-80235334D01*
X127623288Y-80384657D01*
X127747342Y-80508711D01*
X127747344Y-80508712D01*
X127896666Y-80600814D01*
X127999389Y-80634853D01*
X128063202Y-80655999D01*
X128162858Y-80666180D01*
X128162859Y-80666180D01*
X128165991Y-80666500D01*
X129166008Y-80666499D01*
X129268797Y-80655999D01*
X129435334Y-80600814D01*
X129584656Y-80508712D01*
X129708712Y-80384656D01*
X129748843Y-80319591D01*
X129800788Y-80272868D01*
X129869751Y-80261645D01*
X129933833Y-80289488D01*
X129942062Y-80297008D01*
X132753181Y-83108127D01*
X132786666Y-83169450D01*
X132789500Y-83195808D01*
X132789500Y-105186705D01*
X132769815Y-105253744D01*
X132736624Y-105288279D01*
X132625380Y-105366173D01*
X132469174Y-105522379D01*
X132342466Y-105703338D01*
X132249106Y-105903548D01*
X132191929Y-106116934D01*
X132172676Y-106337000D01*
X132191929Y-106557065D01*
X132249106Y-106770451D01*
X132260001Y-106793815D01*
X132328213Y-106940096D01*
X132338705Y-107009172D01*
X132310185Y-107072957D01*
X132251709Y-107111196D01*
X132215831Y-107116500D01*
X123582808Y-107116500D01*
X123515769Y-107096815D01*
X123495127Y-107080181D01*
X122352434Y-105937488D01*
X122339091Y-105920833D01*
X122286166Y-105871134D01*
X122283369Y-105868423D01*
X122265789Y-105850843D01*
X122263035Y-105848089D01*
X122259956Y-105845701D01*
X122259951Y-105845696D01*
X122259548Y-105845383D01*
X122250669Y-105837800D01*
X122217392Y-105806551D01*
X122198793Y-105796326D01*
X122182532Y-105785645D01*
X122165764Y-105772638D01*
X122123870Y-105754508D01*
X122113379Y-105749369D01*
X122073367Y-105727372D01*
X122052800Y-105722091D01*
X122034398Y-105715791D01*
X122014924Y-105707364D01*
X121969837Y-105700223D01*
X121958398Y-105697854D01*
X121914178Y-105686500D01*
X121914177Y-105686500D01*
X121892955Y-105686500D01*
X121873556Y-105684973D01*
X121852596Y-105681653D01*
X121852595Y-105681653D01*
X121830558Y-105683736D01*
X121807139Y-105685950D01*
X121795470Y-105686500D01*
X120587294Y-105686500D01*
X120520255Y-105666815D01*
X120485719Y-105633623D01*
X120407826Y-105522379D01*
X120251619Y-105366173D01*
X120140376Y-105288279D01*
X120096751Y-105233702D01*
X120087500Y-105186705D01*
X120087500Y-86167502D01*
X120089841Y-86146299D01*
X120089759Y-86143705D01*
X120089760Y-86143703D01*
X120087561Y-86073736D01*
X120087500Y-86069841D01*
X120087500Y-86044976D01*
X120087500Y-86041075D01*
X120086948Y-86036709D01*
X120086030Y-86025055D01*
X120085133Y-85996506D01*
X120084597Y-85979431D01*
X120078675Y-85959048D01*
X120074732Y-85940011D01*
X120072071Y-85918942D01*
X120055264Y-85876492D01*
X120051483Y-85865448D01*
X120038745Y-85821604D01*
X120038744Y-85821603D01*
X120038744Y-85821601D01*
X120027934Y-85803322D01*
X120019380Y-85785862D01*
X120011568Y-85766129D01*
X119984723Y-85729180D01*
X119978332Y-85719451D01*
X119955081Y-85680135D01*
X119940068Y-85665122D01*
X119927435Y-85650330D01*
X119914963Y-85633163D01*
X119879779Y-85604056D01*
X119871140Y-85596194D01*
X113663434Y-79388488D01*
X113650091Y-79371833D01*
X113597166Y-79322134D01*
X113594369Y-79319423D01*
X113576789Y-79301843D01*
X113574035Y-79299089D01*
X113570956Y-79296701D01*
X113570951Y-79296696D01*
X113570548Y-79296383D01*
X113561669Y-79288800D01*
X113557837Y-79285202D01*
X113528393Y-79257552D01*
X113528392Y-79257551D01*
X113509793Y-79247326D01*
X113493532Y-79236645D01*
X113476764Y-79223638D01*
X113434870Y-79205508D01*
X113424379Y-79200369D01*
X113384367Y-79178372D01*
X113363800Y-79173091D01*
X113345398Y-79166791D01*
X113325924Y-79158364D01*
X113280837Y-79151223D01*
X113269398Y-79148854D01*
X113225178Y-79137500D01*
X113225177Y-79137500D01*
X113203955Y-79137500D01*
X113184556Y-79135973D01*
X113163596Y-79132653D01*
X113163595Y-79132653D01*
X113149431Y-79133992D01*
X113118139Y-79136950D01*
X113106470Y-79137500D01*
X109307638Y-79137500D01*
X109240599Y-79117815D01*
X109202099Y-79078596D01*
X109134713Y-78969345D01*
X109092222Y-78926854D01*
X109041047Y-78875679D01*
X109007564Y-78814359D01*
X109012548Y-78744667D01*
X109041047Y-78700320D01*
X109134712Y-78606656D01*
X109226814Y-78457334D01*
X109281999Y-78290797D01*
X109292500Y-78188009D01*
X109292499Y-77387992D01*
X109281999Y-77285203D01*
X109226814Y-77118666D01*
X109141871Y-76980950D01*
X109134711Y-76969342D01*
X109010658Y-76845289D01*
X108949708Y-76807695D01*
X108902984Y-76755747D01*
X108891761Y-76686784D01*
X108919605Y-76622702D01*
X108977674Y-76583846D01*
X109046900Y-76582382D01*
X109056932Y-76585070D01*
X109232986Y-76600472D01*
X109276999Y-76604323D01*
X109276999Y-76604322D01*
X109277000Y-76604323D01*
X109497068Y-76585070D01*
X109710450Y-76527894D01*
X109910662Y-76434534D01*
X110091620Y-76307826D01*
X110247826Y-76151620D01*
X110374534Y-75970662D01*
X110432185Y-75847027D01*
X110434618Y-75841811D01*
X110480790Y-75789372D01*
X110547984Y-75770220D01*
X110614865Y-75790436D01*
X110659382Y-75841811D01*
X110719466Y-75970661D01*
X110719466Y-75970662D01*
X110846174Y-76151620D01*
X111002380Y-76307826D01*
X111183338Y-76434534D01*
X111383550Y-76527894D01*
X111596932Y-76585070D01*
X111743643Y-76597905D01*
X111816999Y-76604323D01*
X111816999Y-76604322D01*
X111817000Y-76604323D01*
X112037068Y-76585070D01*
X112250450Y-76527894D01*
X112450662Y-76434534D01*
X112631620Y-76307826D01*
X112787826Y-76151620D01*
X112914534Y-75970662D01*
X112972185Y-75847027D01*
X112974618Y-75841811D01*
X113020790Y-75789372D01*
X113087984Y-75770220D01*
X113154865Y-75790436D01*
X113199382Y-75841811D01*
X113259466Y-75970661D01*
X113259466Y-75970662D01*
X113386174Y-76151620D01*
X113542380Y-76307826D01*
X113723338Y-76434534D01*
X113923550Y-76527894D01*
X114136932Y-76585070D01*
X114357000Y-76604323D01*
X114577068Y-76585070D01*
X114790450Y-76527894D01*
X114990662Y-76434534D01*
X115171620Y-76307826D01*
X115327826Y-76151620D01*
X115454534Y-75970662D01*
X115512185Y-75847027D01*
X115514618Y-75841811D01*
X115560790Y-75789372D01*
X115627984Y-75770220D01*
X115694865Y-75790436D01*
X115739382Y-75841811D01*
X115799466Y-75970661D01*
X115799466Y-75970662D01*
X115926174Y-76151620D01*
X116082380Y-76307826D01*
X116263338Y-76434534D01*
X116463550Y-76527894D01*
X116676932Y-76585070D01*
X116823644Y-76597905D01*
X116896999Y-76604323D01*
X116896999Y-76604322D01*
X116897000Y-76604323D01*
X117117068Y-76585070D01*
X117330450Y-76527894D01*
X117530662Y-76434534D01*
X117711620Y-76307826D01*
X117867826Y-76151620D01*
X117994534Y-75970662D01*
X118054618Y-75841810D01*
X118100789Y-75789372D01*
X118167982Y-75770220D01*
X118234863Y-75790435D01*
X118279381Y-75841811D01*
X118339466Y-75970661D01*
X118339466Y-75970662D01*
X118466174Y-76151620D01*
X118622380Y-76307826D01*
X118803338Y-76434534D01*
X119003550Y-76527894D01*
X119216932Y-76585070D01*
X119363643Y-76597905D01*
X119436999Y-76604323D01*
X119436999Y-76604322D01*
X119437000Y-76604323D01*
X119657068Y-76585070D01*
X119870450Y-76527894D01*
X120070662Y-76434534D01*
X120251620Y-76307826D01*
X120407826Y-76151620D01*
X120534534Y-75970662D01*
X120627894Y-75770450D01*
X120685070Y-75557068D01*
X120704323Y-75337000D01*
X120685070Y-75116932D01*
X120627894Y-74903550D01*
X120534534Y-74703339D01*
X120407826Y-74522380D01*
X120251620Y-74366174D01*
X120070662Y-74239466D01*
X120021527Y-74216554D01*
X119870451Y-74146106D01*
X119657065Y-74088929D01*
X119437000Y-74069676D01*
X119216934Y-74088929D01*
X119003548Y-74146106D01*
X118803338Y-74239466D01*
X118622379Y-74366174D01*
X118466174Y-74522379D01*
X118339467Y-74703336D01*
X118279381Y-74832190D01*
X118233208Y-74884629D01*
X118166014Y-74903780D01*
X118099133Y-74883564D01*
X118054617Y-74832188D01*
X117994534Y-74703339D01*
X117867825Y-74522379D01*
X117711623Y-74366177D01*
X117711622Y-74366177D01*
X117711620Y-74366174D01*
X117600374Y-74288278D01*
X117556751Y-74233703D01*
X117547499Y-74186709D01*
X117547499Y-72454509D01*
X117549841Y-72433301D01*
X117549759Y-72430706D01*
X117549760Y-72430704D01*
X117547560Y-72360736D01*
X117547500Y-72356842D01*
X117547500Y-72331976D01*
X117547500Y-72328075D01*
X117546948Y-72323709D01*
X117546030Y-72312055D01*
X117545762Y-72303528D01*
X117544597Y-72266431D01*
X117538675Y-72246048D01*
X117534732Y-72227011D01*
X117532071Y-72205942D01*
X117515263Y-72163491D01*
X117511480Y-72152442D01*
X117498744Y-72108602D01*
X117487937Y-72090329D01*
X117479382Y-72072866D01*
X117471568Y-72053129D01*
X117444733Y-72016193D01*
X117438325Y-72006436D01*
X117415084Y-71967138D01*
X117415081Y-71967135D01*
X117400068Y-71952122D01*
X117387435Y-71937330D01*
X117374963Y-71920163D01*
X117339779Y-71891056D01*
X117331140Y-71883194D01*
X116848818Y-71400872D01*
X116815333Y-71339549D01*
X116812499Y-71313191D01*
X116812499Y-70687140D01*
X116812499Y-70687139D01*
X116812499Y-70683992D01*
X116801999Y-70581203D01*
X116746814Y-70414666D01*
X116660506Y-70274737D01*
X116654711Y-70265342D01*
X116530657Y-70141288D01*
X116381334Y-70049186D01*
X116214797Y-69994000D01*
X116115141Y-69983819D01*
X116115122Y-69983818D01*
X116112009Y-69983500D01*
X116108860Y-69983500D01*
X115315141Y-69983500D01*
X115315121Y-69983500D01*
X115311992Y-69983501D01*
X115308860Y-69983820D01*
X115308858Y-69983821D01*
X115209203Y-69994000D01*
X115042665Y-70049186D01*
X114893342Y-70141288D01*
X114799681Y-70234950D01*
X114738358Y-70268435D01*
X114668666Y-70263451D01*
X114624319Y-70234950D01*
X114530657Y-70141288D01*
X114381334Y-70049186D01*
X114214797Y-69994000D01*
X114115141Y-69983819D01*
X114115122Y-69983818D01*
X114112009Y-69983500D01*
X114108860Y-69983500D01*
X113482808Y-69983500D01*
X113415769Y-69963815D01*
X113395127Y-69947181D01*
X113096819Y-69648873D01*
X113063334Y-69587550D01*
X113060500Y-69561192D01*
X113060500Y-68824683D01*
X113080185Y-68757644D01*
X113113377Y-68723108D01*
X113249140Y-68628046D01*
X113410046Y-68467140D01*
X113540567Y-68280735D01*
X113540568Y-68280734D01*
X113567618Y-68222724D01*
X113613790Y-68170285D01*
X113680983Y-68151133D01*
X113747865Y-68171348D01*
X113792382Y-68222725D01*
X113819431Y-68280733D01*
X113949953Y-68467140D01*
X114110859Y-68628046D01*
X114297264Y-68758567D01*
X114297265Y-68758567D01*
X114297266Y-68758568D01*
X114503504Y-68854739D01*
X114723308Y-68913635D01*
X114950000Y-68933468D01*
X115176692Y-68913635D01*
X115396496Y-68854739D01*
X115602734Y-68758568D01*
X115789139Y-68628047D01*
X115950047Y-68467139D01*
X116080568Y-68280734D01*
X116107618Y-68222724D01*
X116153790Y-68170285D01*
X116220983Y-68151133D01*
X116287865Y-68171348D01*
G37*
%TD.AperFunction*%
%TA.AperFunction,Conductor*%
G36*
X104375703Y-74992095D02*
G01*
X104382181Y-74998127D01*
X106855181Y-77471127D01*
X106888666Y-77532450D01*
X106891500Y-77558808D01*
X106891500Y-78184858D01*
X106891500Y-78184877D01*
X106891501Y-78188008D01*
X106891820Y-78191140D01*
X106891821Y-78191141D01*
X106902000Y-78290796D01*
X106957186Y-78457334D01*
X107049288Y-78606657D01*
X107142950Y-78700319D01*
X107176435Y-78761642D01*
X107171451Y-78831334D01*
X107142950Y-78875681D01*
X107049288Y-78969342D01*
X106957186Y-79118665D01*
X106902000Y-79285202D01*
X106891819Y-79384858D01*
X106891817Y-79384878D01*
X106891500Y-79387991D01*
X106891500Y-79391138D01*
X106891500Y-79391139D01*
X106891500Y-80184858D01*
X106891500Y-80184877D01*
X106891501Y-80188008D01*
X106891820Y-80191140D01*
X106891821Y-80191141D01*
X106902000Y-80290796D01*
X106957186Y-80457334D01*
X107037413Y-80587404D01*
X107055853Y-80654796D01*
X107034930Y-80721460D01*
X106981288Y-80766229D01*
X106931874Y-80776500D01*
X105479808Y-80776500D01*
X105412769Y-80756815D01*
X105392127Y-80740181D01*
X104756818Y-80104872D01*
X104723333Y-80043549D01*
X104720499Y-80017191D01*
X104720499Y-79391140D01*
X104720499Y-79391139D01*
X104720499Y-79387992D01*
X104709999Y-79285203D01*
X104654814Y-79118666D01*
X104582631Y-79001638D01*
X104562713Y-78969345D01*
X104520222Y-78926854D01*
X104469047Y-78875679D01*
X104435564Y-78814359D01*
X104440548Y-78744667D01*
X104469047Y-78700320D01*
X104562712Y-78606656D01*
X104654814Y-78457334D01*
X104709999Y-78290797D01*
X104720500Y-78188009D01*
X104720499Y-77387992D01*
X104709999Y-77285203D01*
X104654814Y-77118666D01*
X104569871Y-76980950D01*
X104562711Y-76969342D01*
X104438657Y-76845288D01*
X104289335Y-76753186D01*
X104269107Y-76746483D01*
X104255494Y-76741972D01*
X104198050Y-76702199D01*
X104171228Y-76637683D01*
X104170500Y-76624267D01*
X104170500Y-75085808D01*
X104190185Y-75018769D01*
X104242989Y-74973014D01*
X104312147Y-74963070D01*
X104375703Y-74992095D01*
G37*
%TD.AperFunction*%
%TA.AperFunction,Conductor*%
G36*
X112889231Y-80458185D02*
G01*
X112909873Y-80474819D01*
X118750181Y-86315127D01*
X118783666Y-86376450D01*
X118786500Y-86402808D01*
X118786500Y-105186705D01*
X118766815Y-105253744D01*
X118733624Y-105288279D01*
X118622380Y-105366173D01*
X118466174Y-105522379D01*
X118339466Y-105703338D01*
X118279382Y-105832189D01*
X118233209Y-105884628D01*
X118166016Y-105903780D01*
X118099135Y-105883564D01*
X118054618Y-105832189D01*
X118026848Y-105772637D01*
X117994534Y-105703339D01*
X117867826Y-105522380D01*
X117711620Y-105366174D01*
X117711619Y-105366173D01*
X117600376Y-105288279D01*
X117556751Y-105233702D01*
X117547500Y-105186705D01*
X117547500Y-86287503D01*
X117549841Y-86266300D01*
X117549759Y-86263706D01*
X117549760Y-86263704D01*
X117547561Y-86193722D01*
X117547500Y-86189828D01*
X117547500Y-86164977D01*
X117547500Y-86164976D01*
X117547500Y-86161075D01*
X117546948Y-86156712D01*
X117546031Y-86145064D01*
X117544598Y-86099431D01*
X117538675Y-86079045D01*
X117534731Y-86060004D01*
X117532071Y-86038942D01*
X117515267Y-85996501D01*
X117511484Y-85985452D01*
X117509735Y-85979431D01*
X117498745Y-85941602D01*
X117495594Y-85936275D01*
X117487937Y-85923326D01*
X117479376Y-85905850D01*
X117471568Y-85886129D01*
X117444731Y-85849191D01*
X117438317Y-85839425D01*
X117415081Y-85800135D01*
X117400074Y-85785128D01*
X117387436Y-85770331D01*
X117374963Y-85753163D01*
X117339779Y-85724056D01*
X117331140Y-85716194D01*
X112642434Y-81027488D01*
X112629091Y-81010833D01*
X112576166Y-80961134D01*
X112573369Y-80958423D01*
X112555789Y-80940843D01*
X112553035Y-80938089D01*
X112549956Y-80935701D01*
X112549951Y-80935696D01*
X112549548Y-80935383D01*
X112540669Y-80927800D01*
X112537493Y-80924818D01*
X112507393Y-80896552D01*
X112507392Y-80896551D01*
X112488793Y-80886326D01*
X112472532Y-80875645D01*
X112455764Y-80862638D01*
X112413870Y-80844508D01*
X112403379Y-80839369D01*
X112363367Y-80817372D01*
X112342800Y-80812091D01*
X112324398Y-80805791D01*
X112304924Y-80797364D01*
X112259837Y-80790223D01*
X112248398Y-80787854D01*
X112204178Y-80776500D01*
X112204177Y-80776500D01*
X112182955Y-80776500D01*
X112163556Y-80774973D01*
X112142596Y-80771653D01*
X112142595Y-80771653D01*
X112120558Y-80773736D01*
X112097139Y-80775950D01*
X112085470Y-80776500D01*
X109252126Y-80776500D01*
X109185087Y-80756815D01*
X109139332Y-80704011D01*
X109129388Y-80634853D01*
X109146587Y-80587404D01*
X109202099Y-80497404D01*
X109254047Y-80450679D01*
X109307638Y-80438500D01*
X112822192Y-80438500D01*
X112889231Y-80458185D01*
G37*
%TD.AperFunction*%
%TA.AperFunction,Conductor*%
G36*
X142079306Y-64488185D02*
G01*
X142125061Y-64540989D01*
X142129973Y-64553495D01*
X142141186Y-64587335D01*
X142233288Y-64736657D01*
X142357342Y-64860711D01*
X142413895Y-64895592D01*
X142506666Y-64952814D01*
X142618017Y-64989712D01*
X142673202Y-65007999D01*
X142772858Y-65018180D01*
X142772859Y-65018180D01*
X142775991Y-65018500D01*
X143576008Y-65018499D01*
X143678797Y-65007999D01*
X143845334Y-64952814D01*
X143994656Y-64860712D01*
X144088320Y-64767047D01*
X144149641Y-64733564D01*
X144219333Y-64738548D01*
X144263679Y-64767047D01*
X144357343Y-64860711D01*
X144357345Y-64860713D01*
X144432005Y-64906762D01*
X144506666Y-64952814D01*
X144618017Y-64989712D01*
X144673202Y-65007999D01*
X144772858Y-65018180D01*
X144772859Y-65018180D01*
X144775991Y-65018500D01*
X145405191Y-65018499D01*
X145472230Y-65038183D01*
X145492872Y-65054818D01*
X157112873Y-76674819D01*
X157146358Y-76736142D01*
X157141374Y-76805834D01*
X157099502Y-76861767D01*
X157034038Y-76886184D01*
X157025192Y-76886500D01*
X139687808Y-76886500D01*
X139620769Y-76866815D01*
X139600127Y-76850181D01*
X139276282Y-76526336D01*
X139242797Y-76465013D01*
X139247781Y-76395321D01*
X139289653Y-76339388D01*
X139292814Y-76337098D01*
X139334620Y-76307826D01*
X139490826Y-76151620D01*
X139617534Y-75970662D01*
X139675185Y-75847027D01*
X139677618Y-75841811D01*
X139723790Y-75789372D01*
X139790984Y-75770220D01*
X139857865Y-75790436D01*
X139902382Y-75841811D01*
X139962466Y-75970661D01*
X139962466Y-75970662D01*
X140089174Y-76151620D01*
X140245380Y-76307826D01*
X140426338Y-76434534D01*
X140626550Y-76527894D01*
X140839932Y-76585070D01*
X140986643Y-76597905D01*
X141059999Y-76604323D01*
X141059999Y-76604322D01*
X141060000Y-76604323D01*
X141280068Y-76585070D01*
X141493450Y-76527894D01*
X141693662Y-76434534D01*
X141874620Y-76307826D01*
X142030826Y-76151620D01*
X142157534Y-75970662D01*
X142215185Y-75847027D01*
X142217618Y-75841811D01*
X142263790Y-75789372D01*
X142330984Y-75770220D01*
X142397865Y-75790436D01*
X142442382Y-75841811D01*
X142502466Y-75970661D01*
X142502466Y-75970662D01*
X142629174Y-76151620D01*
X142785380Y-76307826D01*
X142966338Y-76434534D01*
X143166550Y-76527894D01*
X143379932Y-76585070D01*
X143600000Y-76604323D01*
X143820068Y-76585070D01*
X144033450Y-76527894D01*
X144233662Y-76434534D01*
X144414620Y-76307826D01*
X144570826Y-76151620D01*
X144697534Y-75970662D01*
X144790894Y-75770450D01*
X144848070Y-75557068D01*
X144867323Y-75337000D01*
X144848070Y-75116932D01*
X144790894Y-74903550D01*
X144697534Y-74703339D01*
X144570826Y-74522380D01*
X144414620Y-74366174D01*
X144414619Y-74366173D01*
X144303376Y-74288279D01*
X144259751Y-74233702D01*
X144250500Y-74186705D01*
X144250500Y-73435502D01*
X144252841Y-73414299D01*
X144252759Y-73411705D01*
X144252760Y-73411703D01*
X144250561Y-73341735D01*
X144250500Y-73337840D01*
X144250500Y-73312976D01*
X144250500Y-73309075D01*
X144249948Y-73304709D01*
X144249030Y-73293055D01*
X144248813Y-73286143D01*
X144247597Y-73247430D01*
X144241675Y-73227047D01*
X144237732Y-73208010D01*
X144235071Y-73186942D01*
X144218266Y-73144498D01*
X144214481Y-73133444D01*
X144208527Y-73112950D01*
X144201744Y-73089601D01*
X144190934Y-73071322D01*
X144182380Y-73053862D01*
X144174568Y-73034129D01*
X144147723Y-72997180D01*
X144141332Y-72987451D01*
X144118081Y-72948135D01*
X144103068Y-72933122D01*
X144090435Y-72918330D01*
X144089868Y-72917550D01*
X144077963Y-72901163D01*
X144065910Y-72891192D01*
X144042779Y-72872056D01*
X144034140Y-72864194D01*
X142208434Y-71038488D01*
X142195091Y-71021833D01*
X142142166Y-70972134D01*
X142139369Y-70969423D01*
X142121789Y-70951843D01*
X142119035Y-70949089D01*
X142115956Y-70946701D01*
X142115951Y-70946696D01*
X142115548Y-70946383D01*
X142106669Y-70938800D01*
X142105807Y-70937991D01*
X142073393Y-70907552D01*
X142073392Y-70907551D01*
X142054793Y-70897326D01*
X142038532Y-70886645D01*
X142021764Y-70873638D01*
X141979870Y-70855508D01*
X141969379Y-70850369D01*
X141929367Y-70828372D01*
X141908800Y-70823091D01*
X141890398Y-70816791D01*
X141870924Y-70808364D01*
X141825837Y-70801223D01*
X141814398Y-70798854D01*
X141770178Y-70787500D01*
X141770177Y-70787500D01*
X141748955Y-70787500D01*
X141729556Y-70785973D01*
X141708596Y-70782653D01*
X141708595Y-70782653D01*
X141686558Y-70784736D01*
X141663139Y-70786950D01*
X141651470Y-70787500D01*
X141513733Y-70787500D01*
X141446694Y-70767815D01*
X141400939Y-70715011D01*
X141396027Y-70702505D01*
X141384814Y-70668666D01*
X141292712Y-70519344D01*
X141292711Y-70519342D01*
X141168657Y-70395288D01*
X141019334Y-70303186D01*
X140852797Y-70248000D01*
X140753141Y-70237819D01*
X140753122Y-70237818D01*
X140750009Y-70237500D01*
X140746860Y-70237500D01*
X139953141Y-70237500D01*
X139953121Y-70237500D01*
X139949992Y-70237501D01*
X139946860Y-70237820D01*
X139946858Y-70237821D01*
X139847203Y-70248000D01*
X139680665Y-70303186D01*
X139531342Y-70395288D01*
X139437681Y-70488950D01*
X139376358Y-70522435D01*
X139306666Y-70517451D01*
X139262319Y-70488950D01*
X139168657Y-70395288D01*
X139019335Y-70303186D01*
X138940495Y-70277061D01*
X138883050Y-70237287D01*
X138856228Y-70172771D01*
X138855500Y-70159355D01*
X138855500Y-69095503D01*
X138857841Y-69074301D01*
X138857759Y-69071706D01*
X138857760Y-69071704D01*
X138855909Y-69012821D01*
X138873478Y-68945199D01*
X138924818Y-68897808D01*
X138993630Y-68885696D01*
X139011933Y-68889151D01*
X139103308Y-68913635D01*
X139330000Y-68933468D01*
X139556692Y-68913635D01*
X139776496Y-68854739D01*
X139982734Y-68758568D01*
X140169139Y-68628047D01*
X140330047Y-68467139D01*
X140460568Y-68280734D01*
X140487618Y-68222724D01*
X140533790Y-68170285D01*
X140600983Y-68151133D01*
X140667865Y-68171348D01*
X140712382Y-68222725D01*
X140739431Y-68280733D01*
X140869953Y-68467140D01*
X141030859Y-68628046D01*
X141217264Y-68758567D01*
X141217265Y-68758567D01*
X141217266Y-68758568D01*
X141423504Y-68854739D01*
X141643308Y-68913635D01*
X141870000Y-68933468D01*
X142096692Y-68913635D01*
X142316496Y-68854739D01*
X142522734Y-68758568D01*
X142709139Y-68628047D01*
X142870047Y-68467139D01*
X143000568Y-68280734D01*
X143027618Y-68222724D01*
X143073790Y-68170285D01*
X143140983Y-68151133D01*
X143207865Y-68171348D01*
X143252382Y-68222725D01*
X143279431Y-68280733D01*
X143409953Y-68467140D01*
X143570859Y-68628046D01*
X143757264Y-68758567D01*
X143757265Y-68758567D01*
X143757266Y-68758568D01*
X143963504Y-68854739D01*
X144183308Y-68913635D01*
X144334436Y-68926856D01*
X144409999Y-68933468D01*
X144409999Y-68933467D01*
X144410000Y-68933468D01*
X144636692Y-68913635D01*
X144856496Y-68854739D01*
X145062734Y-68758568D01*
X145249139Y-68628047D01*
X145410047Y-68467139D01*
X145540568Y-68280734D01*
X145636739Y-68074496D01*
X145695635Y-67854692D01*
X145715468Y-67628000D01*
X145695635Y-67401308D01*
X145636739Y-67181504D01*
X145540568Y-66975266D01*
X145410047Y-66788861D01*
X145410046Y-66788859D01*
X145249140Y-66627953D01*
X145062735Y-66497432D01*
X144856497Y-66401261D01*
X144636689Y-66342364D01*
X144410000Y-66322531D01*
X144183310Y-66342364D01*
X143963502Y-66401261D01*
X143757264Y-66497432D01*
X143570859Y-66627953D01*
X143409953Y-66788859D01*
X143279433Y-66975263D01*
X143252382Y-67033275D01*
X143206209Y-67085714D01*
X143139015Y-67104865D01*
X143072134Y-67084649D01*
X143027618Y-67033275D01*
X143027617Y-67033273D01*
X143000568Y-66975266D01*
X142870047Y-66788861D01*
X142870046Y-66788859D01*
X142709140Y-66627953D01*
X142522735Y-66497432D01*
X142316497Y-66401261D01*
X142096689Y-66342364D01*
X141869999Y-66322531D01*
X141643310Y-66342364D01*
X141423502Y-66401261D01*
X141217264Y-66497432D01*
X141030859Y-66627953D01*
X140869953Y-66788859D01*
X140739433Y-66975263D01*
X140712382Y-67033275D01*
X140666209Y-67085714D01*
X140599015Y-67104865D01*
X140532134Y-67084649D01*
X140487618Y-67033275D01*
X140487617Y-67033273D01*
X140460568Y-66975266D01*
X140330047Y-66788861D01*
X140330046Y-66788859D01*
X140169140Y-66627953D01*
X139982735Y-66497432D01*
X139776497Y-66401261D01*
X139556689Y-66342364D01*
X139330000Y-66322531D01*
X139103310Y-66342364D01*
X138993686Y-66371738D01*
X138883504Y-66401261D01*
X138850700Y-66416558D01*
X138781622Y-66427049D01*
X138717838Y-66398528D01*
X138684657Y-66347787D01*
X138682838Y-66348508D01*
X138673164Y-66324074D01*
X138660264Y-66291492D01*
X138656483Y-66280448D01*
X138643745Y-66236604D01*
X138643744Y-66236603D01*
X138643744Y-66236601D01*
X138632934Y-66218322D01*
X138624380Y-66200862D01*
X138616568Y-66181129D01*
X138589723Y-66144180D01*
X138583332Y-66134451D01*
X138560081Y-66095135D01*
X138545068Y-66080122D01*
X138532435Y-66065330D01*
X138519963Y-66048163D01*
X138484779Y-66019056D01*
X138476140Y-66011194D01*
X137812434Y-65347488D01*
X137799091Y-65330833D01*
X137746166Y-65281134D01*
X137743369Y-65278423D01*
X137725789Y-65260843D01*
X137723035Y-65258089D01*
X137719956Y-65255701D01*
X137719951Y-65255696D01*
X137719548Y-65255383D01*
X137710669Y-65247800D01*
X137677392Y-65216551D01*
X137658793Y-65206326D01*
X137642532Y-65195645D01*
X137625764Y-65182638D01*
X137613239Y-65177218D01*
X137583869Y-65164508D01*
X137573379Y-65159369D01*
X137533367Y-65137372D01*
X137512800Y-65132091D01*
X137494398Y-65125791D01*
X137474924Y-65117364D01*
X137429837Y-65110223D01*
X137418398Y-65107854D01*
X137374178Y-65096500D01*
X137374177Y-65096500D01*
X137352955Y-65096500D01*
X137333556Y-65094973D01*
X137312596Y-65091653D01*
X137312595Y-65091653D01*
X137290558Y-65093736D01*
X137267139Y-65095950D01*
X137255470Y-65096500D01*
X128596505Y-65096500D01*
X128575294Y-65094158D01*
X128502724Y-65096439D01*
X128498829Y-65096500D01*
X128470075Y-65096500D01*
X128466212Y-65096987D01*
X128466193Y-65096989D01*
X128465691Y-65097053D01*
X128454069Y-65097967D01*
X128408428Y-65099401D01*
X128388041Y-65105324D01*
X128368998Y-65109268D01*
X128347942Y-65111928D01*
X128305496Y-65128733D01*
X128294450Y-65132514D01*
X128250602Y-65145254D01*
X128232324Y-65156063D01*
X128214861Y-65164618D01*
X128195130Y-65172431D01*
X128158187Y-65199270D01*
X128148428Y-65205680D01*
X128109135Y-65228918D01*
X128094125Y-65243928D01*
X128079336Y-65256558D01*
X128062164Y-65269034D01*
X128033057Y-65304218D01*
X128025196Y-65312856D01*
X127016937Y-66321115D01*
X126955614Y-66354600D01*
X126897162Y-66353209D01*
X126856692Y-66342365D01*
X126856691Y-66342364D01*
X126856688Y-66342364D01*
X126629999Y-66322531D01*
X126403310Y-66342364D01*
X126183502Y-66401261D01*
X125977264Y-66497432D01*
X125790859Y-66627953D01*
X125629953Y-66788859D01*
X125499431Y-66975266D01*
X125472380Y-67033276D01*
X125426207Y-67085714D01*
X125359013Y-67104865D01*
X125292132Y-67084648D01*
X125247617Y-67033273D01*
X125220568Y-66975266D01*
X125090046Y-66788859D01*
X124929140Y-66627953D01*
X124742735Y-66497432D01*
X124536497Y-66401261D01*
X124316689Y-66342364D01*
X124103329Y-66323697D01*
X124038261Y-66298244D01*
X123997282Y-66241653D01*
X123993404Y-66171891D01*
X124026454Y-66112490D01*
X125634126Y-64504819D01*
X125695450Y-64471334D01*
X125721808Y-64468500D01*
X142012267Y-64468500D01*
X142079306Y-64488185D01*
G37*
%TD.AperFunction*%
%TA.AperFunction,Conductor*%
G36*
X108667865Y-68171348D02*
G01*
X108712382Y-68222725D01*
X108739431Y-68280733D01*
X108869953Y-68467140D01*
X109030859Y-68628046D01*
X109166623Y-68723108D01*
X109210248Y-68777684D01*
X109219500Y-68824683D01*
X109219500Y-69859500D01*
X109199815Y-69926539D01*
X109147011Y-69972294D01*
X109095500Y-69983500D01*
X108489141Y-69983500D01*
X108489121Y-69983500D01*
X108485992Y-69983501D01*
X108482860Y-69983820D01*
X108482858Y-69983821D01*
X108383203Y-69994000D01*
X108216665Y-70049186D01*
X108067342Y-70141288D01*
X107943288Y-70265342D01*
X107851186Y-70414665D01*
X107796000Y-70581202D01*
X107785819Y-70680858D01*
X107785817Y-70680878D01*
X107785500Y-70683991D01*
X107785500Y-70687138D01*
X107785500Y-70687139D01*
X107785500Y-71680859D01*
X107785500Y-71680878D01*
X107785501Y-71684008D01*
X107785820Y-71687140D01*
X107785821Y-71687141D01*
X107796000Y-71786796D01*
X107851186Y-71953334D01*
X107943288Y-72102657D01*
X108067342Y-72226711D01*
X108099333Y-72246443D01*
X108216666Y-72318814D01*
X108321534Y-72353564D01*
X108383202Y-72373999D01*
X108482858Y-72384180D01*
X108482859Y-72384180D01*
X108485991Y-72384500D01*
X109286008Y-72384499D01*
X109388797Y-72373999D01*
X109555334Y-72318814D01*
X109704656Y-72226712D01*
X109798320Y-72133047D01*
X109859641Y-72099564D01*
X109929333Y-72104548D01*
X109973679Y-72133047D01*
X110025455Y-72184823D01*
X110067345Y-72226713D01*
X110131739Y-72266431D01*
X110216666Y-72318814D01*
X110321534Y-72353564D01*
X110383202Y-72373999D01*
X110482858Y-72384180D01*
X110482859Y-72384180D01*
X110485991Y-72384500D01*
X111042499Y-72384499D01*
X111109538Y-72404183D01*
X111155293Y-72456987D01*
X111166499Y-72508499D01*
X111166499Y-74186705D01*
X111146814Y-74253744D01*
X111113623Y-74288279D01*
X111002380Y-74366173D01*
X110846174Y-74522379D01*
X110719466Y-74703338D01*
X110659382Y-74832189D01*
X110613209Y-74884628D01*
X110546016Y-74903780D01*
X110479135Y-74883564D01*
X110434618Y-74832189D01*
X110407048Y-74773065D01*
X110374534Y-74703339D01*
X110247826Y-74522380D01*
X110091620Y-74366174D01*
X109910662Y-74239466D01*
X109861527Y-74216554D01*
X109710451Y-74146106D01*
X109497065Y-74088929D01*
X109277000Y-74069676D01*
X109056934Y-74088929D01*
X108843548Y-74146106D01*
X108643338Y-74239466D01*
X108462379Y-74366174D01*
X108306174Y-74522379D01*
X108179466Y-74703338D01*
X108086106Y-74903548D01*
X108028929Y-75116934D01*
X108009676Y-75336999D01*
X108028929Y-75557065D01*
X108086106Y-75770451D01*
X108179466Y-75970661D01*
X108179466Y-75970662D01*
X108306174Y-76151620D01*
X108462380Y-76307826D01*
X108572653Y-76385040D01*
X108643338Y-76434534D01*
X108686805Y-76454803D01*
X108739245Y-76500975D01*
X108758397Y-76568168D01*
X108738182Y-76635050D01*
X108685016Y-76680384D01*
X108621800Y-76690543D01*
X108595143Y-76687820D01*
X108595139Y-76687819D01*
X108592009Y-76687500D01*
X108588860Y-76687500D01*
X107962808Y-76687500D01*
X107895769Y-76667815D01*
X107875127Y-76651181D01*
X105476819Y-74252873D01*
X105443334Y-74191550D01*
X105440500Y-74165192D01*
X105440500Y-68824683D01*
X105460185Y-68757644D01*
X105493377Y-68723108D01*
X105629140Y-68628046D01*
X105790046Y-68467140D01*
X105920567Y-68280735D01*
X105920568Y-68280734D01*
X105947618Y-68222724D01*
X105993790Y-68170285D01*
X106060983Y-68151133D01*
X106127865Y-68171348D01*
X106172382Y-68222725D01*
X106199431Y-68280733D01*
X106329953Y-68467140D01*
X106490859Y-68628046D01*
X106677264Y-68758567D01*
X106677265Y-68758567D01*
X106677266Y-68758568D01*
X106883504Y-68854739D01*
X107103308Y-68913635D01*
X107330000Y-68933468D01*
X107556692Y-68913635D01*
X107776496Y-68854739D01*
X107982734Y-68758568D01*
X108169139Y-68628047D01*
X108330047Y-68467139D01*
X108460568Y-68280734D01*
X108487618Y-68222724D01*
X108533790Y-68170285D01*
X108600983Y-68151133D01*
X108667865Y-68171348D01*
G37*
%TD.AperFunction*%
%TA.AperFunction,Conductor*%
G36*
X133047865Y-68171348D02*
G01*
X133092382Y-68222725D01*
X133119431Y-68280733D01*
X133249953Y-68467140D01*
X133410859Y-68628046D01*
X133546623Y-68723108D01*
X133590248Y-68777684D01*
X133599500Y-68824683D01*
X133599500Y-70092500D01*
X133579815Y-70159539D01*
X133527011Y-70205294D01*
X133475500Y-70216500D01*
X133015141Y-70216500D01*
X133015121Y-70216500D01*
X133011992Y-70216501D01*
X133008860Y-70216820D01*
X133008858Y-70216821D01*
X132909203Y-70227000D01*
X132742665Y-70282186D01*
X132593342Y-70374288D01*
X132469288Y-70498342D01*
X132377186Y-70647665D01*
X132322000Y-70814202D01*
X132311819Y-70913858D01*
X132311817Y-70913878D01*
X132311500Y-70916991D01*
X132311500Y-70920138D01*
X132311500Y-70920139D01*
X132311500Y-71913859D01*
X132311500Y-71913878D01*
X132311501Y-71917008D01*
X132311820Y-71920140D01*
X132311821Y-71920141D01*
X132322000Y-72019796D01*
X132377186Y-72186334D01*
X132469288Y-72335657D01*
X132593342Y-72459711D01*
X132627392Y-72480713D01*
X132742666Y-72551814D01*
X132854016Y-72588712D01*
X132909202Y-72606999D01*
X132938127Y-72609954D01*
X133006042Y-72616892D01*
X133070734Y-72643288D01*
X133110885Y-72700468D01*
X133113749Y-72770279D01*
X133081121Y-72827931D01*
X133040484Y-72868568D01*
X133023831Y-72881910D01*
X132974133Y-72934833D01*
X132971428Y-72937625D01*
X132951089Y-72957965D01*
X132948713Y-72961027D01*
X132948702Y-72961040D01*
X132948378Y-72961459D01*
X132940806Y-72970323D01*
X132909550Y-73003607D01*
X132899322Y-73022212D01*
X132888645Y-73038467D01*
X132875636Y-73055238D01*
X132857506Y-73097132D01*
X132852370Y-73107616D01*
X132830372Y-73147632D01*
X132825091Y-73168199D01*
X132818791Y-73186600D01*
X132810364Y-73206074D01*
X132803223Y-73251161D01*
X132800855Y-73262593D01*
X132789745Y-73305871D01*
X132789500Y-73306824D01*
X132789500Y-73328045D01*
X132787973Y-73347444D01*
X132784652Y-73368405D01*
X132788949Y-73413860D01*
X132789499Y-73425528D01*
X132789500Y-74186705D01*
X132769816Y-74253744D01*
X132736624Y-74288279D01*
X132625380Y-74366173D01*
X132469174Y-74522379D01*
X132342466Y-74703338D01*
X132249106Y-74903548D01*
X132205875Y-75064886D01*
X132169509Y-75124547D01*
X132106662Y-75155075D01*
X132037287Y-75146780D01*
X131998419Y-75120473D01*
X129856819Y-72978873D01*
X129823334Y-72917550D01*
X129820500Y-72891192D01*
X129820500Y-68824683D01*
X129840185Y-68757644D01*
X129873377Y-68723108D01*
X130009140Y-68628046D01*
X130170046Y-68467140D01*
X130300567Y-68280735D01*
X130300568Y-68280734D01*
X130327618Y-68222724D01*
X130373790Y-68170285D01*
X130440983Y-68151133D01*
X130507865Y-68171348D01*
X130552382Y-68222725D01*
X130579431Y-68280733D01*
X130709953Y-68467140D01*
X130870859Y-68628046D01*
X131057264Y-68758567D01*
X131057265Y-68758567D01*
X131057266Y-68758568D01*
X131263504Y-68854739D01*
X131483308Y-68913635D01*
X131710000Y-68933468D01*
X131936692Y-68913635D01*
X132156496Y-68854739D01*
X132362734Y-68758568D01*
X132549139Y-68628047D01*
X132710047Y-68467139D01*
X132840568Y-68280734D01*
X132867618Y-68222724D01*
X132913790Y-68170285D01*
X132980983Y-68151133D01*
X133047865Y-68171348D01*
G37*
%TD.AperFunction*%
%TA.AperFunction,Conductor*%
G36*
X135587865Y-68171348D02*
G01*
X135632382Y-68222725D01*
X135659431Y-68280733D01*
X135789953Y-68467140D01*
X135950859Y-68628046D01*
X136137264Y-68758567D01*
X136137265Y-68758567D01*
X136137266Y-68758568D01*
X136343504Y-68854739D01*
X136563308Y-68913635D01*
X136714436Y-68926856D01*
X136789999Y-68933468D01*
X136789999Y-68933467D01*
X136790000Y-68933468D01*
X137016692Y-68913635D01*
X137236496Y-68854739D01*
X137236498Y-68854737D01*
X137240144Y-68853761D01*
X137309994Y-68855424D01*
X137367857Y-68894586D01*
X137391315Y-68938943D01*
X137400322Y-68969947D01*
X137404267Y-68988995D01*
X137406928Y-69010059D01*
X137423737Y-69052515D01*
X137427520Y-69063563D01*
X137440256Y-69107400D01*
X137451061Y-69125670D01*
X137459621Y-69143143D01*
X137467431Y-69162869D01*
X137494267Y-69199808D01*
X137500673Y-69209560D01*
X137523919Y-69248865D01*
X137523921Y-69248867D01*
X137531893Y-69262346D01*
X137529460Y-69263784D01*
X137551666Y-69304450D01*
X137554500Y-69330808D01*
X137554500Y-70320769D01*
X137534815Y-70387808D01*
X137518181Y-70408450D01*
X137407288Y-70519342D01*
X137315186Y-70668665D01*
X137260000Y-70835202D01*
X137249819Y-70934858D01*
X137249817Y-70934878D01*
X137249500Y-70937991D01*
X137249500Y-70941138D01*
X137249500Y-70941139D01*
X137249500Y-71934859D01*
X137249500Y-71934878D01*
X137249501Y-71938008D01*
X137249820Y-71941140D01*
X137249821Y-71941141D01*
X137260000Y-72040796D01*
X137315186Y-72207334D01*
X137407288Y-72356657D01*
X137531342Y-72480711D01*
X137562819Y-72500126D01*
X137680666Y-72572814D01*
X137769124Y-72602126D01*
X137847202Y-72627999D01*
X137946858Y-72638180D01*
X137946859Y-72638180D01*
X137949991Y-72638500D01*
X138750008Y-72638499D01*
X138852797Y-72627999D01*
X139019334Y-72572814D01*
X139168656Y-72480712D01*
X139262320Y-72387047D01*
X139323641Y-72353564D01*
X139393333Y-72358548D01*
X139437679Y-72387047D01*
X139485026Y-72434394D01*
X139531345Y-72480713D01*
X139562819Y-72500126D01*
X139680666Y-72572814D01*
X139769124Y-72602126D01*
X139847202Y-72627999D01*
X139946858Y-72638180D01*
X139946859Y-72638180D01*
X139949991Y-72638500D01*
X140750008Y-72638499D01*
X140852797Y-72627999D01*
X141019334Y-72572814D01*
X141168656Y-72480712D01*
X141292712Y-72356656D01*
X141360692Y-72246441D01*
X141412638Y-72199717D01*
X141481600Y-72188494D01*
X141545683Y-72216337D01*
X141553911Y-72223857D01*
X142913181Y-73583127D01*
X142946666Y-73644450D01*
X142949500Y-73670808D01*
X142949500Y-74186705D01*
X142929815Y-74253744D01*
X142896624Y-74288279D01*
X142785380Y-74366173D01*
X142629174Y-74522379D01*
X142502466Y-74703338D01*
X142442382Y-74832189D01*
X142396209Y-74884628D01*
X142329016Y-74903780D01*
X142262135Y-74883564D01*
X142217618Y-74832189D01*
X142190048Y-74773065D01*
X142157534Y-74703339D01*
X142030826Y-74522380D01*
X141874620Y-74366174D01*
X141693662Y-74239466D01*
X141644527Y-74216554D01*
X141493451Y-74146106D01*
X141280065Y-74088929D01*
X141060000Y-74069676D01*
X140839934Y-74088929D01*
X140626548Y-74146106D01*
X140426338Y-74239466D01*
X140245379Y-74366174D01*
X140089174Y-74522379D01*
X139962466Y-74703338D01*
X139902382Y-74832189D01*
X139856209Y-74884628D01*
X139789016Y-74903780D01*
X139722135Y-74883564D01*
X139677618Y-74832189D01*
X139650048Y-74773065D01*
X139617534Y-74703339D01*
X139490826Y-74522380D01*
X139334620Y-74366174D01*
X139153662Y-74239466D01*
X139104527Y-74216554D01*
X138953451Y-74146106D01*
X138740065Y-74088929D01*
X138520000Y-74069676D01*
X138299934Y-74088929D01*
X138086548Y-74146106D01*
X137886338Y-74239466D01*
X137705379Y-74366174D01*
X137549174Y-74522379D01*
X137422466Y-74703338D01*
X137362382Y-74832189D01*
X137316209Y-74884628D01*
X137249016Y-74903780D01*
X137182135Y-74883564D01*
X137137618Y-74832189D01*
X137110048Y-74773065D01*
X137077534Y-74703339D01*
X136950826Y-74522380D01*
X136794620Y-74366174D01*
X136613662Y-74239466D01*
X136564527Y-74216554D01*
X136413451Y-74146106D01*
X136200065Y-74088929D01*
X135979999Y-74069676D01*
X135759934Y-74088929D01*
X135546548Y-74146106D01*
X135346338Y-74239466D01*
X135165379Y-74366174D01*
X135009174Y-74522379D01*
X134882467Y-74703336D01*
X134822381Y-74832190D01*
X134776208Y-74884629D01*
X134709014Y-74903780D01*
X134642133Y-74883564D01*
X134597617Y-74832188D01*
X134537534Y-74703339D01*
X134410825Y-74522379D01*
X134254619Y-74366173D01*
X134143376Y-74288279D01*
X134099751Y-74233702D01*
X134090500Y-74186705D01*
X134090500Y-73709807D01*
X134110185Y-73642768D01*
X134126814Y-73622130D01*
X135095127Y-72653817D01*
X135156450Y-72620333D01*
X135182808Y-72617499D01*
X135808859Y-72617499D01*
X135812008Y-72617499D01*
X135914797Y-72606999D01*
X136081334Y-72551814D01*
X136230656Y-72459712D01*
X136354712Y-72335656D01*
X136446814Y-72186334D01*
X136501999Y-72019797D01*
X136512500Y-71917009D01*
X136512499Y-70916992D01*
X136501999Y-70814203D01*
X136446814Y-70647666D01*
X136354712Y-70498344D01*
X136354711Y-70498342D01*
X136230657Y-70374288D01*
X136081334Y-70282186D01*
X135914797Y-70227000D01*
X135815141Y-70216819D01*
X135815122Y-70216818D01*
X135812009Y-70216500D01*
X135808860Y-70216500D01*
X135024500Y-70216500D01*
X134957461Y-70196815D01*
X134911706Y-70144011D01*
X134900500Y-70092500D01*
X134900500Y-68824683D01*
X134920185Y-68757644D01*
X134953377Y-68723108D01*
X135089140Y-68628046D01*
X135250046Y-68467140D01*
X135380567Y-68280735D01*
X135380568Y-68280734D01*
X135407618Y-68222724D01*
X135453790Y-68170285D01*
X135520983Y-68151133D01*
X135587865Y-68171348D01*
G37*
%TD.AperFunction*%
%TA.AperFunction,Conductor*%
G36*
X171761323Y-50120649D02*
G01*
X171956830Y-50140749D01*
X172191590Y-50165989D01*
X172199375Y-50167078D01*
X172475997Y-50214774D01*
X172715756Y-50258033D01*
X172723021Y-50259572D01*
X172992816Y-50325320D01*
X173232141Y-50386406D01*
X173238970Y-50388359D01*
X173502131Y-50471883D01*
X173738313Y-50550494D01*
X173744633Y-50552790D01*
X174000681Y-50653763D01*
X174231761Y-50749481D01*
X174237553Y-50752056D01*
X174484531Y-50869514D01*
X174486698Y-50870571D01*
X174710126Y-50982412D01*
X174715333Y-50985177D01*
X174953363Y-51119015D01*
X174955791Y-51120419D01*
X175171005Y-51248113D01*
X175175739Y-51251068D01*
X175403707Y-51400593D01*
X175406419Y-51402423D01*
X175612178Y-51545284D01*
X175616375Y-51548330D01*
X175833553Y-51713021D01*
X175836351Y-51715210D01*
X176031540Y-51872503D01*
X176035220Y-51875588D01*
X176067152Y-51903431D01*
X176240489Y-52054573D01*
X176243488Y-52057274D01*
X176273405Y-52085128D01*
X176427049Y-52228176D01*
X176430234Y-52231250D01*
X176622748Y-52423764D01*
X176625822Y-52426949D01*
X176796720Y-52610506D01*
X176799425Y-52613509D01*
X176978404Y-52818771D01*
X176981495Y-52822458D01*
X177138775Y-53017630D01*
X177140992Y-53020465D01*
X177160008Y-53045541D01*
X177305662Y-53237615D01*
X177308714Y-53241820D01*
X177451575Y-53447579D01*
X177453405Y-53450291D01*
X177602930Y-53678259D01*
X177605885Y-53682993D01*
X177733579Y-53898207D01*
X177735024Y-53900707D01*
X177868804Y-54138634D01*
X177871602Y-54143903D01*
X177983407Y-54367260D01*
X177984504Y-54369509D01*
X178101939Y-54616438D01*
X178104519Y-54622241D01*
X178200248Y-54853349D01*
X178301207Y-55109360D01*
X178303504Y-55115683D01*
X178382124Y-55351894D01*
X178465637Y-55615022D01*
X178467593Y-55621861D01*
X178528686Y-55861214D01*
X178594416Y-56130932D01*
X178595971Y-56138271D01*
X178639242Y-56378096D01*
X178686918Y-56654610D01*
X178688010Y-56662422D01*
X178713251Y-56897178D01*
X178742684Y-57183477D01*
X178743255Y-57191730D01*
X178750350Y-57390327D01*
X178761274Y-57710046D01*
X178761346Y-57714280D01*
X178761346Y-133937873D01*
X178761274Y-133942107D01*
X178750923Y-134245107D01*
X178743189Y-134461101D01*
X178742618Y-134469344D01*
X178714276Y-134745047D01*
X178687890Y-134990470D01*
X178686798Y-134998283D01*
X178640267Y-135268160D01*
X178595796Y-135514638D01*
X178594241Y-135521977D01*
X178529707Y-135786797D01*
X178467362Y-136031061D01*
X178465405Y-136037902D01*
X178383124Y-136297153D01*
X178303218Y-136537236D01*
X178300920Y-136543562D01*
X178201234Y-136796350D01*
X178104151Y-137030730D01*
X178101574Y-137036525D01*
X177985483Y-137280629D01*
X177984386Y-137282877D01*
X177871150Y-137509096D01*
X177868352Y-137514366D01*
X177735993Y-137749767D01*
X177734549Y-137752266D01*
X177605364Y-137969997D01*
X177602409Y-137974732D01*
X177454354Y-138200462D01*
X177452523Y-138203174D01*
X177308071Y-138411225D01*
X177305019Y-138415430D01*
X177141960Y-138630457D01*
X177139707Y-138633338D01*
X176980745Y-138830597D01*
X176977655Y-138834284D01*
X176800349Y-139037629D01*
X176797643Y-139040631D01*
X176624935Y-139226134D01*
X176621861Y-139229320D01*
X176431158Y-139420024D01*
X176427973Y-139423098D01*
X176242442Y-139595835D01*
X176239440Y-139598540D01*
X176036151Y-139775800D01*
X176032463Y-139778891D01*
X175835166Y-139937884D01*
X175832286Y-139940137D01*
X175617262Y-140103196D01*
X175613056Y-140106248D01*
X175404984Y-140250716D01*
X175402272Y-140252546D01*
X175176590Y-140400572D01*
X175171856Y-140403527D01*
X174954117Y-140532719D01*
X174951617Y-140534164D01*
X174716203Y-140666532D01*
X174710934Y-140669330D01*
X174484713Y-140782570D01*
X174482464Y-140783667D01*
X174238374Y-140899752D01*
X174232571Y-140902332D01*
X173998152Y-140999433D01*
X173745434Y-141099092D01*
X173739112Y-141101389D01*
X173499002Y-141181308D01*
X173239739Y-141263596D01*
X173232899Y-141265552D01*
X172988700Y-141327882D01*
X172723816Y-141392433D01*
X172716477Y-141393988D01*
X172470023Y-141438455D01*
X172200111Y-141484993D01*
X172192299Y-141486085D01*
X171946940Y-141512466D01*
X171671209Y-141540813D01*
X171662956Y-141541384D01*
X171434120Y-141549559D01*
X171145289Y-141559428D01*
X171141055Y-141559500D01*
X89302126Y-141559500D01*
X89297892Y-141559428D01*
X88978225Y-141548507D01*
X88779574Y-141541412D01*
X88771320Y-141540841D01*
X88485175Y-141511425D01*
X88250250Y-141486167D01*
X88242438Y-141485075D01*
X87966027Y-141437418D01*
X87726107Y-141394131D01*
X87718767Y-141392576D01*
X87449065Y-141326851D01*
X87209707Y-141265758D01*
X87202866Y-141263801D01*
X86939718Y-141180283D01*
X86845002Y-141148759D01*
X86703540Y-141101676D01*
X86697229Y-141099383D01*
X86441188Y-140998414D01*
X86210071Y-140902683D01*
X86204276Y-140900106D01*
X85957324Y-140782660D01*
X85955075Y-140781563D01*
X85731755Y-140669777D01*
X85726487Y-140666979D01*
X85488514Y-140533174D01*
X85486013Y-140531730D01*
X85270856Y-140404071D01*
X85266122Y-140401116D01*
X85038101Y-140251557D01*
X85035389Y-140249726D01*
X84829650Y-140106879D01*
X84825445Y-140103827D01*
X84608349Y-139939198D01*
X84605468Y-139936946D01*
X84410286Y-139779659D01*
X84406599Y-139776567D01*
X84201323Y-139597575D01*
X84198320Y-139594870D01*
X84014792Y-139424000D01*
X84011607Y-139420926D01*
X83819072Y-139228391D01*
X83815998Y-139225206D01*
X83645128Y-139041678D01*
X83642423Y-139038675D01*
X83463431Y-138833399D01*
X83460352Y-138829727D01*
X83303046Y-138634523D01*
X83300800Y-138631649D01*
X83136171Y-138414553D01*
X83133119Y-138410348D01*
X82990272Y-138204609D01*
X82988441Y-138201897D01*
X82838882Y-137973876D01*
X82835938Y-137969160D01*
X82708229Y-137753917D01*
X82706824Y-137751484D01*
X82573019Y-137513511D01*
X82570234Y-137508269D01*
X82458405Y-137284862D01*
X82457338Y-137282674D01*
X82339884Y-137035704D01*
X82337314Y-137029922D01*
X82327110Y-137005288D01*
X82285713Y-136905345D01*
X82241585Y-136798810D01*
X82140615Y-136542768D01*
X82138319Y-136536445D01*
X82059732Y-136300331D01*
X81976188Y-136037105D01*
X81974245Y-136030312D01*
X81913148Y-135790934D01*
X81897245Y-135725675D01*
X81847416Y-135521205D01*
X81845870Y-135513907D01*
X81802592Y-135274032D01*
X81767027Y-135067764D01*
X87445787Y-135067764D01*
X87475413Y-135337016D01*
X87487145Y-135381890D01*
X87543928Y-135599088D01*
X87644468Y-135835677D01*
X87649871Y-135848392D01*
X87790982Y-136079611D01*
X87964253Y-136287818D01*
X87964255Y-136287820D01*
X88165998Y-136468582D01*
X88391910Y-136618044D01*
X88459033Y-136649510D01*
X88637177Y-136733021D01*
X88864314Y-136801356D01*
X88896569Y-136811060D01*
X89164561Y-136850500D01*
X89164564Y-136850500D01*
X89365369Y-136850500D01*
X89367631Y-136850500D01*
X89570156Y-136835677D01*
X89834553Y-136776780D01*
X90087558Y-136680014D01*
X90323777Y-136547441D01*
X90538177Y-136381888D01*
X90726186Y-136186881D01*
X90883799Y-135966579D01*
X91007656Y-135725675D01*
X91064177Y-135560000D01*
X94384534Y-135560000D01*
X94404364Y-135824616D01*
X94463414Y-136083329D01*
X94560360Y-136330343D01*
X94685701Y-136547441D01*
X94693042Y-136560155D01*
X94858492Y-136767623D01*
X94970131Y-136871208D01*
X95053018Y-136948116D01*
X95213398Y-137057461D01*
X95272268Y-137097598D01*
X95511350Y-137212734D01*
X95764922Y-137290950D01*
X95980748Y-137323480D01*
X96027318Y-137330500D01*
X96027319Y-137330500D01*
X96292682Y-137330500D01*
X96332231Y-137324538D01*
X96555078Y-137290950D01*
X96808650Y-137212734D01*
X97047733Y-137097598D01*
X97195964Y-136996535D01*
X97266986Y-136948113D01*
X97411135Y-136814362D01*
X97461508Y-136767623D01*
X97626958Y-136560155D01*
X97759639Y-136330345D01*
X97794842Y-136240647D01*
X97837655Y-136185438D01*
X97903524Y-136162137D01*
X97971535Y-136178146D01*
X98020094Y-136228384D01*
X98025696Y-136240650D01*
X98060814Y-136330128D01*
X98193456Y-136559871D01*
X98243642Y-136622803D01*
X99011563Y-135854882D01*
X99070395Y-135966975D01*
X99184923Y-136096251D01*
X99327061Y-136194362D01*
X99364856Y-136208695D01*
X98596438Y-136977112D01*
X98772521Y-137097163D01*
X99011533Y-137212265D01*
X99265034Y-137290461D01*
X99527356Y-137330000D01*
X99792644Y-137330000D01*
X100054965Y-137290461D01*
X100308469Y-137212265D01*
X100547481Y-137097163D01*
X100723560Y-136977112D01*
X99955143Y-136208695D01*
X99992939Y-136194362D01*
X100135077Y-136096251D01*
X100249605Y-135966975D01*
X100308435Y-135854882D01*
X101076355Y-136622803D01*
X101126543Y-136559870D01*
X101259186Y-136330126D01*
X101356105Y-136083182D01*
X101415138Y-135824542D01*
X101434963Y-135559999D01*
X101415138Y-135295457D01*
X101356105Y-135036817D01*
X101259186Y-134789873D01*
X101126543Y-134560128D01*
X101076355Y-134497195D01*
X100308435Y-135265116D01*
X100249605Y-135153025D01*
X100135077Y-135023749D01*
X99992939Y-134925638D01*
X99955142Y-134911303D01*
X100723560Y-134142886D01*
X100547481Y-134022836D01*
X100308469Y-133907734D01*
X100054965Y-133829538D01*
X99792644Y-133790000D01*
X99527356Y-133790000D01*
X99265034Y-133829538D01*
X99085399Y-133884949D01*
X99015535Y-133885899D01*
X98956249Y-133848928D01*
X98926362Y-133785772D01*
X98935365Y-133716485D01*
X98961166Y-133678779D01*
X99423126Y-133216819D01*
X99484450Y-133183334D01*
X99510808Y-133180500D01*
X109009192Y-133180500D01*
X109076231Y-133200185D01*
X109096873Y-133216819D01*
X109558073Y-133678019D01*
X109591558Y-133739342D01*
X109586574Y-133809034D01*
X109544702Y-133864967D01*
X109479238Y-133889384D01*
X109433843Y-133884191D01*
X109255079Y-133829050D01*
X108992682Y-133789500D01*
X108992681Y-133789500D01*
X108727319Y-133789500D01*
X108727318Y-133789500D01*
X108464920Y-133829050D01*
X108211351Y-133907265D01*
X107972265Y-134022403D01*
X107753018Y-134171883D01*
X107558492Y-134352377D01*
X107393041Y-134559845D01*
X107260360Y-134789656D01*
X107163414Y-135036670D01*
X107104364Y-135295383D01*
X107084534Y-135560000D01*
X107104364Y-135824616D01*
X107163414Y-136083329D01*
X107260360Y-136330343D01*
X107385701Y-136547441D01*
X107393042Y-136560155D01*
X107558492Y-136767623D01*
X107670131Y-136871208D01*
X107753018Y-136948116D01*
X107913398Y-137057461D01*
X107972268Y-137097598D01*
X108211350Y-137212734D01*
X108464922Y-137290950D01*
X108680748Y-137323480D01*
X108727318Y-137330500D01*
X108727319Y-137330500D01*
X108992682Y-137330500D01*
X109123879Y-137310725D01*
X109255078Y-137290950D01*
X109501556Y-137214921D01*
X109571419Y-137213972D01*
X109625786Y-137245732D01*
X111259564Y-138879510D01*
X111272911Y-138896169D01*
X111325832Y-138945864D01*
X111328629Y-138948575D01*
X111348966Y-138968912D01*
X111352037Y-138971294D01*
X111352438Y-138971605D01*
X111361324Y-138979193D01*
X111394607Y-139010448D01*
X111413198Y-139020668D01*
X111429462Y-139031351D01*
X111446235Y-139044362D01*
X111488138Y-139062495D01*
X111498626Y-139067633D01*
X111538632Y-139089627D01*
X111559197Y-139094906D01*
X111577593Y-139101205D01*
X111597074Y-139109636D01*
X111642178Y-139116779D01*
X111653597Y-139119144D01*
X111697823Y-139130500D01*
X111719045Y-139130500D01*
X111738443Y-139132026D01*
X111759405Y-139135347D01*
X111804863Y-139131049D01*
X111816531Y-139130500D01*
X118554495Y-139130500D01*
X118575704Y-139132841D01*
X118578294Y-139132759D01*
X118578296Y-139132760D01*
X118648262Y-139130560D01*
X118652157Y-139130500D01*
X118677025Y-139130500D01*
X118680925Y-139130500D01*
X118685294Y-139129947D01*
X118696939Y-139129030D01*
X118742569Y-139127597D01*
X118762949Y-139121675D01*
X118781989Y-139117732D01*
X118803058Y-139115071D01*
X118845520Y-139098258D01*
X118856557Y-139094480D01*
X118900398Y-139081744D01*
X118918670Y-139070936D01*
X118936136Y-139062380D01*
X118955871Y-139054568D01*
X118992816Y-139027725D01*
X119002548Y-139021332D01*
X119041865Y-138998081D01*
X119056874Y-138983071D01*
X119071663Y-138970439D01*
X119088837Y-138957963D01*
X119117946Y-138922774D01*
X119125790Y-138914154D01*
X120794214Y-137245730D01*
X120855535Y-137212247D01*
X120918442Y-137214922D01*
X121048013Y-137254888D01*
X121164922Y-137290950D01*
X121380748Y-137323480D01*
X121427318Y-137330500D01*
X121427319Y-137330500D01*
X121692682Y-137330500D01*
X121732231Y-137324538D01*
X121955078Y-137290950D01*
X122208650Y-137212734D01*
X122447733Y-137097598D01*
X122595964Y-136996535D01*
X122666986Y-136948113D01*
X122811135Y-136814362D01*
X122861508Y-136767623D01*
X123026958Y-136560155D01*
X123159639Y-136330345D01*
X123194572Y-136241335D01*
X123237387Y-136186122D01*
X123303257Y-136162821D01*
X123371268Y-136178832D01*
X123419827Y-136229069D01*
X123425425Y-136241331D01*
X123443670Y-136287818D01*
X123460360Y-136330343D01*
X123585701Y-136547441D01*
X123593042Y-136560155D01*
X123758492Y-136767623D01*
X123870131Y-136871208D01*
X123953018Y-136948116D01*
X124113398Y-137057461D01*
X124172268Y-137097598D01*
X124411350Y-137212734D01*
X124664922Y-137290950D01*
X124880748Y-137323480D01*
X124927318Y-137330500D01*
X124927319Y-137330500D01*
X125192682Y-137330500D01*
X125232231Y-137324538D01*
X125455078Y-137290950D01*
X125708650Y-137212734D01*
X125947733Y-137097598D01*
X126095964Y-136996535D01*
X126166986Y-136948113D01*
X126311135Y-136814362D01*
X126361508Y-136767623D01*
X126526958Y-136560155D01*
X126659639Y-136330345D01*
X126672666Y-136297153D01*
X126675789Y-136289197D01*
X126718605Y-136233984D01*
X126784475Y-136210683D01*
X126791217Y-136210500D01*
X127519192Y-136210500D01*
X127586231Y-136230185D01*
X127606873Y-136246819D01*
X128009564Y-136649510D01*
X128022911Y-136666169D01*
X128075832Y-136715864D01*
X128078629Y-136718575D01*
X128098965Y-136738911D01*
X128102036Y-136741293D01*
X128102437Y-136741604D01*
X128111323Y-136749192D01*
X128144607Y-136780448D01*
X128155251Y-136786299D01*
X128163204Y-136790672D01*
X128179464Y-136801352D01*
X128196236Y-136814362D01*
X128238140Y-136832495D01*
X128248620Y-136837629D01*
X128288632Y-136859627D01*
X128309195Y-136864906D01*
X128327598Y-136871207D01*
X128347073Y-136879635D01*
X128392175Y-136886778D01*
X128403570Y-136889137D01*
X128447823Y-136900500D01*
X128469051Y-136900500D01*
X128488449Y-136902026D01*
X128509405Y-136905346D01*
X128554851Y-136901050D01*
X128566521Y-136900500D01*
X131810501Y-136900500D01*
X131877540Y-136920185D01*
X131923295Y-136972989D01*
X131934501Y-137024500D01*
X131934501Y-138050238D01*
X131934820Y-138053370D01*
X131934821Y-138053371D01*
X131944997Y-138152995D01*
X132000163Y-138319476D01*
X132092237Y-138468751D01*
X132216248Y-138592762D01*
X132216250Y-138592763D01*
X132216251Y-138592764D01*
X132365522Y-138684836D01*
X132448763Y-138712419D01*
X132532003Y-138740002D01*
X132631628Y-138750180D01*
X132631629Y-138750180D01*
X132634761Y-138750500D01*
X133585238Y-138750499D01*
X133687996Y-138740002D01*
X133854478Y-138684836D01*
X134003749Y-138592764D01*
X134127764Y-138468749D01*
X134219836Y-138319478D01*
X134275002Y-138152996D01*
X134285500Y-138050239D01*
X134285499Y-134449762D01*
X134275002Y-134347004D01*
X134219836Y-134180522D01*
X134127764Y-134031251D01*
X134127763Y-134031250D01*
X134127762Y-134031248D01*
X134003751Y-133907237D01*
X133909218Y-133848928D01*
X133854478Y-133815164D01*
X133854477Y-133815163D01*
X133854476Y-133815163D01*
X133687996Y-133759997D01*
X133588371Y-133749819D01*
X133588352Y-133749818D01*
X133585239Y-133749500D01*
X133582091Y-133749500D01*
X132637911Y-133749500D01*
X132637891Y-133749500D01*
X132634762Y-133749501D01*
X132631630Y-133749820D01*
X132631628Y-133749821D01*
X132532004Y-133759997D01*
X132365523Y-133815163D01*
X132216248Y-133907237D01*
X132092237Y-134031248D01*
X132000163Y-134180523D01*
X131944997Y-134347003D01*
X131934819Y-134446628D01*
X131934817Y-134446648D01*
X131934500Y-134449761D01*
X131934499Y-134452907D01*
X131934500Y-134452908D01*
X131934500Y-135475500D01*
X131914815Y-135542539D01*
X131862011Y-135588294D01*
X131810500Y-135599500D01*
X128850808Y-135599500D01*
X128783769Y-135579815D01*
X128763127Y-135563181D01*
X128360434Y-135160488D01*
X128347091Y-135143833D01*
X128294166Y-135094134D01*
X128291369Y-135091423D01*
X128273789Y-135073843D01*
X128271035Y-135071089D01*
X128267956Y-135068701D01*
X128267951Y-135068696D01*
X128267548Y-135068383D01*
X128258669Y-135060800D01*
X128225392Y-135029551D01*
X128206793Y-135019326D01*
X128190532Y-135008645D01*
X128173764Y-134995638D01*
X128131870Y-134977508D01*
X128121379Y-134972369D01*
X128081367Y-134950372D01*
X128060800Y-134945091D01*
X128042398Y-134938791D01*
X128022924Y-134930364D01*
X127977837Y-134923223D01*
X127966398Y-134920854D01*
X127922178Y-134909500D01*
X127922177Y-134909500D01*
X127900955Y-134909500D01*
X127881556Y-134907973D01*
X127860596Y-134904653D01*
X127860595Y-134904653D01*
X127838558Y-134906736D01*
X127815139Y-134908950D01*
X127803470Y-134909500D01*
X126791217Y-134909500D01*
X126724178Y-134889815D01*
X126678423Y-134837011D01*
X126675789Y-134830803D01*
X126659639Y-134789655D01*
X126526958Y-134559845D01*
X126454786Y-134469344D01*
X126361508Y-134352377D01*
X126361504Y-134352373D01*
X126166986Y-134171886D01*
X125947732Y-134022401D01*
X125708650Y-133907266D01*
X125455079Y-133829050D01*
X125192682Y-133789500D01*
X125192681Y-133789500D01*
X124927319Y-133789500D01*
X124927318Y-133789500D01*
X124664920Y-133829050D01*
X124411351Y-133907265D01*
X124172265Y-134022403D01*
X123953018Y-134171883D01*
X123758492Y-134352377D01*
X123593041Y-134559845D01*
X123460360Y-134789656D01*
X123425428Y-134878663D01*
X123382612Y-134933877D01*
X123316742Y-134957178D01*
X123248732Y-134941167D01*
X123200173Y-134890929D01*
X123194572Y-134878663D01*
X123162548Y-134797067D01*
X123159639Y-134789655D01*
X123026958Y-134559845D01*
X122861508Y-134352377D01*
X122861504Y-134352373D01*
X122666986Y-134171886D01*
X122447732Y-134022401D01*
X122208650Y-133907266D01*
X121955079Y-133829050D01*
X121692682Y-133789500D01*
X121692681Y-133789500D01*
X121427319Y-133789500D01*
X121427318Y-133789500D01*
X121164920Y-133829050D01*
X120911351Y-133907265D01*
X120672265Y-134022403D01*
X120453018Y-134171883D01*
X120258492Y-134352377D01*
X120093041Y-134559845D01*
X119960360Y-134789656D01*
X119863414Y-135036670D01*
X119804364Y-135295383D01*
X119784534Y-135560000D01*
X119804364Y-135824616D01*
X119818981Y-135888654D01*
X119863414Y-136083327D01*
X119878270Y-136121180D01*
X119905149Y-136189669D01*
X119911316Y-136259266D01*
X119878878Y-136321149D01*
X119877401Y-136322651D01*
X118406873Y-137793181D01*
X118345550Y-137826666D01*
X118319192Y-137829500D01*
X112100808Y-137829500D01*
X112033769Y-137809815D01*
X112013127Y-137793181D01*
X111661926Y-137441980D01*
X111628441Y-137380657D01*
X111633425Y-137310965D01*
X111675297Y-137255032D01*
X111740761Y-137230615D01*
X111786153Y-137235807D01*
X111931462Y-137280629D01*
X111964922Y-137290950D01*
X112227318Y-137330500D01*
X112227319Y-137330500D01*
X112492682Y-137330500D01*
X112532232Y-137324538D01*
X112755078Y-137290950D01*
X113008650Y-137212734D01*
X113247733Y-137097598D01*
X113395964Y-136996535D01*
X113466986Y-136948113D01*
X113611135Y-136814362D01*
X113661508Y-136767623D01*
X113826958Y-136560155D01*
X113959639Y-136330345D01*
X114056586Y-136083327D01*
X114115635Y-135824619D01*
X114135465Y-135560000D01*
X114115635Y-135295381D01*
X114056586Y-135036673D01*
X113959639Y-134789655D01*
X113826958Y-134559845D01*
X113661508Y-134352377D01*
X113661504Y-134352373D01*
X113466986Y-134171886D01*
X113247732Y-134022401D01*
X113008650Y-133907266D01*
X112755079Y-133829050D01*
X112492682Y-133789500D01*
X112492681Y-133789500D01*
X112227319Y-133789500D01*
X112227318Y-133789500D01*
X111964920Y-133829050D01*
X111718443Y-133905077D01*
X111648580Y-133906027D01*
X111594213Y-133874267D01*
X109850434Y-132130488D01*
X109837091Y-132113833D01*
X109784166Y-132064134D01*
X109781369Y-132061423D01*
X109763789Y-132043843D01*
X109761035Y-132041089D01*
X109757956Y-132038701D01*
X109757951Y-132038696D01*
X109757548Y-132038383D01*
X109748669Y-132030800D01*
X109715392Y-131999551D01*
X109696793Y-131989326D01*
X109680532Y-131978645D01*
X109663764Y-131965638D01*
X109640177Y-131955431D01*
X109621869Y-131947508D01*
X109611379Y-131942369D01*
X109571367Y-131920372D01*
X109550800Y-131915091D01*
X109532398Y-131908791D01*
X109512924Y-131900364D01*
X109467837Y-131893223D01*
X109456398Y-131890854D01*
X109412178Y-131879500D01*
X109412177Y-131879500D01*
X109390955Y-131879500D01*
X109371556Y-131877973D01*
X109350596Y-131874653D01*
X109350595Y-131874653D01*
X109328558Y-131876736D01*
X109305139Y-131878950D01*
X109293470Y-131879500D01*
X99275504Y-131879500D01*
X99254294Y-131877158D01*
X99181737Y-131879439D01*
X99177842Y-131879500D01*
X99149075Y-131879500D01*
X99145213Y-131879987D01*
X99145192Y-131879989D01*
X99144681Y-131880054D01*
X99133059Y-131880968D01*
X99087428Y-131882402D01*
X99067052Y-131888322D01*
X99048006Y-131892267D01*
X99026939Y-131894928D01*
X98984492Y-131911734D01*
X98973445Y-131915516D01*
X98929601Y-131928255D01*
X98911330Y-131939060D01*
X98893864Y-131947617D01*
X98874129Y-131955431D01*
X98837202Y-131982260D01*
X98827442Y-131988671D01*
X98788136Y-132011917D01*
X98773125Y-132026928D01*
X98758336Y-132039558D01*
X98741164Y-132052034D01*
X98712057Y-132087218D01*
X98704196Y-132095856D01*
X96925785Y-133874267D01*
X96864462Y-133907752D01*
X96801555Y-133905077D01*
X96555079Y-133829050D01*
X96292682Y-133789500D01*
X96292681Y-133789500D01*
X96027319Y-133789500D01*
X96027318Y-133789500D01*
X95764920Y-133829050D01*
X95511351Y-133907265D01*
X95272265Y-134022403D01*
X95053018Y-134171883D01*
X94858492Y-134352377D01*
X94693041Y-134559845D01*
X94560360Y-134789656D01*
X94463414Y-135036670D01*
X94404364Y-135295383D01*
X94384534Y-135560000D01*
X91064177Y-135560000D01*
X91095118Y-135469305D01*
X91144319Y-135202933D01*
X91154212Y-134932235D01*
X91124586Y-134662982D01*
X91056072Y-134400912D01*
X90950130Y-134151610D01*
X90820681Y-133939500D01*
X90809017Y-133920388D01*
X90635746Y-133712181D01*
X90580837Y-133662982D01*
X90434002Y-133531418D01*
X90208090Y-133381956D01*
X90208086Y-133381954D01*
X89962822Y-133266978D01*
X89703437Y-133188941D01*
X89703431Y-133188940D01*
X89435439Y-133149500D01*
X89232369Y-133149500D01*
X89230120Y-133149664D01*
X89230109Y-133149665D01*
X89029843Y-133164322D01*
X88765449Y-133223219D01*
X88512441Y-133319986D01*
X88276223Y-133452559D01*
X88061825Y-133618109D01*
X87873813Y-133813120D01*
X87716201Y-134033420D01*
X87592342Y-134274329D01*
X87504881Y-134530695D01*
X87455680Y-134797066D01*
X87445787Y-135067764D01*
X81767027Y-135067764D01*
X81754923Y-134997560D01*
X81753835Y-134989788D01*
X81728594Y-134755017D01*
X81699155Y-134468651D01*
X81698588Y-134460454D01*
X81691504Y-134262138D01*
X81680572Y-133942107D01*
X81680500Y-133937874D01*
X81680500Y-118050000D01*
X93070001Y-118050000D01*
X93070001Y-118196829D01*
X93070321Y-118203111D01*
X93080493Y-118302695D01*
X93135642Y-118469122D01*
X93227683Y-118618345D01*
X93351654Y-118742316D01*
X93500877Y-118834357D01*
X93667303Y-118889506D01*
X93766890Y-118899680D01*
X93773168Y-118899999D01*
X94019999Y-118899999D01*
X94020000Y-118899998D01*
X94020000Y-118050000D01*
X94520000Y-118050000D01*
X94520000Y-118899999D01*
X94766829Y-118899999D01*
X94773111Y-118899678D01*
X94872695Y-118889506D01*
X95039122Y-118834357D01*
X95188345Y-118742316D01*
X95312316Y-118618345D01*
X95404357Y-118469122D01*
X95459506Y-118302696D01*
X95469680Y-118203109D01*
X95470000Y-118196831D01*
X95470000Y-118050000D01*
X94520000Y-118050000D01*
X94020000Y-118050000D01*
X93070001Y-118050000D01*
X81680500Y-118050000D01*
X81680500Y-113209999D01*
X88324340Y-113209999D01*
X88344936Y-113445407D01*
X88389709Y-113612502D01*
X88406097Y-113673663D01*
X88505965Y-113887830D01*
X88641505Y-114081401D01*
X88641508Y-114081404D01*
X88763430Y-114203326D01*
X88796915Y-114264649D01*
X88791931Y-114334341D01*
X88750059Y-114390274D01*
X88719083Y-114407189D01*
X88587669Y-114456204D01*
X88472454Y-114542454D01*
X88386204Y-114657668D01*
X88335909Y-114792516D01*
X88330195Y-114845667D01*
X88329500Y-114852127D01*
X88329500Y-114855448D01*
X88329500Y-114855449D01*
X88329500Y-116644560D01*
X88329500Y-116644578D01*
X88329501Y-116647872D01*
X88329853Y-116651152D01*
X88329854Y-116651159D01*
X88335909Y-116707484D01*
X88354385Y-116757019D01*
X88386204Y-116842331D01*
X88472454Y-116957546D01*
X88587669Y-117043796D01*
X88722517Y-117094091D01*
X88782127Y-117100500D01*
X90577872Y-117100499D01*
X90637483Y-117094091D01*
X90772331Y-117043796D01*
X90887546Y-116957546D01*
X90973796Y-116842331D01*
X91024091Y-116707483D01*
X91030500Y-116647873D01*
X91030500Y-116524499D01*
X91050185Y-116457461D01*
X91102989Y-116411706D01*
X91154500Y-116400500D01*
X93023522Y-116400500D01*
X93090561Y-116420185D01*
X93129061Y-116459404D01*
X93227288Y-116618657D01*
X93321303Y-116712672D01*
X93354788Y-116773995D01*
X93349804Y-116843687D01*
X93321304Y-116888034D01*
X93227681Y-116981656D01*
X93135642Y-117130877D01*
X93080493Y-117297303D01*
X93070319Y-117396890D01*
X93070000Y-117403168D01*
X93070000Y-117550000D01*
X95469999Y-117550000D01*
X95469998Y-117549999D01*
X95469999Y-117403170D01*
X95469678Y-117396888D01*
X95459506Y-117297304D01*
X95404357Y-117130877D01*
X95312316Y-116981654D01*
X95218696Y-116888034D01*
X95185211Y-116826711D01*
X95190195Y-116757019D01*
X95218696Y-116712672D01*
X95248129Y-116683239D01*
X95312712Y-116618656D01*
X95325820Y-116597403D01*
X95377768Y-116550679D01*
X95431359Y-116538500D01*
X98513317Y-116538500D01*
X98580356Y-116558185D01*
X98614892Y-116591377D01*
X98709953Y-116727140D01*
X98870859Y-116888046D01*
X99057264Y-117018567D01*
X99057265Y-117018567D01*
X99057266Y-117018568D01*
X99263504Y-117114739D01*
X99483308Y-117173635D01*
X99710000Y-117193468D01*
X99936692Y-117173635D01*
X100156496Y-117114739D01*
X100362734Y-117018568D01*
X100549139Y-116888047D01*
X100710047Y-116727139D01*
X100840568Y-116540734D01*
X100867618Y-116482724D01*
X100913790Y-116430285D01*
X100980983Y-116411133D01*
X101047865Y-116431348D01*
X101092382Y-116482725D01*
X101119431Y-116540733D01*
X101249953Y-116727140D01*
X101410859Y-116888046D01*
X101597264Y-117018567D01*
X101597265Y-117018567D01*
X101597266Y-117018568D01*
X101803504Y-117114739D01*
X102023308Y-117173635D01*
X102174435Y-117186857D01*
X102249999Y-117193468D01*
X102249999Y-117193467D01*
X102250000Y-117193468D01*
X102476692Y-117173635D01*
X102696496Y-117114739D01*
X102902734Y-117018568D01*
X103089139Y-116888047D01*
X103250047Y-116727139D01*
X103380568Y-116540734D01*
X103407619Y-116482721D01*
X103453788Y-116430286D01*
X103520981Y-116411133D01*
X103587862Y-116431348D01*
X103632380Y-116482722D01*
X103659432Y-116540733D01*
X103659433Y-116540736D01*
X103789953Y-116727140D01*
X103950859Y-116888046D01*
X104137264Y-117018567D01*
X104137265Y-117018567D01*
X104137266Y-117018568D01*
X104343504Y-117114739D01*
X104563308Y-117173635D01*
X104790000Y-117193468D01*
X105016692Y-117173635D01*
X105236496Y-117114739D01*
X105442734Y-117018568D01*
X105629139Y-116888047D01*
X105790047Y-116727139D01*
X105920568Y-116540734D01*
X105947618Y-116482724D01*
X105993790Y-116430285D01*
X106060983Y-116411133D01*
X106127865Y-116431348D01*
X106172382Y-116482725D01*
X106199431Y-116540733D01*
X106329953Y-116727140D01*
X106490859Y-116888046D01*
X106677264Y-117018567D01*
X106677265Y-117018567D01*
X106677266Y-117018568D01*
X106883504Y-117114739D01*
X107103308Y-117173635D01*
X107254436Y-117186856D01*
X107329999Y-117193468D01*
X107329999Y-117193467D01*
X107330000Y-117193468D01*
X107556692Y-117173635D01*
X107776496Y-117114739D01*
X107982734Y-117018568D01*
X108169139Y-116888047D01*
X108330047Y-116727139D01*
X108460568Y-116540734D01*
X108487618Y-116482724D01*
X108533790Y-116430285D01*
X108600983Y-116411133D01*
X108667865Y-116431348D01*
X108712382Y-116482725D01*
X108739431Y-116540733D01*
X108869953Y-116727140D01*
X109030859Y-116888046D01*
X109217264Y-117018567D01*
X109217265Y-117018567D01*
X109217266Y-117018568D01*
X109423504Y-117114739D01*
X109643308Y-117173635D01*
X109870000Y-117193468D01*
X110096692Y-117173635D01*
X110316496Y-117114739D01*
X110522734Y-117018568D01*
X110709139Y-116888047D01*
X110870047Y-116727139D01*
X111000568Y-116540734D01*
X111027618Y-116482724D01*
X111073790Y-116430285D01*
X111140983Y-116411133D01*
X111207865Y-116431348D01*
X111252382Y-116482725D01*
X111279431Y-116540733D01*
X111409953Y-116727140D01*
X111570859Y-116888046D01*
X111757264Y-117018567D01*
X111757265Y-117018567D01*
X111757266Y-117018568D01*
X111963504Y-117114739D01*
X112183308Y-117173635D01*
X112410000Y-117193468D01*
X112636692Y-117173635D01*
X112856496Y-117114739D01*
X113062734Y-117018568D01*
X113249139Y-116888047D01*
X113410047Y-116727139D01*
X113540568Y-116540734D01*
X113636739Y-116334496D01*
X113695635Y-116114692D01*
X113715468Y-115888000D01*
X113695635Y-115661308D01*
X113636739Y-115441504D01*
X113540568Y-115235266D01*
X113512940Y-115195808D01*
X113410046Y-115048859D01*
X113249140Y-114887953D01*
X113062735Y-114757432D01*
X112856497Y-114661261D01*
X112636689Y-114602364D01*
X112410000Y-114582531D01*
X112183310Y-114602364D01*
X111963502Y-114661261D01*
X111757264Y-114757432D01*
X111570859Y-114887953D01*
X111409953Y-115048859D01*
X111279433Y-115235263D01*
X111252382Y-115293275D01*
X111206209Y-115345714D01*
X111139015Y-115364865D01*
X111072134Y-115344649D01*
X111027618Y-115293275D01*
X111000568Y-115235266D01*
X110988349Y-115217815D01*
X110870046Y-115048859D01*
X110709140Y-114887953D01*
X110522735Y-114757432D01*
X110316497Y-114661261D01*
X110096689Y-114602364D01*
X109870000Y-114582531D01*
X109643310Y-114602364D01*
X109423502Y-114661261D01*
X109217264Y-114757432D01*
X109030859Y-114887953D01*
X108869953Y-115048859D01*
X108739433Y-115235263D01*
X108712382Y-115293275D01*
X108666209Y-115345714D01*
X108599015Y-115364865D01*
X108532134Y-115344649D01*
X108487618Y-115293275D01*
X108460568Y-115235266D01*
X108448349Y-115217815D01*
X108330046Y-115048859D01*
X108169140Y-114887953D01*
X107982735Y-114757432D01*
X107776497Y-114661261D01*
X107556689Y-114602364D01*
X107329999Y-114582531D01*
X107103310Y-114602364D01*
X106883502Y-114661261D01*
X106677264Y-114757432D01*
X106490859Y-114887953D01*
X106329953Y-115048859D01*
X106199433Y-115235263D01*
X106172382Y-115293275D01*
X106126209Y-115345714D01*
X106059015Y-115364865D01*
X105992134Y-115344649D01*
X105947618Y-115293275D01*
X105920568Y-115235266D01*
X105908349Y-115217815D01*
X105790046Y-115048859D01*
X105629140Y-114887953D01*
X105442735Y-114757432D01*
X105236497Y-114661261D01*
X105016689Y-114602364D01*
X104790000Y-114582531D01*
X104563310Y-114602364D01*
X104343502Y-114661261D01*
X104137264Y-114757432D01*
X103950859Y-114887953D01*
X103789953Y-115048859D01*
X103659433Y-115235263D01*
X103632382Y-115293275D01*
X103586209Y-115345714D01*
X103519015Y-115364865D01*
X103452134Y-115344649D01*
X103407618Y-115293275D01*
X103380568Y-115235266D01*
X103368349Y-115217815D01*
X103250046Y-115048859D01*
X103089140Y-114887953D01*
X102902735Y-114757432D01*
X102696497Y-114661261D01*
X102476689Y-114602364D01*
X102249999Y-114582531D01*
X102023310Y-114602364D01*
X101803502Y-114661261D01*
X101597264Y-114757432D01*
X101410859Y-114887953D01*
X101249953Y-115048859D01*
X101119433Y-115235263D01*
X101092382Y-115293275D01*
X101046209Y-115345714D01*
X100979015Y-115364865D01*
X100912134Y-115344649D01*
X100867618Y-115293275D01*
X100840568Y-115235266D01*
X100828349Y-115217815D01*
X100710046Y-115048859D01*
X100549140Y-114887953D01*
X100362735Y-114757432D01*
X100156497Y-114661261D01*
X99936689Y-114602364D01*
X99710000Y-114582531D01*
X99483310Y-114602364D01*
X99263502Y-114661261D01*
X99057264Y-114757432D01*
X98870859Y-114887953D01*
X98709953Y-115048859D01*
X98614892Y-115184623D01*
X98560316Y-115228248D01*
X98513317Y-115237500D01*
X95529756Y-115237500D01*
X95462717Y-115217815D01*
X95416962Y-115165011D01*
X95412050Y-115152504D01*
X95409380Y-115144446D01*
X95404814Y-115130666D01*
X95346942Y-115036840D01*
X95312711Y-114981342D01*
X95188657Y-114857288D01*
X95039334Y-114765186D01*
X94872797Y-114710000D01*
X94773141Y-114699819D01*
X94773122Y-114699818D01*
X94770009Y-114699500D01*
X94766860Y-114699500D01*
X93773140Y-114699500D01*
X93773120Y-114699500D01*
X93769992Y-114699501D01*
X93766860Y-114699820D01*
X93766858Y-114699821D01*
X93667203Y-114710000D01*
X93500665Y-114765186D01*
X93351342Y-114857288D01*
X93227288Y-114981342D01*
X93190741Y-115040596D01*
X93138793Y-115087321D01*
X93085202Y-115099500D01*
X91154499Y-115099500D01*
X91087460Y-115079815D01*
X91041705Y-115027011D01*
X91030499Y-114975500D01*
X91030499Y-114855439D01*
X91030499Y-114852128D01*
X91024091Y-114792517D01*
X90973796Y-114657669D01*
X90887546Y-114542454D01*
X90772331Y-114456204D01*
X90691787Y-114426163D01*
X90640916Y-114407189D01*
X90584983Y-114365317D01*
X90560566Y-114299853D01*
X90575418Y-114231580D01*
X90596563Y-114203332D01*
X90718495Y-114081401D01*
X90854035Y-113887830D01*
X90953903Y-113673663D01*
X91015063Y-113445408D01*
X91035659Y-113210000D01*
X91027826Y-113120476D01*
X91015063Y-112974592D01*
X91015063Y-112974591D01*
X90953903Y-112746337D01*
X90854035Y-112532171D01*
X90718495Y-112338599D01*
X90551401Y-112171505D01*
X90357830Y-112035965D01*
X90143663Y-111936097D01*
X90082501Y-111919709D01*
X89915407Y-111874936D01*
X89680000Y-111854340D01*
X89444592Y-111874936D01*
X89216336Y-111936097D01*
X89002170Y-112035965D01*
X88808598Y-112171505D01*
X88641505Y-112338598D01*
X88505965Y-112532170D01*
X88406097Y-112746336D01*
X88344936Y-112974592D01*
X88324340Y-113209999D01*
X81680500Y-113209999D01*
X81680500Y-66289405D01*
X87654653Y-66289405D01*
X87658814Y-66333422D01*
X87658950Y-66334858D01*
X87659500Y-66346528D01*
X87659500Y-91924494D01*
X87657158Y-91945702D01*
X87659439Y-92018262D01*
X87659500Y-92022157D01*
X87659500Y-92050925D01*
X87659987Y-92054785D01*
X87659989Y-92054808D01*
X87660054Y-92055320D01*
X87660968Y-92066942D01*
X87662402Y-92112569D01*
X87668323Y-92132950D01*
X87672267Y-92151995D01*
X87674928Y-92173059D01*
X87691737Y-92215515D01*
X87695520Y-92226563D01*
X87708256Y-92270400D01*
X87719061Y-92288670D01*
X87727621Y-92306143D01*
X87729238Y-92310228D01*
X87735432Y-92325871D01*
X87743534Y-92337023D01*
X87762267Y-92362808D01*
X87768673Y-92372560D01*
X87791919Y-92411865D01*
X87791921Y-92411867D01*
X87806925Y-92426871D01*
X87819564Y-92441669D01*
X87832037Y-92458837D01*
X87867212Y-92487936D01*
X87875854Y-92495800D01*
X88499564Y-93119510D01*
X88512911Y-93136169D01*
X88565832Y-93185864D01*
X88568629Y-93188575D01*
X88588966Y-93208912D01*
X88592037Y-93211294D01*
X88592438Y-93211605D01*
X88601324Y-93219193D01*
X88634607Y-93250448D01*
X88653198Y-93260668D01*
X88669462Y-93271351D01*
X88686235Y-93284362D01*
X88728138Y-93302495D01*
X88738626Y-93307633D01*
X88778632Y-93329627D01*
X88799197Y-93334906D01*
X88817593Y-93341205D01*
X88837074Y-93349636D01*
X88882178Y-93356779D01*
X88893597Y-93359144D01*
X88937823Y-93370500D01*
X88959045Y-93370500D01*
X88978443Y-93372026D01*
X88999405Y-93375347D01*
X89044863Y-93371049D01*
X89056531Y-93370500D01*
X89724495Y-93370500D01*
X89745704Y-93372841D01*
X89748294Y-93372759D01*
X89748296Y-93372760D01*
X89818262Y-93370560D01*
X89822157Y-93370500D01*
X89847025Y-93370500D01*
X89850925Y-93370500D01*
X89855294Y-93369947D01*
X89866939Y-93369030D01*
X89912569Y-93367597D01*
X89932949Y-93361675D01*
X89951989Y-93357732D01*
X89973058Y-93355071D01*
X90015520Y-93338258D01*
X90026557Y-93334480D01*
X90070398Y-93321744D01*
X90088670Y-93310936D01*
X90106136Y-93302380D01*
X90125871Y-93294568D01*
X90162816Y-93267725D01*
X90172548Y-93261332D01*
X90211865Y-93238081D01*
X90226874Y-93223071D01*
X90241663Y-93210439D01*
X90258837Y-93197963D01*
X90287946Y-93162774D01*
X90295790Y-93154154D01*
X91046800Y-92403144D01*
X91098480Y-92372168D01*
X91214341Y-92337023D01*
X91214346Y-92337020D01*
X91215425Y-92336693D01*
X91285292Y-92336070D01*
X91316305Y-92351421D01*
X91322665Y-92353793D01*
X91322669Y-92353796D01*
X91457517Y-92404091D01*
X91517127Y-92410500D01*
X92662872Y-92410499D01*
X92722483Y-92404091D01*
X92857331Y-92353796D01*
X92972546Y-92267546D01*
X93058796Y-92152331D01*
X93109091Y-92017483D01*
X93115500Y-91957873D01*
X93115499Y-90362128D01*
X93109091Y-90302517D01*
X93058796Y-90167669D01*
X92972546Y-90052454D01*
X92857331Y-89966204D01*
X92722483Y-89915909D01*
X92662873Y-89909500D01*
X92659550Y-89909500D01*
X91520439Y-89909500D01*
X91520420Y-89909500D01*
X91517128Y-89909501D01*
X91513848Y-89909853D01*
X91513840Y-89909854D01*
X91457515Y-89915909D01*
X91305964Y-89972434D01*
X91305587Y-89971424D01*
X91260257Y-89988329D01*
X91215424Y-89983305D01*
X91021031Y-89924337D01*
X90841962Y-89906701D01*
X90820000Y-89904538D01*
X90819999Y-89904538D01*
X90618968Y-89924337D01*
X90515237Y-89955804D01*
X90425659Y-89982977D01*
X90425657Y-89982977D01*
X90425657Y-89982978D01*
X90382952Y-90005804D01*
X90314549Y-90020045D01*
X90249305Y-89995044D01*
X90207935Y-89938738D01*
X90200500Y-89896445D01*
X90200500Y-80300807D01*
X90220185Y-80233768D01*
X90236814Y-80213131D01*
X91308911Y-79141035D01*
X91311221Y-79138055D01*
X91316345Y-79132599D01*
X101387818Y-69061126D01*
X101449142Y-69027641D01*
X101518834Y-69032625D01*
X101574767Y-69074497D01*
X101599184Y-69139961D01*
X101599500Y-69148807D01*
X101599500Y-71328191D01*
X101579815Y-71395230D01*
X101563181Y-71415872D01*
X101232485Y-71746567D01*
X101215833Y-71759908D01*
X101166133Y-71812833D01*
X101163428Y-71815625D01*
X101143089Y-71835965D01*
X101140713Y-71839027D01*
X101140702Y-71839040D01*
X101140378Y-71839459D01*
X101132806Y-71848323D01*
X101101550Y-71881607D01*
X101091322Y-71900212D01*
X101080645Y-71916467D01*
X101067636Y-71933238D01*
X101049506Y-71975132D01*
X101044370Y-71985616D01*
X101022372Y-72025632D01*
X101017091Y-72046199D01*
X101010791Y-72064600D01*
X101002364Y-72084073D01*
X100995223Y-72129162D01*
X100992857Y-72140589D01*
X100981500Y-72184823D01*
X100981499Y-72184825D01*
X100981500Y-72184825D01*
X100981499Y-72206049D01*
X100979973Y-72225435D01*
X100976652Y-72246402D01*
X100980950Y-72291858D01*
X100981500Y-72303528D01*
X100981500Y-101381494D01*
X100979158Y-101402702D01*
X100981439Y-101475262D01*
X100981500Y-101479157D01*
X100981500Y-101507925D01*
X100981987Y-101511785D01*
X100981989Y-101511808D01*
X100982054Y-101512320D01*
X100982968Y-101523942D01*
X100984402Y-101569569D01*
X100990323Y-101589950D01*
X100994267Y-101608995D01*
X100996928Y-101630059D01*
X101013737Y-101672515D01*
X101017520Y-101683563D01*
X101030256Y-101727400D01*
X101041061Y-101745670D01*
X101049621Y-101763143D01*
X101057431Y-101782869D01*
X101084267Y-101819808D01*
X101090673Y-101829560D01*
X101113919Y-101868865D01*
X101113921Y-101868867D01*
X101128925Y-101883871D01*
X101141564Y-101898669D01*
X101154037Y-101915837D01*
X101189212Y-101944936D01*
X101197854Y-101952800D01*
X114353181Y-115108127D01*
X114386666Y-115169450D01*
X114389500Y-115195808D01*
X114389500Y-118114494D01*
X114387158Y-118135702D01*
X114389439Y-118208262D01*
X114389500Y-118212157D01*
X114389500Y-118240925D01*
X114389987Y-118244785D01*
X114389989Y-118244808D01*
X114390054Y-118245320D01*
X114390968Y-118256942D01*
X114392402Y-118302569D01*
X114398323Y-118322950D01*
X114402267Y-118341995D01*
X114404928Y-118363059D01*
X114421737Y-118405515D01*
X114425520Y-118416563D01*
X114438256Y-118460400D01*
X114449061Y-118478670D01*
X114457621Y-118496143D01*
X114465431Y-118515869D01*
X114492267Y-118552808D01*
X114498673Y-118562560D01*
X114521919Y-118601865D01*
X114521921Y-118601867D01*
X114536925Y-118616871D01*
X114549564Y-118631669D01*
X114562037Y-118648837D01*
X114597212Y-118677936D01*
X114605854Y-118685800D01*
X116659564Y-120739510D01*
X116672911Y-120756169D01*
X116725832Y-120805864D01*
X116728629Y-120808575D01*
X116748965Y-120828911D01*
X116752036Y-120831293D01*
X116752437Y-120831604D01*
X116761327Y-120839196D01*
X116794607Y-120870448D01*
X116813206Y-120880673D01*
X116829466Y-120891354D01*
X116846236Y-120904362D01*
X116866046Y-120912934D01*
X116888129Y-120922491D01*
X116898620Y-120927630D01*
X116938632Y-120949627D01*
X116959196Y-120954906D01*
X116977601Y-120961208D01*
X116997074Y-120969635D01*
X117042171Y-120976777D01*
X117053586Y-120979141D01*
X117097823Y-120990500D01*
X117119045Y-120990500D01*
X117138444Y-120992027D01*
X117140799Y-120992399D01*
X117159405Y-120995347D01*
X117201319Y-120991384D01*
X117204861Y-120991050D01*
X117216530Y-120990500D01*
X131049192Y-120990500D01*
X131116231Y-121010185D01*
X131136873Y-121026819D01*
X132955180Y-122845126D01*
X132988665Y-122906449D01*
X132991499Y-122932807D01*
X132991499Y-127875500D01*
X132971814Y-127942539D01*
X132919010Y-127988294D01*
X132867500Y-127999500D01*
X132747439Y-127999500D01*
X132747420Y-127999500D01*
X132744128Y-127999501D01*
X132740848Y-127999853D01*
X132740840Y-127999854D01*
X132684515Y-128005909D01*
X132549669Y-128056204D01*
X132434454Y-128142454D01*
X132348204Y-128257668D01*
X132297909Y-128392516D01*
X132292265Y-128445016D01*
X132291500Y-128452127D01*
X132291500Y-128455448D01*
X132291500Y-128455449D01*
X132291500Y-130244560D01*
X132291500Y-130244578D01*
X132291501Y-130247872D01*
X132291853Y-130251152D01*
X132291854Y-130251159D01*
X132297909Y-130307484D01*
X132323056Y-130374906D01*
X132348204Y-130442331D01*
X132434454Y-130557546D01*
X132549669Y-130643796D01*
X132684517Y-130694091D01*
X132744127Y-130700500D01*
X134539872Y-130700499D01*
X134599483Y-130694091D01*
X134734331Y-130643796D01*
X134849546Y-130557546D01*
X134935796Y-130442331D01*
X134984810Y-130310916D01*
X135026681Y-130254983D01*
X135092146Y-130230566D01*
X135160419Y-130245418D01*
X135188673Y-130266569D01*
X135310599Y-130388495D01*
X135504170Y-130524035D01*
X135718337Y-130623903D01*
X135916396Y-130676972D01*
X135946592Y-130685063D01*
X136181999Y-130705659D01*
X136181999Y-130705658D01*
X136182000Y-130705659D01*
X136417408Y-130685063D01*
X136645663Y-130623903D01*
X136859830Y-130524035D01*
X137053401Y-130388495D01*
X137220495Y-130221401D01*
X137350732Y-130035403D01*
X137405307Y-129991780D01*
X137474805Y-129984586D01*
X137537160Y-130016109D01*
X137553880Y-130035404D01*
X137683893Y-130221081D01*
X137850918Y-130388106D01*
X138044423Y-130523600D01*
X138258509Y-130623430D01*
X138472000Y-130680634D01*
X138472000Y-129785501D01*
X138579685Y-129834680D01*
X138686237Y-129850000D01*
X138757763Y-129850000D01*
X138864315Y-129834680D01*
X138972000Y-129785501D01*
X138972000Y-130680633D01*
X139185490Y-130623430D01*
X139399576Y-130523600D01*
X139593081Y-130388106D01*
X139760106Y-130221081D01*
X139895600Y-130027576D01*
X139995430Y-129813492D01*
X140052636Y-129600000D01*
X139155686Y-129600000D01*
X139181493Y-129559844D01*
X139222000Y-129421889D01*
X139222000Y-129278111D01*
X139181493Y-129140156D01*
X139155686Y-129100000D01*
X140052636Y-129100000D01*
X140052635Y-129099999D01*
X139995430Y-128886507D01*
X139895599Y-128672421D01*
X139760109Y-128478921D01*
X139670369Y-128389181D01*
X139636884Y-128327858D01*
X139641868Y-128258166D01*
X139683740Y-128202233D01*
X139749204Y-128177816D01*
X139758050Y-128177500D01*
X146829950Y-128177500D01*
X146896989Y-128197185D01*
X146942744Y-128249989D01*
X146952688Y-128319147D01*
X146923663Y-128382703D01*
X146917631Y-128389181D01*
X146827890Y-128478921D01*
X146692400Y-128672421D01*
X146592569Y-128886507D01*
X146535364Y-129099999D01*
X146535364Y-129100000D01*
X147432314Y-129100000D01*
X147406507Y-129140156D01*
X147366000Y-129278111D01*
X147366000Y-129421889D01*
X147406507Y-129559844D01*
X147432314Y-129600000D01*
X146535364Y-129600000D01*
X146592569Y-129813492D01*
X146692399Y-130027576D01*
X146827893Y-130221081D01*
X146994918Y-130388106D01*
X147188423Y-130523600D01*
X147402507Y-130623430D01*
X147630681Y-130684569D01*
X147714633Y-130691914D01*
X147779701Y-130717366D01*
X147820680Y-130773956D01*
X147824559Y-130843718D01*
X147791507Y-130903123D01*
X143820358Y-134874272D01*
X143806727Y-134886053D01*
X143787468Y-134900391D01*
X143755635Y-134938328D01*
X143748338Y-134946292D01*
X143746972Y-134947657D01*
X143746950Y-134947681D01*
X143744409Y-134950223D01*
X143742174Y-134953049D01*
X143742162Y-134953063D01*
X143725189Y-134974528D01*
X143722915Y-134977320D01*
X143682610Y-135025354D01*
X143675301Y-135033330D01*
X143245451Y-135463181D01*
X143184128Y-135496666D01*
X143157770Y-135499500D01*
X138909499Y-135499500D01*
X138842460Y-135479815D01*
X138796705Y-135427011D01*
X138785499Y-135375500D01*
X138785499Y-134452910D01*
X138785499Y-134452908D01*
X138785499Y-134449762D01*
X138775002Y-134347004D01*
X138719836Y-134180522D01*
X138627764Y-134031251D01*
X138627763Y-134031250D01*
X138627762Y-134031248D01*
X138503751Y-133907237D01*
X138409218Y-133848928D01*
X138354478Y-133815164D01*
X138354477Y-133815163D01*
X138354476Y-133815163D01*
X138187996Y-133759997D01*
X138088371Y-133749819D01*
X138088352Y-133749818D01*
X138085239Y-133749500D01*
X138082091Y-133749500D01*
X137137911Y-133749500D01*
X137137891Y-133749500D01*
X137134762Y-133749501D01*
X137131630Y-133749820D01*
X137131628Y-133749821D01*
X137032004Y-133759997D01*
X136865523Y-133815163D01*
X136716248Y-133907237D01*
X136592237Y-134031248D01*
X136500163Y-134180523D01*
X136444997Y-134347003D01*
X136434819Y-134446628D01*
X136434817Y-134446648D01*
X136434500Y-134449761D01*
X136434500Y-134452907D01*
X136434500Y-134452908D01*
X136434500Y-138047089D01*
X136434500Y-138047108D01*
X136434501Y-138050238D01*
X136434820Y-138053370D01*
X136434821Y-138053371D01*
X136444997Y-138152995D01*
X136500163Y-138319476D01*
X136592237Y-138468751D01*
X136716248Y-138592762D01*
X136716250Y-138592763D01*
X136716251Y-138592764D01*
X136865522Y-138684836D01*
X136948762Y-138712419D01*
X137032003Y-138740002D01*
X137131628Y-138750180D01*
X137131629Y-138750180D01*
X137134761Y-138750500D01*
X138085238Y-138750499D01*
X138187996Y-138740002D01*
X138354478Y-138684836D01*
X138503749Y-138592764D01*
X138627764Y-138468749D01*
X138719836Y-138319478D01*
X138775002Y-138152996D01*
X138785500Y-138050239D01*
X138785500Y-137124500D01*
X138805185Y-137057461D01*
X138857989Y-137011706D01*
X138909500Y-137000500D01*
X143456294Y-137000500D01*
X143474264Y-137001809D01*
X143478320Y-137002402D01*
X143498023Y-137005289D01*
X143547368Y-137000972D01*
X143558176Y-137000500D01*
X143560100Y-137000500D01*
X143563709Y-137000500D01*
X143594550Y-136996894D01*
X143598031Y-136996539D01*
X143672797Y-136989999D01*
X143672797Y-136989998D01*
X143674052Y-136989889D01*
X143693062Y-136985674D01*
X143694250Y-136985241D01*
X143694255Y-136985241D01*
X143764820Y-136959557D01*
X143768095Y-136958419D01*
X143839334Y-136934814D01*
X143839336Y-136934812D01*
X143840536Y-136934415D01*
X143858063Y-136925929D01*
X143859112Y-136925238D01*
X143859117Y-136925237D01*
X143921806Y-136884005D01*
X143924798Y-136882099D01*
X143988656Y-136842712D01*
X143988656Y-136842711D01*
X143989729Y-136842050D01*
X144004824Y-136829753D01*
X144005692Y-136828832D01*
X144005696Y-136828830D01*
X144057184Y-136774254D01*
X144059630Y-136771736D01*
X144791642Y-136039724D01*
X144805260Y-136027954D01*
X144824530Y-136013610D01*
X144856366Y-135975667D01*
X144863680Y-135967688D01*
X144864264Y-135967103D01*
X144867591Y-135963777D01*
X144886828Y-135939445D01*
X144889075Y-135936686D01*
X144929389Y-135888642D01*
X144936676Y-135880690D01*
X146749602Y-134067764D01*
X169245787Y-134067764D01*
X169275413Y-134337016D01*
X169317290Y-134497195D01*
X169343928Y-134599088D01*
X169449870Y-134848390D01*
X169449871Y-134848392D01*
X169590982Y-135079611D01*
X169764253Y-135287818D01*
X169764255Y-135287820D01*
X169965998Y-135468582D01*
X170191910Y-135618044D01*
X170252303Y-135646355D01*
X170437177Y-135733021D01*
X170696562Y-135811058D01*
X170696569Y-135811060D01*
X170964561Y-135850500D01*
X170964564Y-135850500D01*
X171165369Y-135850500D01*
X171167631Y-135850500D01*
X171370156Y-135835677D01*
X171634553Y-135776780D01*
X171887558Y-135680014D01*
X172123777Y-135547441D01*
X172338177Y-135381888D01*
X172526186Y-135186881D01*
X172683799Y-134966579D01*
X172807656Y-134725675D01*
X172895118Y-134469305D01*
X172944319Y-134202933D01*
X172954212Y-133932235D01*
X172924586Y-133662982D01*
X172856072Y-133400912D01*
X172750130Y-133151610D01*
X172609018Y-132920390D01*
X172609017Y-132920388D01*
X172435746Y-132712181D01*
X172330759Y-132618112D01*
X172234002Y-132531418D01*
X172008090Y-132381956D01*
X172008086Y-132381954D01*
X171762822Y-132266978D01*
X171503437Y-132188941D01*
X171503431Y-132188940D01*
X171235439Y-132149500D01*
X171032369Y-132149500D01*
X171030120Y-132149664D01*
X171030109Y-132149665D01*
X170829843Y-132164322D01*
X170565449Y-132223219D01*
X170312441Y-132319986D01*
X170076223Y-132452559D01*
X169861825Y-132618109D01*
X169673813Y-132813120D01*
X169516201Y-133033420D01*
X169392342Y-133274329D01*
X169304881Y-133530695D01*
X169255680Y-133797066D01*
X169245787Y-134067764D01*
X146749602Y-134067764D01*
X150094499Y-130722867D01*
X150155820Y-130689384D01*
X150192984Y-130687022D01*
X150406000Y-130705659D01*
X150641408Y-130685063D01*
X150869663Y-130623903D01*
X151083830Y-130524035D01*
X151277401Y-130388495D01*
X151444495Y-130221401D01*
X151574426Y-130035839D01*
X151629002Y-129992217D01*
X151698501Y-129985024D01*
X151760855Y-130016546D01*
X151777571Y-130035837D01*
X151907505Y-130221401D01*
X152074599Y-130388495D01*
X152268170Y-130524035D01*
X152482337Y-130623903D01*
X152680396Y-130676972D01*
X152710592Y-130685063D01*
X152945999Y-130705659D01*
X152945999Y-130705658D01*
X152946000Y-130705659D01*
X153181408Y-130685063D01*
X153409663Y-130623903D01*
X153623830Y-130524035D01*
X153817401Y-130388495D01*
X153984495Y-130221401D01*
X154114426Y-130035839D01*
X154169002Y-129992216D01*
X154238500Y-129985022D01*
X154300855Y-130016545D01*
X154317571Y-130035837D01*
X154447505Y-130221401D01*
X154614599Y-130388495D01*
X154808170Y-130524035D01*
X155022337Y-130623903D01*
X155220396Y-130676972D01*
X155250592Y-130685063D01*
X155485999Y-130705659D01*
X155485999Y-130705658D01*
X155486000Y-130705659D01*
X155721408Y-130685063D01*
X155949663Y-130623903D01*
X156163830Y-130524035D01*
X156357401Y-130388495D01*
X156479329Y-130266566D01*
X156540648Y-130233084D01*
X156610340Y-130238068D01*
X156666274Y-130279939D01*
X156683189Y-130310916D01*
X156709291Y-130380898D01*
X156732204Y-130442331D01*
X156818454Y-130557546D01*
X156933669Y-130643796D01*
X157068517Y-130694091D01*
X157128127Y-130700500D01*
X158923872Y-130700499D01*
X158983483Y-130694091D01*
X159118331Y-130643796D01*
X159233546Y-130557546D01*
X159319796Y-130442331D01*
X159370091Y-130307483D01*
X159376500Y-130247873D01*
X159376499Y-128452128D01*
X159370091Y-128392517D01*
X159319796Y-128257669D01*
X159233546Y-128142454D01*
X159118331Y-128056204D01*
X158983483Y-128005909D01*
X158923873Y-127999500D01*
X158920550Y-127999500D01*
X157131439Y-127999500D01*
X157131420Y-127999500D01*
X157128128Y-127999501D01*
X157124848Y-127999853D01*
X157124840Y-127999854D01*
X157068515Y-128005909D01*
X156933669Y-128056204D01*
X156818454Y-128142454D01*
X156732204Y-128257669D01*
X156683189Y-128389083D01*
X156641317Y-128445016D01*
X156575852Y-128469433D01*
X156507580Y-128454581D01*
X156479326Y-128433430D01*
X156357404Y-128311508D01*
X156357401Y-128311505D01*
X156163830Y-128175965D01*
X155949663Y-128076097D01*
X155883250Y-128058302D01*
X155721407Y-128014936D01*
X155485999Y-127994340D01*
X155250592Y-128014936D01*
X155022336Y-128076097D01*
X154808170Y-128175965D01*
X154614598Y-128311505D01*
X154447505Y-128478598D01*
X154317575Y-128664159D01*
X154262998Y-128707784D01*
X154193500Y-128714978D01*
X154131145Y-128683455D01*
X154114425Y-128664159D01*
X153984494Y-128478598D01*
X153817402Y-128311506D01*
X153749375Y-128263872D01*
X153705751Y-128209295D01*
X153696500Y-128162298D01*
X153696500Y-125069705D01*
X153697809Y-125051735D01*
X153699805Y-125038107D01*
X153701289Y-125027977D01*
X153696971Y-124978633D01*
X153696500Y-124967827D01*
X153696500Y-124965901D01*
X153696500Y-124962291D01*
X153692894Y-124931443D01*
X153692537Y-124927956D01*
X153685998Y-124853203D01*
X153685888Y-124851943D01*
X153681674Y-124832936D01*
X153681241Y-124831745D01*
X153655569Y-124761211D01*
X153654422Y-124757913D01*
X153630814Y-124686665D01*
X153630812Y-124686662D01*
X153630415Y-124685463D01*
X153621929Y-124667936D01*
X153621237Y-124666884D01*
X153621237Y-124666883D01*
X153580025Y-124604224D01*
X153578106Y-124601212D01*
X153538048Y-124536267D01*
X153525750Y-124521172D01*
X153470290Y-124468848D01*
X153467703Y-124466335D01*
X147072728Y-118071360D01*
X147060946Y-118057727D01*
X147055193Y-118050000D01*
X147046610Y-118038470D01*
X147008667Y-118006631D01*
X147000691Y-117999323D01*
X146999329Y-117997961D01*
X146996777Y-117995409D01*
X146972444Y-117976169D01*
X146969647Y-117973890D01*
X146911251Y-117924890D01*
X146894821Y-117914422D01*
X146825691Y-117882186D01*
X146822447Y-117880615D01*
X146754306Y-117846394D01*
X146735903Y-117839997D01*
X146661211Y-117824574D01*
X146657692Y-117823794D01*
X146583490Y-117806208D01*
X146564121Y-117804229D01*
X146487869Y-117806448D01*
X146484263Y-117806500D01*
X128141230Y-117806500D01*
X128074191Y-117786815D01*
X128053549Y-117770181D01*
X127678800Y-117395432D01*
X127645315Y-117334109D01*
X127650299Y-117264417D01*
X127692171Y-117208484D01*
X127755674Y-117184223D01*
X127818809Y-117178699D01*
X127876692Y-117173635D01*
X128096496Y-117114739D01*
X128302734Y-117018568D01*
X128489139Y-116888047D01*
X128650047Y-116727139D01*
X128780568Y-116540734D01*
X128807619Y-116482721D01*
X128853788Y-116430286D01*
X128920981Y-116411133D01*
X128987862Y-116431348D01*
X129032380Y-116482722D01*
X129059432Y-116540733D01*
X129059433Y-116540736D01*
X129189953Y-116727140D01*
X129350859Y-116888046D01*
X129537264Y-117018567D01*
X129537265Y-117018567D01*
X129537266Y-117018568D01*
X129743504Y-117114739D01*
X129963308Y-117173635D01*
X130190000Y-117193468D01*
X130416692Y-117173635D01*
X130636496Y-117114739D01*
X130842734Y-117018568D01*
X131029139Y-116888047D01*
X131190047Y-116727139D01*
X131320568Y-116540734D01*
X131347619Y-116482721D01*
X131393788Y-116430286D01*
X131460981Y-116411133D01*
X131527862Y-116431348D01*
X131572380Y-116482722D01*
X131599432Y-116540733D01*
X131599433Y-116540736D01*
X131729953Y-116727140D01*
X131890859Y-116888046D01*
X132077264Y-117018567D01*
X132077265Y-117018567D01*
X132077266Y-117018568D01*
X132283504Y-117114739D01*
X132503308Y-117173635D01*
X132730000Y-117193468D01*
X132956692Y-117173635D01*
X133176496Y-117114739D01*
X133382734Y-117018568D01*
X133569139Y-116888047D01*
X133730047Y-116727139D01*
X133747273Y-116702537D01*
X133801847Y-116658913D01*
X133871345Y-116651718D01*
X133933701Y-116683239D01*
X133969116Y-116743468D01*
X133972138Y-116760405D01*
X133975909Y-116795483D01*
X134026204Y-116930331D01*
X134112454Y-117045546D01*
X134227669Y-117131796D01*
X134362517Y-117182091D01*
X134422127Y-117188500D01*
X136117872Y-117188499D01*
X136177483Y-117182091D01*
X136312331Y-117131796D01*
X136427546Y-117045546D01*
X136513796Y-116930331D01*
X136564091Y-116795483D01*
X136570500Y-116735873D01*
X136570499Y-115040128D01*
X136564091Y-114980517D01*
X136513796Y-114845669D01*
X136508037Y-114837976D01*
X136483958Y-114805810D01*
X136459541Y-114740346D01*
X136474393Y-114672073D01*
X136523798Y-114622668D01*
X136583225Y-114607500D01*
X154418294Y-114607500D01*
X154436264Y-114608809D01*
X154438436Y-114609127D01*
X154460023Y-114612289D01*
X154509368Y-114607972D01*
X154520176Y-114607500D01*
X154522100Y-114607500D01*
X154525709Y-114607500D01*
X154556550Y-114603894D01*
X154560031Y-114603539D01*
X154634797Y-114596999D01*
X154634797Y-114596998D01*
X154636052Y-114596889D01*
X154655062Y-114592674D01*
X154656250Y-114592241D01*
X154656255Y-114592241D01*
X154726820Y-114566557D01*
X154730095Y-114565419D01*
X154801334Y-114541814D01*
X154801336Y-114541812D01*
X154802536Y-114541415D01*
X154820063Y-114532929D01*
X154821112Y-114532238D01*
X154821117Y-114532237D01*
X154883806Y-114491005D01*
X154886798Y-114489099D01*
X154950656Y-114449712D01*
X154950656Y-114449711D01*
X154951729Y-114449050D01*
X154966824Y-114436753D01*
X154967692Y-114435832D01*
X154967696Y-114435830D01*
X155019185Y-114381253D01*
X155021631Y-114378735D01*
X166515638Y-102884727D01*
X166529256Y-102872957D01*
X166548530Y-102858610D01*
X166580372Y-102820661D01*
X166587686Y-102812681D01*
X166588267Y-102812099D01*
X166591590Y-102808777D01*
X166610837Y-102784433D01*
X166613031Y-102781738D01*
X166661302Y-102724214D01*
X166661303Y-102724210D01*
X166662119Y-102723239D01*
X166672575Y-102706825D01*
X166673109Y-102705679D01*
X166673111Y-102705677D01*
X166704816Y-102637682D01*
X166706369Y-102634475D01*
X166740040Y-102567433D01*
X166740040Y-102567429D01*
X166740610Y-102566296D01*
X166746999Y-102547917D01*
X166747256Y-102546673D01*
X166762431Y-102473171D01*
X166763186Y-102469767D01*
X166780500Y-102396721D01*
X166780500Y-102396717D01*
X166780790Y-102395494D01*
X166782769Y-102376123D01*
X166782732Y-102374859D01*
X166782733Y-102374856D01*
X166780552Y-102299888D01*
X166780500Y-102296283D01*
X166780500Y-92569807D01*
X166800185Y-92502768D01*
X166852989Y-92457013D01*
X166922147Y-92447069D01*
X166985703Y-92476094D01*
X166992169Y-92482115D01*
X167331418Y-92821363D01*
X167829564Y-93319509D01*
X167842909Y-93336167D01*
X167895848Y-93385879D01*
X167898645Y-93388590D01*
X167918966Y-93408911D01*
X167922442Y-93411607D01*
X167931322Y-93419191D01*
X167964607Y-93450448D01*
X167983212Y-93460676D01*
X167999466Y-93471353D01*
X168016237Y-93484363D01*
X168058144Y-93502497D01*
X168068618Y-93507628D01*
X168108632Y-93529627D01*
X168129197Y-93534906D01*
X168147593Y-93541205D01*
X168167074Y-93549636D01*
X168212178Y-93556779D01*
X168223597Y-93559144D01*
X168267823Y-93570500D01*
X168289045Y-93570500D01*
X168308443Y-93572026D01*
X168329405Y-93575347D01*
X168371319Y-93571384D01*
X168374861Y-93571050D01*
X168386530Y-93570500D01*
X169104495Y-93570500D01*
X169125704Y-93572841D01*
X169128294Y-93572759D01*
X169128296Y-93572760D01*
X169198262Y-93570560D01*
X169202157Y-93570500D01*
X169227025Y-93570500D01*
X169230925Y-93570500D01*
X169235294Y-93569947D01*
X169246939Y-93569030D01*
X169292569Y-93567597D01*
X169312949Y-93561675D01*
X169331989Y-93557732D01*
X169353058Y-93555071D01*
X169395520Y-93538258D01*
X169406557Y-93534480D01*
X169450398Y-93521744D01*
X169468670Y-93510936D01*
X169486136Y-93502380D01*
X169505871Y-93494568D01*
X169542816Y-93467725D01*
X169552548Y-93461332D01*
X169591865Y-93438081D01*
X169606874Y-93423071D01*
X169621663Y-93410439D01*
X169638837Y-93397963D01*
X169667946Y-93362774D01*
X169675790Y-93354154D01*
X170139513Y-92890431D01*
X170156162Y-92877094D01*
X170157936Y-92875204D01*
X170157940Y-92875202D01*
X170205897Y-92824131D01*
X170208515Y-92821429D01*
X170228911Y-92801035D01*
X170231610Y-92797554D01*
X170239184Y-92788685D01*
X170270448Y-92755393D01*
X170280675Y-92736787D01*
X170291348Y-92720539D01*
X170304362Y-92703764D01*
X170322495Y-92661857D01*
X170327625Y-92651387D01*
X170349627Y-92611368D01*
X170354906Y-92590802D01*
X170361204Y-92572406D01*
X170369635Y-92552927D01*
X170376778Y-92507829D01*
X170379143Y-92496406D01*
X170390500Y-92452177D01*
X170390500Y-92430949D01*
X170392027Y-92411549D01*
X170392193Y-92410500D01*
X170395346Y-92390596D01*
X170391050Y-92345148D01*
X170390500Y-92333479D01*
X170390500Y-88467503D01*
X170392841Y-88446300D01*
X170392759Y-88443706D01*
X170392760Y-88443704D01*
X170390561Y-88373736D01*
X170390500Y-88369841D01*
X170390500Y-88344976D01*
X170390500Y-88341075D01*
X170389948Y-88336709D01*
X170389030Y-88325055D01*
X170387597Y-88279431D01*
X170381675Y-88259048D01*
X170377732Y-88240011D01*
X170375071Y-88218942D01*
X170358263Y-88176491D01*
X170354480Y-88165442D01*
X170341744Y-88121602D01*
X170330937Y-88103329D01*
X170322382Y-88085866D01*
X170314568Y-88066129D01*
X170287733Y-88029193D01*
X170281325Y-88019436D01*
X170258084Y-87980138D01*
X170258081Y-87980135D01*
X170243068Y-87965122D01*
X170230435Y-87950330D01*
X170217963Y-87933163D01*
X170182779Y-87904056D01*
X170174140Y-87896194D01*
X146312818Y-64034872D01*
X146279333Y-63973549D01*
X146276499Y-63947191D01*
X146276499Y-63321140D01*
X146276499Y-63317992D01*
X146265999Y-63215203D01*
X146210814Y-63048666D01*
X146130096Y-62917800D01*
X146118711Y-62899342D01*
X145994657Y-62775288D01*
X145845334Y-62683186D01*
X145678797Y-62628000D01*
X145579141Y-62617819D01*
X145579122Y-62617818D01*
X145576009Y-62617500D01*
X145572860Y-62617500D01*
X144779141Y-62617500D01*
X144779121Y-62617500D01*
X144775992Y-62617501D01*
X144772860Y-62617820D01*
X144772858Y-62617821D01*
X144673203Y-62628000D01*
X144506665Y-62683186D01*
X144357342Y-62775288D01*
X144263681Y-62868950D01*
X144202358Y-62902435D01*
X144132666Y-62897451D01*
X144088319Y-62868950D01*
X143994657Y-62775288D01*
X143845334Y-62683186D01*
X143678797Y-62628000D01*
X143579141Y-62617819D01*
X143579122Y-62617818D01*
X143576009Y-62617500D01*
X143572860Y-62617500D01*
X142779141Y-62617500D01*
X142779121Y-62617500D01*
X142775992Y-62617501D01*
X142772860Y-62617820D01*
X142772858Y-62617821D01*
X142673203Y-62628000D01*
X142506665Y-62683186D01*
X142357342Y-62775288D01*
X142233288Y-62899342D01*
X142141186Y-63048664D01*
X142129973Y-63082505D01*
X142090199Y-63139950D01*
X142025683Y-63166772D01*
X142012267Y-63167500D01*
X125486505Y-63167500D01*
X125465294Y-63165158D01*
X125392724Y-63167439D01*
X125388829Y-63167500D01*
X125360075Y-63167500D01*
X125356212Y-63167987D01*
X125356193Y-63167989D01*
X125355691Y-63168053D01*
X125344069Y-63168967D01*
X125298428Y-63170401D01*
X125278041Y-63176324D01*
X125258998Y-63180268D01*
X125237942Y-63182928D01*
X125195496Y-63199733D01*
X125184450Y-63203514D01*
X125140602Y-63216254D01*
X125122324Y-63227063D01*
X125104861Y-63235618D01*
X125085130Y-63243431D01*
X125048187Y-63270270D01*
X125038428Y-63276680D01*
X124999135Y-63299918D01*
X124984125Y-63314928D01*
X124969336Y-63327558D01*
X124952164Y-63340034D01*
X124923057Y-63375218D01*
X124915196Y-63383856D01*
X122432484Y-65866568D01*
X122415831Y-65879910D01*
X122366133Y-65932833D01*
X122363428Y-65935625D01*
X122343089Y-65955965D01*
X122340713Y-65959027D01*
X122340702Y-65959040D01*
X122340378Y-65959459D01*
X122332806Y-65968323D01*
X122301550Y-66001607D01*
X122291322Y-66020212D01*
X122280645Y-66036467D01*
X122267636Y-66053238D01*
X122249506Y-66095132D01*
X122244370Y-66105616D01*
X122222372Y-66145632D01*
X122217091Y-66166199D01*
X122210791Y-66184600D01*
X122202364Y-66204074D01*
X122195223Y-66249161D01*
X122192855Y-66260593D01*
X122181558Y-66304600D01*
X122177605Y-66319995D01*
X122173825Y-66319024D01*
X122161815Y-66359927D01*
X122109011Y-66405682D01*
X122039853Y-66415626D01*
X122005100Y-66405272D01*
X121996501Y-66401262D01*
X121776689Y-66342364D01*
X121550000Y-66322531D01*
X121323307Y-66342364D01*
X121282834Y-66353209D01*
X121212984Y-66351546D01*
X121163061Y-66321115D01*
X117859434Y-63017488D01*
X117846091Y-63000833D01*
X117793166Y-62951134D01*
X117790369Y-62948423D01*
X117772789Y-62930843D01*
X117770035Y-62928089D01*
X117766956Y-62925701D01*
X117766951Y-62925696D01*
X117766548Y-62925383D01*
X117757669Y-62917800D01*
X117724392Y-62886551D01*
X117705793Y-62876326D01*
X117689532Y-62865645D01*
X117672764Y-62852638D01*
X117630870Y-62834508D01*
X117620379Y-62829369D01*
X117580367Y-62807372D01*
X117559800Y-62802091D01*
X117541398Y-62795791D01*
X117521924Y-62787364D01*
X117476837Y-62780223D01*
X117465398Y-62777854D01*
X117421178Y-62766500D01*
X117421177Y-62766500D01*
X117399955Y-62766500D01*
X117380556Y-62764973D01*
X117359596Y-62761653D01*
X117359595Y-62761653D01*
X117337558Y-62763736D01*
X117314139Y-62765950D01*
X117302470Y-62766500D01*
X107615733Y-62766500D01*
X107548694Y-62746815D01*
X107502939Y-62694011D01*
X107498027Y-62681505D01*
X107486813Y-62647664D01*
X107394711Y-62498342D01*
X107270657Y-62374288D01*
X107121334Y-62282186D01*
X106954797Y-62227000D01*
X106855141Y-62216819D01*
X106855122Y-62216818D01*
X106852009Y-62216500D01*
X106848860Y-62216500D01*
X106055141Y-62216500D01*
X106055121Y-62216500D01*
X106051992Y-62216501D01*
X106048860Y-62216820D01*
X106048858Y-62216821D01*
X105949203Y-62227000D01*
X105782665Y-62282186D01*
X105633344Y-62374287D01*
X105539680Y-62467951D01*
X105478357Y-62501435D01*
X105408665Y-62496451D01*
X105364319Y-62467951D01*
X105270656Y-62374288D01*
X105270655Y-62374287D01*
X105270654Y-62374286D01*
X105121334Y-62282186D01*
X104954797Y-62227000D01*
X104855141Y-62216819D01*
X104855122Y-62216818D01*
X104852009Y-62216500D01*
X104848860Y-62216500D01*
X104055141Y-62216500D01*
X104055121Y-62216500D01*
X104051992Y-62216501D01*
X104048860Y-62216820D01*
X104048858Y-62216821D01*
X103949203Y-62227000D01*
X103782665Y-62282186D01*
X103633342Y-62374288D01*
X103509288Y-62498342D01*
X103417186Y-62647664D01*
X103405973Y-62681505D01*
X103366199Y-62738950D01*
X103301683Y-62765772D01*
X103288267Y-62766500D01*
X91288505Y-62766500D01*
X91267295Y-62764158D01*
X91194738Y-62766439D01*
X91190843Y-62766500D01*
X91162075Y-62766500D01*
X91158213Y-62766987D01*
X91158192Y-62766989D01*
X91157681Y-62767054D01*
X91146059Y-62767968D01*
X91100428Y-62769402D01*
X91080052Y-62775322D01*
X91061006Y-62779267D01*
X91039939Y-62781928D01*
X90997487Y-62798736D01*
X90986439Y-62802519D01*
X90942600Y-62815256D01*
X90924330Y-62826061D01*
X90906862Y-62834618D01*
X90895463Y-62839132D01*
X90887126Y-62842433D01*
X90850191Y-62869266D01*
X90840435Y-62875675D01*
X90801135Y-62898918D01*
X90786125Y-62913928D01*
X90771336Y-62926558D01*
X90754164Y-62939034D01*
X90725057Y-62974218D01*
X90717196Y-62982856D01*
X87910484Y-65789568D01*
X87893831Y-65802910D01*
X87844133Y-65855833D01*
X87841428Y-65858625D01*
X87821089Y-65878965D01*
X87818713Y-65882027D01*
X87818702Y-65882040D01*
X87818378Y-65882459D01*
X87810806Y-65891323D01*
X87779550Y-65924607D01*
X87769322Y-65943212D01*
X87758645Y-65959467D01*
X87745636Y-65976238D01*
X87727506Y-66018132D01*
X87722370Y-66028616D01*
X87700372Y-66068632D01*
X87695091Y-66089199D01*
X87688791Y-66107600D01*
X87680364Y-66127074D01*
X87673223Y-66172161D01*
X87670855Y-66183593D01*
X87662759Y-66215132D01*
X87659500Y-66227824D01*
X87659500Y-66249045D01*
X87657973Y-66268443D01*
X87654653Y-66289405D01*
X81680500Y-66289405D01*
X81680500Y-57767764D01*
X87445787Y-57767764D01*
X87475413Y-58037016D01*
X87475414Y-58037018D01*
X87543928Y-58299088D01*
X87597720Y-58425670D01*
X87649871Y-58548392D01*
X87790982Y-58779611D01*
X87964253Y-58987818D01*
X87964255Y-58987820D01*
X88165998Y-59168582D01*
X88391910Y-59318044D01*
X88498211Y-59367876D01*
X88637177Y-59433021D01*
X88896562Y-59511058D01*
X88896569Y-59511060D01*
X89164561Y-59550500D01*
X89164564Y-59550500D01*
X89365369Y-59550500D01*
X89367631Y-59550500D01*
X89570156Y-59535677D01*
X89834553Y-59476780D01*
X90087558Y-59380014D01*
X90323777Y-59247441D01*
X90538177Y-59081888D01*
X90726186Y-58886881D01*
X90883799Y-58666579D01*
X91007656Y-58425675D01*
X91095118Y-58169305D01*
X91144319Y-57902933D01*
X91145604Y-57867764D01*
X169345787Y-57867764D01*
X169375413Y-58137016D01*
X169383855Y-58169305D01*
X169443928Y-58399088D01*
X169549870Y-58648390D01*
X169549871Y-58648392D01*
X169690982Y-58879611D01*
X169859318Y-59081888D01*
X169864255Y-59087820D01*
X170065998Y-59268582D01*
X170291910Y-59418044D01*
X170323857Y-59433020D01*
X170537177Y-59533021D01*
X170796562Y-59611058D01*
X170796569Y-59611060D01*
X171064561Y-59650500D01*
X171064564Y-59650500D01*
X171265369Y-59650500D01*
X171267631Y-59650500D01*
X171470156Y-59635677D01*
X171734553Y-59576780D01*
X171987558Y-59480014D01*
X172223777Y-59347441D01*
X172438177Y-59181888D01*
X172626186Y-58986881D01*
X172783799Y-58766579D01*
X172907656Y-58525675D01*
X172995118Y-58269305D01*
X173044319Y-58002933D01*
X173054212Y-57732235D01*
X173024586Y-57462982D01*
X172956072Y-57200912D01*
X172850130Y-56951610D01*
X172709018Y-56720390D01*
X172709017Y-56720388D01*
X172535746Y-56512181D01*
X172430759Y-56418112D01*
X172334002Y-56331418D01*
X172108090Y-56181956D01*
X172108086Y-56181954D01*
X171862822Y-56066978D01*
X171603437Y-55988941D01*
X171603431Y-55988940D01*
X171335439Y-55949500D01*
X171132369Y-55949500D01*
X171130120Y-55949664D01*
X171130109Y-55949665D01*
X170929843Y-55964322D01*
X170665449Y-56023219D01*
X170412441Y-56119986D01*
X170176223Y-56252559D01*
X169961825Y-56418109D01*
X169773813Y-56613120D01*
X169616201Y-56833420D01*
X169492342Y-57074329D01*
X169404881Y-57330695D01*
X169355680Y-57597066D01*
X169345787Y-57867764D01*
X91145604Y-57867764D01*
X91154212Y-57632235D01*
X91124586Y-57362982D01*
X91056072Y-57100912D01*
X90950130Y-56851610D01*
X90809018Y-56620390D01*
X90809017Y-56620388D01*
X90635746Y-56412181D01*
X90629001Y-56406137D01*
X90434002Y-56231418D01*
X90208090Y-56081956D01*
X90208086Y-56081954D01*
X89962822Y-55966978D01*
X89703437Y-55888941D01*
X89703431Y-55888940D01*
X89435439Y-55849500D01*
X89232369Y-55849500D01*
X89230120Y-55849664D01*
X89230109Y-55849665D01*
X89029843Y-55864322D01*
X88765449Y-55923219D01*
X88512441Y-56019986D01*
X88276223Y-56152559D01*
X88061825Y-56318109D01*
X87873813Y-56513120D01*
X87716201Y-56733420D01*
X87592342Y-56974329D01*
X87504881Y-57230695D01*
X87455680Y-57497066D01*
X87445787Y-57767764D01*
X81680500Y-57767764D01*
X81680500Y-57742124D01*
X81680572Y-57737891D01*
X81684181Y-57632235D01*
X81691495Y-57418121D01*
X81698588Y-57219539D01*
X81699154Y-57211354D01*
X81728583Y-56925081D01*
X81736484Y-56851607D01*
X81753832Y-56690238D01*
X81754923Y-56682437D01*
X81802600Y-56405918D01*
X81845871Y-56166085D01*
X81847411Y-56158814D01*
X81913151Y-55889050D01*
X81923204Y-55849665D01*
X81974245Y-55649687D01*
X81976189Y-55642889D01*
X82059725Y-55379689D01*
X82138341Y-55143487D01*
X82140616Y-55137229D01*
X82241586Y-54881188D01*
X82266152Y-54821878D01*
X82337341Y-54650013D01*
X82339867Y-54644331D01*
X82457389Y-54397217D01*
X82458367Y-54395213D01*
X82570252Y-54171695D01*
X82573004Y-54166513D01*
X82706865Y-53928441D01*
X82708186Y-53926154D01*
X82835962Y-53710799D01*
X82838857Y-53706160D01*
X82988489Y-53478028D01*
X82990223Y-53475460D01*
X83133155Y-53269599D01*
X83136133Y-53265496D01*
X83300858Y-53048273D01*
X83302994Y-53045541D01*
X83460393Y-52850221D01*
X83463397Y-52846639D01*
X83642437Y-52641306D01*
X83645086Y-52638366D01*
X83816052Y-52454735D01*
X83819016Y-52451664D01*
X84011664Y-52259016D01*
X84014735Y-52256052D01*
X84198366Y-52085086D01*
X84201306Y-52082437D01*
X84406639Y-51903397D01*
X84410221Y-51900393D01*
X84605541Y-51742994D01*
X84608273Y-51740858D01*
X84825496Y-51576133D01*
X84829599Y-51573155D01*
X85035460Y-51430223D01*
X85038028Y-51428489D01*
X85266160Y-51278857D01*
X85270799Y-51275962D01*
X85486154Y-51148186D01*
X85488441Y-51146865D01*
X85726513Y-51013004D01*
X85731695Y-51010252D01*
X85955213Y-50898367D01*
X85957217Y-50897389D01*
X86204324Y-50779870D01*
X86210038Y-50777330D01*
X86441147Y-50681601D01*
X86697257Y-50580605D01*
X86703528Y-50578327D01*
X86939689Y-50499725D01*
X87202912Y-50416182D01*
X87209668Y-50414250D01*
X87449035Y-50353155D01*
X87718807Y-50287413D01*
X87726079Y-50285872D01*
X87965918Y-50242600D01*
X88242446Y-50194921D01*
X88250202Y-50193836D01*
X88485036Y-50168588D01*
X88771352Y-50139154D01*
X88779541Y-50138588D01*
X88977677Y-50131510D01*
X89297892Y-50120571D01*
X89302125Y-50120500D01*
X89351681Y-50120500D01*
X89351833Y-50120481D01*
X90767149Y-50120000D01*
X171748644Y-50120000D01*
X171761323Y-50120649D01*
G37*
%TD.AperFunction*%
%TD*%
M02*
