%TF.GenerationSoftware,KiCad,Pcbnew,7.0.2*%
%TF.CreationDate,2023-04-27T19:49:05+02:00*%
%TF.ProjectId,CherrycountPCB,43686572-7279-4636-9f75-6e745043422e,rev?*%
%TF.SameCoordinates,Original*%
%TF.FileFunction,Legend,Top*%
%TF.FilePolarity,Positive*%
%FSLAX46Y46*%
G04 Gerber Fmt 4.6, Leading zero omitted, Abs format (unit mm)*
G04 Created by KiCad (PCBNEW 7.0.2) date 2023-04-27 19:49:05*
%MOMM*%
%LPD*%
G01*
G04 APERTURE LIST*
%ADD10C,0.100000*%
%ADD11C,0.150000*%
%ADD12C,0.120000*%
G04 APERTURE END LIST*
D10*
X144311428Y-66478809D02*
X144573333Y-66145476D01*
X144311428Y-66145476D02*
X144573333Y-66478809D01*
X107211428Y-117378809D02*
X107473333Y-117045476D01*
X107211428Y-117045476D02*
X107473333Y-117378809D01*
X116887619Y-116978809D02*
X117054285Y-117478809D01*
X117054285Y-117478809D02*
X117220952Y-116978809D01*
X117387618Y-117478809D02*
X117387618Y-116978809D01*
X117625713Y-117478809D02*
X117625713Y-116978809D01*
X117625713Y-116978809D02*
X117911427Y-117478809D01*
X117911427Y-117478809D02*
X117911427Y-116978809D01*
X99611428Y-117378809D02*
X99873333Y-117045476D01*
X99611428Y-117045476D02*
X99873333Y-117378809D01*
X112497142Y-65978809D02*
X112259047Y-65978809D01*
X112259047Y-65978809D02*
X112235238Y-66216904D01*
X112235238Y-66216904D02*
X112259047Y-66193095D01*
X112259047Y-66193095D02*
X112306666Y-66169285D01*
X112306666Y-66169285D02*
X112425714Y-66169285D01*
X112425714Y-66169285D02*
X112473333Y-66193095D01*
X112473333Y-66193095D02*
X112497142Y-66216904D01*
X112497142Y-66216904D02*
X112520952Y-66264523D01*
X112520952Y-66264523D02*
X112520952Y-66383571D01*
X112520952Y-66383571D02*
X112497142Y-66431190D01*
X112497142Y-66431190D02*
X112473333Y-66455000D01*
X112473333Y-66455000D02*
X112425714Y-66478809D01*
X112425714Y-66478809D02*
X112306666Y-66478809D01*
X112306666Y-66478809D02*
X112259047Y-66455000D01*
X112259047Y-66455000D02*
X112235238Y-66431190D01*
X142680952Y-120802619D02*
X142633333Y-120778809D01*
X142633333Y-120778809D02*
X142561904Y-120778809D01*
X142561904Y-120778809D02*
X142490476Y-120802619D01*
X142490476Y-120802619D02*
X142442857Y-120850238D01*
X142442857Y-120850238D02*
X142419047Y-120897857D01*
X142419047Y-120897857D02*
X142395238Y-120993095D01*
X142395238Y-120993095D02*
X142395238Y-121064523D01*
X142395238Y-121064523D02*
X142419047Y-121159761D01*
X142419047Y-121159761D02*
X142442857Y-121207380D01*
X142442857Y-121207380D02*
X142490476Y-121255000D01*
X142490476Y-121255000D02*
X142561904Y-121278809D01*
X142561904Y-121278809D02*
X142609523Y-121278809D01*
X142609523Y-121278809D02*
X142680952Y-121255000D01*
X142680952Y-121255000D02*
X142704761Y-121231190D01*
X142704761Y-121231190D02*
X142704761Y-121064523D01*
X142704761Y-121064523D02*
X142609523Y-121064523D01*
X142919047Y-121278809D02*
X142919047Y-120778809D01*
X142919047Y-120778809D02*
X143204761Y-121278809D01*
X143204761Y-121278809D02*
X143204761Y-120778809D01*
X143442857Y-121278809D02*
X143442857Y-120778809D01*
X143442857Y-120778809D02*
X143561905Y-120778809D01*
X143561905Y-120778809D02*
X143633333Y-120802619D01*
X143633333Y-120802619D02*
X143680952Y-120850238D01*
X143680952Y-120850238D02*
X143704762Y-120897857D01*
X143704762Y-120897857D02*
X143728571Y-120993095D01*
X143728571Y-120993095D02*
X143728571Y-121064523D01*
X143728571Y-121064523D02*
X143704762Y-121159761D01*
X143704762Y-121159761D02*
X143680952Y-121207380D01*
X143680952Y-121207380D02*
X143633333Y-121255000D01*
X143633333Y-121255000D02*
X143561905Y-121278809D01*
X143561905Y-121278809D02*
X143442857Y-121278809D01*
X134947619Y-120778809D02*
X135114285Y-121278809D01*
X135114285Y-121278809D02*
X135280952Y-120778809D01*
X135447618Y-121278809D02*
X135447618Y-120778809D01*
X135685713Y-121278809D02*
X135685713Y-120778809D01*
X135685713Y-120778809D02*
X135971427Y-121278809D01*
X135971427Y-121278809D02*
X135971427Y-120778809D01*
X149947619Y-131278809D02*
X150114285Y-131778809D01*
X150114285Y-131778809D02*
X150280952Y-131278809D01*
X150447618Y-131778809D02*
X150447618Y-131278809D01*
X150685713Y-131778809D02*
X150685713Y-131278809D01*
X150685713Y-131278809D02*
X150971427Y-131778809D01*
X150971427Y-131778809D02*
X150971427Y-131278809D01*
X109873333Y-66145476D02*
X109873333Y-66478809D01*
X109754285Y-65955000D02*
X109635238Y-66312142D01*
X109635238Y-66312142D02*
X109944761Y-66312142D01*
X139211428Y-66478809D02*
X139473333Y-66145476D01*
X139211428Y-66145476D02*
X139473333Y-66478809D01*
X135647619Y-131278809D02*
X135814285Y-131778809D01*
X135814285Y-131778809D02*
X135980952Y-131278809D01*
X136147618Y-131778809D02*
X136147618Y-131278809D01*
X136385713Y-131778809D02*
X136385713Y-131278809D01*
X136385713Y-131278809D02*
X136671427Y-131778809D01*
X136671427Y-131778809D02*
X136671427Y-131278809D01*
X122220952Y-117002619D02*
X122173333Y-116978809D01*
X122173333Y-116978809D02*
X122101904Y-116978809D01*
X122101904Y-116978809D02*
X122030476Y-117002619D01*
X122030476Y-117002619D02*
X121982857Y-117050238D01*
X121982857Y-117050238D02*
X121959047Y-117097857D01*
X121959047Y-117097857D02*
X121935238Y-117193095D01*
X121935238Y-117193095D02*
X121935238Y-117264523D01*
X121935238Y-117264523D02*
X121959047Y-117359761D01*
X121959047Y-117359761D02*
X121982857Y-117407380D01*
X121982857Y-117407380D02*
X122030476Y-117455000D01*
X122030476Y-117455000D02*
X122101904Y-117478809D01*
X122101904Y-117478809D02*
X122149523Y-117478809D01*
X122149523Y-117478809D02*
X122220952Y-117455000D01*
X122220952Y-117455000D02*
X122244761Y-117431190D01*
X122244761Y-117431190D02*
X122244761Y-117264523D01*
X122244761Y-117264523D02*
X122149523Y-117264523D01*
X122459047Y-117478809D02*
X122459047Y-116978809D01*
X122459047Y-116978809D02*
X122744761Y-117478809D01*
X122744761Y-117478809D02*
X122744761Y-116978809D01*
X122982857Y-117478809D02*
X122982857Y-116978809D01*
X122982857Y-116978809D02*
X123101905Y-116978809D01*
X123101905Y-116978809D02*
X123173333Y-117002619D01*
X123173333Y-117002619D02*
X123220952Y-117050238D01*
X123220952Y-117050238D02*
X123244762Y-117097857D01*
X123244762Y-117097857D02*
X123268571Y-117193095D01*
X123268571Y-117193095D02*
X123268571Y-117264523D01*
X123268571Y-117264523D02*
X123244762Y-117359761D01*
X123244762Y-117359761D02*
X123220952Y-117407380D01*
X123220952Y-117407380D02*
X123173333Y-117455000D01*
X123173333Y-117455000D02*
X123101905Y-117478809D01*
X123101905Y-117478809D02*
X122982857Y-117478809D01*
X130011428Y-117378809D02*
X130273333Y-117045476D01*
X130011428Y-117045476D02*
X130273333Y-117378809D01*
X112311428Y-117378809D02*
X112573333Y-117045476D01*
X112311428Y-117045476D02*
X112573333Y-117378809D01*
X121530476Y-66193095D02*
X121482857Y-66169285D01*
X121482857Y-66169285D02*
X121459047Y-66145476D01*
X121459047Y-66145476D02*
X121435238Y-66097857D01*
X121435238Y-66097857D02*
X121435238Y-66074047D01*
X121435238Y-66074047D02*
X121459047Y-66026428D01*
X121459047Y-66026428D02*
X121482857Y-66002619D01*
X121482857Y-66002619D02*
X121530476Y-65978809D01*
X121530476Y-65978809D02*
X121625714Y-65978809D01*
X121625714Y-65978809D02*
X121673333Y-66002619D01*
X121673333Y-66002619D02*
X121697142Y-66026428D01*
X121697142Y-66026428D02*
X121720952Y-66074047D01*
X121720952Y-66074047D02*
X121720952Y-66097857D01*
X121720952Y-66097857D02*
X121697142Y-66145476D01*
X121697142Y-66145476D02*
X121673333Y-66169285D01*
X121673333Y-66169285D02*
X121625714Y-66193095D01*
X121625714Y-66193095D02*
X121530476Y-66193095D01*
X121530476Y-66193095D02*
X121482857Y-66216904D01*
X121482857Y-66216904D02*
X121459047Y-66240714D01*
X121459047Y-66240714D02*
X121435238Y-66288333D01*
X121435238Y-66288333D02*
X121435238Y-66383571D01*
X121435238Y-66383571D02*
X121459047Y-66431190D01*
X121459047Y-66431190D02*
X121482857Y-66455000D01*
X121482857Y-66455000D02*
X121530476Y-66478809D01*
X121530476Y-66478809D02*
X121625714Y-66478809D01*
X121625714Y-66478809D02*
X121673333Y-66455000D01*
X121673333Y-66455000D02*
X121697142Y-66431190D01*
X121697142Y-66431190D02*
X121720952Y-66383571D01*
X121720952Y-66383571D02*
X121720952Y-66288333D01*
X121720952Y-66288333D02*
X121697142Y-66240714D01*
X121697142Y-66240714D02*
X121673333Y-66216904D01*
X121673333Y-66216904D02*
X121625714Y-66193095D01*
X104635238Y-66026428D02*
X104659047Y-66002619D01*
X104659047Y-66002619D02*
X104706666Y-65978809D01*
X104706666Y-65978809D02*
X104825714Y-65978809D01*
X104825714Y-65978809D02*
X104873333Y-66002619D01*
X104873333Y-66002619D02*
X104897142Y-66026428D01*
X104897142Y-66026428D02*
X104920952Y-66074047D01*
X104920952Y-66074047D02*
X104920952Y-66121666D01*
X104920952Y-66121666D02*
X104897142Y-66193095D01*
X104897142Y-66193095D02*
X104611428Y-66478809D01*
X104611428Y-66478809D02*
X104920952Y-66478809D01*
X147480952Y-131302619D02*
X147433333Y-131278809D01*
X147433333Y-131278809D02*
X147361904Y-131278809D01*
X147361904Y-131278809D02*
X147290476Y-131302619D01*
X147290476Y-131302619D02*
X147242857Y-131350238D01*
X147242857Y-131350238D02*
X147219047Y-131397857D01*
X147219047Y-131397857D02*
X147195238Y-131493095D01*
X147195238Y-131493095D02*
X147195238Y-131564523D01*
X147195238Y-131564523D02*
X147219047Y-131659761D01*
X147219047Y-131659761D02*
X147242857Y-131707380D01*
X147242857Y-131707380D02*
X147290476Y-131755000D01*
X147290476Y-131755000D02*
X147361904Y-131778809D01*
X147361904Y-131778809D02*
X147409523Y-131778809D01*
X147409523Y-131778809D02*
X147480952Y-131755000D01*
X147480952Y-131755000D02*
X147504761Y-131731190D01*
X147504761Y-131731190D02*
X147504761Y-131564523D01*
X147504761Y-131564523D02*
X147409523Y-131564523D01*
X147719047Y-131778809D02*
X147719047Y-131278809D01*
X147719047Y-131278809D02*
X148004761Y-131778809D01*
X148004761Y-131778809D02*
X148004761Y-131278809D01*
X148242857Y-131778809D02*
X148242857Y-131278809D01*
X148242857Y-131278809D02*
X148361905Y-131278809D01*
X148361905Y-131278809D02*
X148433333Y-131302619D01*
X148433333Y-131302619D02*
X148480952Y-131350238D01*
X148480952Y-131350238D02*
X148504762Y-131397857D01*
X148504762Y-131397857D02*
X148528571Y-131493095D01*
X148528571Y-131493095D02*
X148528571Y-131564523D01*
X148528571Y-131564523D02*
X148504762Y-131659761D01*
X148504762Y-131659761D02*
X148480952Y-131707380D01*
X148480952Y-131707380D02*
X148433333Y-131755000D01*
X148433333Y-131755000D02*
X148361905Y-131778809D01*
X148361905Y-131778809D02*
X148242857Y-131778809D01*
X107211428Y-65978809D02*
X107520952Y-65978809D01*
X107520952Y-65978809D02*
X107354285Y-66169285D01*
X107354285Y-66169285D02*
X107425714Y-66169285D01*
X107425714Y-66169285D02*
X107473333Y-66193095D01*
X107473333Y-66193095D02*
X107497142Y-66216904D01*
X107497142Y-66216904D02*
X107520952Y-66264523D01*
X107520952Y-66264523D02*
X107520952Y-66383571D01*
X107520952Y-66383571D02*
X107497142Y-66431190D01*
X107497142Y-66431190D02*
X107473333Y-66455000D01*
X107473333Y-66455000D02*
X107425714Y-66478809D01*
X107425714Y-66478809D02*
X107282857Y-66478809D01*
X107282857Y-66478809D02*
X107235238Y-66455000D01*
X107235238Y-66455000D02*
X107211428Y-66431190D01*
X127511428Y-117378809D02*
X127773333Y-117045476D01*
X127511428Y-117045476D02*
X127773333Y-117378809D01*
X152857142Y-131278809D02*
X152619047Y-131278809D01*
X152619047Y-131278809D02*
X152595238Y-131516904D01*
X152595238Y-131516904D02*
X152619047Y-131493095D01*
X152619047Y-131493095D02*
X152666666Y-131469285D01*
X152666666Y-131469285D02*
X152785714Y-131469285D01*
X152785714Y-131469285D02*
X152833333Y-131493095D01*
X152833333Y-131493095D02*
X152857142Y-131516904D01*
X152857142Y-131516904D02*
X152880952Y-131564523D01*
X152880952Y-131564523D02*
X152880952Y-131683571D01*
X152880952Y-131683571D02*
X152857142Y-131731190D01*
X152857142Y-131731190D02*
X152833333Y-131755000D01*
X152833333Y-131755000D02*
X152785714Y-131778809D01*
X152785714Y-131778809D02*
X152666666Y-131778809D01*
X152666666Y-131778809D02*
X152619047Y-131755000D01*
X152619047Y-131755000D02*
X152595238Y-131731190D01*
X153023809Y-131278809D02*
X153190475Y-131778809D01*
X153190475Y-131778809D02*
X153357142Y-131278809D01*
X124997142Y-116978809D02*
X124759047Y-116978809D01*
X124759047Y-116978809D02*
X124735238Y-117216904D01*
X124735238Y-117216904D02*
X124759047Y-117193095D01*
X124759047Y-117193095D02*
X124806666Y-117169285D01*
X124806666Y-117169285D02*
X124925714Y-117169285D01*
X124925714Y-117169285D02*
X124973333Y-117193095D01*
X124973333Y-117193095D02*
X124997142Y-117216904D01*
X124997142Y-117216904D02*
X125020952Y-117264523D01*
X125020952Y-117264523D02*
X125020952Y-117383571D01*
X125020952Y-117383571D02*
X124997142Y-117431190D01*
X124997142Y-117431190D02*
X124973333Y-117455000D01*
X124973333Y-117455000D02*
X124925714Y-117478809D01*
X124925714Y-117478809D02*
X124806666Y-117478809D01*
X124806666Y-117478809D02*
X124759047Y-117455000D01*
X124759047Y-117455000D02*
X124735238Y-117431190D01*
X125163809Y-116978809D02*
X125330475Y-117478809D01*
X125330475Y-117478809D02*
X125497142Y-116978809D01*
X109811428Y-117378809D02*
X110073333Y-117045476D01*
X109811428Y-117045476D02*
X110073333Y-117378809D01*
X102111428Y-117378809D02*
X102373333Y-117045476D01*
X102111428Y-117045476D02*
X102373333Y-117378809D01*
X138380952Y-131302619D02*
X138333333Y-131278809D01*
X138333333Y-131278809D02*
X138261904Y-131278809D01*
X138261904Y-131278809D02*
X138190476Y-131302619D01*
X138190476Y-131302619D02*
X138142857Y-131350238D01*
X138142857Y-131350238D02*
X138119047Y-131397857D01*
X138119047Y-131397857D02*
X138095238Y-131493095D01*
X138095238Y-131493095D02*
X138095238Y-131564523D01*
X138095238Y-131564523D02*
X138119047Y-131659761D01*
X138119047Y-131659761D02*
X138142857Y-131707380D01*
X138142857Y-131707380D02*
X138190476Y-131755000D01*
X138190476Y-131755000D02*
X138261904Y-131778809D01*
X138261904Y-131778809D02*
X138309523Y-131778809D01*
X138309523Y-131778809D02*
X138380952Y-131755000D01*
X138380952Y-131755000D02*
X138404761Y-131731190D01*
X138404761Y-131731190D02*
X138404761Y-131564523D01*
X138404761Y-131564523D02*
X138309523Y-131564523D01*
X138619047Y-131778809D02*
X138619047Y-131278809D01*
X138619047Y-131278809D02*
X138904761Y-131778809D01*
X138904761Y-131778809D02*
X138904761Y-131278809D01*
X139142857Y-131778809D02*
X139142857Y-131278809D01*
X139142857Y-131278809D02*
X139261905Y-131278809D01*
X139261905Y-131278809D02*
X139333333Y-131302619D01*
X139333333Y-131302619D02*
X139380952Y-131350238D01*
X139380952Y-131350238D02*
X139404762Y-131397857D01*
X139404762Y-131397857D02*
X139428571Y-131493095D01*
X139428571Y-131493095D02*
X139428571Y-131564523D01*
X139428571Y-131564523D02*
X139404762Y-131659761D01*
X139404762Y-131659761D02*
X139380952Y-131707380D01*
X139380952Y-131707380D02*
X139333333Y-131755000D01*
X139333333Y-131755000D02*
X139261905Y-131778809D01*
X139261905Y-131778809D02*
X139142857Y-131778809D01*
X132611428Y-117378809D02*
X132873333Y-117045476D01*
X132611428Y-117045476D02*
X132873333Y-117378809D01*
X117311428Y-65978809D02*
X117644761Y-65978809D01*
X117644761Y-65978809D02*
X117430476Y-66478809D01*
X136611428Y-66478809D02*
X136873333Y-66145476D01*
X136611428Y-66145476D02*
X136873333Y-66478809D01*
X104711428Y-117378809D02*
X104973333Y-117045476D01*
X104711428Y-117045476D02*
X104973333Y-117378809D01*
X126520952Y-66478809D02*
X126235238Y-66478809D01*
X126378095Y-66478809D02*
X126378095Y-65978809D01*
X126378095Y-65978809D02*
X126330476Y-66050238D01*
X126330476Y-66050238D02*
X126282857Y-66097857D01*
X126282857Y-66097857D02*
X126235238Y-66121666D01*
X126830475Y-65978809D02*
X126878094Y-65978809D01*
X126878094Y-65978809D02*
X126925713Y-66002619D01*
X126925713Y-66002619D02*
X126949523Y-66026428D01*
X126949523Y-66026428D02*
X126973332Y-66074047D01*
X126973332Y-66074047D02*
X126997142Y-66169285D01*
X126997142Y-66169285D02*
X126997142Y-66288333D01*
X126997142Y-66288333D02*
X126973332Y-66383571D01*
X126973332Y-66383571D02*
X126949523Y-66431190D01*
X126949523Y-66431190D02*
X126925713Y-66455000D01*
X126925713Y-66455000D02*
X126878094Y-66478809D01*
X126878094Y-66478809D02*
X126830475Y-66478809D01*
X126830475Y-66478809D02*
X126782856Y-66455000D01*
X126782856Y-66455000D02*
X126759047Y-66431190D01*
X126759047Y-66431190D02*
X126735237Y-66383571D01*
X126735237Y-66383571D02*
X126711428Y-66288333D01*
X126711428Y-66288333D02*
X126711428Y-66169285D01*
X126711428Y-66169285D02*
X126735237Y-66074047D01*
X126735237Y-66074047D02*
X126759047Y-66026428D01*
X126759047Y-66026428D02*
X126782856Y-66002619D01*
X126782856Y-66002619D02*
X126830475Y-65978809D01*
X134120952Y-66478809D02*
X133835238Y-66478809D01*
X133978095Y-66478809D02*
X133978095Y-65978809D01*
X133978095Y-65978809D02*
X133930476Y-66050238D01*
X133930476Y-66050238D02*
X133882857Y-66097857D01*
X133882857Y-66097857D02*
X133835238Y-66121666D01*
X134287618Y-65978809D02*
X134597142Y-65978809D01*
X134597142Y-65978809D02*
X134430475Y-66169285D01*
X134430475Y-66169285D02*
X134501904Y-66169285D01*
X134501904Y-66169285D02*
X134549523Y-66193095D01*
X134549523Y-66193095D02*
X134573332Y-66216904D01*
X134573332Y-66216904D02*
X134597142Y-66264523D01*
X134597142Y-66264523D02*
X134597142Y-66383571D01*
X134597142Y-66383571D02*
X134573332Y-66431190D01*
X134573332Y-66431190D02*
X134549523Y-66455000D01*
X134549523Y-66455000D02*
X134501904Y-66478809D01*
X134501904Y-66478809D02*
X134359047Y-66478809D01*
X134359047Y-66478809D02*
X134311428Y-66455000D01*
X134311428Y-66455000D02*
X134287618Y-66431190D01*
X115073333Y-65978809D02*
X114978095Y-65978809D01*
X114978095Y-65978809D02*
X114930476Y-66002619D01*
X114930476Y-66002619D02*
X114906666Y-66026428D01*
X114906666Y-66026428D02*
X114859047Y-66097857D01*
X114859047Y-66097857D02*
X114835238Y-66193095D01*
X114835238Y-66193095D02*
X114835238Y-66383571D01*
X114835238Y-66383571D02*
X114859047Y-66431190D01*
X114859047Y-66431190D02*
X114882857Y-66455000D01*
X114882857Y-66455000D02*
X114930476Y-66478809D01*
X114930476Y-66478809D02*
X115025714Y-66478809D01*
X115025714Y-66478809D02*
X115073333Y-66455000D01*
X115073333Y-66455000D02*
X115097142Y-66431190D01*
X115097142Y-66431190D02*
X115120952Y-66383571D01*
X115120952Y-66383571D02*
X115120952Y-66264523D01*
X115120952Y-66264523D02*
X115097142Y-66216904D01*
X115097142Y-66216904D02*
X115073333Y-66193095D01*
X115073333Y-66193095D02*
X115025714Y-66169285D01*
X115025714Y-66169285D02*
X114930476Y-66169285D01*
X114930476Y-66169285D02*
X114882857Y-66193095D01*
X114882857Y-66193095D02*
X114859047Y-66216904D01*
X114859047Y-66216904D02*
X114835238Y-66264523D01*
X129120952Y-66478809D02*
X128835238Y-66478809D01*
X128978095Y-66478809D02*
X128978095Y-65978809D01*
X128978095Y-65978809D02*
X128930476Y-66050238D01*
X128930476Y-66050238D02*
X128882857Y-66097857D01*
X128882857Y-66097857D02*
X128835238Y-66121666D01*
X129597142Y-66478809D02*
X129311428Y-66478809D01*
X129454285Y-66478809D02*
X129454285Y-65978809D01*
X129454285Y-65978809D02*
X129406666Y-66050238D01*
X129406666Y-66050238D02*
X129359047Y-66097857D01*
X129359047Y-66097857D02*
X129311428Y-66121666D01*
X131620952Y-66478809D02*
X131335238Y-66478809D01*
X131478095Y-66478809D02*
X131478095Y-65978809D01*
X131478095Y-65978809D02*
X131430476Y-66050238D01*
X131430476Y-66050238D02*
X131382857Y-66097857D01*
X131382857Y-66097857D02*
X131335238Y-66121666D01*
X131811428Y-66026428D02*
X131835237Y-66002619D01*
X131835237Y-66002619D02*
X131882856Y-65978809D01*
X131882856Y-65978809D02*
X132001904Y-65978809D01*
X132001904Y-65978809D02*
X132049523Y-66002619D01*
X132049523Y-66002619D02*
X132073332Y-66026428D01*
X132073332Y-66026428D02*
X132097142Y-66074047D01*
X132097142Y-66074047D02*
X132097142Y-66121666D01*
X132097142Y-66121666D02*
X132073332Y-66193095D01*
X132073332Y-66193095D02*
X131787618Y-66478809D01*
X131787618Y-66478809D02*
X132097142Y-66478809D01*
X99654285Y-65978809D02*
X99701904Y-65978809D01*
X99701904Y-65978809D02*
X99749523Y-66002619D01*
X99749523Y-66002619D02*
X99773333Y-66026428D01*
X99773333Y-66026428D02*
X99797142Y-66074047D01*
X99797142Y-66074047D02*
X99820952Y-66169285D01*
X99820952Y-66169285D02*
X99820952Y-66288333D01*
X99820952Y-66288333D02*
X99797142Y-66383571D01*
X99797142Y-66383571D02*
X99773333Y-66431190D01*
X99773333Y-66431190D02*
X99749523Y-66455000D01*
X99749523Y-66455000D02*
X99701904Y-66478809D01*
X99701904Y-66478809D02*
X99654285Y-66478809D01*
X99654285Y-66478809D02*
X99606666Y-66455000D01*
X99606666Y-66455000D02*
X99582857Y-66431190D01*
X99582857Y-66431190D02*
X99559047Y-66383571D01*
X99559047Y-66383571D02*
X99535238Y-66288333D01*
X99535238Y-66288333D02*
X99535238Y-66169285D01*
X99535238Y-66169285D02*
X99559047Y-66074047D01*
X99559047Y-66074047D02*
X99582857Y-66026428D01*
X99582857Y-66026428D02*
X99606666Y-66002619D01*
X99606666Y-66002619D02*
X99654285Y-65978809D01*
X119911428Y-117378809D02*
X120173333Y-117045476D01*
X119911428Y-117045476D02*
X120173333Y-117378809D01*
X123982857Y-66478809D02*
X124078095Y-66478809D01*
X124078095Y-66478809D02*
X124125714Y-66455000D01*
X124125714Y-66455000D02*
X124149523Y-66431190D01*
X124149523Y-66431190D02*
X124197142Y-66359761D01*
X124197142Y-66359761D02*
X124220952Y-66264523D01*
X124220952Y-66264523D02*
X124220952Y-66074047D01*
X124220952Y-66074047D02*
X124197142Y-66026428D01*
X124197142Y-66026428D02*
X124173333Y-66002619D01*
X124173333Y-66002619D02*
X124125714Y-65978809D01*
X124125714Y-65978809D02*
X124030476Y-65978809D01*
X124030476Y-65978809D02*
X123982857Y-66002619D01*
X123982857Y-66002619D02*
X123959047Y-66026428D01*
X123959047Y-66026428D02*
X123935238Y-66074047D01*
X123935238Y-66074047D02*
X123935238Y-66193095D01*
X123935238Y-66193095D02*
X123959047Y-66240714D01*
X123959047Y-66240714D02*
X123982857Y-66264523D01*
X123982857Y-66264523D02*
X124030476Y-66288333D01*
X124030476Y-66288333D02*
X124125714Y-66288333D01*
X124125714Y-66288333D02*
X124173333Y-66264523D01*
X124173333Y-66264523D02*
X124197142Y-66240714D01*
X124197142Y-66240714D02*
X124220952Y-66193095D01*
X141711428Y-66478809D02*
X141973333Y-66145476D01*
X141711428Y-66145476D02*
X141973333Y-66478809D01*
X135111428Y-117378809D02*
X135373333Y-117045476D01*
X135111428Y-117045476D02*
X135373333Y-117378809D01*
X102420952Y-66478809D02*
X102135238Y-66478809D01*
X102278095Y-66478809D02*
X102278095Y-65978809D01*
X102278095Y-65978809D02*
X102230476Y-66050238D01*
X102230476Y-66050238D02*
X102182857Y-66097857D01*
X102182857Y-66097857D02*
X102135238Y-66121666D01*
D11*
%TO.C,R9*%
X144009333Y-62630619D02*
X143676000Y-62154428D01*
X143437905Y-62630619D02*
X143437905Y-61630619D01*
X143437905Y-61630619D02*
X143818857Y-61630619D01*
X143818857Y-61630619D02*
X143914095Y-61678238D01*
X143914095Y-61678238D02*
X143961714Y-61725857D01*
X143961714Y-61725857D02*
X144009333Y-61821095D01*
X144009333Y-61821095D02*
X144009333Y-61963952D01*
X144009333Y-61963952D02*
X143961714Y-62059190D01*
X143961714Y-62059190D02*
X143914095Y-62106809D01*
X143914095Y-62106809D02*
X143818857Y-62154428D01*
X143818857Y-62154428D02*
X143437905Y-62154428D01*
X144485524Y-62630619D02*
X144676000Y-62630619D01*
X144676000Y-62630619D02*
X144771238Y-62583000D01*
X144771238Y-62583000D02*
X144818857Y-62535380D01*
X144818857Y-62535380D02*
X144914095Y-62392523D01*
X144914095Y-62392523D02*
X144961714Y-62202047D01*
X144961714Y-62202047D02*
X144961714Y-61821095D01*
X144961714Y-61821095D02*
X144914095Y-61725857D01*
X144914095Y-61725857D02*
X144866476Y-61678238D01*
X144866476Y-61678238D02*
X144771238Y-61630619D01*
X144771238Y-61630619D02*
X144580762Y-61630619D01*
X144580762Y-61630619D02*
X144485524Y-61678238D01*
X144485524Y-61678238D02*
X144437905Y-61725857D01*
X144437905Y-61725857D02*
X144390286Y-61821095D01*
X144390286Y-61821095D02*
X144390286Y-62059190D01*
X144390286Y-62059190D02*
X144437905Y-62154428D01*
X144437905Y-62154428D02*
X144485524Y-62202047D01*
X144485524Y-62202047D02*
X144580762Y-62249666D01*
X144580762Y-62249666D02*
X144771238Y-62249666D01*
X144771238Y-62249666D02*
X144866476Y-62202047D01*
X144866476Y-62202047D02*
X144914095Y-62154428D01*
X144914095Y-62154428D02*
X144961714Y-62059190D01*
%TO.C,R8*%
X134245333Y-70229619D02*
X133912000Y-69753428D01*
X133673905Y-70229619D02*
X133673905Y-69229619D01*
X133673905Y-69229619D02*
X134054857Y-69229619D01*
X134054857Y-69229619D02*
X134150095Y-69277238D01*
X134150095Y-69277238D02*
X134197714Y-69324857D01*
X134197714Y-69324857D02*
X134245333Y-69420095D01*
X134245333Y-69420095D02*
X134245333Y-69562952D01*
X134245333Y-69562952D02*
X134197714Y-69658190D01*
X134197714Y-69658190D02*
X134150095Y-69705809D01*
X134150095Y-69705809D02*
X134054857Y-69753428D01*
X134054857Y-69753428D02*
X133673905Y-69753428D01*
X134816762Y-69658190D02*
X134721524Y-69610571D01*
X134721524Y-69610571D02*
X134673905Y-69562952D01*
X134673905Y-69562952D02*
X134626286Y-69467714D01*
X134626286Y-69467714D02*
X134626286Y-69420095D01*
X134626286Y-69420095D02*
X134673905Y-69324857D01*
X134673905Y-69324857D02*
X134721524Y-69277238D01*
X134721524Y-69277238D02*
X134816762Y-69229619D01*
X134816762Y-69229619D02*
X135007238Y-69229619D01*
X135007238Y-69229619D02*
X135102476Y-69277238D01*
X135102476Y-69277238D02*
X135150095Y-69324857D01*
X135150095Y-69324857D02*
X135197714Y-69420095D01*
X135197714Y-69420095D02*
X135197714Y-69467714D01*
X135197714Y-69467714D02*
X135150095Y-69562952D01*
X135150095Y-69562952D02*
X135102476Y-69610571D01*
X135102476Y-69610571D02*
X135007238Y-69658190D01*
X135007238Y-69658190D02*
X134816762Y-69658190D01*
X134816762Y-69658190D02*
X134721524Y-69705809D01*
X134721524Y-69705809D02*
X134673905Y-69753428D01*
X134673905Y-69753428D02*
X134626286Y-69848666D01*
X134626286Y-69848666D02*
X134626286Y-70039142D01*
X134626286Y-70039142D02*
X134673905Y-70134380D01*
X134673905Y-70134380D02*
X134721524Y-70182000D01*
X134721524Y-70182000D02*
X134816762Y-70229619D01*
X134816762Y-70229619D02*
X135007238Y-70229619D01*
X135007238Y-70229619D02*
X135102476Y-70182000D01*
X135102476Y-70182000D02*
X135150095Y-70134380D01*
X135150095Y-70134380D02*
X135197714Y-70039142D01*
X135197714Y-70039142D02*
X135197714Y-69848666D01*
X135197714Y-69848666D02*
X135150095Y-69753428D01*
X135150095Y-69753428D02*
X135102476Y-69705809D01*
X135102476Y-69705809D02*
X135007238Y-69658190D01*
%TO.C,R2*%
X110204619Y-78954666D02*
X109728428Y-79287999D01*
X110204619Y-79526094D02*
X109204619Y-79526094D01*
X109204619Y-79526094D02*
X109204619Y-79145142D01*
X109204619Y-79145142D02*
X109252238Y-79049904D01*
X109252238Y-79049904D02*
X109299857Y-79002285D01*
X109299857Y-79002285D02*
X109395095Y-78954666D01*
X109395095Y-78954666D02*
X109537952Y-78954666D01*
X109537952Y-78954666D02*
X109633190Y-79002285D01*
X109633190Y-79002285D02*
X109680809Y-79049904D01*
X109680809Y-79049904D02*
X109728428Y-79145142D01*
X109728428Y-79145142D02*
X109728428Y-79526094D01*
X109299857Y-78573713D02*
X109252238Y-78526094D01*
X109252238Y-78526094D02*
X109204619Y-78430856D01*
X109204619Y-78430856D02*
X109204619Y-78192761D01*
X109204619Y-78192761D02*
X109252238Y-78097523D01*
X109252238Y-78097523D02*
X109299857Y-78049904D01*
X109299857Y-78049904D02*
X109395095Y-78002285D01*
X109395095Y-78002285D02*
X109490333Y-78002285D01*
X109490333Y-78002285D02*
X109633190Y-78049904D01*
X109633190Y-78049904D02*
X110204619Y-78621332D01*
X110204619Y-78621332D02*
X110204619Y-78002285D01*
%TO.C,J2*%
X130774619Y-129683333D02*
X131488904Y-129683333D01*
X131488904Y-129683333D02*
X131631761Y-129730952D01*
X131631761Y-129730952D02*
X131727000Y-129826190D01*
X131727000Y-129826190D02*
X131774619Y-129969047D01*
X131774619Y-129969047D02*
X131774619Y-130064285D01*
X130869857Y-129254761D02*
X130822238Y-129207142D01*
X130822238Y-129207142D02*
X130774619Y-129111904D01*
X130774619Y-129111904D02*
X130774619Y-128873809D01*
X130774619Y-128873809D02*
X130822238Y-128778571D01*
X130822238Y-128778571D02*
X130869857Y-128730952D01*
X130869857Y-128730952D02*
X130965095Y-128683333D01*
X130965095Y-128683333D02*
X131060333Y-128683333D01*
X131060333Y-128683333D02*
X131203190Y-128730952D01*
X131203190Y-128730952D02*
X131774619Y-129302380D01*
X131774619Y-129302380D02*
X131774619Y-128683333D01*
%TO.C,Q1*%
X167164761Y-88107857D02*
X167069523Y-88060238D01*
X167069523Y-88060238D02*
X166974285Y-87965000D01*
X166974285Y-87965000D02*
X166831428Y-87822142D01*
X166831428Y-87822142D02*
X166736190Y-87774523D01*
X166736190Y-87774523D02*
X166640952Y-87774523D01*
X166688571Y-88012619D02*
X166593333Y-87965000D01*
X166593333Y-87965000D02*
X166498095Y-87869761D01*
X166498095Y-87869761D02*
X166450476Y-87679285D01*
X166450476Y-87679285D02*
X166450476Y-87345952D01*
X166450476Y-87345952D02*
X166498095Y-87155476D01*
X166498095Y-87155476D02*
X166593333Y-87060238D01*
X166593333Y-87060238D02*
X166688571Y-87012619D01*
X166688571Y-87012619D02*
X166879047Y-87012619D01*
X166879047Y-87012619D02*
X166974285Y-87060238D01*
X166974285Y-87060238D02*
X167069523Y-87155476D01*
X167069523Y-87155476D02*
X167117142Y-87345952D01*
X167117142Y-87345952D02*
X167117142Y-87679285D01*
X167117142Y-87679285D02*
X167069523Y-87869761D01*
X167069523Y-87869761D02*
X166974285Y-87965000D01*
X166974285Y-87965000D02*
X166879047Y-88012619D01*
X166879047Y-88012619D02*
X166688571Y-88012619D01*
X168069523Y-88012619D02*
X167498095Y-88012619D01*
X167783809Y-88012619D02*
X167783809Y-87012619D01*
X167783809Y-87012619D02*
X167688571Y-87155476D01*
X167688571Y-87155476D02*
X167593333Y-87250714D01*
X167593333Y-87250714D02*
X167498095Y-87298333D01*
%TO.C,R3*%
X109719333Y-69996619D02*
X109386000Y-69520428D01*
X109147905Y-69996619D02*
X109147905Y-68996619D01*
X109147905Y-68996619D02*
X109528857Y-68996619D01*
X109528857Y-68996619D02*
X109624095Y-69044238D01*
X109624095Y-69044238D02*
X109671714Y-69091857D01*
X109671714Y-69091857D02*
X109719333Y-69187095D01*
X109719333Y-69187095D02*
X109719333Y-69329952D01*
X109719333Y-69329952D02*
X109671714Y-69425190D01*
X109671714Y-69425190D02*
X109624095Y-69472809D01*
X109624095Y-69472809D02*
X109528857Y-69520428D01*
X109528857Y-69520428D02*
X109147905Y-69520428D01*
X110052667Y-68996619D02*
X110671714Y-68996619D01*
X110671714Y-68996619D02*
X110338381Y-69377571D01*
X110338381Y-69377571D02*
X110481238Y-69377571D01*
X110481238Y-69377571D02*
X110576476Y-69425190D01*
X110576476Y-69425190D02*
X110624095Y-69472809D01*
X110624095Y-69472809D02*
X110671714Y-69568047D01*
X110671714Y-69568047D02*
X110671714Y-69806142D01*
X110671714Y-69806142D02*
X110624095Y-69901380D01*
X110624095Y-69901380D02*
X110576476Y-69949000D01*
X110576476Y-69949000D02*
X110481238Y-69996619D01*
X110481238Y-69996619D02*
X110195524Y-69996619D01*
X110195524Y-69996619D02*
X110100286Y-69949000D01*
X110100286Y-69949000D02*
X110052667Y-69901380D01*
%TO.C,J4*%
X122886667Y-139857526D02*
X122886667Y-140764669D01*
X122886667Y-140764669D02*
X122826190Y-140946097D01*
X122826190Y-140946097D02*
X122705238Y-141067050D01*
X122705238Y-141067050D02*
X122523809Y-141127526D01*
X122523809Y-141127526D02*
X122402857Y-141127526D01*
X124035714Y-140280859D02*
X124035714Y-141127526D01*
X123733333Y-139797050D02*
X123430952Y-140704192D01*
X123430952Y-140704192D02*
X124217143Y-140704192D01*
%TO.C,R1*%
X105632619Y-78954666D02*
X105156428Y-79287999D01*
X105632619Y-79526094D02*
X104632619Y-79526094D01*
X104632619Y-79526094D02*
X104632619Y-79145142D01*
X104632619Y-79145142D02*
X104680238Y-79049904D01*
X104680238Y-79049904D02*
X104727857Y-79002285D01*
X104727857Y-79002285D02*
X104823095Y-78954666D01*
X104823095Y-78954666D02*
X104965952Y-78954666D01*
X104965952Y-78954666D02*
X105061190Y-79002285D01*
X105061190Y-79002285D02*
X105108809Y-79049904D01*
X105108809Y-79049904D02*
X105156428Y-79145142D01*
X105156428Y-79145142D02*
X105156428Y-79526094D01*
X105632619Y-78002285D02*
X105632619Y-78573713D01*
X105632619Y-78287999D02*
X104632619Y-78287999D01*
X104632619Y-78287999D02*
X104775476Y-78383237D01*
X104775476Y-78383237D02*
X104870714Y-78478475D01*
X104870714Y-78478475D02*
X104918333Y-78573713D01*
%TO.C,F1*%
X135026666Y-132886809D02*
X134693333Y-132886809D01*
X134693333Y-133410619D02*
X134693333Y-132410619D01*
X134693333Y-132410619D02*
X135169523Y-132410619D01*
X136074285Y-133410619D02*
X135502857Y-133410619D01*
X135788571Y-133410619D02*
X135788571Y-132410619D01*
X135788571Y-132410619D02*
X135693333Y-132553476D01*
X135693333Y-132553476D02*
X135598095Y-132648714D01*
X135598095Y-132648714D02*
X135502857Y-132696333D01*
%TO.C,Q2*%
X90724761Y-95277857D02*
X90629523Y-95230238D01*
X90629523Y-95230238D02*
X90534285Y-95135000D01*
X90534285Y-95135000D02*
X90391428Y-94992142D01*
X90391428Y-94992142D02*
X90296190Y-94944523D01*
X90296190Y-94944523D02*
X90200952Y-94944523D01*
X90248571Y-95182619D02*
X90153333Y-95135000D01*
X90153333Y-95135000D02*
X90058095Y-95039761D01*
X90058095Y-95039761D02*
X90010476Y-94849285D01*
X90010476Y-94849285D02*
X90010476Y-94515952D01*
X90010476Y-94515952D02*
X90058095Y-94325476D01*
X90058095Y-94325476D02*
X90153333Y-94230238D01*
X90153333Y-94230238D02*
X90248571Y-94182619D01*
X90248571Y-94182619D02*
X90439047Y-94182619D01*
X90439047Y-94182619D02*
X90534285Y-94230238D01*
X90534285Y-94230238D02*
X90629523Y-94325476D01*
X90629523Y-94325476D02*
X90677142Y-94515952D01*
X90677142Y-94515952D02*
X90677142Y-94849285D01*
X90677142Y-94849285D02*
X90629523Y-95039761D01*
X90629523Y-95039761D02*
X90534285Y-95135000D01*
X90534285Y-95135000D02*
X90439047Y-95182619D01*
X90439047Y-95182619D02*
X90248571Y-95182619D01*
X91058095Y-94277857D02*
X91105714Y-94230238D01*
X91105714Y-94230238D02*
X91200952Y-94182619D01*
X91200952Y-94182619D02*
X91439047Y-94182619D01*
X91439047Y-94182619D02*
X91534285Y-94230238D01*
X91534285Y-94230238D02*
X91581904Y-94277857D01*
X91581904Y-94277857D02*
X91629523Y-94373095D01*
X91629523Y-94373095D02*
X91629523Y-94468333D01*
X91629523Y-94468333D02*
X91581904Y-94611190D01*
X91581904Y-94611190D02*
X91010476Y-95182619D01*
X91010476Y-95182619D02*
X91629523Y-95182619D01*
%TO.C,J5*%
X110186667Y-139857526D02*
X110186667Y-140764669D01*
X110186667Y-140764669D02*
X110126190Y-140946097D01*
X110126190Y-140946097D02*
X110005238Y-141067050D01*
X110005238Y-141067050D02*
X109823809Y-141127526D01*
X109823809Y-141127526D02*
X109702857Y-141127526D01*
X111396190Y-139857526D02*
X110791428Y-139857526D01*
X110791428Y-139857526D02*
X110730952Y-140462288D01*
X110730952Y-140462288D02*
X110791428Y-140401811D01*
X110791428Y-140401811D02*
X110912381Y-140341335D01*
X110912381Y-140341335D02*
X111214762Y-140341335D01*
X111214762Y-140341335D02*
X111335714Y-140401811D01*
X111335714Y-140401811D02*
X111396190Y-140462288D01*
X111396190Y-140462288D02*
X111456667Y-140583240D01*
X111456667Y-140583240D02*
X111456667Y-140885621D01*
X111456667Y-140885621D02*
X111396190Y-141006573D01*
X111396190Y-141006573D02*
X111335714Y-141067050D01*
X111335714Y-141067050D02*
X111214762Y-141127526D01*
X111214762Y-141127526D02*
X110912381Y-141127526D01*
X110912381Y-141127526D02*
X110791428Y-141067050D01*
X110791428Y-141067050D02*
X110730952Y-141006573D01*
%TO.C,R11*%
X93082619Y-117442857D02*
X92606428Y-117776190D01*
X93082619Y-118014285D02*
X92082619Y-118014285D01*
X92082619Y-118014285D02*
X92082619Y-117633333D01*
X92082619Y-117633333D02*
X92130238Y-117538095D01*
X92130238Y-117538095D02*
X92177857Y-117490476D01*
X92177857Y-117490476D02*
X92273095Y-117442857D01*
X92273095Y-117442857D02*
X92415952Y-117442857D01*
X92415952Y-117442857D02*
X92511190Y-117490476D01*
X92511190Y-117490476D02*
X92558809Y-117538095D01*
X92558809Y-117538095D02*
X92606428Y-117633333D01*
X92606428Y-117633333D02*
X92606428Y-118014285D01*
X93082619Y-116490476D02*
X93082619Y-117061904D01*
X93082619Y-116776190D02*
X92082619Y-116776190D01*
X92082619Y-116776190D02*
X92225476Y-116871428D01*
X92225476Y-116871428D02*
X92320714Y-116966666D01*
X92320714Y-116966666D02*
X92368333Y-117061904D01*
X93082619Y-115538095D02*
X93082619Y-116109523D01*
X93082619Y-115823809D02*
X92082619Y-115823809D01*
X92082619Y-115823809D02*
X92225476Y-115919047D01*
X92225476Y-115919047D02*
X92320714Y-116014285D01*
X92320714Y-116014285D02*
X92368333Y-116109523D01*
%TO.C,R7*%
X130778619Y-78732666D02*
X130302428Y-79065999D01*
X130778619Y-79304094D02*
X129778619Y-79304094D01*
X129778619Y-79304094D02*
X129778619Y-78923142D01*
X129778619Y-78923142D02*
X129826238Y-78827904D01*
X129826238Y-78827904D02*
X129873857Y-78780285D01*
X129873857Y-78780285D02*
X129969095Y-78732666D01*
X129969095Y-78732666D02*
X130111952Y-78732666D01*
X130111952Y-78732666D02*
X130207190Y-78780285D01*
X130207190Y-78780285D02*
X130254809Y-78827904D01*
X130254809Y-78827904D02*
X130302428Y-78923142D01*
X130302428Y-78923142D02*
X130302428Y-79304094D01*
X129778619Y-78399332D02*
X129778619Y-77732666D01*
X129778619Y-77732666D02*
X130778619Y-78161237D01*
%TO.C,J6*%
X97486667Y-139857526D02*
X97486667Y-140764669D01*
X97486667Y-140764669D02*
X97426190Y-140946097D01*
X97426190Y-140946097D02*
X97305238Y-141067050D01*
X97305238Y-141067050D02*
X97123809Y-141127526D01*
X97123809Y-141127526D02*
X97002857Y-141127526D01*
X98635714Y-139857526D02*
X98393809Y-139857526D01*
X98393809Y-139857526D02*
X98272857Y-139918002D01*
X98272857Y-139918002D02*
X98212381Y-139978478D01*
X98212381Y-139978478D02*
X98091428Y-140159907D01*
X98091428Y-140159907D02*
X98030952Y-140401811D01*
X98030952Y-140401811D02*
X98030952Y-140885621D01*
X98030952Y-140885621D02*
X98091428Y-141006573D01*
X98091428Y-141006573D02*
X98151905Y-141067050D01*
X98151905Y-141067050D02*
X98272857Y-141127526D01*
X98272857Y-141127526D02*
X98514762Y-141127526D01*
X98514762Y-141127526D02*
X98635714Y-141067050D01*
X98635714Y-141067050D02*
X98696190Y-141006573D01*
X98696190Y-141006573D02*
X98756667Y-140885621D01*
X98756667Y-140885621D02*
X98756667Y-140583240D01*
X98756667Y-140583240D02*
X98696190Y-140462288D01*
X98696190Y-140462288D02*
X98635714Y-140401811D01*
X98635714Y-140401811D02*
X98514762Y-140341335D01*
X98514762Y-140341335D02*
X98272857Y-140341335D01*
X98272857Y-140341335D02*
X98151905Y-140401811D01*
X98151905Y-140401811D02*
X98091428Y-140462288D01*
X98091428Y-140462288D02*
X98030952Y-140583240D01*
%TO.C,J3*%
X159818619Y-129683333D02*
X160532904Y-129683333D01*
X160532904Y-129683333D02*
X160675761Y-129730952D01*
X160675761Y-129730952D02*
X160771000Y-129826190D01*
X160771000Y-129826190D02*
X160818619Y-129969047D01*
X160818619Y-129969047D02*
X160818619Y-130064285D01*
X159818619Y-129302380D02*
X159818619Y-128683333D01*
X159818619Y-128683333D02*
X160199571Y-129016666D01*
X160199571Y-129016666D02*
X160199571Y-128873809D01*
X160199571Y-128873809D02*
X160247190Y-128778571D01*
X160247190Y-128778571D02*
X160294809Y-128730952D01*
X160294809Y-128730952D02*
X160390047Y-128683333D01*
X160390047Y-128683333D02*
X160628142Y-128683333D01*
X160628142Y-128683333D02*
X160723380Y-128730952D01*
X160723380Y-128730952D02*
X160771000Y-128778571D01*
X160771000Y-128778571D02*
X160818619Y-128873809D01*
X160818619Y-128873809D02*
X160818619Y-129159523D01*
X160818619Y-129159523D02*
X160771000Y-129254761D01*
X160771000Y-129254761D02*
X160723380Y-129302380D01*
%TO.C,J1*%
X89346666Y-117542619D02*
X89346666Y-118256904D01*
X89346666Y-118256904D02*
X89299047Y-118399761D01*
X89299047Y-118399761D02*
X89203809Y-118495000D01*
X89203809Y-118495000D02*
X89060952Y-118542619D01*
X89060952Y-118542619D02*
X88965714Y-118542619D01*
X90346666Y-118542619D02*
X89775238Y-118542619D01*
X90060952Y-118542619D02*
X90060952Y-117542619D01*
X90060952Y-117542619D02*
X89965714Y-117685476D01*
X89965714Y-117685476D02*
X89870476Y-117780714D01*
X89870476Y-117780714D02*
X89775238Y-117828333D01*
%TO.C,A1*%
X133285714Y-119874904D02*
X133761904Y-119874904D01*
X133190476Y-120160619D02*
X133523809Y-119160619D01*
X133523809Y-119160619D02*
X133857142Y-120160619D01*
X134714285Y-120160619D02*
X134142857Y-120160619D01*
X134428571Y-120160619D02*
X134428571Y-119160619D01*
X134428571Y-119160619D02*
X134333333Y-119303476D01*
X134333333Y-119303476D02*
X134238095Y-119398714D01*
X134238095Y-119398714D02*
X134142857Y-119446333D01*
%TO.C,R6*%
X135604619Y-78700666D02*
X135128428Y-79033999D01*
X135604619Y-79272094D02*
X134604619Y-79272094D01*
X134604619Y-79272094D02*
X134604619Y-78891142D01*
X134604619Y-78891142D02*
X134652238Y-78795904D01*
X134652238Y-78795904D02*
X134699857Y-78748285D01*
X134699857Y-78748285D02*
X134795095Y-78700666D01*
X134795095Y-78700666D02*
X134937952Y-78700666D01*
X134937952Y-78700666D02*
X135033190Y-78748285D01*
X135033190Y-78748285D02*
X135080809Y-78795904D01*
X135080809Y-78795904D02*
X135128428Y-78891142D01*
X135128428Y-78891142D02*
X135128428Y-79272094D01*
X134604619Y-77843523D02*
X134604619Y-78033999D01*
X134604619Y-78033999D02*
X134652238Y-78129237D01*
X134652238Y-78129237D02*
X134699857Y-78176856D01*
X134699857Y-78176856D02*
X134842714Y-78272094D01*
X134842714Y-78272094D02*
X135033190Y-78319713D01*
X135033190Y-78319713D02*
X135414142Y-78319713D01*
X135414142Y-78319713D02*
X135509380Y-78272094D01*
X135509380Y-78272094D02*
X135557000Y-78224475D01*
X135557000Y-78224475D02*
X135604619Y-78129237D01*
X135604619Y-78129237D02*
X135604619Y-77938761D01*
X135604619Y-77938761D02*
X135557000Y-77843523D01*
X135557000Y-77843523D02*
X135509380Y-77795904D01*
X135509380Y-77795904D02*
X135414142Y-77748285D01*
X135414142Y-77748285D02*
X135176047Y-77748285D01*
X135176047Y-77748285D02*
X135080809Y-77795904D01*
X135080809Y-77795904D02*
X135033190Y-77843523D01*
X135033190Y-77843523D02*
X134985571Y-77938761D01*
X134985571Y-77938761D02*
X134985571Y-78129237D01*
X134985571Y-78129237D02*
X135033190Y-78224475D01*
X135033190Y-78224475D02*
X135080809Y-78272094D01*
X135080809Y-78272094D02*
X135176047Y-78319713D01*
%TO.C,R5*%
X139183333Y-70250619D02*
X138850000Y-69774428D01*
X138611905Y-70250619D02*
X138611905Y-69250619D01*
X138611905Y-69250619D02*
X138992857Y-69250619D01*
X138992857Y-69250619D02*
X139088095Y-69298238D01*
X139088095Y-69298238D02*
X139135714Y-69345857D01*
X139135714Y-69345857D02*
X139183333Y-69441095D01*
X139183333Y-69441095D02*
X139183333Y-69583952D01*
X139183333Y-69583952D02*
X139135714Y-69679190D01*
X139135714Y-69679190D02*
X139088095Y-69726809D01*
X139088095Y-69726809D02*
X138992857Y-69774428D01*
X138992857Y-69774428D02*
X138611905Y-69774428D01*
X140088095Y-69250619D02*
X139611905Y-69250619D01*
X139611905Y-69250619D02*
X139564286Y-69726809D01*
X139564286Y-69726809D02*
X139611905Y-69679190D01*
X139611905Y-69679190D02*
X139707143Y-69631571D01*
X139707143Y-69631571D02*
X139945238Y-69631571D01*
X139945238Y-69631571D02*
X140040476Y-69679190D01*
X140040476Y-69679190D02*
X140088095Y-69726809D01*
X140088095Y-69726809D02*
X140135714Y-69822047D01*
X140135714Y-69822047D02*
X140135714Y-70060142D01*
X140135714Y-70060142D02*
X140088095Y-70155380D01*
X140088095Y-70155380D02*
X140040476Y-70203000D01*
X140040476Y-70203000D02*
X139945238Y-70250619D01*
X139945238Y-70250619D02*
X139707143Y-70250619D01*
X139707143Y-70250619D02*
X139611905Y-70203000D01*
X139611905Y-70203000D02*
X139564286Y-70155380D01*
%TO.C,D1*%
X138491905Y-125932619D02*
X138491905Y-124932619D01*
X138491905Y-124932619D02*
X138730000Y-124932619D01*
X138730000Y-124932619D02*
X138872857Y-124980238D01*
X138872857Y-124980238D02*
X138968095Y-125075476D01*
X138968095Y-125075476D02*
X139015714Y-125170714D01*
X139015714Y-125170714D02*
X139063333Y-125361190D01*
X139063333Y-125361190D02*
X139063333Y-125504047D01*
X139063333Y-125504047D02*
X139015714Y-125694523D01*
X139015714Y-125694523D02*
X138968095Y-125789761D01*
X138968095Y-125789761D02*
X138872857Y-125885000D01*
X138872857Y-125885000D02*
X138730000Y-125932619D01*
X138730000Y-125932619D02*
X138491905Y-125932619D01*
X140015714Y-125932619D02*
X139444286Y-125932619D01*
X139730000Y-125932619D02*
X139730000Y-124932619D01*
X139730000Y-124932619D02*
X139634762Y-125075476D01*
X139634762Y-125075476D02*
X139539524Y-125170714D01*
X139539524Y-125170714D02*
X139444286Y-125218333D01*
X142778095Y-125562619D02*
X142778095Y-124562619D01*
X143349523Y-125562619D02*
X142920952Y-124991190D01*
X143349523Y-124562619D02*
X142778095Y-125134047D01*
%TO.C,R4*%
X114545333Y-69996619D02*
X114212000Y-69520428D01*
X113973905Y-69996619D02*
X113973905Y-68996619D01*
X113973905Y-68996619D02*
X114354857Y-68996619D01*
X114354857Y-68996619D02*
X114450095Y-69044238D01*
X114450095Y-69044238D02*
X114497714Y-69091857D01*
X114497714Y-69091857D02*
X114545333Y-69187095D01*
X114545333Y-69187095D02*
X114545333Y-69329952D01*
X114545333Y-69329952D02*
X114497714Y-69425190D01*
X114497714Y-69425190D02*
X114450095Y-69472809D01*
X114450095Y-69472809D02*
X114354857Y-69520428D01*
X114354857Y-69520428D02*
X113973905Y-69520428D01*
X115402476Y-69329952D02*
X115402476Y-69996619D01*
X115164381Y-68949000D02*
X114926286Y-69663285D01*
X114926286Y-69663285D02*
X115545333Y-69663285D01*
%TO.C,R10*%
X104769142Y-62209619D02*
X104435809Y-61733428D01*
X104197714Y-62209619D02*
X104197714Y-61209619D01*
X104197714Y-61209619D02*
X104578666Y-61209619D01*
X104578666Y-61209619D02*
X104673904Y-61257238D01*
X104673904Y-61257238D02*
X104721523Y-61304857D01*
X104721523Y-61304857D02*
X104769142Y-61400095D01*
X104769142Y-61400095D02*
X104769142Y-61542952D01*
X104769142Y-61542952D02*
X104721523Y-61638190D01*
X104721523Y-61638190D02*
X104673904Y-61685809D01*
X104673904Y-61685809D02*
X104578666Y-61733428D01*
X104578666Y-61733428D02*
X104197714Y-61733428D01*
X105721523Y-62209619D02*
X105150095Y-62209619D01*
X105435809Y-62209619D02*
X105435809Y-61209619D01*
X105435809Y-61209619D02*
X105340571Y-61352476D01*
X105340571Y-61352476D02*
X105245333Y-61447714D01*
X105245333Y-61447714D02*
X105150095Y-61495333D01*
X106340571Y-61209619D02*
X106435809Y-61209619D01*
X106435809Y-61209619D02*
X106531047Y-61257238D01*
X106531047Y-61257238D02*
X106578666Y-61304857D01*
X106578666Y-61304857D02*
X106626285Y-61400095D01*
X106626285Y-61400095D02*
X106673904Y-61590571D01*
X106673904Y-61590571D02*
X106673904Y-61828666D01*
X106673904Y-61828666D02*
X106626285Y-62019142D01*
X106626285Y-62019142D02*
X106578666Y-62114380D01*
X106578666Y-62114380D02*
X106531047Y-62162000D01*
X106531047Y-62162000D02*
X106435809Y-62209619D01*
X106435809Y-62209619D02*
X106340571Y-62209619D01*
X106340571Y-62209619D02*
X106245333Y-62162000D01*
X106245333Y-62162000D02*
X106197714Y-62114380D01*
X106197714Y-62114380D02*
X106150095Y-62019142D01*
X106150095Y-62019142D02*
X106102476Y-61828666D01*
X106102476Y-61828666D02*
X106102476Y-61590571D01*
X106102476Y-61590571D02*
X106150095Y-61400095D01*
X106150095Y-61400095D02*
X106197714Y-61304857D01*
X106197714Y-61304857D02*
X106245333Y-61257238D01*
X106245333Y-61257238D02*
X106340571Y-61209619D01*
D12*
%TO.C,R9*%
X143948936Y-63083000D02*
X144403064Y-63083000D01*
X143948936Y-64553000D02*
X144403064Y-64553000D01*
%TO.C,R8*%
X134184936Y-70682000D02*
X134639064Y-70682000D01*
X134184936Y-72152000D02*
X134639064Y-72152000D01*
%TO.C,R2*%
X108827000Y-78560936D02*
X108827000Y-79015064D01*
X107357000Y-78560936D02*
X107357000Y-79015064D01*
%TO.C,J2*%
X132312000Y-130680000D02*
X132312000Y-129350000D01*
X133642000Y-130680000D02*
X132312000Y-130680000D01*
X134912000Y-130680000D02*
X140052000Y-130680000D01*
X134912000Y-130680000D02*
X134912000Y-128020000D01*
X140052000Y-130680000D02*
X140052000Y-128020000D01*
X134912000Y-128020000D02*
X140052000Y-128020000D01*
%TO.C,Q1*%
X165460000Y-92960000D02*
X169060000Y-92960000D01*
X167260000Y-88510000D02*
G75*
G03*
X165421522Y-92948478I0J-2600000D01*
G01*
X169098478Y-92948478D02*
G75*
G03*
X167260000Y-88510000I-1838478J1838478D01*
G01*
%TO.C,R3*%
X109658936Y-70449000D02*
X110113064Y-70449000D01*
X109658936Y-71919000D02*
X110113064Y-71919000D01*
%TO.C,J4*%
X118810000Y-139540000D02*
X127810000Y-139540000D01*
X127810000Y-139540000D02*
X127810000Y-131540000D01*
X127810000Y-131540000D02*
X118810000Y-131540000D01*
X118810000Y-131540000D02*
X118810000Y-139540000D01*
X120810000Y-139540000D02*
X122310000Y-139540000D01*
X122310000Y-139540000D02*
X122310000Y-138690000D01*
X122310000Y-138690000D02*
X120810000Y-138690000D01*
X120810000Y-138690000D02*
X120810000Y-139540000D01*
X124310000Y-139540000D02*
X125810000Y-139540000D01*
X125810000Y-139540000D02*
X125810000Y-138690000D01*
X125810000Y-138690000D02*
X124310000Y-138690000D01*
X124310000Y-138690000D02*
X124310000Y-139540000D01*
%TO.C,R1*%
X104255000Y-78560936D02*
X104255000Y-79015064D01*
X102785000Y-78560936D02*
X102785000Y-79015064D01*
%TO.C,F1*%
X133952872Y-134116400D02*
X136757000Y-134116400D01*
X133957936Y-138372000D02*
X136762064Y-138372000D01*
%TO.C,Q2*%
X92620000Y-89310000D02*
X89020000Y-89310000D01*
X90820000Y-93760000D02*
G75*
G03*
X92658478Y-89321522I0J2600000D01*
G01*
X88981522Y-89321522D02*
G75*
G03*
X90820000Y-93760000I1838478J-1838478D01*
G01*
%TO.C,J5*%
X106110000Y-139540000D02*
X115110000Y-139540000D01*
X115110000Y-139540000D02*
X115110000Y-131540000D01*
X115110000Y-131540000D02*
X106110000Y-131540000D01*
X106110000Y-131540000D02*
X106110000Y-139540000D01*
X108110000Y-139540000D02*
X109610000Y-139540000D01*
X109610000Y-139540000D02*
X109610000Y-138690000D01*
X109610000Y-138690000D02*
X108110000Y-138690000D01*
X108110000Y-138690000D02*
X108110000Y-139540000D01*
X111610000Y-139540000D02*
X113110000Y-139540000D01*
X113110000Y-139540000D02*
X113110000Y-138690000D01*
X113110000Y-138690000D02*
X111610000Y-138690000D01*
X111610000Y-138690000D02*
X111610000Y-139540000D01*
%TO.C,R11*%
X93535000Y-117027064D02*
X93535000Y-116572936D01*
X95005000Y-117027064D02*
X95005000Y-116572936D01*
%TO.C,R7*%
X129401000Y-78338936D02*
X129401000Y-78793064D01*
X127931000Y-78338936D02*
X127931000Y-78793064D01*
%TO.C,J6*%
X93410000Y-139540000D02*
X102410000Y-139540000D01*
X102410000Y-139540000D02*
X102410000Y-131540000D01*
X102410000Y-131540000D02*
X93410000Y-131540000D01*
X93410000Y-131540000D02*
X93410000Y-139540000D01*
X95410000Y-139540000D02*
X96910000Y-139540000D01*
X96910000Y-139540000D02*
X96910000Y-138690000D01*
X96910000Y-138690000D02*
X95410000Y-138690000D01*
X95410000Y-138690000D02*
X95410000Y-139540000D01*
X98910000Y-139540000D02*
X100410000Y-139540000D01*
X100410000Y-139540000D02*
X100410000Y-138690000D01*
X100410000Y-138690000D02*
X98910000Y-138690000D01*
X98910000Y-138690000D02*
X98910000Y-139540000D01*
%TO.C,J3*%
X159356000Y-128020000D02*
X159356000Y-129350000D01*
X158026000Y-128020000D02*
X159356000Y-128020000D01*
X156756000Y-128020000D02*
X146536000Y-128020000D01*
X156756000Y-128020000D02*
X156756000Y-130680000D01*
X146536000Y-128020000D02*
X146536000Y-130680000D01*
X156756000Y-130680000D02*
X146536000Y-130680000D01*
%TO.C,J1*%
X91010000Y-117080000D02*
X89680000Y-117080000D01*
X91010000Y-115750000D02*
X91010000Y-117080000D01*
X91010000Y-114480000D02*
X91010000Y-111880000D01*
X91010000Y-114480000D02*
X88350000Y-114480000D01*
X91010000Y-111880000D02*
X88350000Y-111880000D01*
X88350000Y-114480000D02*
X88350000Y-111880000D01*
%TO.C,A1*%
X169690000Y-86168000D02*
X169690000Y-74488000D01*
X169690000Y-74488000D02*
X163340000Y-74488000D01*
X165240000Y-115378000D02*
X165240000Y-106238000D01*
X165240000Y-106238000D02*
X163340000Y-106238000D01*
X163340000Y-118558000D02*
X163340000Y-115378000D01*
X163340000Y-115378000D02*
X165240000Y-115378000D01*
X163340000Y-106238000D02*
X163340000Y-86168000D01*
X163340000Y-86168000D02*
X169690000Y-86168000D01*
X163340000Y-74488000D02*
X163340000Y-64958000D01*
X163340000Y-64958000D02*
X98690000Y-64958000D01*
X98690000Y-64958000D02*
X97040000Y-66608000D01*
X97040000Y-118558000D02*
X163340000Y-118558000D01*
X97040000Y-115888000D02*
X97040000Y-118558000D01*
X97040000Y-78038000D02*
X94500000Y-80578000D01*
X97040000Y-66608000D02*
X97040000Y-78038000D01*
X94500000Y-113348000D02*
X97040000Y-115888000D01*
X94500000Y-80578000D02*
X94500000Y-113348000D01*
%TO.C,R6*%
X134227000Y-78306936D02*
X134227000Y-78761064D01*
X132757000Y-78306936D02*
X132757000Y-78761064D01*
%TO.C,R5*%
X139122936Y-70703000D02*
X139577064Y-70703000D01*
X139122936Y-72173000D02*
X139577064Y-72173000D01*
%TO.C,D1*%
X141950000Y-124470000D02*
X136510000Y-124470000D01*
X141950000Y-124340000D02*
X141950000Y-124470000D01*
X141950000Y-121660000D02*
X141950000Y-121530000D01*
X141950000Y-121530000D02*
X136510000Y-121530000D01*
X141170000Y-124470000D02*
X141170000Y-121530000D01*
X141050000Y-124470000D02*
X141050000Y-121530000D01*
X140930000Y-124470000D02*
X140930000Y-121530000D01*
X136510000Y-124470000D02*
X136510000Y-124340000D01*
X136510000Y-121530000D02*
X136510000Y-121660000D01*
%TO.C,R4*%
X114484936Y-70449000D02*
X114939064Y-70449000D01*
X114484936Y-71919000D02*
X114939064Y-71919000D01*
%TO.C,R10*%
X105679064Y-64152000D02*
X105224936Y-64152000D01*
X105679064Y-62682000D02*
X105224936Y-62682000D01*
%TD*%
M02*
