%TF.GenerationSoftware,KiCad,Pcbnew,7.0.2*%
%TF.CreationDate,2023-04-27T19:49:05+02:00*%
%TF.ProjectId,CherrycountPCB,43686572-7279-4636-9f75-6e745043422e,rev?*%
%TF.SameCoordinates,Original*%
%TF.FileFunction,Soldermask,Top*%
%TF.FilePolarity,Negative*%
%FSLAX46Y46*%
G04 Gerber Fmt 4.6, Leading zero omitted, Abs format (unit mm)*
G04 Created by KiCad (PCBNEW 7.0.2) date 2023-04-27 19:49:05*
%MOMM*%
%LPD*%
G01*
G04 APERTURE LIST*
G04 Aperture macros list*
%AMRoundRect*
0 Rectangle with rounded corners*
0 $1 Rounding radius*
0 $2 $3 $4 $5 $6 $7 $8 $9 X,Y pos of 4 corners*
0 Add a 4 corners polygon primitive as box body*
4,1,4,$2,$3,$4,$5,$6,$7,$8,$9,$2,$3,0*
0 Add four circle primitives for the rounded corners*
1,1,$1+$1,$2,$3*
1,1,$1+$1,$4,$5*
1,1,$1+$1,$6,$7*
1,1,$1+$1,$8,$9*
0 Add four rect primitives between the rounded corners*
20,1,$1+$1,$2,$3,$4,$5,0*
20,1,$1+$1,$4,$5,$6,$7,0*
20,1,$1+$1,$6,$7,$8,$9,0*
20,1,$1+$1,$8,$9,$2,$3,0*%
G04 Aperture macros list end*
%ADD10C,3.200000*%
%ADD11RoundRect,0.250000X-0.350000X-0.450000X0.350000X-0.450000X0.350000X0.450000X-0.350000X0.450000X0*%
%ADD12RoundRect,0.250000X-0.450000X0.350000X-0.450000X-0.350000X0.450000X-0.350000X0.450000X0.350000X0*%
%ADD13R,1.700000X1.700000*%
%ADD14O,1.700000X1.700000*%
%ADD15R,1.050000X1.500000*%
%ADD16O,1.050000X1.500000*%
%ADD17C,2.743200*%
%ADD18RoundRect,0.249750X-0.425250X-1.750250X0.425250X-1.750250X0.425250X1.750250X-0.425250X1.750250X0*%
%ADD19RoundRect,0.250000X0.450000X-0.350000X0.450000X0.350000X-0.450000X0.350000X-0.450000X-0.350000X0*%
%ADD20R,1.600000X1.600000*%
%ADD21O,1.600000X1.600000*%
%ADD22R,2.200000X2.200000*%
%ADD23O,2.200000X2.200000*%
%ADD24RoundRect,0.250000X0.350000X0.450000X-0.350000X0.450000X-0.350000X-0.450000X0.350000X-0.450000X0*%
%ADD25C,1.524000*%
G04 APERTURE END LIST*
D10*
%TO.C,REF\u002A\u002A*%
X89300000Y-57700000D03*
%TD*%
%TO.C,REF\u002A\u002A*%
X89300000Y-135000000D03*
%TD*%
%TO.C,REF\u002A\u002A*%
X171100000Y-134000000D03*
%TD*%
%TO.C,REF\u002A\u002A*%
X171200000Y-57800000D03*
%TD*%
D11*
%TO.C,R9*%
X143176000Y-63818000D03*
X145176000Y-63818000D03*
%TD*%
%TO.C,R8*%
X133412000Y-71417000D03*
X135412000Y-71417000D03*
%TD*%
D12*
%TO.C,R2*%
X108092000Y-77788000D03*
X108092000Y-79788000D03*
%TD*%
D13*
%TO.C,J2*%
X133642000Y-129350000D03*
D14*
X136182000Y-129350000D03*
X138722000Y-129350000D03*
%TD*%
D15*
%TO.C,Q1*%
X165990000Y-91110000D03*
D16*
X167260000Y-91110000D03*
X168530000Y-91110000D03*
%TD*%
D11*
%TO.C,R3*%
X108886000Y-71184000D03*
X110886000Y-71184000D03*
%TD*%
D17*
%TO.C,J4*%
X121560000Y-135560000D03*
X125060000Y-135560000D03*
%TD*%
D12*
%TO.C,R1*%
X103520000Y-77788000D03*
X103520000Y-79788000D03*
%TD*%
D18*
%TO.C,F1*%
X133110000Y-136250000D03*
X137610000Y-136250000D03*
%TD*%
D15*
%TO.C,Q2*%
X92090000Y-91160000D03*
D16*
X90820000Y-91160000D03*
X89550000Y-91160000D03*
%TD*%
D17*
%TO.C,J5*%
X108860000Y-135560000D03*
X112360000Y-135560000D03*
%TD*%
D19*
%TO.C,R11*%
X94270000Y-117800000D03*
X94270000Y-115800000D03*
%TD*%
D12*
%TO.C,R7*%
X128666000Y-77566000D03*
X128666000Y-79566000D03*
%TD*%
D17*
%TO.C,J6*%
X96160000Y-135560000D03*
X99660000Y-135560000D03*
%TD*%
D13*
%TO.C,J3*%
X158026000Y-129350000D03*
D14*
X155486000Y-129350000D03*
X152946000Y-129350000D03*
X150406000Y-129350000D03*
X147866000Y-129350000D03*
%TD*%
D13*
%TO.C,J1*%
X89680000Y-115750000D03*
D14*
X89680000Y-113210000D03*
%TD*%
D20*
%TO.C,A1*%
X135270000Y-115888000D03*
D21*
X132730000Y-115888000D03*
X130190000Y-115888000D03*
X127650000Y-115888000D03*
X125110000Y-115888000D03*
X122570000Y-115888000D03*
X120030000Y-115888000D03*
X117490000Y-115888000D03*
X112410000Y-115888000D03*
X109870000Y-115888000D03*
X107330000Y-115888000D03*
X104790000Y-115888000D03*
X102250000Y-115888000D03*
X99710000Y-115888000D03*
X99710000Y-67628000D03*
X102250000Y-67628000D03*
X104790000Y-67628000D03*
X107330000Y-67628000D03*
X109870000Y-67628000D03*
X112410000Y-67628000D03*
X114950000Y-67628000D03*
X117490000Y-67628000D03*
X121550000Y-67628000D03*
X124090000Y-67628000D03*
X126630000Y-67628000D03*
X129170000Y-67628000D03*
X131710000Y-67628000D03*
X134250000Y-67628000D03*
X136790000Y-67628000D03*
X139330000Y-67628000D03*
X141870000Y-67628000D03*
X144410000Y-67628000D03*
%TD*%
D12*
%TO.C,R6*%
X133492000Y-77534000D03*
X133492000Y-79534000D03*
%TD*%
D11*
%TO.C,R5*%
X138350000Y-71438000D03*
X140350000Y-71438000D03*
%TD*%
D22*
%TO.C,D1*%
X143040000Y-123000000D03*
D23*
X135420000Y-123000000D03*
%TD*%
D11*
%TO.C,R4*%
X113712000Y-71184000D03*
X115712000Y-71184000D03*
%TD*%
D24*
%TO.C,R10*%
X106452000Y-63417000D03*
X104452000Y-63417000D03*
%TD*%
D25*
%TO.C,AFF1*%
X143600000Y-75337000D03*
X141060000Y-75337000D03*
X138520000Y-75337000D03*
X135980000Y-75337000D03*
X133440000Y-75337000D03*
X143600000Y-106337000D03*
X141060000Y-106337000D03*
X138520000Y-106337000D03*
X135980000Y-106337000D03*
X133440000Y-106337000D03*
%TD*%
%TO.C,AFF2*%
X119437000Y-75337000D03*
X116897000Y-75337000D03*
X114357000Y-75337000D03*
X111817000Y-75337000D03*
X109277000Y-75337000D03*
X119437000Y-106337000D03*
X116897000Y-106337000D03*
X114357000Y-106337000D03*
X111817000Y-106337000D03*
X109277000Y-106337000D03*
%TD*%
M02*
